<svg id="Grupo_1117905" data-name="Grupo 1117905" xmlns="http://www.w3.org/2000/svg" width="83.989" height="83.989" viewBox="0 0 83.989 83.989">
  <path id="Trazado_901598" data-name="Trazado 901598" d="M137.661,118.947l-9.109-3.7a35.2,35.2,0,0,1,3.482-7.837L130.607,106l-5.273,5.046L118.3,109.3l-2.043,7.006-6.963,2,1.733,7.089L106,130.607l5.046,5.273-1.749,7.03,7.006,2.043,2,6.963.25.036a25.479,25.479,0,0,0,5-9.685l9.109,3.7a35.2,35.2,0,0,1-3.432,7.753l1.377,1.492,5.273-5.046,7.03,1.749,2.043-7.006,6.963-2-1.733-7.089,5.03-5.214-5.046-5.273,1.749-7.03-7.006-2.043-2-6.963-.313.041A25.479,25.479,0,0,0,137.661,118.947Z" transform="translate(-88.612 -88.612)" fill="#a6f5f0" fill-rule="evenodd"/>
  <g id="Grupo_1117904" data-name="Grupo 1117904" transform="translate(0 0)">
    <path id="Trazado_901599" data-name="Trazado 901599" d="M47.263,276.774a1.64,1.64,0,0,0-2.268.49l-3.578,5.551-2.46-1,1.071-6.822a1.64,1.64,0,0,0-3.241-.509l-.952,6.063-.278-.113a1.64,1.64,0,0,0-2.2,1.1,23.66,23.66,0,0,1-8.515,12.757,23.7,23.7,0,0,1-14.548,4.931H1.64a1.64,1.64,0,1,0,0,3.281h8.653a27.118,27.118,0,0,0,25.691-18.349l6.028,2.449a33.7,33.7,0,0,1-31.719,22.409H1.64a1.64,1.64,0,1,0,0,3.281h8.653a37.116,37.116,0,0,0,22.473-7.636,36.738,36.738,0,0,0,12.852-18.518,1.641,1.641,0,0,0-.951-2l-.156-.063,3.242-5.031A1.641,1.641,0,0,0,47.263,276.774Z" transform="translate(0 -228.299)" fill="#020288"/>
    <path id="Trazado_901600" data-name="Trazado 901600" d="M265.673,9.79H257.02a27.118,27.118,0,0,0-25.691,18.349L225.3,25.69A33.7,33.7,0,0,1,257.02,3.281h8.653a1.64,1.64,0,0,0,0-3.281H257.02a37.116,37.116,0,0,0-22.473,7.636A36.739,36.739,0,0,0,221.7,26.154a1.641,1.641,0,0,0,.951,2l.156.063-3.242,5.03a1.64,1.64,0,1,0,2.758,1.777l3.577-5.551,2.46,1L227.285,37.3a1.64,1.64,0,1,0,3.241.509l.952-6.063.278.113a1.64,1.64,0,0,0,2.2-1.1A23.843,23.843,0,0,1,257.02,13.071h8.653a1.64,1.64,0,0,0,0-3.281Z" transform="translate(-183.324 0)" fill="#020288"/>
    <path id="Trazado_901601" data-name="Trazado 901601" d="M132.411,51.338a1.64,1.64,0,1,0,2.841-1.64l-2.171-3.76a1.64,1.64,0,0,0-2.841,1.64Z" transform="translate(-108.692 -37.716)" fill="#020288"/>
    <path id="Trazado_901602" data-name="Trazado 901602" d="M351.806,424.781a1.64,1.64,0,1,0-2.841,1.64l2.171,3.76a1.64,1.64,0,0,0,2.841-1.64Z" transform="translate(-291.536 -354.413)" fill="#020288"/>
    <path id="Trazado_901603" data-name="Trazado 901603" d="M45.939,133.082l3.76,2.171a1.64,1.64,0,1,0,1.64-2.841l-3.76-2.171a1.64,1.64,0,1,0-1.64,2.841Z" transform="translate(-37.717 -108.693)" fill="#020288"/>
    <path id="Trazado_901604" data-name="Trazado 901604" d="M430.181,351.137l-3.76-2.171a1.64,1.64,0,1,0-1.64,2.841l3.76,2.171a1.64,1.64,0,1,0,1.64-2.841Z" transform="translate(-354.413 -291.537)" fill="#020288"/>
    <path id="Trazado_901605" data-name="Trazado 901605" d="M15.683,249.281h4.342a1.64,1.64,0,1,0,0-3.281H15.683a1.64,1.64,0,1,0,0,3.281Z" transform="translate(-11.739 -205.646)" fill="#020288"/>
    <path id="Trazado_901606" data-name="Trazado 901606" d="M457.475,246h-4.341a1.64,1.64,0,1,0,0,3.281h4.341a1.64,1.64,0,1,0,0-3.281Z" transform="translate(-377.43 -205.647)" fill="#020288"/>
  </g>
</svg>
