<svg xmlns="http://www.w3.org/2000/svg" width="295" height="71" viewBox="0 0 295 71">
  <g id="Grupo_1117962" data-name="Grupo 1117962" transform="translate(-790.051 -3129.84)">
    <path id="Trazado_901623" data-name="Trazado 901623" d="M14,0H281a14,14,0,0,1,14,14V57a14,14,0,0,1-14,14H14A14,14,0,0,1,0,57V14A14,14,0,0,1,14,0Z" transform="translate(790.051 3129.84)" fill="#fff"/>
    <path id="Trazado_901624" data-name="Trazado 901624" d="M-85.707-3.524l1.5-5.985h3.12L-84.186,0h-3.023l-3.1-9.51h3.129Zm5.73-1.679a13.431,13.431,0,0,1,.571-3.99,9.629,9.629,0,0,1,1.578-3.129,5.6,5.6,0,0,1,2.237-1.793l.563,1.459a5.73,5.73,0,0,0-1.9,2.826,13.782,13.782,0,0,0-.681,4.5v.387a14.051,14.051,0,0,0,.672,4.588A5.706,5.706,0,0,0-75.028,2.5l-.562,1.459a5.547,5.547,0,0,1-2.237-1.8A9.484,9.484,0,0,1-79.4-.958a13.5,13.5,0,0,1-.571-3.85Zm9.58-6.671V-9.51h1.564v2.057H-70.4V-3.1a1.111,1.111,0,0,0,.193.747,1.037,1.037,0,0,0,.765.211A4.345,4.345,0,0,0-68.7-2.2V-.079a5.466,5.466,0,0,1-1.67.255,3.1,3.1,0,0,1-2.259-.721,2.954,2.954,0,0,1-.729-2.188v-4.72h-1.213V-9.51h1.213v-2.364ZM-63-4.957a12.532,12.532,0,0,1-.606,3.92,10.008,10.008,0,0,1-1.674,3.186,5.574,5.574,0,0,1-2.307,1.806L-68.146,2.5a5.787,5.787,0,0,0,1.89-2.812,13.577,13.577,0,0,0,.694-4.368v-.536a14.051,14.051,0,0,0-.672-4.588,5.706,5.706,0,0,0-1.912-2.848l.563-1.459a5.676,5.676,0,0,1,2.29,1.789,9.885,9.885,0,0,1,1.67,3.138A12.426,12.426,0,0,1-63-5.344Zm10.1-1.389h-8.139V-8.631H-52.9Zm0,3.858h-8.139V-4.772H-52.9Zm7-2.039h-1.67V0h-3.085V-12.8h5.036a5.621,5.621,0,0,1,3.56,1.01,3.421,3.421,0,0,1,1.283,2.853,4.155,4.155,0,0,1-.541,2.213A3.837,3.837,0,0,1-43.009-5.3l2.672,5.167V0h-3.3ZM-47.571-6.9h1.951A1.751,1.751,0,0,0-44.3-7.362a1.788,1.788,0,0,0,.444-1.291,1.809,1.809,0,0,0-.448-1.3,1.735,1.735,0,0,0-1.318-.471h-1.951ZM-31.443,0h-2.971V-9.51h2.971Zm-3.146-11.971a1.334,1.334,0,0,1,.457-1.043,1.718,1.718,0,0,1,1.187-.407,1.718,1.718,0,0,1,1.187.407,1.334,1.334,0,0,1,.457,1.043,1.334,1.334,0,0,1-.457,1.043,1.718,1.718,0,0,1-1.187.407,1.718,1.718,0,0,1-1.187-.407A1.334,1.334,0,0,1-34.589-11.971ZM-24.913-5.2a13.431,13.431,0,0,1,.571-3.99,9.629,9.629,0,0,1,1.578-3.129,5.6,5.6,0,0,1,2.237-1.793l.563,1.459a5.73,5.73,0,0,0-1.9,2.826,13.782,13.782,0,0,0-.681,4.5v.387a14.051,14.051,0,0,0,.672,4.588A5.706,5.706,0,0,0-19.964,2.5l-.562,1.459a5.547,5.547,0,0,1-2.237-1.8A9.484,9.484,0,0,1-24.341-.958a13.5,13.5,0,0,1-.571-3.85Zm9.58-6.671V-9.51h1.564v2.057h-1.564V-3.1a1.111,1.111,0,0,0,.193.747,1.037,1.037,0,0,0,.765.211,4.345,4.345,0,0,0,.738-.053V-.079a5.466,5.466,0,0,1-1.67.255,3.1,3.1,0,0,1-2.259-.721,2.954,2.954,0,0,1-.729-2.188v-4.72h-1.213V-9.51h1.213v-2.364Zm7.4,6.917a12.532,12.532,0,0,1-.606,3.92,10.008,10.008,0,0,1-1.674,3.186A5.574,5.574,0,0,1-12.52,3.955L-13.083,2.5a5.787,5.787,0,0,0,1.89-2.812A13.577,13.577,0,0,0-10.5-4.685v-.536a14.051,14.051,0,0,0-.672-4.588,5.706,5.706,0,0,0-1.912-2.848l.563-1.459a5.676,5.676,0,0,1,2.29,1.789,9.885,9.885,0,0,1,1.67,3.138,12.426,12.426,0,0,1,.628,3.845Zm10.257.114a5.613,5.613,0,0,1,.554-2.536A3.96,3.96,0,0,1,4.469-9.088a4.791,4.791,0,0,1,2.435-.6A4.373,4.373,0,0,1,10.27-8.363a5.076,5.076,0,0,1,1.23,3.6v.105a4.925,4.925,0,0,1-1.235,3.529A4.384,4.384,0,0,1,6.921.176,4.434,4.434,0,0,1,3.661-1.042a4.761,4.761,0,0,1-1.327-3.3Zm2.962.185A3.538,3.538,0,0,0,5.7-2.725a1.376,1.376,0,0,0,1.222.615q1.582,0,1.617-2.435v-.3Q8.539-7.4,6.9-7.4,5.418-7.4,5.3-5.194Zm20.83-.018a5.8,5.8,0,0,1-.967,3.595A3.238,3.238,0,0,1,22.425.176,2.81,2.81,0,0,1,20.087-.976L19.964,0H17.31V-13.5h2.962v4.755a2.711,2.711,0,0,1,2.136-.94A3.239,3.239,0,0,1,25.15-8.411a5.826,5.826,0,0,1,.967,3.586Zm-2.971-.189a3.866,3.866,0,0,0-.365-1.952A1.229,1.229,0,0,0,21.661-7.4a1.418,1.418,0,0,0-1.389.763v3.773a1.426,1.426,0,0,0,1.406.755,1.258,1.258,0,0,0,1.327-1.018A7.309,7.309,0,0,0,23.146-4.865ZM30.546,0H27.576V-9.51h2.971ZM27.4-11.971a1.334,1.334,0,0,1,.457-1.043,1.718,1.718,0,0,1,1.187-.407,1.718,1.718,0,0,1,1.187.407,1.334,1.334,0,0,1,.457,1.043,1.334,1.334,0,0,1-.457,1.043,1.718,1.718,0,0,1-1.187.407,1.718,1.718,0,0,1-1.187-.407A1.334,1.334,0,0,1,27.4-11.971ZM36.971.176a4.889,4.889,0,0,1-3.542-1.305,4.507,4.507,0,0,1-1.354-3.4v-.246a5.84,5.84,0,0,1,.541-2.575,3.955,3.955,0,0,1,1.578-1.727,4.763,4.763,0,0,1,2.461-.611,4.117,4.117,0,0,1,3.164,1.244,4.887,4.887,0,0,1,1.16,3.467v1.151H35.09a2.135,2.135,0,0,0,.694,1.257,2.066,2.066,0,0,0,1.389.457,2.662,2.662,0,0,0,2.2-.984l1.354,1.6A3.784,3.784,0,0,1,39.155-.277,5.3,5.3,0,0,1,36.971.176ZM36.637-7.4q-1.3,0-1.547,1.723h2.988v-.229a1.467,1.467,0,0,0-.36-1.1A1.434,1.434,0,0,0,36.637-7.4ZM44.89-9.51l.1,1.116A3.225,3.225,0,0,1,47.7-9.686a2.713,2.713,0,0,1,2.219.888,4.226,4.226,0,0,1,.76,2.672V0H47.711V-6a1.6,1.6,0,0,0-.29-1.059A1.342,1.342,0,0,0,46.367-7.4a1.413,1.413,0,0,0-1.292.686V0H42.113V-9.51ZM59.928,0H56.958V-9.51h2.971ZM56.782-11.971a1.334,1.334,0,0,1,.457-1.043,1.718,1.718,0,0,1,1.187-.407,1.718,1.718,0,0,1,1.187.407,1.334,1.334,0,0,1,.457,1.043,1.334,1.334,0,0,1-.457,1.043,1.718,1.718,0,0,1-1.187.407,1.718,1.718,0,0,1-1.187-.407A1.334,1.334,0,0,1,56.782-11.971ZM61.976-5.2a13.431,13.431,0,0,1,.571-3.99,9.629,9.629,0,0,1,1.578-3.129,5.6,5.6,0,0,1,2.237-1.793l.563,1.459a5.73,5.73,0,0,0-1.9,2.826,13.782,13.782,0,0,0-.681,4.5v.387a14.051,14.051,0,0,0,.672,4.588A5.706,5.706,0,0,0,66.924,2.5l-.562,1.459a5.547,5.547,0,0,1-2.237-1.8A9.484,9.484,0,0,1,62.547-.958a13.5,13.5,0,0,1-.571-3.85Zm9.58-6.671V-9.51h1.564v2.057H71.556V-3.1a1.111,1.111,0,0,0,.193.747,1.037,1.037,0,0,0,.765.211,4.345,4.345,0,0,0,.738-.053V-.079a5.466,5.466,0,0,1-1.67.255,3.1,3.1,0,0,1-2.259-.721,2.954,2.954,0,0,1-.729-2.188v-4.72H67.381V-9.51h1.213v-2.364Zm7.4,6.917a12.532,12.532,0,0,1-.606,3.92,10.008,10.008,0,0,1-1.674,3.186,5.574,5.574,0,0,1-2.307,1.806L73.806,2.5A5.787,5.787,0,0,0,75.7-.316a13.577,13.577,0,0,0,.694-4.368v-.536a14.051,14.051,0,0,0-.672-4.588,5.706,5.706,0,0,0-1.912-2.848l.563-1.459a5.676,5.676,0,0,1,2.29,1.789,9.885,9.885,0,0,1,1.67,3.138,12.426,12.426,0,0,1,.628,3.845Zm10.1-1.389H80.917V-8.631h8.139Zm0,3.858H80.917V-4.772h8.139Z" transform="translate(916.051 3174.413)" fill="#12263f"/>
    <path id="Trazado_901625" data-name="Trazado 901625" d="M.121-4.164H-1.746V0H-4.09V-11.375H.137a4.778,4.778,0,0,1,3.109.9A3.1,3.1,0,0,1,4.34-7.937,3.5,3.5,0,0,1,3.836-6,3.437,3.437,0,0,1,2.309-4.758L4.77-.109V0H2.254Zm-1.867-1.9H.145a1.936,1.936,0,0,0,1.367-.449A1.606,1.606,0,0,0,2-7.75a1.719,1.719,0,0,0-.457-1.266,1.9,1.9,0,0,0-1.4-.461H-1.746Z" transform="translate(1035.102 3184.977)" fill="#12263f"/>
    <path id="Trazado_901626" data-name="Trazado 901626" d="M-8.344-2.758l1.57-5.7h2.359L-7.266,0H-9.422l-2.852-8.453h2.359ZM-3.32-4.625a11.99,11.99,0,0,1,.477-3.406,8.989,8.989,0,0,1,1.406-2.863,5.251,5.251,0,0,1,2.016-1.73l.438,1.219A5.438,5.438,0,0,0-.766-8.8a12.082,12.082,0,0,0-.641,4.125v.242A12.313,12.313,0,0,0-.773-.289,5.544,5.544,0,0,0,1.016,2.359l-.437,1.2A5.253,5.253,0,0,1-1.4,1.871,8.838,8.838,0,0,1-2.8-.914a11.918,11.918,0,0,1-.516-3.3ZM4.9-10.531v2.078H6.344V-6.8H4.9v4.219a1.007,1.007,0,0,0,.18.672.9.9,0,0,0,.688.2,3.6,3.6,0,0,0,.664-.055V-.047a4.648,4.648,0,0,1-1.367.2,2.156,2.156,0,0,1-2.422-2.4V-6.8H1.406V-8.453H2.641v-2.078Zm6.594,6.086a11.377,11.377,0,0,1-.508,3.4A9.225,9.225,0,0,1,9.523,1.836,5.264,5.264,0,0,1,7.484,3.555l-.437-1.2A5.494,5.494,0,0,0,8.8-.219a11.939,11.939,0,0,0,.664-4.008v-.414a12.208,12.208,0,0,0-.637-4.117A5.727,5.727,0,0,0,7.047-11.43l.438-1.2a5.265,5.265,0,0,1,2,1.672,9.106,9.106,0,0,1,1.461,2.82A11.3,11.3,0,0,1,11.492-4.8Z" transform="translate(1035.102 3155.84)" fill="#12263f"/>
    <path id="Trazado_901627" data-name="Trazado 901627" d="M0,0H29" transform="translate(1020.602 3164.908)" fill="none" stroke="#12263f" stroke-width="1"/>
  </g>
</svg>
