<svg id="Grupo_1117922" data-name="Grupo 1117922" xmlns="http://www.w3.org/2000/svg" xmlns:xlink="http://www.w3.org/1999/xlink" width="332" height="196.277" viewBox="0 0 332 196.277">
  <defs>
    <clipPath id="clip-path">
      <rect id="Rectángulo_408089" data-name="Rectángulo 408089" width="332" height="196.277" fill="none"/>
    </clipPath>
    <clipPath id="clip-path-3">
      <rect id="Rectángulo_408049" data-name="Rectángulo 408049" width="2.273" height="7.502" fill="none"/>
    </clipPath>
    <clipPath id="clip-path-4">
      <rect id="Rectángulo_408050" data-name="Rectángulo 408050" width="3.187" height="3.926" fill="none"/>
    </clipPath>
    <clipPath id="clip-path-5">
      <rect id="Rectángulo_408051" data-name="Rectángulo 408051" width="1.901" height="1.438" fill="none"/>
    </clipPath>
    <clipPath id="clip-path-6">
      <rect id="Rectángulo_408052" data-name="Rectángulo 408052" width="5.228" height="5.416" fill="none"/>
    </clipPath>
    <clipPath id="clip-path-7">
      <rect id="Rectángulo_408053" data-name="Rectángulo 408053" width="40.677" height="4.348" fill="none"/>
    </clipPath>
    <clipPath id="clip-path-8">
      <rect id="Rectángulo_408054" data-name="Rectángulo 408054" width="40.678" height="4.347" fill="none"/>
    </clipPath>
    <clipPath id="clip-path-9">
      <rect id="Rectángulo_408055" data-name="Rectángulo 408055" width="6.261" height="13.789" fill="none"/>
    </clipPath>
    <clipPath id="clip-path-10">
      <rect id="Rectángulo_408056" data-name="Rectángulo 408056" width="11.951" height="14.351" fill="none"/>
    </clipPath>
    <clipPath id="clip-path-11">
      <rect id="Rectángulo_408058" data-name="Rectángulo 408058" width="25.566" height="3.174" fill="none"/>
    </clipPath>
    <clipPath id="clip-path-13">
      <rect id="Rectángulo_408059" data-name="Rectángulo 408059" width="27.857" height="3.659" fill="none"/>
    </clipPath>
    <clipPath id="clip-path-14">
      <rect id="Rectángulo_408060" data-name="Rectángulo 408060" width="57.1" height="67.823" fill="none"/>
    </clipPath>
    <clipPath id="clip-path-15">
      <rect id="Rectángulo_408061" data-name="Rectángulo 408061" width="36.941" height="18.111" fill="none"/>
    </clipPath>
    <clipPath id="clip-path-16">
      <rect id="Rectángulo_408062" data-name="Rectángulo 408062" width="7.137" height="10.688" fill="none"/>
    </clipPath>
    <clipPath id="clip-path-17">
      <rect id="Rectángulo_408063" data-name="Rectángulo 408063" width="47.034" height="25.114" fill="none"/>
    </clipPath>
    <clipPath id="clip-path-18">
      <rect id="Rectángulo_408066" data-name="Rectángulo 408066" width="114.366" height="37.17" fill="none"/>
    </clipPath>
    <clipPath id="clip-path-19">
      <rect id="Rectángulo_408065" data-name="Rectángulo 408065" width="114.366" height="18.585" fill="none"/>
    </clipPath>
    <clipPath id="clip-path-20">
      <rect id="Rectángulo_408067" data-name="Rectángulo 408067" width="30.314" height="37.17" fill="none"/>
    </clipPath>
    <clipPath id="clip-path-21">
      <rect id="Rectángulo_408070" data-name="Rectángulo 408070" width="58.717" height="5.359" fill="none"/>
    </clipPath>
    <clipPath id="clip-path-22">
      <rect id="Rectángulo_408073" data-name="Rectángulo 408073" width="114.366" height="37.169" fill="none"/>
    </clipPath>
    <clipPath id="clip-path-24">
      <rect id="Rectángulo_408074" data-name="Rectángulo 408074" width="30.314" height="37.169" fill="none"/>
    </clipPath>
    <clipPath id="clip-path-26">
      <rect id="Rectángulo_408078" data-name="Rectángulo 408078" width="32.878" height="92.023" fill="none"/>
    </clipPath>
    <clipPath id="clip-path-27">
      <rect id="Rectángulo_408079" data-name="Rectángulo 408079" width="32.262" height="95.731" fill="none"/>
    </clipPath>
    <clipPath id="clip-path-28">
      <rect id="Rectángulo_408080" data-name="Rectángulo 408080" width="6.779" height="3.837" fill="none"/>
    </clipPath>
    <clipPath id="clip-path-32">
      <rect id="Rectángulo_408084" data-name="Rectángulo 408084" width="6.78" height="3.836" fill="none"/>
    </clipPath>
    <clipPath id="clip-path-33">
      <rect id="Rectángulo_408085" data-name="Rectángulo 408085" width="6.78" height="3.837" fill="none"/>
    </clipPath>
    <clipPath id="clip-path-34">
      <rect id="Rectángulo_408086" data-name="Rectángulo 408086" width="5.696" height="13.758" fill="none"/>
    </clipPath>
    <clipPath id="clip-path-35">
      <rect id="Rectángulo_408087" data-name="Rectángulo 408087" width="5.699" height="13.758" fill="none"/>
    </clipPath>
  </defs>
  <g id="Grupo_1115135" data-name="Grupo 1115135" clip-path="url(#clip-path)">
    <path id="Trazado_900870" data-name="Trazado 900870" d="M334.047,201.206l-49-2.77v-2.72l49,2.72Z" transform="translate(-33.386 -22.923)" fill="#d6d6d6"/>
    <g id="Grupo_1115134" data-name="Grupo 1115134">
      <g id="Grupo_1115133" data-name="Grupo 1115133" clip-path="url(#clip-path)">
        <path id="Trazado_900871" data-name="Trazado 900871" d="M334,201.526h-.021l-49-2.77a.368.368,0,0,1-.348-.369v-2.72a.368.368,0,0,1,.116-.268.363.363,0,0,1,.274-.1l49,2.72a.371.371,0,0,1,.35.37v2.77a.366.366,0,0,1-.117.268.363.363,0,0,1-.253.1m-48.629-3.49,48.257,2.729v-2.03l-48.257-2.679Z" transform="translate(-33.337 -22.874)" fill="#5c2f10"/>
        <rect id="Rectángulo_408046" data-name="Rectángulo 408046" width="95.102" height="3.225" transform="translate(225.961 192.318)" fill="#3b3b3b"/>
        <path id="Trazado_900872" data-name="Trazado 900872" d="M350.991,221.377h-95.1a.37.37,0,0,1-.37-.37v-3.225a.369.369,0,0,1,.37-.37h95.1a.37.37,0,0,1,.37.37v3.225a.37.37,0,0,1-.37.37m-94.732-.74h94.362v-2.486H256.26Z" transform="translate(-29.928 -25.464)" fill="#5c2f10"/>
        <rect id="Rectángulo_408047" data-name="Rectángulo 408047" width="95.102" height="4.119" transform="translate(225.961 190.258)" fill="#969696"/>
        <path id="Trazado_900873" data-name="Trazado 900873" d="M350.991,219.937h-95.1a.37.37,0,0,1-.37-.37v-4.119a.37.37,0,0,1,.37-.37h95.1a.37.37,0,0,1,.37.37v4.119a.37.37,0,0,1-.37.37m-94.732-.74h94.362v-3.379H256.26Z" transform="translate(-29.928 -25.191)" fill="#5c2f10"/>
        <path id="Trazado_900874" data-name="Trazado 900874" d="M281.934,198.8v11.409H258.451v2.731l24.962.228a1.478,1.478,0,0,0,1.479-1.479V198.8Z" transform="translate(-30.271 -23.284)" fill="#d6d6d6"/>
        <path id="Trazado_900875" data-name="Trazado 900875" d="M283.364,213.485h0l-24.962-.228a.37.37,0,0,1-.366-.37v-2.73a.371.371,0,0,1,.37-.371h23.113V198.748a.37.37,0,0,1,.37-.371h2.957a.37.37,0,0,1,.371.371v12.888a1.851,1.851,0,0,1-1.85,1.849m-24.591-.964,24.593.224a1.109,1.109,0,0,0,1.107-1.109V199.117h-2.218v11.04a.369.369,0,0,1-.369.369H258.773Z" transform="translate(-30.222 -23.235)" fill="#5c2f10"/>
        <rect id="Rectángulo_408048" data-name="Rectángulo 408048" width="26.995" height="5.433" transform="translate(291.508 187.463)" fill="#d6d6d6"/>
        <path id="Trazado_900876" data-name="Trazado 900876" d="M357.126,218.086H330.131a.369.369,0,0,1-.369-.37v-5.433a.368.368,0,0,1,.369-.369h26.995a.369.369,0,0,1,.37.369v5.433a.369.369,0,0,1-.37.37m-26.625-.74h26.255v-4.693H330.5Z" transform="translate(-38.623 -24.82)" fill="#5c2f10"/>
        <path id="Trazado_900877" data-name="Trazado 900877" d="M338.6,214.123l.008-5.639-3.72-.334-3.444.247-.007,5.808c0,.936,1.606,1.694,3.586,1.694,1.906,0,3.463-.705,3.573-1.594h0v-.019a.642.642,0,0,0,.01-.08c0-.027-.006-.056-.008-.083" transform="translate(-38.82 -24.379)" fill="#c7c7c7"/>
        <path id="Trazado_900878" data-name="Trazado 900878" d="M334.976,216.22c-2.255,0-3.956-.887-3.956-2.064l.007-5.808a.37.37,0,0,1,.344-.368l3.442-.247a.443.443,0,0,1,.059,0l3.72.334a.372.372,0,0,1,.337.369l-.009,5.639a.311.311,0,0,1,.009.082.6.6,0,0,1-.01.106.372.372,0,0,1-.013.1c-.189,1.081-1.825,1.858-3.931,1.858m-3.21-7.527-.007,5.464c0,.624,1.376,1.323,3.217,1.323,1.822,0,3.13-.656,3.207-1.27V214.2l0-.006,0-.041s0-.044-.006-.049l.006-5.335-3.351-.3Z" transform="translate(-38.771 -24.33)" fill="#5c2f10"/>
        <g id="Grupo_1115036" data-name="Grupo 1115036" transform="translate(297.517 183.9)" style="mix-blend-mode: multiply;isolation: isolate">
          <g id="Grupo_1115035" data-name="Grupo 1115035">
            <g id="Grupo_1115034" data-name="Grupo 1115034" clip-path="url(#clip-path-3)">
              <path id="Trazado_900879" data-name="Trazado 900879" d="M339.258,208.5l-2.273-.2v7.5c1.265-.237,2.178-.8,2.261-1.477h0V214.3a.6.6,0,0,0,.01-.08c0-.027-.006-.055-.008-.083Z" transform="translate(-336.986 -208.296)" fill="#c7c7c7"/>
            </g>
          </g>
        </g>
        <path id="Trazado_900880" data-name="Trazado 900880" d="M338.609,208.214c0,.936-1.605,1.694-3.584,1.694s-3.586-.758-3.586-1.694,1.606-2.363,3.586-2.363,3.584,1.426,3.584,2.363" transform="translate(-38.82 -24.11)" fill="#c7c7c7"/>
        <path id="Trazado_900881" data-name="Trazado 900881" d="M334.975,210.23c-2.255,0-3.955-.887-3.955-2.065,0-1.2,1.863-2.732,3.955-2.732s3.954,1.527,3.954,2.732c0,1.178-1.7,2.065-3.954,2.065m0-4.058c-1.825,0-3.217,1.329-3.217,1.993,0,.626,1.376,1.325,3.217,1.325s3.216-.7,3.216-1.325c0-.664-1.391-1.993-3.216-1.993" transform="translate(-38.771 -24.061)" fill="#5c2f10"/>
        <g id="Grupo_1115039" data-name="Grupo 1115039" transform="translate(296.602 181.761)" style="mix-blend-mode: multiply;isolation: isolate">
          <g id="Grupo_1115038" data-name="Grupo 1115038">
            <g id="Grupo_1115037" data-name="Grupo 1115037" clip-path="url(#clip-path-4)">
              <path id="Trazado_900882" data-name="Trazado 900882" d="M335.95,205.874a.537.537,0,0,1,.043.046,5.132,5.132,0,0,1,.769,2.823c.027.349.048.7.062,1.056,1.352-.243,2.313-.859,2.313-1.583,0-.872-1.395-2.169-3.187-2.342" transform="translate(-335.95 -205.874)" fill="#c7c7c7"/>
            </g>
          </g>
        </g>
        <g id="Grupo_1115042" data-name="Grupo 1115042" transform="translate(293.78 183.181)" style="mix-blend-mode: screen;isolation: isolate">
          <g id="Grupo_1115041" data-name="Grupo 1115041">
            <g id="Grupo_1115040" data-name="Grupo 1115040" clip-path="url(#clip-path-5)">
              <path id="Trazado_900883" data-name="Trazado 900883" d="M334.613,207.758c.153.313-.13.765-.632,1.009s-1.034.189-1.187-.124.132-.765.635-1.01,1.032-.189,1.184.124" transform="translate(-332.754 -207.482)" fill="#c7c7c7"/>
            </g>
          </g>
        </g>
        <path id="Trazado_900884" data-name="Trazado 900884" d="M332.611,203.057l0,2.1a.528.528,0,0,0-.005.054c0,.019,0,.039.005.058v.02h0a3,3,0,0,0,2.944,2.068c1.629,0,2.951-1.3,2.951-2.146l0-2.363a28.6,28.6,0,0,1-5.895.206" transform="translate(-38.956 -23.759)" fill="#c7c7c7"/>
        <path id="Trazado_900885" data-name="Trazado 900885" d="M335.509,207.682a3.384,3.384,0,0,1-3.309-2.363.348.348,0,0,1-.006-.075c0-.015-.007-.063-.007-.078a.523.523,0,0,1,.008-.083l0-2.075a.368.368,0,0,1,.423-.366,9.918,9.918,0,0,0,1.5.1c.864,0,1.757-.087,2.622-.17.554-.054,1.127-.109,1.7-.143a.367.367,0,0,1,.275.1.372.372,0,0,1,.116.269l0,2.363c0,1.11-1.564,2.517-3.32,2.517m-2.576-2.482v.011a2.694,2.694,0,0,0,2.576,1.732,2.642,2.642,0,0,0,2.581-1.777l0-1.969c-.426.032-.856.073-1.276.114-.881.086-1.794.175-2.693.175a11.422,11.422,0,0,1-1.187-.058l0,1.684c0,.015,0,.045-.005.063a.086.086,0,0,1,0,.021v0l0,0" transform="translate(-38.907 -23.71)" fill="#5c2f10"/>
        <path id="Trazado_900886" data-name="Trazado 900886" d="M281.934,197.971v14.782H258.451v2.959h24.962a1.479,1.479,0,0,0,1.479-1.48V200.873l46.04,2.833v-2.719Z" transform="translate(-30.271 -23.187)" fill="#969696"/>
        <path id="Trazado_900887" data-name="Trazado 900887" d="M283.364,216.032H258.4a.37.37,0,0,1-.37-.369V212.7a.37.37,0,0,1,.37-.37h23.113V197.923a.363.363,0,0,1,.117-.269.36.36,0,0,1,.274-.1l49,3.017a.37.37,0,0,1,.349.369v2.719a.371.371,0,0,1-.394.369l-45.646-2.809v12.966a1.851,1.851,0,0,1-1.85,1.849m-24.591-.739h24.591a1.11,1.11,0,0,0,1.109-1.11v-13.36a.371.371,0,0,1,.394-.369l45.646,2.809v-1.979l-48.257-2.97V212.7a.37.37,0,0,1-.369.37H258.773Z" transform="translate(-30.222 -23.138)" fill="#5c2f10"/>
        <path id="Trazado_900888" data-name="Trazado 900888" d="M341.041,199.482h0l-.96-5-1.434-.111-5.907-.458-1.434-.111-1.72,4.79a56.185,56.185,0,0,0,11.454.889" transform="translate(-38.603 -22.699)" fill="#333"/>
        <path id="Trazado_900889" data-name="Trazado 900889" d="M340.046,199.891h-.011c-1.082,0-2.883-.089-4.822-.24-6.094-.473-6.072-.765-6.046-1.134a.406.406,0,0,1,.022-.1l1.72-4.79a.371.371,0,0,1,.375-.244l8.776.681a.371.371,0,0,1,.335.3l.96,5a.379.379,0,0,1,.005.1c-.034.426-.516.428-1.314.428m-10.037-1.567c.671.138,2.474.373,5.26.59,1.923.148,3.7.237,4.767.237.235,0,.4,0,.523-.01l-.836-4.359-8.213-.637Z" transform="translate(-38.553 -22.65)" fill="#5c2f10"/>
        <g id="Grupo_1115045" data-name="Grupo 1115045" transform="translate(297.21 171.455)" style="mix-blend-mode: multiply;isolation: isolate">
          <g id="Grupo_1115044" data-name="Grupo 1115044">
            <g id="Grupo_1115043" data-name="Grupo 1115043" clip-path="url(#clip-path-6)">
              <path id="Trazado_900890" data-name="Trazado 900890" d="M340.908,194.531l-4.269-.331a45.266,45.266,0,0,1,.1,5.224,24.23,24.23,0,0,0,5.132.105Z" transform="translate(-336.639 -194.2)" fill="#333"/>
            </g>
          </g>
        </g>
        <path id="Trazado_900891" data-name="Trazado 900891" d="M340.289,194.469a32.662,32.662,0,0,1-8.725-.677,32.655,32.655,0,0,1,8.725.677" transform="translate(-38.834 -22.685)" fill="#696969"/>
        <path id="Trazado_900892" data-name="Trazado 900892" d="M339.156,194.9c-.842,0-2.057-.057-3.331-.155-1.173-.092-2.275-.207-3.1-.328-1.171-.171-1.61-.275-1.577-.7s.52-.451,1.448-.451c.844,0,2.059.057,3.334.156,1.172.091,2.275.208,3.1.328,1.172.17,1.609.275,1.576.7s-.52.45-1.451.45" transform="translate(-38.785 -22.636)" fill="#5c2f10"/>
        <path id="Trazado_900893" data-name="Trazado 900893" d="M276.463,106.889v11.655c0,1.634,9.1,2.959,20.337,2.959s20.339-1.325,20.339-2.959V106.889Z" transform="translate(-32.381 -12.519)" fill="#737373"/>
        <path id="Trazado_900894" data-name="Trazado 900894" d="M296.751,121.824c-8.324,0-20.707-.886-20.707-3.328V106.841a.369.369,0,0,1,.37-.37H317.09a.369.369,0,0,1,.37.37V118.5c0,2.442-12.384,3.328-20.709,3.328M276.783,107.21V118.5c0,.9,6.858,2.589,19.968,2.589s19.97-1.685,19.97-2.589V107.21Z" transform="translate(-32.332 -12.47)" fill="#5c2f10"/>
        <g id="Grupo_1115048" data-name="Grupo 1115048" transform="translate(244.082 101.842)" style="mix-blend-mode: screen;isolation: isolate">
          <g id="Grupo_1115047" data-name="Grupo 1115047">
            <g id="Grupo_1115046" data-name="Grupo 1115046" clip-path="url(#clip-path-7)">
              <path id="Trazado_900895" data-name="Trazado 900895" d="M276.463,116.742c0,1.634,9.1,2.959,20.337,2.959s20.339-1.325,20.339-2.959v-1.389H276.463Z" transform="translate(-276.463 -115.353)" fill="#737373"/>
            </g>
          </g>
        </g>
        <path id="Trazado_900896" data-name="Trazado 900896" d="M317.14,114.96c0,1.634-9.105,2.959-20.339,2.959s-20.337-1.324-20.337-2.959S285.567,112,296.8,112s20.339,1.325,20.339,2.959" transform="translate(-32.381 -13.118)" fill="#474747"/>
        <path id="Trazado_900897" data-name="Trazado 900897" d="M296.752,118.241c-8.325,0-20.708-.887-20.708-3.329s12.382-3.328,20.708-3.328,20.708.886,20.708,3.328-12.384,3.329-20.708,3.329m0-5.919c-13.112,0-19.968,1.686-19.968,2.589s6.856,2.589,19.968,2.589,19.969-1.686,19.969-2.589-6.859-2.589-19.969-2.589" transform="translate(-32.332 -13.069)" fill="#5c2f10"/>
        <path id="Trazado_900898" data-name="Trazado 900898" d="M264.82,107.969c-5.071,0-9.183,1.442-9.183,3.22,0,1.634,3.469,2.981,7.964,3.192l-.015.028H282.2v-6.44Z" transform="translate(-29.941 -12.646)" fill="#c38f4a"/>
        <path id="Trazado_900899" data-name="Trazado 900899" d="M282.15,114.731H263.537a.349.349,0,0,1-.16-.038c-5.605-.29-8.162-2.038-8.162-3.553,0-1.74,3.35-3.589,9.555-3.589H282.15a.369.369,0,0,1,.37.37v6.44a.37.37,0,0,1-.37.37m-18.454-.74h18.085v-5.7H264.77c-5.194,0-8.814,1.5-8.814,2.849,0,1.187,2.91,2.6,7.612,2.823a.381.381,0,0,1,.127.028" transform="translate(-29.892 -12.597)" fill="#5c2f10"/>
        <path id="Trazado_900900" data-name="Trazado 900900" d="M264.82,106.87c-5.071,0-9.183,1.442-9.183,3.221,0,1.633,3.469,2.981,7.964,3.191l-.015.028H282.2v-6.44Z" transform="translate(-29.941 -12.517)" fill="#cbc37c"/>
        <path id="Trazado_900901" data-name="Trazado 900901" d="M282.15,113.631H263.537a.36.36,0,0,1-.16-.037c-5.605-.29-8.162-2.039-8.162-3.552,0-1.74,3.35-3.59,9.555-3.59H282.15a.369.369,0,0,1,.37.369v6.44a.369.369,0,0,1-.37.37m-18.454-.739h18.085v-5.7H264.77c-5.194,0-8.814,1.5-8.814,2.851,0,1.187,2.91,2.6,7.612,2.821a.382.382,0,0,1,.127.029" transform="translate(-29.892 -12.468)" fill="#5c2f10"/>
        <path id="Trazado_900902" data-name="Trazado 900902" d="M330.655,108.017c5.071,0,9.183,1.442,9.183,3.22,0,1.634-3.471,2.981-7.964,3.192l.014.028H313.275v-6.44Z" transform="translate(-36.692 -12.651)" fill="#c38f4a"/>
        <path id="Trazado_900903" data-name="Trazado 900903" d="M331.847,114.778h-18.62a.369.369,0,0,1-.37-.369v-6.441a.369.369,0,0,1,.37-.369h17.38c6.2,0,9.553,1.849,9.553,3.589,0,1.514-2.553,3.26-8.15,3.553a.376.376,0,0,1-.163.037m-18.251-.739h18.085a.362.362,0,0,1,.125-.029c4.7-.218,7.614-1.634,7.614-2.822,0-1.348-3.62-2.85-8.813-2.85H313.6Z" transform="translate(-36.643 -12.602)" fill="#5c2f10"/>
        <path id="Trazado_900904" data-name="Trazado 900904" d="M330.655,106.917c5.071,0,9.183,1.442,9.183,3.221,0,1.632-3.471,2.981-7.964,3.191l.014.028H313.275v-6.44Z" transform="translate(-36.692 -12.523)" fill="#cbc37c"/>
        <path id="Trazado_900905" data-name="Trazado 900905" d="M331.847,113.678h-18.62a.369.369,0,0,1-.37-.37v-6.44a.369.369,0,0,1,.37-.369h17.38c6.2,0,9.553,1.85,9.553,3.59,0,1.512-2.553,3.259-8.15,3.552a.376.376,0,0,1-.163.037m-18.251-.739h18.085a.36.36,0,0,1,.125-.028c4.7-.219,7.614-1.635,7.614-2.822,0-1.348-3.62-2.851-8.813-2.851H313.6Z" transform="translate(-36.643 -12.474)" fill="#5c2f10"/>
        <path id="Trazado_900906" data-name="Trazado 900906" d="M275.877,101.7v11.655c0,1.635,9.106,2.959,20.34,2.959s20.337-1.324,20.337-2.959V101.7Z" transform="translate(-32.312 -11.912)" fill="#737373"/>
        <path id="Trazado_900907" data-name="Trazado 900907" d="M296.168,116.637c-8.326,0-20.71-.886-20.71-3.329V101.653a.37.37,0,0,1,.37-.369H316.5a.368.368,0,0,1,.37.369v11.655c0,2.443-12.382,3.329-20.707,3.329M276.2,102.023v11.285c0,.9,6.858,2.589,19.97,2.589s19.967-1.685,19.967-2.589V102.023Z" transform="translate(-32.263 -11.863)" fill="#5c2f10"/>
        <g id="Grupo_1115051" data-name="Grupo 1115051" transform="translate(243.565 89.79)" style="mix-blend-mode: screen;isolation: isolate">
          <g id="Grupo_1115050" data-name="Grupo 1115050">
            <g id="Grupo_1115049" data-name="Grupo 1115049" clip-path="url(#clip-path-8)">
              <path id="Trazado_900908" data-name="Trazado 900908" d="M275.877,103.091c0,1.634,9.106,2.959,20.34,2.959s20.337-1.324,20.337-2.959V101.7H275.877Z" transform="translate(-275.877 -101.702)" fill="#737373"/>
            </g>
          </g>
        </g>
        <g id="Grupo_1115054" data-name="Grupo 1115054" transform="translate(243.565 89.79)" style="mix-blend-mode: multiply;isolation: isolate">
          <g id="Grupo_1115053" data-name="Grupo 1115053">
            <g id="Grupo_1115052" data-name="Grupo 1115052" clip-path="url(#clip-path-9)">
              <path id="Trazado_900909" data-name="Trazado 900909" d="M282.138,101.7h-6.261v11.655c0,.84,2.406,1.6,6.261,2.135Z" transform="translate(-275.877 -101.702)" fill="#737373"/>
            </g>
          </g>
        </g>
        <g id="Grupo_1115057" data-name="Grupo 1115057" transform="translate(272.291 89.79)" style="mix-blend-mode: multiply;isolation: isolate">
          <g id="Grupo_1115056" data-name="Grupo 1115056">
            <g id="Grupo_1115055" data-name="Grupo 1115055" clip-path="url(#clip-path-10)">
              <path id="Trazado_900910" data-name="Trazado 900910" d="M308.414,101.7v14.351c7.047-.465,11.951-1.5,11.951-2.7V101.7Z" transform="translate(-308.414 -101.702)" fill="#737373"/>
            </g>
          </g>
        </g>
        <path id="Trazado_900911" data-name="Trazado 900911" d="M316.555,101.31c0,1.634-9.105,2.959-20.337,2.959s-20.34-1.325-20.34-2.959,9.105-2.959,20.34-2.959,20.337,1.324,20.337,2.959" transform="translate(-32.312 -11.519)" fill="#474747"/>
        <path id="Trazado_900912" data-name="Trazado 900912" d="M296.168,104.59c-8.326,0-20.71-.887-20.71-3.329s12.384-3.328,20.71-3.328,20.707.886,20.707,3.328-12.382,3.329-20.707,3.329m0-5.919c-13.112,0-19.97,1.686-19.97,2.589s6.857,2.589,19.97,2.589,19.967-1.685,19.967-2.589-6.857-2.589-19.967-2.589" transform="translate(-32.263 -11.47)" fill="#5c2f10"/>
        <path id="Trazado_900913" data-name="Trazado 900913" d="M323.385,44.123a19.47,19.47,0,0,0-.439-4.26c-2.311-11.986-14-21.115-28.106-21.115s-25.8,9.129-28.107,21.115a19.412,19.412,0,0,0-.44,4.26c0,.025,0,.048,0,.073s0,.026,0,.04c.006.615.047,1.229.1,1.842a22.962,22.962,0,0,0,.71,4.067c1.992,7.907,7.13,15.163,9.584,19.55a42.463,42.463,0,0,1,4.738,15.224.089.089,0,0,0-.009.038c0,.891,6.005,1.616,13.413,1.616s13.414-.725,13.414-1.616h.008a42.486,42.486,0,0,1,4.739-15.262c2.454-4.384,7.589-11.641,9.582-19.548a22.823,22.823,0,0,0,.711-4.068c.057-.613.1-1.226.1-1.842,0-.013,0-.026,0-.04s0-.049,0-.073" transform="translate(-31.189 -2.196)" fill="#faec8d"/>
        <path id="Trazado_900914" data-name="Trazado 900914" d="M294.781,86.892a83.968,83.968,0,0,1-9.529-.477c-3.739-.45-4.255-.991-4.255-1.509,0-.023,0-.044,0-.064a42.256,42.256,0,0,0-4.685-15.018c-.515-.921-1.164-1.994-1.851-3.13-2.61-4.312-6.184-10.218-7.768-16.511a23.206,23.206,0,0,1-.719-4.126c-.065-.694-.1-1.307-.105-1.87a.206.206,0,0,1,0-.042c0-.011,0-.059,0-.07a20.166,20.166,0,0,1,.448-4.342c2.392-12.4,14.367-21.406,28.47-21.406s26.078,9.005,28.47,21.415a19.809,19.809,0,0,1,.444,4.332.506.506,0,0,1,.005.071c0,.011,0,.044,0,.056,0,.552-.04,1.165-.105,1.861a23.219,23.219,0,0,1-.72,4.128c-1.584,6.289-5.159,12.2-7.769,16.509-.684,1.134-1.333,2.205-1.849,3.124a42.5,42.5,0,0,0-4.693,15.113.27.27,0,0,1-.015.075c-.077.485-.763.984-4.245,1.4a83.99,83.99,0,0,1-9.529.477m-13.035-2.03c.557.539,5.4,1.29,13.035,1.29,7.7,0,12.558-.764,13.048-1.3a.258.258,0,0,1,.012-.051,43.228,43.228,0,0,1,4.778-15.334c.52-.931,1.171-2.006,1.861-3.147,2.585-4.273,6.126-10.126,7.685-16.311a22.722,22.722,0,0,0,.7-4.008c.064-.681.1-1.272.1-1.815a.489.489,0,0,1,0-.05.275.275,0,0,1,0-.059,19.159,19.159,0,0,0-.431-4.18c-2.326-12.07-13.994-20.824-27.745-20.824s-25.42,8.755-27.743,20.815a19.254,19.254,0,0,0-.434,4.188c0,.012,0,.06,0,.072a.361.361,0,0,1,0,.043c.005.539.039,1.131.1,1.806a22.524,22.524,0,0,0,.7,4.006c1.558,6.189,5.1,12.041,7.684,16.314.69,1.142,1.345,2.22,1.865,3.151a43.086,43.086,0,0,1,4.783,15.372c0,.009,0,.019,0,.026" transform="translate(-31.14 -2.147)" fill="#5c2f10"/>
        <path id="Trazado_900915" data-name="Trazado 900915" d="M309.683,98.549a.082.082,0,0,1,0,.021c0,.854-5.748,1.546-12.841,1.546S284,99.424,284,98.57a.208.208,0,0,1,.01-.053A2.168,2.168,0,0,0,284,102.6a8.7,8.7,0,0,0,1.13.627,56.4,56.4,0,0,0,11.71.913,57.544,57.544,0,0,0,11.61-.887,8.406,8.406,0,0,0,1.23-.679,2.15,2.15,0,0,0,0-4.025" transform="translate(-33.096 -11.539)" fill="#adadad"/>
        <path id="Trazado_900916" data-name="Trazado 900916" d="M296.8,104.461a57.184,57.184,0,0,1-11.8-.925.328.328,0,0,1-.062-.023,8.656,8.656,0,0,1-1.18-.654,2.523,2.523,0,0,1,.01-4.7.365.365,0,0,1,.417,0,.377.377,0,0,1,.159.308c.566.513,5.2,1.225,12.461,1.225,7.308,0,11.954-.72,12.471-1.233a.371.371,0,0,1,.575-.27,2.505,2.505,0,0,1,0,4.636,8.906,8.906,0,0,1-1.285.71.361.361,0,0,1-.064.023,57.746,57.746,0,0,1-11.7.9m-11.582-1.632a57,57,0,0,0,11.582.892,58.372,58.372,0,0,0,11.486-.867,8.244,8.244,0,0,0,1.146-.636,2.384,2.384,0,0,0,1.231-1.706,2.076,2.076,0,0,0-.922-1.479c-.418.335-1.439.661-3.817.947a91.429,91.429,0,0,1-18.249,0c-2.416-.29-3.431-.623-3.836-.962a2.1,2.1,0,0,0-.944,1.494c0,.727.69,1.343,1.27,1.732a8.224,8.224,0,0,0,1.052.584" transform="translate(-33.047 -11.49)" fill="#5c2f10"/>
        <g id="Grupo_1115063" data-name="Grupo 1115063" transform="translate(251.121 87.01)" style="mix-blend-mode: multiply;isolation: isolate">
          <g id="Grupo_1115062" data-name="Grupo 1115062">
            <g id="Grupo_1115061" data-name="Grupo 1115061" clip-path="url(#clip-path-11)">
              <g id="Grupo_1115060" data-name="Grupo 1115060" opacity="0.5" style="mix-blend-mode: multiply;isolation: isolate">
                <g id="Grupo_1115059" data-name="Grupo 1115059">
                  <g id="Grupo_1115058" data-name="Grupo 1115058" clip-path="url(#clip-path-11)">
                    <path id="Trazado_900917" data-name="Trazado 900917" d="M295.934,101.6c2.439.07,14.228.916,14.056-2.9,0-.025.011-.042.011-.065-.035-.026-.063-.053-.1-.079a.082.082,0,0,1,0,.021c0,.854-5.748,1.546-12.841,1.546-6.312,0-11.552-.55-12.628-1.271.784,2.884,9.179,2.685,11.5,2.751" transform="translate(-284.435 -98.553)" fill="#adadad"/>
                  </g>
                </g>
              </g>
            </g>
          </g>
        </g>
        <path id="Trazado_900918" data-name="Trazado 900918" d="M310.049,93.71l0,.022c0,.891-6.005,1.616-13.413,1.616s-13.414-.725-13.414-1.616a.147.147,0,0,1,.012-.056,2.266,2.266,0,0,0-.012,4.267,9.118,9.118,0,0,0,1.183.654,58.9,58.9,0,0,0,12.23.953,60.307,60.307,0,0,0,12.126-.925,8.962,8.962,0,0,0,1.285-.711,2.246,2.246,0,0,0,0-4.2" transform="translate(-32.997 -10.972)" fill="#adadad"/>
        <path id="Trazado_900919" data-name="Trazado 900919" d="M296.589,99.871c-5.294,0-10.133-.38-12.326-.966a.323.323,0,0,1-.06-.022,9.251,9.251,0,0,1-1.232-.682,2.619,2.619,0,0,1,.011-4.881.368.368,0,0,1,.574.32c.57.538,5.408,1.287,13.033,1.287,7.671,0,12.522-.758,13.042-1.3a.369.369,0,0,1,.577-.276,2.6,2.6,0,0,1,0,4.815,9.12,9.12,0,0,1-1.337.741.6.6,0,0,1-.063.023,60.379,60.379,0,0,1-12.219.937m-12.1-1.672a59.441,59.441,0,0,0,12.1.932,61.115,61.115,0,0,0,12-.906,8.56,8.56,0,0,0,1.2-.666,2.513,2.513,0,0,0,1.3-1.8,2.19,2.19,0,0,0-.978-1.564c-.427.349-1.484.691-3.99.993a95.642,95.642,0,0,1-19.058,0c-2.546-.306-3.6-.655-4.009-1.01a2.21,2.21,0,0,0-1,1.581c0,.765.727,1.414,1.335,1.824a8.432,8.432,0,0,0,1.1.612" transform="translate(-32.948 -10.923)" fill="#5c2f10"/>
        <g id="Grupo_1115066" data-name="Grupo 1115066" transform="translate(250.586 82.738)" style="mix-blend-mode: multiply;isolation: isolate">
          <g id="Grupo_1115065" data-name="Grupo 1115065">
            <g id="Grupo_1115064" data-name="Grupo 1115064" clip-path="url(#clip-path-13)">
              <path id="Trazado_900920" data-name="Trazado 900920" d="M292.388,97.21c5.469.269,13.466.488,18.515-1.812a.86.86,0,0,1,.784.046,3.079,3.079,0,0,0-1.391-1.73l0,.022c0,.891-6.005,1.616-13.413,1.616-6.363,0-11.679-.536-13.055-1.25.333,2.808,6.709,3.019,8.559,3.109" transform="translate(-283.829 -93.714)" fill="#adadad"/>
            </g>
          </g>
        </g>
        <path id="Trazado_900921" data-name="Trazado 900921" d="M311.4,47.723a1.218,1.218,0,0,0-.17-.472.479.479,0,0,0-.331-.22.515.515,0,0,0-.363.108,1.446,1.446,0,0,0-.327.366,3.416,3.416,0,0,0-.212.375,7.729,7.729,0,0,0-.327.762,30.212,30.212,0,0,0-1.334,6.139c-.009.064-.023.128-.03.193a.879.879,0,0,1-.343-.241,3.863,3.863,0,0,1-.678-1.476c-.294-1.1-.575-2.21-.927-3.308a10.137,10.137,0,0,0-.648-1.625,1.837,1.837,0,0,0-.587-.7.6.6,0,0,0-.5-.058,1.029,1.029,0,0,0-.4.273,5.57,5.57,0,0,0-.881,1.541c-.235.534-.459,1.074-.683,1.612s-.449,1.078-.7,1.6A4.371,4.371,0,0,1,301.03,54a.533.533,0,0,1-.662.077,1.941,1.941,0,0,1-.557-.592,12.839,12.839,0,0,1-.8-1.542c-.487-1.067-.894-2.167-1.374-3.257-.123-.271-.249-.543-.4-.81a2.838,2.838,0,0,0-.267-.394.986.986,0,0,0-.434-.336.57.57,0,0,0-.348,0,.764.764,0,0,0-.267.159,1.661,1.661,0,0,0-.309.4,7.909,7.909,0,0,0-.388.824c-.47,1.082-.9,2.176-1.435,3.2a4.919,4.919,0,0,1-.928,1.354.649.649,0,0,1-.261.147.248.248,0,0,1-.2-.046,1.48,1.48,0,0,1-.412-.583c-.479-1.048-.9-2.138-1.393-3.2a6.765,6.765,0,0,0-.934-1.568,1.333,1.333,0,0,0-.456-.345.759.759,0,0,0-.373-.053.738.738,0,0,0-.348.14,1.924,1.924,0,0,0-.572.861c-.224.572-.372,1.122-.53,1.677s-.305,1.1-.468,1.638-.338,1.068-.546,1.574a4.687,4.687,0,0,1-.778,1.347,1.227,1.227,0,0,1-.249.214c-.016-.055-.026-.109-.042-.163-.268-.982-.554-1.977-.906-2.97-.177-.5-.37-1-.6-1.487-.109-.238-.245-.512-.374-.73a4.925,4.925,0,0,0-.48-.713,1.9,1.9,0,0,0-.356-.343.9.9,0,0,0-.295-.147.648.648,0,0,0-.466.043.761.761,0,0,0-.289.285,1.227,1.227,0,0,0-.11.268,2.237,2.237,0,0,0-.081.473,6.4,6.4,0,0,0,.156,1.716,8.434,8.434,0,0,0,1.372,3.131,4.458,4.458,0,0,0,1.3,1.254,1.681,1.681,0,0,0,.627.189c.439,1.673.821,3.333,1.181,4.941.418,1.856.8,3.657,1.162,5.386s.7,3.386,1.032,4.963q.226,1.187.445,2.311c.149.749.3,1.475.405,2.182.236,1.413.47,2.733.632,3.965.087.614.172,1.2.254,1.766s.137,1.1.2,1.615c.26,2.045.406,3.659.5,4.757s.123,1.69.123,1.69l.074,0s-.015-.591-.071-1.7-.152-2.723-.349-4.778c-.049-.513-.1-1.055-.155-1.624s-.139-1.16-.212-1.776c-.134-1.237-.338-2.569-.545-4-.094-.714-.225-1.443-.354-2.194s-.269-1.526-.408-2.319q-.462-2.375-.966-4.986c-.633-3.215-1.311-6.7-2.241-10.323a1.938,1.938,0,0,0,.6-.418,5.326,5.326,0,0,0,.9-1.564c.217-.542.393-1.09.558-1.642.328-1.092.577-2.235.954-3.26a1.443,1.443,0,0,1,.34-.581c.057-.032.037-.031.1-.016a.763.763,0,0,1,.226.181,6.509,6.509,0,0,1,.842,1.4c.5,1.03.93,2.114,1.437,3.181a1.991,1.991,0,0,0,.624.809.815.815,0,0,0,.633.12,1.178,1.178,0,0,0,.5-.273,5.332,5.332,0,0,0,1.04-1.535c.529-1.073.94-2.179,1.385-3.265a7.365,7.365,0,0,1,.346-.781,1.254,1.254,0,0,1,.217-.3c.086-.077.132-.092.194-.074.154.048.346.3.485.536s.275.5.4.764c.487,1.062.918,2.165,1.432,3.233a12.5,12.5,0,0,0,.853,1.571,2.181,2.181,0,0,0,.66.664.79.79,0,0,0,.507.107.95.95,0,0,0,.459-.216,2.831,2.831,0,0,0,.573-.72c.153-.257.286-.523.411-.789.249-.537.471-1.078.695-1.62s.44-1.08.67-1.612a5.411,5.411,0,0,1,.83-1.481c.182-.2.428-.32.636-.179a1.628,1.628,0,0,1,.5.623,9.986,9.986,0,0,1,.617,1.589c.339,1.094.61,2.2.9,3.305a4.142,4.142,0,0,0,.72,1.6,1.171,1.171,0,0,0,.511.36c-.266,1.815-.6,3.591-.9,5.305q-.5,2.813-.969,5.428c-1.27,6.954-2.326,12.75-3.068,16.808-.718,4.061-1.127,6.383-1.127,6.383l.068.015s.125-.577.361-1.657.569-2.665,1-4.683.916-4.474,1.493-7.289,1.19-6,1.854-9.471c.63-3.363,1.351-6.986,1.9-10.872a1.7,1.7,0,0,0,.555-.337,4.828,4.828,0,0,0,.957-1.444,10.4,10.4,0,0,0,.574-1.593,13.922,13.922,0,0,0,.5-3.3,4.349,4.349,0,0,0-.057-.855m-27.947,6.092a7.656,7.656,0,0,1-1.223-2.855,5.677,5.677,0,0,1-.147-1.5,1.574,1.574,0,0,1,.054-.318.125.125,0,0,1,.019-.048,1.174,1.174,0,0,1,.207.2,6.383,6.383,0,0,1,.756,1.28c.215.463.4.94.577,1.421.343.964.633,1.941.9,2.91a.809.809,0,0,1-.079-.032,3.8,3.8,0,0,1-1.06-1.062m27.118-2.044a10.129,10.129,0,0,1-.516,1.547,4.542,4.542,0,0,1-.853,1.359,1.627,1.627,0,0,1-.276.22c0-.013.005-.026.007-.039.125-1,.277-2.008.473-3.021a21.423,21.423,0,0,1,.759-3.016c.087-.245.181-.486.288-.715a1.887,1.887,0,0,1,.374-.564c.005,0,0,0,0,0a.814.814,0,0,1,.1.274,4.525,4.525,0,0,1,.063.763,14.079,14.079,0,0,1-.418,3.2" transform="translate(-32.951 -5.508)" fill="#adadad"/>
        <g id="Grupo_1115069" data-name="Grupo 1115069" transform="translate(235.1 16.552)" style="mix-blend-mode: multiply;isolation: isolate">
          <g id="Grupo_1115068" data-name="Grupo 1115068">
            <g id="Grupo_1115067" data-name="Grupo 1115067" clip-path="url(#clip-path-14)">
              <path id="Trazado_900922" data-name="Trazado 900922" d="M323.386,44.123a19.583,19.583,0,0,0-.439-4.26c-2.312-11.986-14-21.115-28.106-21.115s-25.8,9.129-28.107,21.115a19.41,19.41,0,0,0-.44,4.26c0,.025,0,.048,0,.072s0,.027,0,.041c.005.615.046,1.229.1,1.842a22.893,22.893,0,0,0,.71,4.067c1.991,7.907,7.13,15.163,9.584,19.55a42.473,42.473,0,0,1,4.737,15.224.089.089,0,0,0-.009.038c0,.891,6.005,1.616,13.414,1.616s13.413-.725,13.413-1.616h.009a42.494,42.494,0,0,1,4.738-15.262c2.454-4.384,7.59-11.641,9.583-19.548a22.838,22.838,0,0,0,.71-4.068c.057-.613.1-1.226.105-1.842,0-.013,0-.026,0-.041s0-.048,0-.072M310.127,63.338c-10.328,8.424-27.784,5.466-36.143-4.289a25.327,25.327,0,0,1-5.037-20.607c1.692-7.433,6.5-12.278,13.042-15.744.4-.21,3.832-1.847,4.029-1.557,13.249-3.358,22.264.026,28.964,8.379C323.386,40,320.6,54.8,310.127,63.338" transform="translate(-266.289 -18.748)" fill="#faec8d"/>
            </g>
          </g>
        </g>
        <g id="Grupo_1115072" data-name="Grupo 1115072" transform="translate(245.578 66.264)" style="mix-blend-mode: multiply;isolation: isolate">
          <g id="Grupo_1115071" data-name="Grupo 1115071">
            <g id="Grupo_1115070" data-name="Grupo 1115070" clip-path="url(#clip-path-15)">
              <path id="Trazado_900923" data-name="Trazado 900923" d="M290.375,83a24.892,24.892,0,0,1-12.219-6.565,42.576,42.576,0,0,1,4.659,15.075.092.092,0,0,0-.009.038c0,.891,6.005,1.616,13.413,1.616s13.414-.725,13.414-1.616h.008a42.479,42.479,0,0,1,4.739-15.261c.215-.382.47-.81.719-1.234-6.765,6.275-15.36,10.054-24.723,7.948" transform="translate(-278.157 -75.055)" fill="#faec8d"/>
            </g>
          </g>
        </g>
        <g id="Grupo_1115075" data-name="Grupo 1115075" transform="translate(240.207 47.321)" style="mix-blend-mode: screen;isolation: isolate">
          <g id="Grupo_1115074" data-name="Grupo 1115074">
            <g id="Grupo_1115073" data-name="Grupo 1115073" clip-path="url(#clip-path-16)">
              <path id="Trazado_900924" data-name="Trazado 900924" d="M272.074,53.6c1.62,5.208,4.745,9.366,7.137,10.688a40.471,40.471,0,0,1-3.249-9.094c-1.32-.475-2.616-1.011-3.888-1.594" transform="translate(-272.074 -53.599)" fill="#faecd0"/>
            </g>
          </g>
        </g>
        <g id="Grupo_1115078" data-name="Grupo 1115078" transform="translate(239.129 19.066)" style="mix-blend-mode: screen;isolation: isolate">
          <g id="Grupo_1115077" data-name="Grupo 1115077">
            <g id="Grupo_1115076" data-name="Grupo 1115076" clip-path="url(#clip-path-17)">
              <path id="Trazado_900925" data-name="Trazado 900925" d="M295.167,21.595s-15.191.976-21.766,11.955A18.257,18.257,0,0,0,270.869,43.8c1.446.954,2.86,1.962,4.3,2.913-.2-4.1.421-8.575,3.9-11.435,13.926-11.46,32.042-7.27,38.819,3.2,0,0-3.08-16.883-22.721-16.883" transform="translate(-270.853 -21.595)" fill="#faecd0"/>
            </g>
          </g>
        </g>
        <path id="Trazado_900926" data-name="Trazado 900926" d="M260.55,49.979a.478.478,0,0,1-.479.478H249.938a.479.479,0,1,1,0-.957h10.133a.478.478,0,0,1,.479.479" transform="translate(-29.218 -5.798)" fill="#fabe52"/>
        <path id="Trazado_900927" data-name="Trazado 900927" d="M348.069,49.979a.478.478,0,0,1-.48.478H337.457a.479.479,0,1,1,0-.957h10.131a.478.478,0,0,1,.48.479" transform="translate(-39.468 -5.798)" fill="#fabe52"/>
        <path id="Trazado_900928" data-name="Trazado 900928" d="M271.163,21.71a.431.431,0,0,1-.609,0L264.1,15.252a.431.431,0,1,1,.608-.61l6.455,6.456a.43.43,0,0,1,0,.612" transform="translate(-30.918 -1.7)" fill="#fabe52"/>
        <path id="Trazado_900929" data-name="Trazado 900929" d="M331.928,81.615a.432.432,0,0,1-.61,0l-6.456-6.456a.431.431,0,1,1,.608-.61L331.93,81a.432.432,0,0,1,0,.612" transform="translate(-38.035 -8.716)" fill="#fabe52"/>
        <path id="Trazado_900930" data-name="Trazado 900930" d="M324.864,21.71a.431.431,0,0,0,.609,0l6.456-6.456a.432.432,0,1,0-.611-.61L324.864,21.1a.432.432,0,0,0,0,.612" transform="translate(-38.035 -1.7)" fill="#fabe52"/>
        <path id="Trazado_900931" data-name="Trazado 900931" d="M264.1,81.615a.431.431,0,0,0,.609,0l6.454-6.456a.431.431,0,1,0-.608-.61L264.1,81a.432.432,0,0,0,0,.612" transform="translate(-30.918 -8.716)" fill="#fabe52"/>
        <path id="Trazado_900932" data-name="Trazado 900932" d="M299.435,11.091a.478.478,0,0,1-.479-.479V.479a.479.479,0,1,1,.959,0V10.611a.479.479,0,0,1-.479.479" transform="translate(-35.015)" fill="#fabe52"/>
        <path id="Trazado_900933" data-name="Trazado 900933" d="M299.435,11.091a.478.478,0,0,1-.479-.479V.479a.479.479,0,1,1,.959,0V10.611a.479.479,0,0,1-.479.479" transform="translate(-35.015)" fill="#fabe52"/>
        <path id="Trazado_900934" data-name="Trazado 900934" d="M40.04,210.517c-5.071,0-9.182,1.442-9.182,3.22,0,1.633,3.468,2.982,7.964,3.192l-.015.029H57.42v-6.441Z" transform="translate(-3.614 -24.657)" fill="#c38f4a"/>
        <path id="Trazado_900935" data-name="Trazado 900935" d="M57.371,217.278H38.758a.362.362,0,0,1-.162-.037c-5.6-.29-8.159-2.039-8.159-3.553,0-1.739,3.348-3.589,9.553-3.589h17.38a.369.369,0,0,1,.37.369v6.441a.369.369,0,0,1-.37.369m-18.454-.739H57v-5.7H39.991c-5.193,0-8.813,1.5-8.813,2.85,0,1.187,2.91,2.6,7.614,2.823a.355.355,0,0,1,.125.028" transform="translate(-3.565 -24.608)" fill="#5c2f10"/>
        <path id="Trazado_900936" data-name="Trazado 900936" d="M40.04,209.418c-5.071,0-9.182,1.441-9.182,3.22,0,1.633,3.468,2.982,7.964,3.192l-.015.028H57.42v-6.44Z" transform="translate(-3.614 -24.528)" fill="#cbc37c"/>
        <path id="Trazado_900937" data-name="Trazado 900937" d="M57.371,216.179H38.758a.362.362,0,0,1-.162-.038c-5.6-.29-8.159-2.038-8.159-3.552,0-1.741,3.348-3.59,9.553-3.59h17.38a.369.369,0,0,1,.37.37v6.44a.37.37,0,0,1-.37.37m-18.454-.74H57v-5.7H39.991c-5.193,0-8.813,1.5-8.813,2.85,0,1.186,2.91,2.6,7.614,2.821a.377.377,0,0,1,.125.029" transform="translate(-3.565 -24.479)" fill="#5c2f10"/>
        <path id="Trazado_900938" data-name="Trazado 900938" d="M197.07,210.517c5.071,0,9.182,1.442,9.182,3.22,0,1.633-3.47,2.982-7.966,3.192l.017.029H179.69v-6.441Z" transform="translate(-21.046 -24.657)" fill="#c38f4a"/>
        <path id="Trazado_900939" data-name="Trazado 900939" d="M198.261,217.278h-18.62a.371.371,0,0,1-.371-.369v-6.441a.371.371,0,0,1,.371-.369h17.381c6.2,0,9.552,1.85,9.552,3.589,0,1.513-2.552,3.26-8.149,3.553a.383.383,0,0,1-.164.037m-18.25-.739h18.082a.374.374,0,0,1,.128-.028c4.7-.219,7.614-1.635,7.614-2.823,0-1.347-3.62-2.85-8.813-2.85H180.011Z" transform="translate(-20.997 -24.608)" fill="#5c2f10"/>
        <path id="Trazado_900940" data-name="Trazado 900940" d="M197.07,209.418c5.071,0,9.182,1.441,9.182,3.22,0,1.633-3.47,2.982-7.966,3.192l.017.028H179.69v-6.44Z" transform="translate(-21.046 -24.528)" fill="#cbc37c"/>
        <path id="Trazado_900941" data-name="Trazado 900941" d="M198.261,216.179h-18.62a.372.372,0,0,1-.371-.37v-6.44a.371.371,0,0,1,.371-.37h17.381c6.2,0,9.552,1.849,9.552,3.59,0,1.513-2.552,3.26-8.149,3.552a.383.383,0,0,1-.164.038m-18.25-.74h18.082a.4.4,0,0,1,.128-.029c4.7-.218,7.614-1.635,7.614-2.821,0-1.349-3.62-2.85-8.813-2.85H180.011Z" transform="translate(-20.997 -24.479)" fill="#5c2f10"/>
        <path id="Trazado_900942" data-name="Trazado 900942" d="M48.554,196.89l3.63-9.292v20.667l-3.63,9.615Z" transform="translate(-5.687 -21.972)" fill="#858585"/>
        <path id="Trazado_900943" data-name="Trazado 900943" d="M48.505,218.2a.422.422,0,0,1-.066-.006.37.37,0,0,1-.3-.364V196.841a.4.4,0,0,1,.023-.134l3.632-9.293a.365.365,0,0,1,.412-.229.369.369,0,0,1,.3.364v20.667a.388.388,0,0,1-.023.131l-3.631,9.615a.367.367,0,0,1-.345.239m.37-21.29V215.8l2.889-7.655V189.511Z" transform="translate(-5.638 -21.923)" fill="#5c2f10"/>
        <path id="Trazado_900944" data-name="Trazado 900944" d="M191.6,196.89l-3.63-9.292v20.667l3.63,9.615Z" transform="translate(-22.016 -21.972)" fill="#858585"/>
        <path id="Trazado_900945" data-name="Trazado 900945" d="M191.549,218.2a.371.371,0,0,1-.346-.24l-3.63-9.614a.394.394,0,0,1-.024-.132V187.548a.37.37,0,0,1,.715-.134l3.63,9.292a.389.389,0,0,1,.025.134V217.83a.369.369,0,0,1-.3.364.345.345,0,0,1-.066.007m-3.26-10.052,2.89,7.655V196.91l-2.89-7.4Z" transform="translate(-21.967 -21.923)" fill="#5c2f10"/>
        <rect id="Rectángulo_408064" data-name="Rectángulo 408064" width="119.457" height="19.787" transform="translate(46.497 165.625)" fill="#3b3b3b"/>
        <path id="Trazado_900946" data-name="Trazado 900946" d="M172.072,207.7H52.616a.369.369,0,0,1-.37-.37V187.548a.37.37,0,0,1,.37-.37H172.072a.369.369,0,0,1,.37.37v19.787a.368.368,0,0,1-.37.37m-119.087-.74H171.7V187.918H52.986Z" transform="translate(-6.119 -21.923)" fill="#5c2f10"/>
        <path id="Trazado_900947" data-name="Trazado 900947" d="M98.334,189.114H55c-1.549,0-2.8,3.561-2.8,7.953s1.256,7.954,2.8,7.954H98.334c1.549,0,2.8-3.562,2.8-7.954s-1.255-7.953-2.8-7.953" transform="translate(-6.113 -22.15)" fill="#c7c7c7"/>
        <path id="Trazado_900948" data-name="Trazado 900948" d="M98.284,205.342H54.952c-2.063,0-3.175-4.288-3.175-8.324s1.112-8.323,3.175-8.323H98.284c2.061,0,3.175,4.289,3.175,8.323s-1.114,8.324-3.175,8.324M54.952,189.435c-1.151,0-2.436,3.115-2.436,7.583S53.8,204.6,54.952,204.6H98.284c1.151,0,2.435-3.115,2.435-7.584s-1.284-7.583-2.435-7.583Z" transform="translate(-6.064 -22.101)" fill="#5c2f10"/>
        <path id="Trazado_900949" data-name="Trazado 900949" d="M166.709,177.072H65.451c-3.618,0-6.554,8.32-6.554,18.585s2.936,18.585,6.554,18.585H166.709c3.619,0,6.554-8.321,6.554-18.585s-2.935-18.585-6.554-18.585" transform="translate(-6.898 -20.74)" fill="#858585"/>
        <path id="Trazado_900950" data-name="Trazado 900950" d="M166.66,214.563H65.4c-3.883,0-6.924-8.326-6.924-18.955s3.041-18.954,6.924-18.954H166.66c3.883,0,6.924,8.326,6.924,18.954s-3.041,18.955-6.924,18.955M65.4,177.393c-3.352,0-6.182,8.341-6.182,18.215s2.83,18.215,6.182,18.215H166.66c3.352,0,6.185-8.341,6.185-18.215s-2.832-18.215-6.185-18.215Z" transform="translate(-6.849 -20.69)" fill="#5c2f10"/>
        <g id="Grupo_1115084" data-name="Grupo 1115084" transform="translate(51.999 156.333)" style="mix-blend-mode: overlay;isolation: isolate">
          <g id="Grupo_1115083" data-name="Grupo 1115083">
            <g id="Grupo_1115082" data-name="Grupo 1115082" clip-path="url(#clip-path-18)">
              <g id="Grupo_1115081" data-name="Grupo 1115081" style="mix-blend-mode: screen;isolation: isolate">
                <g id="Grupo_1115080" data-name="Grupo 1115080">
                  <g id="Grupo_1115079" data-name="Grupo 1115079" clip-path="url(#clip-path-19)">
                    <path id="Trazado_900951" data-name="Trazado 900951" d="M65.451,182.388H166.709c3.619,0,6.554,5.941,6.554,13.269,0-10.264-2.935-18.585-6.554-18.585H65.451c-3.618,0-6.554,8.32-6.554,18.585,0-7.328,2.936-13.269,6.554-13.269" transform="translate(-58.897 -177.072)" fill="#484848"/>
                  </g>
                </g>
              </g>
              <path id="Trazado_900952" data-name="Trazado 900952" d="M166.709,211.392H65.451c-3.618,0-6.554-5.942-6.554-13.269,0,10.264,2.936,18.585,6.554,18.585H166.709c3.619,0,6.554-8.32,6.554-18.585,0,7.327-2.935,13.269-6.554,13.269" transform="translate(-58.897 -179.538)" fill="#484848"/>
            </g>
          </g>
        </g>
        <g id="Grupo_1115087" data-name="Grupo 1115087" transform="translate(51.999 156.333)" style="mix-blend-mode: overlay;isolation: isolate">
          <g id="Grupo_1115086" data-name="Grupo 1115086">
            <g id="Grupo_1115085" data-name="Grupo 1115085" clip-path="url(#clip-path-20)">
              <path id="Trazado_900953" data-name="Trazado 900953" d="M89.211,177.072H65.451c-3.618,0-6.554,8.32-6.554,18.585s2.936,18.585,6.554,18.585h23.76Z" transform="translate(-58.897 -177.072)" fill="#3b54a4"/>
            </g>
          </g>
        </g>
        <path id="Trazado_900954" data-name="Trazado 900954" d="M71.5,188.8H68.171v6.563H61.608V198.7h6.563v6.563H71.5V198.7h6.563v-3.329H71.5Z" transform="translate(-7.216 -22.113)" fill="#fff"/>
        <rect id="Rectángulo_408068" data-name="Rectángulo 408068" width="16.456" height="3.329" transform="translate(147.529 173.253)" fill="#fff"/>
        <rect id="Rectángulo_408069" data-name="Rectángulo 408069" width="126.716" height="20.989" transform="translate(42.867 174.918)" fill="#3b3b3b"/>
        <path id="Trazado_900955" data-name="Trazado 900955" d="M175.221,219.433H48.505a.369.369,0,0,1-.369-.37V198.074a.369.369,0,0,1,.369-.37H175.221a.37.37,0,0,1,.37.37v20.989a.37.37,0,0,1-.37.37m-126.346-.74H174.852v-20.25H48.875Z" transform="translate(-5.638 -23.156)" fill="#5c2f10"/>
        <path id="Trazado_900956" data-name="Trazado 900956" d="M262.629,210.82l-.578-2.522-2.462.492-2.826.567-3.705.534c-.679.09-1.383.217-2.119.287l-2.283.212-2.409.223c-.822.064-1.669.087-2.525.132l-2.613.125c-.883.034-1.778.019-2.68.031l-2.724.017-2.746-.084c-3.667-.091-7.326-.41-10.749-.75-3.418-.4-6.6-.833-9.31-1.327-2.711-.463-4.949-.952-6.508-1.306-.78-.184-1.389-.328-1.8-.436l-.621-.162-.691,2.495.667.174c.431.113,1.058.262,1.858.45,1.6.364,3.885.862,6.646,1.335,2.758.5,6,.943,9.474,1.35,3.484.347,7.21.671,10.946.765l2.8.085,2.778-.017c.92-.012,1.834,0,2.735-.033l2.668-.126c.876-.048,1.739-.071,2.58-.136l2.464-.229,2.335-.217c.752-.072,1.475-.2,2.171-.293l3.8-.549,2.9-.58,2.527-.507" transform="translate(-23.809 -24.228)" fill="#9dd8db"/>
        <path id="Trazado_900957" data-name="Trazado 900957" d="M235.62,213.827h-.011l-2.8-.086c-3.852-.1-7.707-.441-10.97-.765-3.9-.457-7.009-.9-9.5-1.355-2.817-.481-5.152-.993-6.662-1.338-.827-.194-1.443-.34-1.87-.453l-.664-.174a.371.371,0,0,1-.265-.456l.69-2.5a.369.369,0,0,1,.449-.26l.622.161c.394.106.963.24,1.789.434,1.47.334,3.742.833,6.487,1.3,2.427.442,5.463.875,9.289,1.324,3.2.317,6.973.655,10.715.747l2.747.085,2.711-.018c.32,0,.643-.005.965-.006.562,0,1.142,0,1.7-.025l2.607-.124c.305-.017.61-.03.915-.043.554-.025,1.077-.048,1.6-.088l4.685-.435c.464-.044.925-.113,1.37-.179.249-.037.494-.074.735-.106l3.7-.534,5.271-1.055a.37.37,0,0,1,.433.28l.578,2.523a.355.355,0,0,1-.049.283.365.365,0,0,1-.237.162l-5.432,1.087-3.817.552c-.247.034-.493.07-.742.107-.467.07-.948.141-1.447.189l-4.8.446c-.554.043-1.125.069-1.674.093-.3.013-.612.027-.92.044l-2.669.127c-.592.022-1.195.024-1.776.026-.323,0-.646,0-.972.006l-2.782.017Zm-31.932-4.791.3.079c.419.111,1.032.256,1.85.449,1.5.34,3.821.85,6.625,1.33,2.483.452,5.574.893,9.454,1.347,3.244.323,7.081.666,10.911.762l2.8.085,2.771-.017c.325,0,.651-.005.977-.006.575,0,1.171,0,1.745-.026l2.665-.127c.307-.016.616-.03.923-.044.569-.025,1.108-.049,1.644-.091l4.794-.445c.479-.045.952-.116,1.409-.185.253-.037.5-.075.75-.107l3.792-.548,5.038-1.009-.413-1.8-4.937.988-3.725.539c-.241.032-.482.068-.727.1-.454.068-.923.139-1.41.184l-4.69.437c-.543.042-1.1.066-1.633.089-.3.014-.6.027-.908.043l-2.614.124c-.58.023-1.167.025-1.735.026-.32,0-.639,0-.961.006l-2.726.018-2.76-.085c-3.765-.094-7.559-.433-10.773-.752-3.848-.451-6.9-.886-9.338-1.331-2.758-.471-5.045-.972-6.525-1.309-.834-.2-1.409-.332-1.812-.439l-.266-.069Z" transform="translate(-23.76 -24.179)" fill="#5c2f10"/>
        <g id="Grupo_1115090" data-name="Grupo 1115090" transform="translate(179.816 182.626)" style="mix-blend-mode: multiply;isolation: isolate">
          <g id="Grupo_1115089" data-name="Grupo 1115089">
            <g id="Grupo_1115088" data-name="Grupo 1115088" clip-path="url(#clip-path-21)">
              <path id="Trazado_900958" data-name="Trazado 900958" d="M262.388,209.559,262.1,208.3l-2.462.492-2.826.567-3.705.534c-.679.09-1.383.218-2.119.287l-2.283.212-2.409.223c-.823.065-1.67.087-2.526.133l-2.613.124c-.883.034-1.777.019-2.68.031l-2.724.018L233,210.834c-3.667-.091-7.326-.41-10.749-.75-3.418-.4-6.6-.833-9.31-1.328-2.711-.463-4.949-.951-6.508-1.306-.78-.184-1.389-.327-1.8-.436l-.621-.161-.346,1.247s3.575.987,9.05,1.931c2.732.5,5.945.935,9.39,1.338,3.454.343,7.146.665,10.847.757l2.774.085,2.751-.018c.911-.011,1.815,0,2.706-.032l2.642-.125c.866-.047,1.72-.069,2.552-.134l2.439-.227,2.306-.215c.745-.071,1.458-.2,2.147-.29l3.75-.541,2.865-.574,2.5-.5" transform="translate(-203.671 -206.854)" fill="#9dd8db"/>
            </g>
          </g>
        </g>
        <path id="Trazado_900959" data-name="Trazado 900959" d="M40.04,108.891c-5.071,0-9.182,1.442-9.182,3.221,0,1.633,3.468,2.981,7.964,3.191l-.015.029H57.42v-6.441Z" transform="translate(-3.614 -12.754)" fill="#c38f4a"/>
        <path id="Trazado_900960" data-name="Trazado 900960" d="M57.371,115.653H38.758a.362.362,0,0,1-.162-.038c-5.6-.29-8.159-2.039-8.159-3.552,0-1.74,3.348-3.59,9.553-3.59h17.38a.369.369,0,0,1,.37.369v6.441a.37.37,0,0,1-.37.37m-18.454-.74H57v-5.7H39.991c-5.193,0-8.813,1.5-8.813,2.851,0,1.187,2.91,2.6,7.614,2.822a.356.356,0,0,1,.125.028" transform="translate(-3.565 -12.705)" fill="#5c2f10"/>
        <path id="Trazado_900961" data-name="Trazado 900961" d="M40.04,107.792c-5.071,0-9.182,1.441-9.182,3.22,0,1.633,3.468,2.982,7.964,3.192l-.015.029H57.42v-6.441Z" transform="translate(-3.614 -12.625)" fill="#cbc37c"/>
        <path id="Trazado_900962" data-name="Trazado 900962" d="M57.371,114.552H38.758a.362.362,0,0,1-.162-.038c-5.6-.29-8.159-2.038-8.159-3.552,0-1.741,3.348-3.591,9.553-3.591h17.38a.37.37,0,0,1,.37.37v6.441a.37.37,0,0,1-.37.37m-18.454-.74H57v-5.7H39.991c-5.193,0-8.813,1.5-8.813,2.851,0,1.187,2.91,2.6,7.614,2.821a.377.377,0,0,1,.125.029" transform="translate(-3.565 -12.576)" fill="#5c2f10"/>
        <path id="Trazado_900963" data-name="Trazado 900963" d="M197.07,108.891c5.071,0,9.182,1.442,9.182,3.221,0,1.633-3.47,2.981-7.966,3.191l.017.029H179.69v-6.441Z" transform="translate(-21.046 -12.754)" fill="#c38f4a"/>
        <path id="Trazado_900964" data-name="Trazado 900964" d="M198.261,115.653h-18.62a.372.372,0,0,1-.371-.37v-6.441a.371.371,0,0,1,.371-.369h17.381c6.2,0,9.552,1.85,9.552,3.59,0,1.512-2.552,3.259-8.149,3.551a.372.372,0,0,1-.164.039m-18.25-.74h18.082a.375.375,0,0,1,.128-.028c4.7-.219,7.614-1.635,7.614-2.822,0-1.348-3.62-2.851-8.813-2.851H180.011Z" transform="translate(-20.997 -12.705)" fill="#5c2f10"/>
        <path id="Trazado_900965" data-name="Trazado 900965" d="M197.07,107.792c5.071,0,9.182,1.441,9.182,3.22,0,1.633-3.47,2.982-7.966,3.192l.017.029H179.69v-6.441Z" transform="translate(-21.046 -12.625)" fill="#cbc37c"/>
        <path id="Trazado_900966" data-name="Trazado 900966" d="M198.261,114.552h-18.62a.372.372,0,0,1-.371-.37v-6.441a.372.372,0,0,1,.371-.37h17.381c6.2,0,9.552,1.85,9.552,3.591,0,1.513-2.552,3.26-8.149,3.552a.383.383,0,0,1-.164.038m-18.25-.74h18.082a.4.4,0,0,1,.128-.029c4.7-.218,7.614-1.634,7.614-2.821,0-1.348-3.62-2.851-8.813-2.851H180.011Z" transform="translate(-20.997 -12.576)" fill="#5c2f10"/>
        <path id="Trazado_900967" data-name="Trazado 900967" d="M48.554,95.263l3.63-9.292v20.667l-3.63,9.615Z" transform="translate(-5.687 -10.069)" fill="#858585"/>
        <path id="Trazado_900968" data-name="Trazado 900968" d="M48.505,116.574a.421.421,0,0,1-.066-.006.369.369,0,0,1-.3-.364V95.214a.4.4,0,0,1,.023-.134l3.632-9.293a.366.366,0,0,1,.412-.229.37.37,0,0,1,.3.364v20.667a.392.392,0,0,1-.023.131l-3.631,9.615a.367.367,0,0,1-.345.239m.37-21.29v18.893l2.889-7.655V87.884Z" transform="translate(-5.638 -10.02)" fill="#5c2f10"/>
        <path id="Trazado_900969" data-name="Trazado 900969" d="M191.6,95.263l-3.63-9.292v20.667l3.63,9.615Z" transform="translate(-22.016 -10.069)" fill="#858585"/>
        <path id="Trazado_900970" data-name="Trazado 900970" d="M191.549,116.574a.371.371,0,0,1-.346-.24l-3.63-9.614a.393.393,0,0,1-.024-.131V85.923a.37.37,0,0,1,.715-.135l3.63,9.293a.376.376,0,0,1,.025.133V116.2a.371.371,0,0,1-.3.364.43.43,0,0,1-.066.006m-3.26-10.052,2.89,7.655V95.284l-2.89-7.4Z" transform="translate(-21.967 -10.02)" fill="#5c2f10"/>
        <rect id="Rectángulo_408071" data-name="Rectángulo 408071" width="119.457" height="19.787" transform="translate(46.497 75.902)" fill="#3b3b3b"/>
        <path id="Trazado_900971" data-name="Trazado 900971" d="M172.072,106.079H52.616a.37.37,0,0,1-.37-.37V85.922a.37.37,0,0,1,.37-.37H172.072a.369.369,0,0,1,.37.37v19.787a.369.369,0,0,1-.37.37m-119.087-.74H171.7V86.292H52.986Z" transform="translate(-6.119 -10.02)" fill="#5c2f10"/>
        <path id="Trazado_900972" data-name="Trazado 900972" d="M98.334,87.488H55c-1.549,0-2.8,3.561-2.8,7.953s1.256,7.954,2.8,7.954H98.334c1.549,0,2.8-3.562,2.8-7.954s-1.255-7.953-2.8-7.953" transform="translate(-6.113 -10.247)" fill="#c7c7c7"/>
        <path id="Trazado_900973" data-name="Trazado 900973" d="M98.284,103.716H54.952c-2.063,0-3.175-4.288-3.175-8.324s1.112-8.323,3.175-8.323H98.284c2.061,0,3.175,4.289,3.175,8.323s-1.114,8.324-3.175,8.324M54.952,87.809c-1.151,0-2.436,3.115-2.436,7.583s1.285,7.584,2.436,7.584H98.284c1.151,0,2.435-3.115,2.435-7.584s-1.284-7.583-2.435-7.583Z" transform="translate(-6.064 -10.198)" fill="#5c2f10"/>
        <path id="Trazado_900974" data-name="Trazado 900974" d="M166.709,75.446H65.451c-3.618,0-6.554,8.32-6.554,18.585s2.936,18.585,6.554,18.585H166.709c3.619,0,6.554-8.321,6.554-18.585s-2.935-18.585-6.554-18.585" transform="translate(-6.898 -8.837)" fill="#858585"/>
        <path id="Trazado_900975" data-name="Trazado 900975" d="M166.66,112.937H65.4c-3.883,0-6.924-8.326-6.924-18.955S61.519,75.027,65.4,75.027H166.66c3.883,0,6.924,8.326,6.924,18.954s-3.041,18.955-6.924,18.955M65.4,75.767c-3.352,0-6.182,8.341-6.182,18.215S62.049,112.2,65.4,112.2H166.66c3.352,0,6.185-8.341,6.185-18.215s-2.832-18.215-6.185-18.215Z" transform="translate(-6.849 -8.788)" fill="#5c2f10"/>
        <g id="Grupo_1115096" data-name="Grupo 1115096" transform="translate(51.999 66.609)" style="mix-blend-mode: overlay;isolation: isolate">
          <g id="Grupo_1115095" data-name="Grupo 1115095">
            <g id="Grupo_1115094" data-name="Grupo 1115094" clip-path="url(#clip-path-22)">
              <g id="Grupo_1115093" data-name="Grupo 1115093" style="mix-blend-mode: screen;isolation: isolate">
                <g id="Grupo_1115092" data-name="Grupo 1115092">
                  <g id="Grupo_1115091" data-name="Grupo 1115091" clip-path="url(#clip-path-19)">
                    <path id="Trazado_900976" data-name="Trazado 900976" d="M65.451,80.761H166.709c3.619,0,6.554,5.941,6.554,13.27,0-10.264-2.935-18.585-6.554-18.585H65.451c-3.618,0-6.554,8.321-6.554,18.585,0-7.329,2.936-13.27,6.554-13.27" transform="translate(-58.897 -75.446)" fill="#484848"/>
                  </g>
                </g>
              </g>
              <path id="Trazado_900977" data-name="Trazado 900977" d="M166.709,109.765H65.451c-3.618,0-6.554-5.941-6.554-13.269,0,10.264,2.936,18.585,6.554,18.585H166.709c3.619,0,6.554-8.321,6.554-18.585,0,7.328-2.935,13.269-6.554,13.269" transform="translate(-58.897 -77.911)" fill="#484848"/>
            </g>
          </g>
        </g>
        <g id="Grupo_1115099" data-name="Grupo 1115099" transform="translate(51.999 66.609)" style="mix-blend-mode: overlay;isolation: isolate">
          <g id="Grupo_1115098" data-name="Grupo 1115098">
            <g id="Grupo_1115097" data-name="Grupo 1115097" clip-path="url(#clip-path-24)">
              <path id="Trazado_900978" data-name="Trazado 900978" d="M89.211,75.446H65.451c-3.618,0-6.554,8.32-6.554,18.585s2.936,18.585,6.554,18.585h23.76Z" transform="translate(-58.897 -75.446)" fill="#3b54a4"/>
            </g>
          </g>
        </g>
        <path id="Trazado_900979" data-name="Trazado 900979" d="M71.5,87.177H68.171v6.564H61.608v3.328h6.563v6.563H71.5V97.069h6.563V93.741H71.5Z" transform="translate(-7.216 -10.211)" fill="#fff"/>
        <rect id="Rectángulo_408075" data-name="Rectángulo 408075" width="16.456" height="3.328" transform="translate(147.529 83.53)" fill="#fff"/>
        <rect id="Rectángulo_408076" data-name="Rectángulo 408076" width="126.716" height="20.989" transform="translate(42.867 85.195)" fill="#3b3b3b"/>
        <path id="Trazado_900980" data-name="Trazado 900980" d="M175.221,117.807H48.505a.369.369,0,0,1-.369-.37V96.447a.368.368,0,0,1,.369-.369H175.221a.369.369,0,0,1,.37.369v20.99a.37.37,0,0,1-.37.37m-126.346-.74H174.852V96.817H48.875Z" transform="translate(-5.638 -11.253)" fill="#5c2f10"/>
        <path id="Trazado_900981" data-name="Trazado 900981" d="M262.629,109.194l-.578-2.522-2.462.492-2.826.567-3.705.534c-.679.09-1.383.217-2.119.287l-2.283.212-2.409.223c-.822.065-1.669.087-2.525.133l-2.613.124c-.883.034-1.778.019-2.68.031l-2.724.017-2.746-.083c-3.667-.091-7.326-.411-10.749-.75-3.418-.4-6.6-.833-9.31-1.327-2.711-.464-4.949-.953-6.508-1.307-.78-.184-1.389-.327-1.8-.436l-.621-.162-.691,2.5.667.173c.431.114,1.058.262,1.858.45,1.6.364,3.885.863,6.646,1.335,2.758.5,6,.943,9.474,1.35,3.484.347,7.21.671,10.946.765l2.8.086,2.778-.018c.92-.012,1.834,0,2.735-.033l2.668-.126c.876-.047,1.739-.07,2.58-.136l2.464-.229,2.335-.217c.752-.072,1.475-.2,2.171-.293l3.8-.549,2.9-.58,2.527-.507" transform="translate(-23.809 -12.325)" fill="#9dd8db"/>
        <path id="Trazado_900982" data-name="Trazado 900982" d="M235.62,112.2h-.011l-2.8-.085c-3.852-.1-7.707-.441-10.97-.766-3.9-.457-7.009-.9-9.5-1.355-2.817-.481-5.152-.994-6.662-1.338-.827-.194-1.443-.34-1.87-.453l-.664-.174a.365.365,0,0,1-.228-.173.361.361,0,0,1-.037-.283l.69-2.5a.368.368,0,0,1,.449-.26l.622.162c.394.1.963.239,1.789.433,1.47.335,3.742.833,6.487,1.3,2.427.442,5.463.875,9.289,1.323,3.2.318,6.973.656,10.715.748l2.747.085,2.711-.018c.32,0,.643-.005.965-.006.562,0,1.142,0,1.7-.025l2.607-.124c.305-.017.61-.03.915-.043.554-.025,1.077-.048,1.6-.088l4.685-.435c.464-.044.925-.113,1.37-.179.249-.037.494-.074.735-.106l3.7-.534,5.271-1.055a.369.369,0,0,1,.433.28l.578,2.523a.358.358,0,0,1-.049.283.367.367,0,0,1-.237.162l-5.432,1.087-3.817.553c-.247.033-.493.069-.742.106-.467.07-.948.141-1.447.189l-4.8.446c-.554.043-1.125.069-1.674.093-.3.013-.612.027-.92.044l-2.669.127c-.592.022-1.195.024-1.776.026-.323,0-.646,0-.972.006l-2.782.017Zm-31.932-4.791.3.079c.419.111,1.032.256,1.85.448,1.5.341,3.821.851,6.625,1.331,2.483.452,5.574.893,9.454,1.347,3.244.323,7.081.666,10.911.762l2.8.085,2.771-.017c.325,0,.651-.005.977-.006.575,0,1.171,0,1.745-.026l2.665-.127c.307-.016.616-.03.923-.043.569-.026,1.108-.049,1.644-.091l4.794-.446c.479-.045.952-.116,1.409-.185.253-.038.5-.075.75-.107l3.792-.548,5.038-1.009-.413-1.8-4.937.989-3.725.538c-.241.032-.482.068-.727.1-.454.068-.923.139-1.41.185l-4.69.435c-.543.043-1.1.067-1.633.091-.3.013-.6.026-.908.042l-2.614.125c-.58.022-1.167.024-1.735.026-.32,0-.639,0-.961.006l-2.726.018-2.76-.085c-3.765-.094-7.559-.433-10.773-.752-3.848-.451-6.9-.886-9.338-1.331-2.758-.471-5.045-.973-6.525-1.309-.834-.2-1.409-.332-1.812-.439l-.266-.07Z" transform="translate(-23.76 -12.276)" fill="#5c2f10"/>
        <g id="Grupo_1115102" data-name="Grupo 1115102" transform="translate(179.816 92.902)" style="mix-blend-mode: multiply;isolation: isolate">
          <g id="Grupo_1115101" data-name="Grupo 1115101">
            <g id="Grupo_1115100" data-name="Grupo 1115100" clip-path="url(#clip-path-21)">
              <path id="Trazado_900983" data-name="Trazado 900983" d="M262.388,107.933l-.291-1.262-2.462.492-2.826.567-3.705.535c-.679.089-1.383.217-2.119.286l-2.283.212-2.409.223c-.823.065-1.67.087-2.526.133l-2.613.124c-.883.034-1.777.019-2.68.031l-2.724.018L233,109.209c-3.667-.091-7.326-.411-10.749-.75-3.418-.4-6.6-.833-9.31-1.327-2.711-.464-4.949-.953-6.508-1.307-.78-.184-1.389-.327-1.8-.435l-.621-.162-.346,1.247s3.575.987,9.05,1.931c2.732.5,5.945.935,9.39,1.338,3.454.343,7.146.665,10.847.758l2.774.085,2.751-.018c.911-.011,1.815,0,2.706-.032l2.642-.125c.866-.047,1.72-.069,2.552-.134l2.439-.227,2.306-.214c.745-.072,1.458-.2,2.147-.29l3.75-.541,2.865-.573,2.5-.5" transform="translate(-203.671 -105.227)" fill="#9dd8db"/>
            </g>
          </g>
        </g>
        <path id="Trazado_900984" data-name="Trazado 900984" d="M34.912,198.652l-.643-2.507s-.507.132-1.478.353-2.406.521-4.242.841-4.08.636-6.655.841a44.476,44.476,0,0,1-8.585-.074c-.78-.057-1.54-.245-2.329-.381a10.067,10.067,0,0,1-1.159-.3c-.381-.117-.788-.2-1.157-.347a8.467,8.467,0,0,1-3.854-2.594A8.618,8.618,0,0,1,3.1,189.876a17.035,17.035,0,0,1-.063-2.754c.012-.469.071-.947.108-1.425.064-.479.105-.961.187-1.445a77.284,77.284,0,0,1,3.061-11.892c.653-2.013,1.354-4.022,2.069-6.057a34.5,34.5,0,0,0,1.617-6.524,42.1,42.1,0,0,0-.354-13.255c-.7-4.279-1.765-8.343-2.322-12.259a31.169,31.169,0,0,1-.346-5.723,20.468,20.468,0,0,1,.883-5.294,16.434,16.434,0,0,1,2.163-4.517,17.038,17.038,0,0,1,3.18-3.451,24.95,24.95,0,0,1,7.323-4.06,37.809,37.809,0,0,1,6.374-1.687A42.444,42.444,0,0,1,31.207,109c.98-.072,1.487-.079,1.487-.079l-.062-2.588s-.573.009-1.617.085a44.72,44.72,0,0,0-4.488.569c-.96.167-2.016.388-3.157.681a36.649,36.649,0,0,0-3.655,1.124,27.449,27.449,0,0,0-8.085,4.5,19.575,19.575,0,0,0-3.66,3.973,19.065,19.065,0,0,0-2.5,5.216,23,23,0,0,0-1,5.959,33.915,33.915,0,0,0,.369,6.19c.592,4.12,1.657,8.19,2.332,12.318A39.637,39.637,0,0,1,7.517,159.4a32.24,32.24,0,0,1-1.5,6.042c-.715,2.031-1.428,4.075-2.089,6.115a79.579,79.579,0,0,0-3.16,12.311c-.089.515-.135,1.042-.2,1.558-.041.525-.1,1.042-.117,1.569a19.454,19.454,0,0,0,.073,3.156,12.885,12.885,0,0,0,.694,3.123A10.042,10.042,0,0,0,2.789,196.1a9.591,9.591,0,0,0,2.337,2.108,13.047,13.047,0,0,0,2.654,1.3c.448.171.893.269,1.335.4a12.127,12.127,0,0,0,1.314.338c.873.155,1.73.358,2.569.421a46.91,46.91,0,0,0,9.1.086c2.681-.215,5-.541,6.89-.871s3.372-.638,4.379-.868,1.548-.37,1.548-.37" transform="translate(-0.049 -12.454)" fill="#9dd8db"/>
        <path id="Trazado_900985" data-name="Trazado 900985" d="M17.672,201.263h0A40.74,40.74,0,0,1,12.9,201a16.82,16.82,0,0,1-1.876-.29c-.236-.046-.475-.091-.712-.133a6.635,6.635,0,0,1-.931-.229c-.138-.04-.275-.08-.412-.117-.163-.05-.312-.091-.463-.132-.294-.081-.6-.166-.91-.285a13.3,13.3,0,0,1-2.72-1.336,10.006,10.006,0,0,1-2.429-2.19,10.273,10.273,0,0,1-1.626-2.929,12.965,12.965,0,0,1-.715-3.21,19.763,19.763,0,0,1-.075-3.216c.009-.364.043-.735.075-1.094.016-.161.028-.321.042-.483.025-.193.045-.368.066-.543.039-.344.08-.7.14-1.049A80.765,80.765,0,0,1,3.53,171.4c.69-2.125,1.442-4.276,2.092-6.124A31.821,31.821,0,0,0,7.1,159.3a39.057,39.057,0,0,0-.346-12.342c-.3-1.865-.7-3.75-1.075-5.574-.458-2.206-.931-4.488-1.256-6.752a34.129,34.129,0,0,1-.373-6.256,23.351,23.351,0,0,1,1.014-6.056A19.422,19.422,0,0,1,7.618,117a19.959,19.959,0,0,1,3.725-4.047,27.428,27.428,0,0,1,8.2-4.563,36.966,36.966,0,0,1,3.69-1.136c1.067-.273,2.139-.5,3.187-.686A44.4,44.4,0,0,1,30.937,106c1.044-.078,1.617-.087,1.64-.087h0a.369.369,0,0,1,.37.361l.063,2.588a.368.368,0,0,1-.366.378s-.508.008-1.464.078a41.729,41.729,0,0,0-4.189.532,37.472,37.472,0,0,0-6.314,1.671,24.419,24.419,0,0,0-7.212,4,16.7,16.7,0,0,0-3.111,3.375,16.108,16.108,0,0,0-2.114,4.417,20.187,20.187,0,0,0-.868,5.2,31.209,31.209,0,0,0,.343,5.655c.3,2.107.742,4.227,1.206,6.471.39,1.873.792,3.809,1.116,5.782a42.078,42.078,0,0,1,.354,13.37,34.888,34.888,0,0,1-1.633,6.592c-.644,1.832-1.388,3.962-2.064,6.048a76.741,76.741,0,0,0-3.048,11.834c-.054.312-.09.623-.125.925-.019.171-.041.343-.062.513-.011.139-.025.3-.04.459-.029.32-.057.624-.064.926a16.342,16.342,0,0,0,.06,2.705A8.262,8.262,0,0,0,5.05,194.2a8.061,8.061,0,0,0,3.693,2.478,7.011,7.011,0,0,0,.7.218c.147.04.293.079.437.124.117.03.248.07.38.109a4.783,4.783,0,0,0,.719.177c.253.043.491.089.727.135a13.666,13.666,0,0,0,1.581.244,42.971,42.971,0,0,0,8.529.074c2.232-.178,4.459-.46,6.619-.837,1.913-.334,3.354-.639,4.225-.838.961-.219,1.465-.35,1.466-.351a.373.373,0,0,1,.453.266l.641,2.508a.37.37,0,0,1-.266.449s-.545.142-1.557.373c-.908.207-2.41.527-4.4.872-2.259.394-4.589.689-6.923.875-1.652.124-3.049.181-4.406.181m14.552-94.6c-.274.011-.69.032-1.232.072a43.832,43.832,0,0,0-4.449.564c-1.029.179-2.082.406-3.132.675a36.341,36.341,0,0,0-3.616,1.113,26.711,26.711,0,0,0-7.98,4.438,19.28,19.28,0,0,0-3.588,3.9,18.715,18.715,0,0,0-2.454,5.115,22.59,22.59,0,0,0-.984,5.866,33.767,33.767,0,0,0,.366,6.121c.321,2.243.793,4.512,1.249,6.707.38,1.831.775,3.725,1.081,5.6a39.825,39.825,0,0,1,.35,12.572,32.537,32.537,0,0,1-1.516,6.109c-.648,1.843-1.4,3.989-2.085,6.106a79.994,79.994,0,0,0-3.147,12.253c-.057.336-.1.682-.135,1.015-.021.179-.041.358-.067.535-.01.146-.025.309-.04.473-.034.363-.064.706-.072,1.058a18.989,18.989,0,0,0,.071,3.107,12.477,12.477,0,0,0,.673,3.034,9.591,9.591,0,0,0,1.512,2.722,9.259,9.259,0,0,0,2.246,2.027,12.619,12.619,0,0,0,2.578,1.267c.289.109.562.186.854.267.155.042.313.086.467.133.132.034.274.077.419.119a6.048,6.048,0,0,0,.84.207c.254.045.5.092.736.139a16.4,16.4,0,0,0,1.808.281,40.051,40.051,0,0,0,4.7.264c1.338,0,2.718-.057,4.346-.179,2.31-.185,4.617-.477,6.854-.867,1.972-.343,3.459-.659,4.361-.864.521-.118.919-.215,1.179-.277l-.459-1.791c-.25.061-.628.152-1.128.266-.879.2-2.333.509-4.261.845-2.181.381-4.432.666-6.69.846a43.727,43.727,0,0,1-8.654-.075,14.388,14.388,0,0,1-1.653-.253c-.23-.045-.464-.09-.7-.131a5.22,5.22,0,0,1-.818-.2c-.123-.036-.246-.073-.37-.105-.153-.047-.29-.084-.429-.122a8.044,8.044,0,0,1-.771-.239,8.753,8.753,0,0,1-4.009-2.711,8.98,8.98,0,0,1-1.79-4.8,17.261,17.261,0,0,1-.064-2.811c.009-.313.039-.644.067-.962.015-.155.028-.313.04-.468.026-.188.044-.355.064-.523.037-.312.074-.634.131-.959A77.421,77.421,0,0,1,5.991,172.2c.682-2.094,1.425-4.229,2.073-6.067a34.252,34.252,0,0,0,1.6-6.455,41.52,41.52,0,0,0-.354-13.139c-.322-1.959-.722-3.887-1.111-5.753-.468-2.256-.909-4.386-1.212-6.516a31.483,31.483,0,0,1-.35-5.789,20.8,20.8,0,0,1,.9-5.389,16.876,16.876,0,0,1,2.211-4.617A17.417,17.417,0,0,1,13,114.947a25.115,25.115,0,0,1,7.429-4.123,38.143,38.143,0,0,1,6.44-1.7,41.808,41.808,0,0,1,4.264-.542c.5-.037.883-.057,1.138-.068Z" transform="translate(0 -12.405)" fill="#5c2f10"/>
        <g id="Grupo_1115105" data-name="Grupo 1115105" transform="translate(1.663 95.17)" style="mix-blend-mode: multiply;isolation: isolate">
          <g id="Grupo_1115104" data-name="Grupo 1115104">
            <g id="Grupo_1115103" data-name="Grupo 1115103" clip-path="url(#clip-path-26)">
              <path id="Trazado_900986" data-name="Trazado 900986" d="M34.762,197.57l-.321-1.254s-.506.132-1.479.353-2.4.521-4.242.841-4.079.636-6.654.841a44.467,44.467,0,0,1-8.584-.074c-.781-.057-1.542-.245-2.33-.381a10.111,10.111,0,0,1-1.159-.3c-.38-.117-.788-.2-1.156-.347a8.458,8.458,0,0,1-3.854-2.594,8.6,8.6,0,0,1-1.713-4.609,17.035,17.035,0,0,1-.063-2.754c.011-.469.071-.947.108-1.425.063-.479.105-.961.186-1.445a77.5,77.5,0,0,1,3.063-11.892c.653-2.013,1.354-4.022,2.068-6.057a34.5,34.5,0,0,0,1.617-6.524A42.1,42.1,0,0,0,9.9,146.7c-.7-4.279-1.766-8.342-2.322-12.259a31.157,31.157,0,0,1-.345-5.722,20.437,20.437,0,0,1,.883-5.295,16.4,16.4,0,0,1,2.163-4.517,17.035,17.035,0,0,1,3.179-3.451,24.968,24.968,0,0,1,7.322-4.06A37.9,37.9,0,0,1,27.15,109.7a42.126,42.126,0,0,1,4.228-.536c.979-.072,1.487-.079,1.487-.079l-.031-1.293s-.541.006-1.553.081a43.18,43.18,0,0,0-4.357.554c-.934.162-1.96.376-3.065.659a35.284,35.284,0,0,0-3.528,1.087,26.145,26.145,0,0,0-7.7,4.279,18.256,18.256,0,0,0-3.418,3.713,17.74,17.74,0,0,0-2.334,4.867,21.694,21.694,0,0,0-.939,5.625,32.411,32.411,0,0,0,.357,5.956c.575,4.02,1.637,8.084,2.328,12.289a40.922,40.922,0,0,1,.351,12.856,33.348,33.348,0,0,1-1.558,6.282c-.714,2.034-1.421,4.061-2.079,6.087a78.539,78.539,0,0,0-3.109,12.1c-.086.5-.132,1-.2,1.5-.038.5-.1,1-.113,1.5a18.2,18.2,0,0,0,.07,2.955,9.9,9.9,0,0,0,1.989,5.279,9.735,9.735,0,0,0,4.421,3c.408.157.836.249,1.246.375a11.1,11.1,0,0,0,1.236.32c.832.145,1.639.34,2.451.4a45.6,45.6,0,0,0,8.839.079c2.63-.21,4.91-.531,6.773-.856s3.321-.629,4.311-.854,1.513-.362,1.513-.362" transform="translate(-1.884 -107.796)" fill="#9dd8db"/>
            </g>
          </g>
        </g>
        <path id="Trazado_900987" data-name="Trazado 900987" d="M348.416,199.324l-.436,2.551c.007,0,.151.024.413.055l.5.059.659.037c.25.009.532.039.833.034l.987-.012c.717.015,1.517-.09,2.425-.157.455-.025.922-.108,1.413-.184l1.544-.241c1.063-.2,2.2-.494,3.416-.766,1.192-.371,2.445-.733,3.8-1.18a11.855,11.855,0,0,0,4.113-2.438,9.945,9.945,0,0,0,1.649-2.058,11.339,11.339,0,0,0,1.06-2.478,16.946,16.946,0,0,0,.535-5.352,48.63,48.63,0,0,0-2.025-10.858c-1.028-3.637-2.3-7.322-3.592-11.015a32.553,32.553,0,0,1-1.8-11.233,60.12,60.12,0,0,1,1.516-11.521,77.1,77.1,0,0,0,1.856-11.549,25.969,25.969,0,0,0-.313-5.765,21.21,21.21,0,0,0-1.661-5.339,18.544,18.544,0,0,0-2.936-4.459,21.33,21.33,0,0,0-3.705-3.283,29.369,29.369,0,0,0-7.63-3.74,42.329,42.329,0,0,0-6.295-1.537c-1.771-.29-3.175-.426-4.136-.493s-1.492-.075-1.492-.075l-.056,2.589s.465,0,1.366.069,2.226.191,3.9.464a39.631,39.631,0,0,1,5.9,1.44,26.8,26.8,0,0,1,6.958,3.4,17.06,17.06,0,0,1,5.783,6.716,18.793,18.793,0,0,1,1.455,4.689,23.549,23.549,0,0,1,.278,5.193,74.96,74.96,0,0,1-1.807,11.155,62.649,62.649,0,0,0-1.567,12.01,35.129,35.129,0,0,0,1.941,12.115c1.3,3.7,2.544,7.319,3.546,10.87a46.368,46.368,0,0,1,1.929,10.257,14.37,14.37,0,0,1-.436,4.529,8.769,8.769,0,0,1-.8,1.875,7.4,7.4,0,0,1-1.2,1.5,9.312,9.312,0,0,1-3.217,1.886c-1.232.4-2.461.762-3.585,1.112-1.15.254-2.22.529-3.217.722l-1.44.223a13.126,13.126,0,0,1-1.311.172c-.831.058-1.577.161-2.216.144l-.889.012c-.272.005-.509-.023-.727-.03l-.574-.031-.4-.049c-.216-.025-.318-.038-.31-.039" transform="translate(-39.711 -12.454)" fill="#9dd8db"/>
        <path id="Trazado_900988" data-name="Trazado 900988" d="M350.263,202.381c-.184,0-.358-.011-.523-.021-.088-.005-.174-.011-.256-.014l-.665-.037-.518-.062c-.461-.053-.475-.06-.538-.091a.366.366,0,0,1-.2-.393l.435-2.544a.378.378,0,0,1,.443-.305l.275.033.545.056.4.022c.075,0,.159.007.246.013.124.008.254.017.395.017l.952-.013.147,0c.381,0,.816-.039,1.274-.08.25-.022.508-.046.773-.064a10.394,10.394,0,0,0,1.039-.13l1.683-.263c.607-.118,1.255-.269,1.944-.431.406-.094.822-.192,1.249-.287.372-.117.786-.243,1.21-.372.764-.232,1.552-.471,2.341-.731a8.927,8.927,0,0,0,3.078-1.8,6.912,6.912,0,0,0,1.141-1.425,8.328,8.328,0,0,0,.759-1.788,14.038,14.038,0,0,0,.419-4.4,46.872,46.872,0,0,0-1.916-10.175c-1.013-3.584-2.252-7.177-3.538-10.848A35.559,35.559,0,0,1,360.9,154a63.525,63.525,0,0,1,1.573-12.079l.24-1.156a64.954,64.954,0,0,0,1.56-9.943,23.15,23.15,0,0,0-.272-5.112,18.55,18.55,0,0,0-1.425-4.6,16.73,16.73,0,0,0-5.659-6.57,26.051,26.051,0,0,0-6.866-3.354,39.136,39.136,0,0,0-5.846-1.426c-1.347-.221-2.646-.375-3.861-.46-.876-.062-1.34-.068-1.34-.068a.374.374,0,0,1-.371-.379l.059-2.588a.37.37,0,0,1,.369-.361h.007c.021,0,.56.008,1.512.076,1.315.091,2.718.259,4.167.5a42.735,42.735,0,0,1,6.351,1.55,29.483,29.483,0,0,1,7.729,3.789,21.638,21.638,0,0,1,3.767,3.34,18.95,18.95,0,0,1,3,4.546,21.771,21.771,0,0,1,1.687,5.432,26.563,26.563,0,0,1,.321,5.847,67.441,67.441,0,0,1-1.589,10.268l-.277,1.338a60.352,60.352,0,0,0-1.507,11.449A32.03,32.03,0,0,0,366,165.15c1.253,3.571,2.565,7.365,3.6,11.037a49.651,49.651,0,0,1,2.038,10.941,17.341,17.341,0,0,1-.547,5.469,11.635,11.635,0,0,1-1.1,2.567,10.328,10.328,0,0,1-1.717,2.14,12.077,12.077,0,0,1-4.238,2.514c-.928.308-1.8.571-2.638.826-.4.122-.791.24-1.178.36-.445.1-.852.2-1.251.29-.769.18-1.5.35-2.2.487l-1.8.282a12.144,12.144,0,0,1-1.209.149c-.263.019-.525.042-.776.065-.54.048-1.051.094-1.528.094l-.147,0Zm-1.9-.871.026,0,.651.067.483.026.268.015c.15.009.309.019.476.019l1.05-.013.144,0c.445,0,.939-.043,1.461-.09.256-.024.522-.048.8-.067.367-.02.742-.079,1.141-.142l1.789-.28c.676-.131,1.4-.3,2.16-.479.4-.094.81-.189,1.23-.283.359-.113.752-.233,1.152-.354.837-.253,1.7-.516,2.611-.817a11.388,11.388,0,0,0,3.976-2.356,9.523,9.523,0,0,0,1.587-1.983,10.859,10.859,0,0,0,1.022-2.391,16.683,16.683,0,0,0,.518-5.228,49.016,49.016,0,0,0-2.012-10.775c-1.03-3.65-2.335-7.43-3.584-10.992a32.722,32.722,0,0,1-1.818-11.361,61.065,61.065,0,0,1,1.522-11.59l.278-1.338a66.749,66.749,0,0,0,1.571-10.155,25.622,25.622,0,0,0-.308-5.683,21.018,21.018,0,0,0-1.63-5.247,18.142,18.142,0,0,0-2.879-4.368,20.992,20.992,0,0,0-3.639-3.225,28.722,28.722,0,0,0-7.537-3.693,42.136,42.136,0,0,0-6.237-1.522c-1.427-.234-2.807-.4-4.1-.488-.484-.034-.856-.053-1.1-.063l-.042,1.849c.231.01.57.027,1.013.058,1.237.087,2.56.245,3.93.468a40.182,40.182,0,0,1,5.96,1.454,26.789,26.789,0,0,1,7.057,3.451,17.445,17.445,0,0,1,5.9,6.863,19.308,19.308,0,0,1,1.484,4.782,23.815,23.815,0,0,1,.282,5.275,65.57,65.57,0,0,1-1.575,10.057l-.238,1.154a61.477,61.477,0,0,0-1.56,11.939A34.9,34.9,0,0,0,363.558,166c1.291,3.683,2.534,7.287,3.552,10.892a47.43,47.43,0,0,1,1.942,10.343,14.754,14.754,0,0,1-.447,4.643,9.06,9.06,0,0,1-.838,1.964,7.67,7.67,0,0,1-1.268,1.581,9.647,9.647,0,0,1-3.342,1.962c-.808.266-1.6.507-2.367.74q-.633.192-1.234.379c-.456.1-.869.2-1.271.293-.694.162-1.35.316-1.986.439l-1.693.265a10.745,10.745,0,0,1-1.112.138c-.253.017-.506.041-.75.063a13.17,13.17,0,0,1-1.494.081l-.946.013c-.157,0-.3-.009-.443-.019-.079-.005-.156-.011-.229-.012l-.961-.078Z" transform="translate(-39.662 -12.405)" fill="#5c2f10"/>
        <g id="Grupo_1115108" data-name="Grupo 1115108" transform="translate(299.369 93.876)" style="mix-blend-mode: multiply;isolation: isolate">
          <g id="Grupo_1115107" data-name="Grupo 1115107">
            <g id="Grupo_1115106" data-name="Grupo 1115106" clip-path="url(#clip-path-27)">
              <path id="Trazado_900989" data-name="Trazado 900989" d="M348.2,200.6l-.217,1.276c.007,0,.151.025.413.055l.5.059.659.037c.25.009.532.039.833.034l.987-.012c.717.014,1.517-.09,2.425-.157.455-.025.922-.108,1.413-.184l1.545-.241c1.063-.2,2.2-.494,3.415-.767,1.192-.371,2.445-.733,3.8-1.18a11.842,11.842,0,0,0,4.113-2.438,9.916,9.916,0,0,0,1.649-2.057,11.337,11.337,0,0,0,1.06-2.478,16.951,16.951,0,0,0,.535-5.353,48.63,48.63,0,0,0-2.025-10.857c-1.028-3.637-2.3-7.322-3.592-11.015a32.561,32.561,0,0,1-1.8-11.234,60.12,60.12,0,0,1,1.516-11.52,77,77,0,0,0,1.856-11.55,25.96,25.96,0,0,0-.313-5.764,21.226,21.226,0,0,0-1.661-5.34,18.543,18.543,0,0,0-2.936-4.459,21.4,21.4,0,0,0-3.705-3.283,29.4,29.4,0,0,0-7.63-3.74,42.426,42.426,0,0,0-6.295-1.536c-1.771-.29-3.175-.426-4.136-.493s-1.492-.075-1.492-.075l-.028,1.293s.5.006,1.43.072,2.3.2,4.014.479a41.092,41.092,0,0,1,6.1,1.489,28.13,28.13,0,0,1,7.3,3.57,20.014,20.014,0,0,1,3.48,3.082,17.3,17.3,0,0,1,2.732,4.147,19.98,19.98,0,0,1,1.557,5.014,24.686,24.686,0,0,1,.295,5.48,75.923,75.923,0,0,1-1.831,11.351,61.561,61.561,0,0,0-1.542,11.765,33.876,33.876,0,0,0,1.87,11.674c1.3,3.7,2.555,7.348,3.569,10.942a47.567,47.567,0,0,1,1.978,10.557,15.8,15.8,0,0,1-.485,4.941,10.172,10.172,0,0,1-.931,2.176,8.568,8.568,0,0,1-1.425,1.777,10.593,10.593,0,0,1-3.665,2.162c-1.293.425-2.533.785-3.691,1.146-1.184.265-2.287.545-3.317.744l-1.491.233c-.476.073-.927.155-1.363.177-.869.063-1.642.166-2.318.15l-.939.012c-.287.005-.547-.024-.78-.033l-.617-.034-.445-.053c-.238-.028-.363-.048-.363-.048" transform="translate(-339.084 -106.33)" fill="#9dd8db"/>
            </g>
          </g>
        </g>
        <path id="Trazado_900990" data-name="Trazado 900990" d="M43.1,209.956c0,1.465-2.511,2.652-5.609,2.652s-5.608-1.187-5.608-2.652,2.513-3.7,5.608-3.7,5.609,2.231,5.609,3.7" transform="translate(-3.734 -24.158)" fill="#c7c7c7"/>
        <path id="Trazado_900991" data-name="Trazado 900991" d="M37.442,212.929c-3.352,0-5.977-1.328-5.977-3.022,0-1.793,2.815-4.067,5.977-4.067s5.978,2.273,5.978,4.067c0,1.694-2.626,3.022-5.978,3.022m0-6.349c-3.026,0-5.239,2.188-5.239,3.327,0,1.1,2.1,2.283,5.239,2.283s5.239-1.181,5.239-2.283c0-1.139-2.211-3.327-5.239-3.327" transform="translate(-3.685 -24.109)" fill="#5c2f10"/>
        <g id="Grupo_1115111" data-name="Grupo 1115111" transform="translate(29.443 182.971)" style="mix-blend-mode: screen;isolation: isolate">
          <g id="Grupo_1115110" data-name="Grupo 1115110">
            <g id="Grupo_1115109" data-name="Grupo 1115109" clip-path="url(#clip-path-28)">
              <path id="Trazado_900992" data-name="Trazado 900992" d="M40.129,209.479c0,.885-1.519,1.6-3.389,1.6s-3.39-.718-3.39-1.6,1.518-2.235,3.39-2.235,3.389,1.349,3.389,2.235" transform="translate(-33.349 -207.245)" fill="#c7c7c7"/>
            </g>
          </g>
        </g>
        <path id="Trazado_900993" data-name="Trazado 900993" d="M33.479,209.939a.372.372,0,0,0,.094.515.383.383,0,0,0,.21.064.369.369,0,0,0,.305-.161,9.514,9.514,0,0,1,2.838-2.668,9.54,9.54,0,0,1,2.837,2.668.369.369,0,0,0,.306.161.378.378,0,0,0,.209-.064.372.372,0,0,0,.1-.515,10.14,10.14,0,0,0-2.72-2.669,11.878,11.878,0,0,1,1.568-.688,6.628,6.628,0,0,0-1.306-.275c-.312.144-.644.312-.99.509-.3-.17-.585-.318-.859-.449a6.854,6.854,0,0,0-1.158.318,11.9,11.9,0,0,1,1.288.584,10.137,10.137,0,0,0-2.719,2.669" transform="translate(-3.914 -24.164)" fill="#5c2f10"/>
        <path id="Trazado_900994" data-name="Trazado 900994" d="M194.515,209.956c0,1.465,2.511,2.652,5.609,2.652s5.607-1.187,5.607-2.652-2.51-3.7-5.607-3.7-5.609,2.231-5.609,3.7" transform="translate(-22.782 -24.158)" fill="#c7c7c7"/>
        <path id="Trazado_900995" data-name="Trazado 900995" d="M200.075,212.929c-3.352,0-5.978-1.328-5.978-3.022,0-1.793,2.815-4.067,5.978-4.067s5.979,2.273,5.979,4.067c0,1.694-2.627,3.022-5.979,3.022m0-6.349c-3.026,0-5.239,2.188-5.239,3.327,0,1.1,2.106,2.283,5.239,2.283s5.239-1.181,5.239-2.283c0-1.139-2.212-3.327-5.239-3.327" transform="translate(-22.734 -24.109)" fill="#5c2f10"/>
        <g id="Grupo_1115114" data-name="Grupo 1115114" transform="translate(174.876 182.971)" style="mix-blend-mode: screen;isolation: isolate">
          <g id="Grupo_1115113" data-name="Grupo 1115113">
            <g id="Grupo_1115112" data-name="Grupo 1115112" clip-path="url(#clip-path-28)">
              <path id="Trazado_900996" data-name="Trazado 900996" d="M198.075,209.479c0,.885,1.519,1.6,3.39,1.6s3.389-.718,3.389-1.6-1.518-2.235-3.389-2.235-3.39,1.349-3.39,2.235" transform="translate(-198.075 -207.245)" fill="#c7c7c7"/>
            </g>
          </g>
        </g>
        <path id="Trazado_900997" data-name="Trazado 900997" d="M204.182,209.939a.371.371,0,0,1-.1.515.377.377,0,0,1-.208.064.369.369,0,0,1-.305-.161,9.514,9.514,0,0,0-2.838-2.668,9.556,9.556,0,0,0-2.838,2.668.367.367,0,0,1-.3.161.378.378,0,0,1-.209-.064.37.37,0,0,1-.1-.515,10.14,10.14,0,0,1,2.72-2.669,11.827,11.827,0,0,0-1.568-.688,6.637,6.637,0,0,1,1.3-.275c.313.144.647.312.991.509.3-.17.585-.318.858-.449a6.865,6.865,0,0,1,1.159.318,12.065,12.065,0,0,0-1.29.584,10.142,10.142,0,0,1,2.721,2.669" transform="translate(-23.099 -24.164)" fill="#5c2f10"/>
        <path id="Trazado_900998" data-name="Trazado 900998" d="M43.1,108.33c0,1.465-2.511,2.652-5.609,2.652s-5.608-1.187-5.608-2.652,2.513-3.7,5.608-3.7,5.609,2.232,5.609,3.7" transform="translate(-3.734 -12.255)" fill="#c7c7c7"/>
        <path id="Trazado_900999" data-name="Trazado 900999" d="M37.442,111.3c-3.352,0-5.977-1.328-5.977-3.022,0-1.792,2.815-4.067,5.977-4.067s5.978,2.274,5.978,4.067c0,1.694-2.626,3.022-5.978,3.022m0-6.349c-3.026,0-5.239,2.188-5.239,3.327,0,1.1,2.1,2.283,5.239,2.283s5.239-1.181,5.239-2.283c0-1.139-2.211-3.327-5.239-3.327" transform="translate(-3.685 -12.206)" fill="#5c2f10"/>
        <g id="Grupo_1115117" data-name="Grupo 1115117" transform="translate(29.443 93.248)" style="mix-blend-mode: screen;isolation: isolate">
          <g id="Grupo_1115116" data-name="Grupo 1115116">
            <g id="Grupo_1115115" data-name="Grupo 1115115" clip-path="url(#clip-path-28)">
              <path id="Trazado_901000" data-name="Trazado 901000" d="M40.129,107.853c0,.885-1.519,1.6-3.389,1.6s-3.39-.718-3.39-1.6,1.518-2.235,3.39-2.235,3.389,1.35,3.389,2.235" transform="translate(-33.349 -105.618)" fill="#c7c7c7"/>
            </g>
          </g>
        </g>
        <path id="Trazado_901001" data-name="Trazado 901001" d="M33.479,108.312a.372.372,0,0,0,.094.515.384.384,0,0,0,.21.064.371.371,0,0,0,.305-.161,9.5,9.5,0,0,1,2.838-2.668,9.528,9.528,0,0,1,2.837,2.668.371.371,0,0,0,.306.161.379.379,0,0,0,.209-.064.372.372,0,0,0,.1-.515,10.139,10.139,0,0,0-2.72-2.669,11.858,11.858,0,0,1,1.568-.687,6.567,6.567,0,0,0-1.306-.276c-.312.144-.644.313-.99.509-.3-.17-.585-.319-.859-.449a6.856,6.856,0,0,0-1.158.318,12.071,12.071,0,0,1,1.288.584,10.137,10.137,0,0,0-2.719,2.669" transform="translate(-3.914 -12.261)" fill="#5c2f10"/>
        <path id="Trazado_901002" data-name="Trazado 901002" d="M194.515,108.33c0,1.465,2.511,2.652,5.609,2.652s5.607-1.187,5.607-2.652-2.51-3.7-5.607-3.7-5.609,2.232-5.609,3.7" transform="translate(-22.782 -12.255)" fill="#c7c7c7"/>
        <path id="Trazado_901003" data-name="Trazado 901003" d="M200.075,111.3c-3.352,0-5.978-1.328-5.978-3.022,0-1.792,2.815-4.067,5.978-4.067s5.979,2.274,5.979,4.067c0,1.694-2.627,3.022-5.979,3.022m0-6.349c-3.026,0-5.239,2.188-5.239,3.327,0,1.1,2.106,2.283,5.239,2.283s5.239-1.181,5.239-2.283c0-1.139-2.212-3.327-5.239-3.327" transform="translate(-22.734 -12.206)" fill="#5c2f10"/>
        <g id="Grupo_1115120" data-name="Grupo 1115120" transform="translate(174.876 93.248)" style="mix-blend-mode: screen;isolation: isolate">
          <g id="Grupo_1115119" data-name="Grupo 1115119">
            <g id="Grupo_1115118" data-name="Grupo 1115118" clip-path="url(#clip-path-28)">
              <path id="Trazado_901004" data-name="Trazado 901004" d="M198.075,107.853c0,.885,1.519,1.6,3.39,1.6s3.389-.718,3.389-1.6-1.518-2.235-3.389-2.235-3.39,1.35-3.39,2.235" transform="translate(-198.075 -105.618)" fill="#c7c7c7"/>
            </g>
          </g>
        </g>
        <path id="Trazado_901005" data-name="Trazado 901005" d="M204.182,108.312a.37.37,0,0,1-.1.515.378.378,0,0,1-.208.064.371.371,0,0,1-.305-.161,9.5,9.5,0,0,0-2.838-2.668,9.544,9.544,0,0,0-2.838,2.668.369.369,0,0,1-.3.161.379.379,0,0,1-.209-.064.37.37,0,0,1-.1-.515,10.14,10.14,0,0,1,2.72-2.669,11.807,11.807,0,0,0-1.568-.687,6.576,6.576,0,0,1,1.3-.276c.313.144.647.313.991.509.3-.17.585-.319.858-.449a6.867,6.867,0,0,1,1.159.318,12.244,12.244,0,0,0-1.29.584,10.142,10.142,0,0,1,2.721,2.669" transform="translate(-23.099 -12.261)" fill="#5c2f10"/>
        <path id="Trazado_901006" data-name="Trazado 901006" d="M329.121,107.455c0,1.465,2.511,2.652,5.609,2.652s5.608-1.187,5.608-2.652-2.511-3.7-5.608-3.7-5.609,2.231-5.609,3.7" transform="translate(-38.548 -12.153)" fill="#c7c7c7"/>
        <path id="Trazado_901007" data-name="Trazado 901007" d="M334.681,110.428c-3.352,0-5.978-1.328-5.978-3.021,0-1.793,2.815-4.067,5.978-4.067s5.978,2.273,5.978,4.067c0,1.693-2.627,3.021-5.978,3.021m0-6.348c-3.027,0-5.239,2.188-5.239,3.327,0,1.1,2.1,2.281,5.239,2.281s5.239-1.18,5.239-2.281c0-1.139-2.212-3.327-5.239-3.327" transform="translate(-38.499 -12.104)" fill="#5c2f10"/>
        <g id="Grupo_1115123" data-name="Grupo 1115123" transform="translate(293.716 92.477)" style="mix-blend-mode: screen;isolation: isolate">
          <g id="Grupo_1115122" data-name="Grupo 1115122">
            <g id="Grupo_1115121" data-name="Grupo 1115121" clip-path="url(#clip-path-32)">
              <path id="Trazado_901008" data-name="Trazado 901008" d="M332.681,106.978c0,.886,1.518,1.6,3.391,1.6s3.388-.717,3.388-1.6-1.518-2.234-3.388-2.234-3.391,1.349-3.391,2.234" transform="translate(-332.681 -104.745)" fill="#c7c7c7"/>
            </g>
          </g>
        </g>
        <path id="Trazado_901009" data-name="Trazado 901009" d="M268.389,107.407c0,1.466-2.513,2.652-5.608,2.652s-5.609-1.187-5.609-2.652,2.511-3.7,5.609-3.7,5.608,2.231,5.608,3.7" transform="translate(-30.121 -12.147)" fill="#c7c7c7"/>
        <path id="Trazado_901010" data-name="Trazado 901010" d="M262.732,110.38c-3.353,0-5.98-1.327-5.98-3.022,0-1.792,2.815-4.066,5.98-4.066s5.978,2.273,5.978,4.066c0,1.7-2.626,3.022-5.978,3.022m0-6.348c-3.027,0-5.239,2.188-5.239,3.326,0,1.1,2.1,2.282,5.239,2.282s5.239-1.18,5.239-2.282c0-1.138-2.212-3.326-5.239-3.326" transform="translate(-30.072 -12.098)" fill="#5c2f10"/>
        <g id="Grupo_1115126" data-name="Grupo 1115126" transform="translate(228.344 92.434)" style="mix-blend-mode: screen;isolation: isolate">
          <g id="Grupo_1115125" data-name="Grupo 1115125">
            <g id="Grupo_1115124" data-name="Grupo 1115124" clip-path="url(#clip-path-33)">
              <path id="Trazado_901011" data-name="Trazado 901011" d="M265.417,106.931c0,.886-1.518,1.6-3.389,1.6s-3.39-.718-3.39-1.6,1.519-2.233,3.39-2.233,3.389,1.349,3.389,2.233" transform="translate(-258.637 -104.697)" fill="#c7c7c7"/>
            </g>
          </g>
        </g>
        <path id="Trazado_901012" data-name="Trazado 901012" d="M259.279,107.391a.371.371,0,0,0,.094.515.377.377,0,0,0,.21.064.372.372,0,0,0,.306-.161,9.518,9.518,0,0,1,2.837-2.668,9.523,9.523,0,0,1,2.838,2.668.37.37,0,0,0,.306.161.369.369,0,0,0,.3-.579,10.151,10.151,0,0,0-2.719-2.669,12.031,12.031,0,0,1,1.567-.689,6.828,6.828,0,0,0-1.3-.275c-.313.144-.645.312-.991.509-.3-.17-.584-.318-.857-.448a6.7,6.7,0,0,0-1.158.318,11.879,11.879,0,0,1,1.288.584,10.164,10.164,0,0,0-2.719,2.669" transform="translate(-30.36 -12.153)" fill="#5c2f10"/>
        <path id="Trazado_901013" data-name="Trazado 901013" d="M338.787,107.438a.371.371,0,0,1-.094.514.379.379,0,0,1-.21.065.371.371,0,0,1-.305-.161,9.517,9.517,0,0,0-2.838-2.669,9.522,9.522,0,0,0-2.837,2.669.372.372,0,0,1-.306.161.371.371,0,0,1-.305-.579,10.181,10.181,0,0,1,2.721-2.669,12.185,12.185,0,0,0-1.567-.689,6.812,6.812,0,0,1,1.3-.275c.313.145.647.312.991.509q.445-.254.859-.448a6.9,6.9,0,0,1,1.158.317,12.068,12.068,0,0,0-1.29.584,10.192,10.192,0,0,1,2.721,2.669" transform="translate(-38.865 -12.158)" fill="#5c2f10"/>
        <path id="Trazado_901014" data-name="Trazado 901014" d="M274.7,211.585h0L273.341,198.6h-8.914l-1.361,12.984c0,.43,2.6.779,5.817.779s5.819-.349,5.819-.779" transform="translate(-30.811 -23.261)" fill="#333"/>
        <path id="Trazado_901015" data-name="Trazado 901015" d="M268.834,212.686a32.882,32.882,0,0,1-4.162-.232c-1.477-.2-2.025-.446-2.025-.916a.279.279,0,0,1,0-.039l1.361-12.984a.372.372,0,0,1,.368-.331h8.914a.371.371,0,0,1,.368.331l1.361,12.984a.279.279,0,0,1,0,.039c0,.471-.548.72-2.025.916a32.883,32.883,0,0,1-4.164.232m-5.434-1.263a28.478,28.478,0,0,0,10.871,0l-1.312-12.5h-8.248Z" transform="translate(-30.762 -23.212)" fill="#5c2f10"/>
        <g id="Grupo_1115129" data-name="Grupo 1115129" transform="translate(238.194 175.34)" style="mix-blend-mode: multiply;isolation: isolate">
          <g id="Grupo_1115128" data-name="Grupo 1115128">
            <g id="Grupo_1115127" data-name="Grupo 1115127" clip-path="url(#clip-path-34)">
              <path id="Trazado_901016" data-name="Trazado 901016" d="M274.13,198.6H269.8c.274,3.586.525,12.762.505,13.758,2.919-.042,5.191-.372,5.191-.773Z" transform="translate(-269.794 -198.602)" fill="#333"/>
            </g>
          </g>
        </g>
        <path id="Trazado_901017" data-name="Trazado 901017" d="M273.5,198.5c0,.431-1.984.78-4.432.78s-4.431-.349-4.431-.78,1.984-.779,4.431-.779,4.432.349,4.432.779" transform="translate(-30.996 -23.158)" fill="#696969"/>
        <path id="Trazado_901018" data-name="Trazado 901018" d="M269.018,199.6c-1.443,0-4.8-.112-4.8-1.15s3.358-1.149,4.8-1.149,4.8.112,4.8,1.149-3.359,1.15-4.8,1.15m-3.85-1.149a18.35,18.35,0,0,0,7.7,0,18.311,18.311,0,0,0-7.7,0" transform="translate(-30.946 -23.109)" fill="#5c2f10"/>
        <path id="Trazado_901019" data-name="Trazado 901019" d="M357.106,214.036h0l-1.361-12.984h-8.916l-1.361,12.984c0,.43,2.607.78,5.819.78s5.82-.35,5.82-.78" transform="translate(-40.463 -23.548)" fill="#333"/>
        <path id="Trazado_901020" data-name="Trazado 901020" d="M351.237,215.135a33.108,33.108,0,0,1-4.163-.231c-1.474-.2-2.024-.446-2.026-.917,0-.012,0-.026,0-.039l1.362-12.984a.373.373,0,0,1,.367-.331H355.7a.37.37,0,0,1,.367.331l1.362,12.984c0,.012,0,.026,0,.039,0,.471-.55.719-2.025.917a33.062,33.062,0,0,1-4.164.231m-5.434-1.263a28.492,28.492,0,0,0,10.869,0l-1.31-12.5h-8.25Z" transform="translate(-40.414 -23.499)" fill="#5c2f10"/>
        <g id="Grupo_1115132" data-name="Grupo 1115132" transform="translate(310.944 177.504)" style="mix-blend-mode: multiply;isolation: isolate">
          <g id="Grupo_1115131" data-name="Grupo 1115131">
            <g id="Grupo_1115130" data-name="Grupo 1115130" clip-path="url(#clip-path-35)">
              <path id="Trazado_901021" data-name="Trazado 901021" d="M356.533,201.052h-4.338c.274,3.585.527,12.761.507,13.758,2.919-.042,5.192-.373,5.192-.774Z" transform="translate(-352.195 -201.052)" fill="#333"/>
            </g>
          </g>
        </g>
        <path id="Trazado_901022" data-name="Trazado 901022" d="M355.9,200.948c0,.43-1.985.779-4.432.779s-4.431-.349-4.431-.779,1.984-.78,4.431-.78,4.432.35,4.432.78" transform="translate(-40.647 -23.445)" fill="#696969"/>
        <path id="Trazado_901023" data-name="Trazado 901023" d="M351.421,202.048c-1.444,0-4.8-.112-4.8-1.149s3.356-1.15,4.8-1.15,4.8.112,4.8,1.15-3.358,1.149-4.8,1.149M347.57,200.9a18.346,18.346,0,0,0,7.7,0,18.306,18.306,0,0,0-7.7,0" transform="translate(-40.598 -23.396)" fill="#5c2f10"/>
      </g>
    </g>
  </g>
</svg>
