<svg xmlns="http://www.w3.org/2000/svg" width="295" height="64" viewBox="0 0 295 64">
  <g id="Grupo_1117962" data-name="Grupo 1117962" transform="translate(-600.051 -4452)">
    <path id="Trazado_901622" data-name="Trazado 901622" d="M10,0H285a10,10,0,0,1,10,10V54a10,10,0,0,1-10,10H10A10,10,0,0,1,0,54V10A10,10,0,0,1,10,0Z" transform="translate(600.051 4452)" fill="#edf3fb"/>
    <path id="Trazado_901623" data-name="Trazado 901623" d="M-75.788-8.555l-6.357,8.7H-71.32V3.955H-89V1.743l8.027-10.576L-89-19.131v-2.2h17.52v3.809H-82.072L-75.788-9.1ZM-63.331-6h-1.794v-7.464h1.794ZM-57.212.176a4.889,4.889,0,0,1-3.542-1.305,4.507,4.507,0,0,1-1.354-3.4v-.246a5.84,5.84,0,0,1,.541-2.575A3.955,3.955,0,0,1-59.99-9.075a4.763,4.763,0,0,1,2.461-.611,4.117,4.117,0,0,1,3.164,1.244A4.887,4.887,0,0,1-53.2-4.975v1.151h-5.889A2.135,2.135,0,0,0-58.4-2.566a2.066,2.066,0,0,0,1.389.457,2.662,2.662,0,0,0,2.2-.984l1.354,1.6A3.784,3.784,0,0,1-55.028-.277,5.3,5.3,0,0,1-57.212.176ZM-57.546-7.4q-1.3,0-1.547,1.723H-56.1v-.229a1.467,1.467,0,0,0-.36-1.1A1.434,1.434,0,0,0-57.546-7.4Zm8.253-2.109.1,1.116a3.225,3.225,0,0,1,2.716-1.292,2.713,2.713,0,0,1,2.219.888,4.226,4.226,0,0,1,.76,2.672V0h-2.971V-6a1.6,1.6,0,0,0-.29-1.059A1.342,1.342,0,0,0-47.817-7.4a1.413,1.413,0,0,0-1.292.686V0h-2.962V-9.51Zm10.881-2.364V-9.51h1.564v2.057h-1.564V-3.1a1.111,1.111,0,0,0,.193.747,1.037,1.037,0,0,0,.765.211,4.345,4.345,0,0,0,.738-.053V-.079a5.466,5.466,0,0,1-1.67.255,3.1,3.1,0,0,1-2.259-.721,2.954,2.954,0,0,1-.729-2.188v-4.72h-1.213V-9.51h1.213v-2.364Zm8.481,5.045-.976-.07a1.752,1.752,0,0,0-1.793.879V0h-2.962V-9.51h2.777l.1,1.222a2.294,2.294,0,0,1,2.083-1.4,2.888,2.888,0,0,1,.826.105ZM-23.77,0a3.344,3.344,0,0,1-.281-.853A2.754,2.754,0,0,1-26.336.176a3.374,3.374,0,0,1-2.285-.813,2.588,2.588,0,0,1-.94-2.043,2.66,2.66,0,0,1,1.143-2.338A5.821,5.821,0,0,1-25.1-5.81h.914v-.5q0-1.316-1.134-1.316a.927.927,0,0,0-1.055,1.042h-2.962A2.655,2.655,0,0,1-28.16-8.825a4.931,4.931,0,0,1,2.993-.86,4.323,4.323,0,0,1,2.874.888,3.086,3.086,0,0,1,1.081,2.435v4.21a4.311,4.311,0,0,0,.4,2V0Zm-1.854-1.934a1.652,1.652,0,0,0,.918-.237,1.487,1.487,0,0,0,.523-.536V-4.228h-.861q-1.547,0-1.547,1.389a.848.848,0,0,0,.272.655A.986.986,0,0,0-25.625-1.934Zm5.678-2.892a5.809,5.809,0,0,1,.976-3.56,3.211,3.211,0,0,1,2.725-1.3,2.731,2.731,0,0,1,2.145,1V-13.5h2.971V0h-2.663l-.149-1.02a2.8,2.8,0,0,1-2.32,1.2,3.205,3.205,0,0,1-2.689-1.3A5.993,5.993,0,0,1-19.947-4.825Zm2.962.185q0,2.531,1.477,2.531A1.458,1.458,0,0,0-14.1-2.936V-6.557A1.419,1.419,0,0,0-15.491-7.4q-1.371,0-1.485,2.215ZM-4.091,0a3.344,3.344,0,0,1-.281-.853A2.754,2.754,0,0,1-6.658.176,3.374,3.374,0,0,1-8.943-.637a2.588,2.588,0,0,1-.94-2.043A2.66,2.66,0,0,1-8.741-5.019,5.821,5.821,0,0,1-5.418-5.81H-4.5v-.5q0-1.316-1.134-1.316A.927.927,0,0,0-6.693-6.587H-9.655A2.655,2.655,0,0,1-8.481-8.825a4.931,4.931,0,0,1,2.993-.86A4.323,4.323,0,0,1-2.615-8.8,3.086,3.086,0,0,1-1.534-6.363v4.21a4.311,4.311,0,0,0,.4,2V0ZM-5.946-1.934a1.652,1.652,0,0,0,.918-.237A1.487,1.487,0,0,0-4.5-2.707V-4.228h-.861q-1.547,0-1.547,1.389a.848.848,0,0,0,.272.655A.986.986,0,0,0-5.946-1.934ZM8.539-6.346H.4V-8.631H8.539Zm0,3.858H.4V-4.772H8.539Zm19.7-6.067L21.883.146H32.708V3.955H15.028V1.743L23.055-8.833l-8.027-10.3v-2.2h17.52v3.809H21.957L28.241-9.1ZM40.7-6H38.9v-7.464H40.7Zm6.5,3.328a.684.684,0,0,0-.4-.606,6.016,6.016,0,0,0-1.5-.475A6.853,6.853,0,0,1,43.468-4.4a3.062,3.062,0,0,1-1.1-.971,2.319,2.319,0,0,1-.378-1.31,2.628,2.628,0,0,1,1.081-2.158,4.453,4.453,0,0,1,2.83-.848,4.934,4.934,0,0,1,3.023.853,2.666,2.666,0,0,1,1.143,2.241H47.1q0-1.143-1.2-1.143a1.194,1.194,0,0,0-.782.259.8.8,0,0,0-.316.646.737.737,0,0,0,.387.642,3.654,3.654,0,0,0,1.235.4,10.671,10.671,0,0,1,1.49.378A2.706,2.706,0,0,1,50.051-2.76,2.491,2.491,0,0,1,48.895-.642,5.068,5.068,0,0,1,45.9.176a5.172,5.172,0,0,1-2.18-.439,3.645,3.645,0,0,1-1.494-1.2,2.707,2.707,0,0,1-.536-1.591h2.769a1.145,1.145,0,0,0,.439.962,1.808,1.808,0,0,0,1.081.3,1.422,1.422,0,0,0,.91-.246A.787.787,0,0,0,47.194-2.672ZM56.792,0a3.344,3.344,0,0,1-.281-.853A2.754,2.754,0,0,1,54.225.176,3.374,3.374,0,0,1,51.94-.637,2.588,2.588,0,0,1,51-2.681a2.66,2.66,0,0,1,1.143-2.338,5.821,5.821,0,0,1,3.322-.791h.914v-.5q0-1.316-1.134-1.316A.927.927,0,0,0,54.19-6.587H51.228A2.655,2.655,0,0,1,52.4-8.825a4.931,4.931,0,0,1,2.993-.86,4.323,4.323,0,0,1,2.874.888,3.086,3.086,0,0,1,1.081,2.435v4.21a4.311,4.311,0,0,0,.4,2V0ZM54.937-1.934a1.652,1.652,0,0,0,.918-.237,1.487,1.487,0,0,0,.523-.536V-4.228h-.861q-1.547,0-1.547,1.389a.848.848,0,0,0,.272.655A.986.986,0,0,0,54.937-1.934ZM64.113,0H61.142V-13.5h2.971Zm4.948,0H66.091V-9.51h2.971ZM65.915-11.971a1.334,1.334,0,0,1,.457-1.043,1.718,1.718,0,0,1,1.187-.407,1.718,1.718,0,0,1,1.187.407,1.334,1.334,0,0,1,.457,1.043,1.334,1.334,0,0,1-.457,1.043,1.718,1.718,0,0,1-1.187.407,1.718,1.718,0,0,1-1.187-.407A1.334,1.334,0,0,1,65.915-11.971Zm4.6,7.146a5.809,5.809,0,0,1,.976-3.56,3.211,3.211,0,0,1,2.725-1.3,2.731,2.731,0,0,1,2.145,1V-13.5h2.971V0H76.664l-.149-1.02a2.8,2.8,0,0,1-2.32,1.2,3.205,3.205,0,0,1-2.689-1.3A5.993,5.993,0,0,1,70.512-4.825Zm2.962.185q0,2.531,1.477,2.531a1.458,1.458,0,0,0,1.406-.826V-6.557A1.419,1.419,0,0,0,74.968-7.4q-1.371,0-1.485,2.215ZM86.367,0a3.344,3.344,0,0,1-.281-.853A2.754,2.754,0,0,1,83.8.176a3.374,3.374,0,0,1-2.285-.813,2.588,2.588,0,0,1-.94-2.043,2.66,2.66,0,0,1,1.143-2.338A5.821,5.821,0,0,1,85.04-5.81h.914v-.5q0-1.316-1.134-1.316a.927.927,0,0,0-1.055,1.042H80.8a2.655,2.655,0,0,1,1.173-2.239,4.931,4.931,0,0,1,2.993-.86,4.323,4.323,0,0,1,2.874.888,3.086,3.086,0,0,1,1.081,2.435v4.21a4.311,4.311,0,0,0,.4,2V0ZM84.513-1.934a1.652,1.652,0,0,0,.918-.237,1.487,1.487,0,0,0,.523-.536V-4.228h-.861q-1.547,0-1.547,1.389a.848.848,0,0,0,.272.655A.986.986,0,0,0,84.513-1.934Z" transform="translate(748.051 4495)" fill="#12263f"/>
  </g>
</svg>
