<svg xmlns="http://www.w3.org/2000/svg" xmlns:xlink="http://www.w3.org/1999/xlink" width="317.836" height="81.322" viewBox="0 0 317.836 81.322">
  <defs>
    <clipPath id="clip-path">
      <rect id="Rectángulo_408026" data-name="Rectángulo 408026" width="317.836" height="81.322" fill="#2d496c"/>
    </clipPath>
  </defs>
  <g id="Grupo_1115008" data-name="Grupo 1115008" transform="translate(0 0)">
    <g id="Grupo_1115007" data-name="Grupo 1115007" transform="translate(0 0)" clip-path="url(#clip-path)">
      <path id="Trazado_900828" data-name="Trazado 900828" d="M445.029,1.472V14.389c-2.055-.131-3.419,1.166-4.685,2.557-8.238,9.056-9.663,24.466-26.45,23.294-14.233-.993-16.059-14.959-23.285-23.295-3.649-4.21-6.329-3.755-9.766.388-6.175,7.444-9.516,21.071-21.383,22.456-15.568,1.817-18.992-9.885-25.825-20.279-4.9-7.456-8.017-8.054-13.242-.391-5.894,8.641-9.815,20.655-22.737,20.711-15.84.068-17.471-15.41-25.255-24.063-3.374-3.751-6.449-2.74-9.377.783C256.931,23.883,254.8,35.1,244.21,38.443,233.267,41.9,226.1,35.927,220.58,27.273c-3-4.709-5.613-13.134-11.58-14.058V.494c0-1.051,3.838-.128,4.618.079,11.859,3.154,13.476,14.743,20.051,22.614,3.447,4.128,6.322,4.128,9.768,0C250.266,15.011,252.71,1.668,266,.346,280.348-1.08,284.407,11.1,290.645,20.619c1.952,2.978,4.161,7,8.4,5.724,3.724-1.125,9.11-12.764,11.8-16.383C321.7-4.672,335.924-1.349,344.989,12.854c3.439,5.388,8.506,20.229,16.266,11.116,6.828-8.019,9.208-21.7,22.522-22.883,16.91-1.5,18.725,13.33,26.643,23.055,7.889,9.69,13.5-6.587,17.225-12.066,3.942-5.793,9.8-11.314,17.384-10.6" transform="translate(-127.192 0)" fill="#2d496c"/>
      <rect id="Rectángulo_408023" data-name="Rectángulo 408023" width="30.922" height="19.963" transform="translate(286.522 61.36)" fill="#2d496c"/>
      <rect id="Rectángulo_408024" data-name="Rectángulo 408024" width="27.008" height="19.963" transform="translate(130.344 61.36)" fill="#2d496c"/>
      <rect id="Rectángulo_408025" data-name="Rectángulo 408025" width="27.008" height="19.963" transform="translate(182.404 61.36)" fill="#2d496c"/>
      <path id="Trazado_900829" data-name="Trazado 900829" d="M626.008,176.724H599V156.761h26.421l.587.587Z" transform="translate(-364.537 -95.401)" fill="#2d496c"/>
      <path id="Trazado_900830" data-name="Trazado 900830" d="M232.084,156.761v19.963H208.6V157.74c0-.137-.694-.434.2-.979Z" transform="translate(-126.791 -95.401)" fill="#2d496c"/>
      <path id="Trazado_900831" data-name="Trazado 900831" d="M0,109.076l10.193-29.34L19,79.692l11.14,29.384H22.115l-2.158-7.049c-3.061.764-6.645.42-9.8.17L8.22,109.076ZM18.005,96.159l-2.744-9.785c-.556.045-.614.577-.793.964-1.17,2.535-1.557,6.181-2.726,8.821Z" transform="translate(0 -48.499)" fill="#2d496c"/>
      <path id="Trazado_900832" data-name="Trazado 900832" d="M107.416,87.646l-6.8,1.206c-1.228-2.275-1.5-4.14-4.444-4.631-7.91-1.319-9.271,7.95-7.43,13.689a6.409,6.409,0,0,0,9.562,3.521c1.912-1.224,1.557-2.592,2.635-4.288l6.872,1.075C106.9,110.78,88,111.952,82.685,102.006c-3.019-5.652-2.73-14.451,1.437-19.451,6.271-7.526,22.1-5.9,23.295,5.091" transform="translate(-49.093 -47.425)" fill="#2d496c"/>
    </g>
  </g>
</svg>
