<svg xmlns="http://www.w3.org/2000/svg" xmlns:xlink="http://www.w3.org/1999/xlink" width="84.949" height="84.949" viewBox="0 0 84.949 84.949">
  <defs>
    <clipPath id="clip-path">
      <path id="path5607" d="M0-682.665H84.949v84.949H0Z" transform="translate(0 682.665)"/>
    </clipPath>
  </defs>
  <g id="g5601" transform="translate(0 682.665)">
    <g id="g5603" transform="translate(0 -682.665)">
      <g id="g5605" clip-path="url(#clip-path)">
        <g id="g5611" transform="translate(2.5 38.178)">
          <path id="path5613" d="M-120.057-1.672v-.238h-9.01v.237a10.6,10.6,0,0,1-3.711,8,12.527,12.527,0,0,0-4.341,9.614,12.6,12.6,0,0,0,12.683,12.441A12.558,12.558,0,0,0-112,15.825a12.527,12.527,0,0,0-4.346-9.5,10.589,10.589,0,0,1-3.707-8" transform="translate(137.12 1.909)" fill="#fde265"/>
        </g>
        <g id="g5615" transform="translate(9.554 38.178)">
          <path id="path5617" d="M-77.449-32.871a10.39,10.39,0,0,1-1-4.434v-.238h-9.01v.237a10.383,10.383,0,0,1-1,4.434Z" transform="translate(88.456 37.543)" fill="#fdd330"/>
        </g>
        <g id="g5619" transform="translate(12.069 38.178)">
          <path id="path5621" d="M-109.391-124.779a12.557,12.557,0,0,1-12.433,12.557,12.273,12.273,0,0,1-3.114-.365,12.561,12.561,0,0,0,9.543-12.193,12.522,12.522,0,0,0-4.346-9.5,10.594,10.594,0,0,1-3.708-8v-.239h6.006v.239a10.592,10.592,0,0,0,3.706,8,12.522,12.522,0,0,1,4.346,9.5" transform="translate(124.938 142.513)" fill="#fdd330"/>
        </g>
        <g id="g5623" transform="translate(1.256 36.934)">
          <path id="path5625" d="M-195.481-97.115a13.707,13.707,0,0,1-9.653-3.962,13.7,13.7,0,0,1-4.149-9.712,13.787,13.787,0,0,1,4.771-10.566,9.361,9.361,0,0,0,3.281-7.059v-.237a1.244,1.244,0,0,1,1.244-1.244h9.01a1.244,1.244,0,0,1,1.244,1.244v.238a9.351,9.351,0,0,0,3.277,7.056,13.7,13.7,0,0,1,4.427,7.348,1.244,1.244,0,0,1-.935,1.491,1.244,1.244,0,0,1-1.491-.935,11.23,11.23,0,0,0-3.629-6.022,11.877,11.877,0,0,1-4.094-7.931h-6.609a11.89,11.89,0,0,1-4.1,7.934,11.3,11.3,0,0,0-3.912,8.661,11.225,11.225,0,0,0,3.4,7.958,11.235,11.235,0,0,0,8.023,3.25,11.252,11.252,0,0,0,10.933-8.871,1.244,1.244,0,0,1,1.483-.948,1.244,1.244,0,0,1,.948,1.483,13.729,13.729,0,0,1-13.339,10.825Z" transform="translate(209.284 129.896)"/>
        </g>
        <g id="g5627" transform="translate(10.532 26.631)">
          <path id="path5629" d="M-63.7-47.168h-9.053v-3.512a3.191,3.191,0,0,1,3.191-3.191h2.67A3.191,3.191,0,0,1-63.7-50.681Z" transform="translate(72.749 53.872)" fill="#b5dbfd"/>
        </g>
        <g id="g5631" transform="translate(13.061 26.631)">
          <path id="path5633" d="M-45.9-22.456v3.512h-3.993v-3.512a3.2,3.2,0,0,0-2.531-3.123,3.237,3.237,0,0,1,.662-.069h2.67A3.191,3.191,0,0,1-45.9-22.456" transform="translate(52.425 25.648)" fill="#8dcafc"/>
        </g>
        <g id="g5635" transform="translate(9.288 25.386)">
          <path id="path5637" d="M-72.452-54.679H-81.5a1.244,1.244,0,0,1-1.244-1.244v-3.512a4.441,4.441,0,0,1,4.436-4.436h2.67a4.441,4.441,0,0,1,4.436,4.436v3.512A1.244,1.244,0,0,1-72.452-54.679Zm-7.808-2.489H-73.7v-2.268a1.949,1.949,0,0,0-1.947-1.947h-2.67a1.949,1.949,0,0,0-1.947,1.947Z" transform="translate(82.749 63.872)"/>
        </g>
        <g id="g5639" transform="translate(8.684 33.273)">
          <path id="path5641" d="M-71.091-37.224h-7.458a2.645,2.645,0,0,1-2.645-2.645,2.645,2.645,0,0,1,2.645-2.645h7.458a2.645,2.645,0,0,1,2.645,2.645,2.645,2.645,0,0,1-2.645,2.645" transform="translate(81.194 42.515)" fill="#eaf6ff"/>
        </g>
        <g id="g5643" transform="translate(14.992 33.273)">
          <path id="path5645" d="M-45.319-18.609a2.638,2.638,0,0,1-.775,1.872,2.642,2.642,0,0,1-1.872.775H-51.76a2.638,2.638,0,0,0,1.87-.775,2.638,2.638,0,0,0,.775-1.872,2.644,2.644,0,0,0-2.645-2.645h3.795a2.646,2.646,0,0,1,2.646,2.645" transform="translate(51.76 21.253)" fill="#c4e1ff"/>
        </g>
        <g id="g5647" transform="translate(7.439 32.029)">
          <path id="path5649" d="M-79.846-44.735H-87.3a3.894,3.894,0,0,1-3.89-3.89,3.894,3.894,0,0,1,3.89-3.89h7.458a3.894,3.894,0,0,1,3.89,3.89A3.894,3.894,0,0,1-79.846-44.735Zm-7.458-5.29a1.4,1.4,0,0,0-1.4,1.4,1.4,1.4,0,0,0,1.4,1.4h7.458a1.4,1.4,0,0,0,1.4-1.4,1.4,1.4,0,0,0-1.4-1.4Z" transform="translate(91.194 52.515)"/>
        </g>
        <g id="g5651" transform="translate(65.369 55.581)">
          <path id="path5653" d="M-120.179-60.09a8.54,8.54,0,0,0-8.54-8.54,8.54,8.54,0,0,0-8.54,8.54,8.54,8.54,0,0,0,8.54,8.54,8.54,8.54,0,0,0,8.54-8.54" transform="translate(137.26 68.63)" fill="#64b9fc"/>
        </g>
        <g id="g5655" transform="translate(70.733 55.581)">
          <path id="path5657" d="M-82.431-60.091a8.54,8.54,0,0,0-8.541-8.54,8.518,8.518,0,0,0-3.171.609,8.03,8.03,0,0,1,6.772,7.932,8.03,8.03,0,0,1-6.775,7.93,8.5,8.5,0,0,0,3.175.611,8.541,8.541,0,0,0,8.541-8.54" transform="translate(94.146 68.632)" fill="#31a7fb"/>
        </g>
        <g id="g5659" transform="translate(64.124 54.337)">
          <path id="path5661" d="M-130.429-89.363a9.8,9.8,0,0,1-9.784-9.785,9.8,9.8,0,0,1,9.784-9.785,9.8,9.8,0,0,1,9.785,9.785,9.69,9.69,0,0,1-1.005,4.321,1.244,1.244,0,0,1-1.666.566,1.244,1.244,0,0,1-.566-1.666,7.222,7.222,0,0,0,.749-3.22,7.3,7.3,0,0,0-7.3-7.3,7.3,7.3,0,0,0-7.3,7.3,7.3,7.3,0,0,0,7.3,7.3,7.225,7.225,0,0,0,3.206-.741,1.244,1.244,0,0,1,1.665.57,1.244,1.244,0,0,1-.57,1.665A9.693,9.693,0,0,1-130.429-89.363Z" transform="translate(140.213 108.932)"/>
        </g>
        <g id="g5663" transform="translate(69.827 62.877)">
          <path id="path5665" d="M-3.08-7.511H-8.756A1.244,1.244,0,0,1-10-8.756,1.244,1.244,0,0,1-8.756-10H-3.08A1.244,1.244,0,0,1-1.836-8.756,1.244,1.244,0,0,1-3.08-7.511Z" transform="translate(10 10)"/>
        </g>
        <g id="g5667" transform="translate(72.664 60.04)">
          <path id="path5669" d="M-8.756-47.443A1.244,1.244,0,0,1-10-48.687v-5.675a1.244,1.244,0,0,1,1.244-1.244,1.244,1.244,0,0,1,1.244,1.244v5.675A1.244,1.244,0,0,1-8.756-47.443Z" transform="translate(10 55.607)"/>
        </g>
        <g id="g5671" transform="translate(65.369 21.483)">
          <path id="path5673" d="M-120.179-60.09a8.54,8.54,0,0,0-8.54-8.54,8.54,8.54,0,0,0-8.54,8.54,8.54,8.54,0,0,0,8.54,8.54,8.54,8.54,0,0,0,8.54-8.54" transform="translate(137.26 68.63)" fill="#fc9744"/>
        </g>
        <g id="g5675" transform="translate(70.733 21.484)">
          <path id="path5677" d="M-82.431-60.091a8.54,8.54,0,0,0-8.541-8.54,8.521,8.521,0,0,0-3.171.609,8.031,8.031,0,0,1,6.772,7.932,8.03,8.03,0,0,1-6.775,7.93,8.5,8.5,0,0,0,3.175.611,8.541,8.541,0,0,0,8.541-8.54" transform="translate(94.146 68.632)" fill="#fb7722"/>
        </g>
        <g id="g5679" transform="translate(64.124 20.239)">
          <path id="path5681" d="M-137.475-78.63a9.8,9.8,0,0,1,9.785,9.785,9.8,9.8,0,0,1-9.785,9.785,9.8,9.8,0,0,1-9.784-9.785A9.8,9.8,0,0,1-137.475-78.63Zm0,17.08a7.3,7.3,0,0,0,7.3-7.3,7.3,7.3,0,0,0-7.3-7.3,7.3,7.3,0,0,0-7.3,7.3A7.3,7.3,0,0,0-137.475-61.55Z" transform="translate(147.26 78.63)"/>
        </g>
        <g id="g5683" transform="translate(69.827 28.779)">
          <path id="path5685" d="M-3.08-7.511H-8.756A1.244,1.244,0,0,1-10-8.756,1.244,1.244,0,0,1-8.756-10H-3.08A1.244,1.244,0,0,1-1.836-8.756,1.244,1.244,0,0,1-3.08-7.511Z" transform="translate(10 10)"/>
        </g>
        <g id="g5687" transform="translate(13.814 67.225)">
          <path id="path5689" d="M-422.836-28.366h-58.85a1.244,1.244,0,0,1-1.244-1.244V-42.443a1.244,1.244,0,0,1,1.244-1.244,1.244,1.244,0,0,1,1.244,1.244v11.589h56.362v-7.4a1.244,1.244,0,0,1,1.244-1.244,1.244,1.244,0,0,1,1.244,1.244v8.641A1.244,1.244,0,0,1-422.836-28.366Z" transform="translate(482.931 43.688)"/>
        </g>
        <g id="g5691" transform="translate(13.814 9.278)">
          <path id="path5693" d="M-8.756-114.038A1.244,1.244,0,0,1-10-115.282v-15.14a1.244,1.244,0,0,1,1.244-1.244h58.85a1.244,1.244,0,0,1,1.244,1.244v10.961a1.244,1.244,0,0,1-1.244,1.244,1.244,1.244,0,0,1-1.244-1.244v-9.717H-7.511v13.9A1.244,1.244,0,0,1-8.756-114.038Z" transform="translate(10 131.666)"/>
        </g>
        <g id="g5695" transform="translate(72.664 49.187)">
          <path id="path5697" d="M-8.756-43.748A1.244,1.244,0,0,1-10-44.992v-5.15a1.244,1.244,0,0,1,1.244-1.244,1.244,1.244,0,0,1,1.244,1.244v5.15A1.244,1.244,0,0,1-8.756-43.748Z" transform="translate(10 51.387)"/>
        </g>
        <g id="g5699" transform="translate(66.461 49.187)">
          <path id="path5701" d="M3.652-7.511H-8.756A1.244,1.244,0,0,1-10-8.756,1.244,1.244,0,0,1-8.756-10H3.652A1.244,1.244,0,0,1,4.9-8.756,1.244,1.244,0,0,1,3.652-7.511Z" transform="translate(10 10)"/>
        </g>
        <g id="g5703" transform="translate(72.664 37.32)">
          <path id="path5705" d="M-8.756-2.361A1.244,1.244,0,0,1-10-3.606v-5.15A1.244,1.244,0,0,1-8.756-10,1.244,1.244,0,0,1-7.511-8.756v5.15A1.244,1.244,0,0,1-8.756-2.361Z" transform="translate(10 10)"/>
        </g>
        <g id="g5707" transform="translate(69.051 42.47)">
          <path id="path5709" d="M-59.6-7.511h-7.227a1.244,1.244,0,0,1-1.244-1.244A1.244,1.244,0,0,1-66.831-10H-59.6A1.244,1.244,0,0,1-58.36-8.756,1.244,1.244,0,0,1-59.6-7.511Z" transform="translate(68.076 10)"/>
        </g>
        <g id="g5711" transform="translate(26.971 6.502)">
          <path id="path5713" d="M-226.828-95.7h-30.387a1.85,1.85,0,0,1-1.85-1.85v-9.9a1.85,1.85,0,0,1,1.85-1.85h30.387a1.85,1.85,0,0,1,1.85,1.85v9.9a1.85,1.85,0,0,1-1.85,1.85" transform="translate(259.066 109.302)" fill="#64e0c4"/>
        </g>
        <g id="g5715" transform="translate(53.587 6.503)">
          <path id="path5717" d="M-52.58-13.018v9.9a1.851,1.851,0,0,1-1.85,1.85h-5.623a1.85,1.85,0,0,0,1.85-1.85v-9.9a1.848,1.848,0,0,0-1.85-1.85h5.623a1.85,1.85,0,0,1,1.85,1.85" transform="translate(60.053 14.868)" fill="#27d1b3"/>
        </g>
        <g id="g5719" transform="translate(25.727 5.257)">
          <path id="path5721" d="M-209-103.212h-3.308a1.244,1.244,0,0,1-1.244-1.244,1.244,1.244,0,0,1,1.244-1.244H-209a.607.607,0,0,0,.606-.606v-9.9a.607.607,0,0,0-.606-.606h-30.387a.607.607,0,0,0-.606.606v9.9a.607.607,0,0,0,.606.606h21.556a1.244,1.244,0,0,1,1.244,1.244,1.244,1.244,0,0,1-1.244,1.244h-21.556a3.1,3.1,0,0,1-3.095-3.095v-9.9a3.1,3.1,0,0,1,3.095-3.095H-209a3.1,3.1,0,0,1,3.095,3.095v9.9A3.1,3.1,0,0,1-209-103.212Z" transform="translate(242.481 119.302)"/>
        </g>
        <g id="g5723" transform="translate(34.744 1.244)">
          <path id="path5725" d="M-119.225-66.2h-5.418l4.236-8.156a.857.857,0,0,0-.76-1.252h-7.117a1.713,1.713,0,0,0-1.531.944l-6.262,12.451a.857.857,0,0,0,.765,1.242h5.971L-131.9-52.6a.857.857,0,0,0,1.452.829l11.861-12.989a.857.857,0,0,0-.633-1.435" transform="translate(136.169 75.605)" fill="#fde265"/>
        </g>
        <g id="g5727" transform="translate(42.39 1.244)">
          <path id="path5729" d="M-57.106-8.813-61.343-.657h-3.24a.638.638,0,0,1-.566-.932L-61.4-8.813a.857.857,0,0,0-.76-1.253h4.292a.857.857,0,0,1,.76,1.253" transform="translate(65.222 10.065)" fill="#fdd330"/>
        </g>
        <g id="g5731" transform="translate(38.967 10.653)">
          <path id="path5733" d="M-93.966-10.089-105.827,2.9a.857.857,0,0,1-1.452-.829l1.053-3.432,7.969-8.729a.856.856,0,0,0-.633-1.434H-94.6a.857.857,0,0,1,.633,1.434" transform="translate(107.321 11.523)" fill="#fdd330"/>
        </g>
        <g id="g5735" transform="translate(33.499 0)">
          <path id="path5737" d="M-137.046-85.605h7.117a2.086,2.086,0,0,1,1.8,1.01,2.086,2.086,0,0,1,.069,2.059l-3.292,6.339h3.37a2.1,2.1,0,0,1,1.923,1.253,2.1,2.1,0,0,1-.371,2.265L-138.3-59.69a2.069,2.069,0,0,1-1.541.689,2.137,2.137,0,0,1-1.711-.865,2.071,2.071,0,0,1-.309-1.857l2.071-6.757h-4.288a2.087,2.087,0,0,1-1.789-1,2.088,2.088,0,0,1-.089-2.047l6.262-12.451A2.942,2.942,0,0,1-137.046-85.605Zm6.479,2.489h-6.479a.467.467,0,0,0-.419.258l-5.979,11.89h5.342a1.244,1.244,0,0,1,1,.5,1.244,1.244,0,0,1,.189,1.1l-2.06,6.719,10.107-11.068h-4.54a1.244,1.244,0,0,1-1.064-.6,1.244,1.244,0,0,1-.041-1.22Z" transform="translate(146.176 85.605)"/>
        </g>
        <g id="g5739" transform="translate(32.955 75.679)">
          <path id="path5741" d="M-156.278-56.474h-20.553a1.658,1.658,0,0,1-1.658-1.658v-4.711a1.657,1.657,0,0,1,1.658-1.658h20.553a1.657,1.657,0,0,1,1.658,1.658v4.711a1.657,1.657,0,0,1-1.658,1.658" transform="translate(178.489 64.5)" fill="#eef4f5"/>
        </g>
        <g id="g5743" transform="translate(40.484 75.679)">
          <path id="path5745" d="M-103.3,0h-14.682V8.026H-103.3a1.657,1.657,0,0,0,1.658-1.658V1.658A1.657,1.657,0,0,0-103.3,0" transform="translate(117.985)" fill="#cbe5e7"/>
        </g>
        <g id="g5747" transform="translate(45.169 75.679)">
          <path id="path5749" d="M-70.336,0h-10V8.026h10a1.657,1.657,0,0,0,1.658-1.658V1.658A1.657,1.657,0,0,0-70.336,0" transform="translate(80.332)" fill="#fc9744"/>
        </g>
        <g id="g5751" transform="translate(50.52 75.679)">
          <path id="path5753" d="M-44.352-11.662v4.711A1.657,1.657,0,0,1-46.01-5.294h-4.646A1.657,1.657,0,0,0-49-6.952v-4.711a1.658,1.658,0,0,0-1.658-1.658h4.646a1.658,1.658,0,0,1,1.658,1.658" transform="translate(50.656 13.32)" fill="#fb7722"/>
        </g>
        <g id="g5755" transform="translate(43.925 74.434)">
          <path id="path5757" d="M-8.756.515A1.244,1.244,0,0,1-10-.729V-8.756A1.244,1.244,0,0,1-8.756-10,1.244,1.244,0,0,1-7.511-8.756V-.729A1.244,1.244,0,0,1-8.756.515Z" transform="translate(10 10)"/>
        </g>
        <g id="g5759" transform="translate(31.711 74.434)">
          <path id="path5761" d="M-165.034-63.985h-20.553a2.905,2.905,0,0,1-2.9-2.9V-71.6a2.905,2.905,0,0,1,2.9-2.9h20.553a2.905,2.905,0,0,1,2.9,2.9v4.711A2.905,2.905,0,0,1-165.034-63.985Zm-20.553-8.026A.414.414,0,0,0-186-71.6v4.711a.414.414,0,0,0,.413.413h20.553a.414.414,0,0,0,.413-.413V-71.6a.414.414,0,0,0-.413-.413Z" transform="translate(188.489 74.5)"/>
        </g>
      </g>
    </g>
  </g>
</svg>
