<svg id="Grupo_1115183" data-name="Grupo 1115183" xmlns="http://www.w3.org/2000/svg" xmlns:xlink="http://www.w3.org/1999/xlink" width="295" height="203.409" viewBox="0 0 295 203.409">
  <defs>
    <clipPath id="clip-path">
      <rect id="Rectángulo_408122" data-name="Rectángulo 408122" width="295" height="203.409" fill="#2d496c"/>
    </clipPath>
  </defs>
  <g id="Grupo_1115182" data-name="Grupo 1115182" clip-path="url(#clip-path)">
    <path id="Trazado_901033" data-name="Trazado 901033" d="M0,83.632l40.074-.312c.8-4.914,1.305-9.142,3.184-13.971,7.891-20.278,29.519-30.837,50.53-25.537,4.094,1.032,7.267,3.289,11.288,4.08V0h2.144V49.679c23.692,17.407,24.129,52.78,0,70.051v49.679h-2.144V121.517c-3.921,1.328-7.526,3.484-11.592,4.491a42.9,42.9,0,0,1-44.46-15.273c-5.505-7-7.755-15.217-8.949-23.932L0,86.491ZM77.914,73.625l25.736-22.5C78.007,34.482,43.706,53.459,42.888,83.632H71.48v-24.3h6.433ZM92.925,98.649l-1.834,4.98,15.646,12.784c21.466-15.131,20.836-47.776.136-63.342L78.03,76.957l-.016,17.3ZM71.48,86.491H42.888c1.16,30.476,35.805,48.577,61.459,31.809L89.565,105.867l-4.146,2.77L77.914,95.784v14.3H71.48Z" fill="#2d496c"/>
    <path id="Trazado_901034" data-name="Trazado 901034" d="M345.064,0V50.394c23.894,16.884,23.185,52.2,0,69.336v49.679h-2.859V121.517c-27.988,16.04-63.1-2.794-64.33-35.029l-38.965.01c-2.267.277-1.266-2.866-1.066-2.866h40.029c.826-31.967,36.817-52.224,64.332-35.025V0ZM280.732,83.632h28.592v-24.3h5.718v14.3l26.443-22.861c-26.144-15.581-60.442,2.19-60.754,32.868m53.623,20.019c1.026-.229,1.157.1,1.746.738,1.9,2.061,4.162,8.839,6.2,11.665.433.6.656,1.365,1.64,1.145.494-.111,6.432-6.178,7.2-7.111,14.3-17.3,11.377-44.087-7.168-57.024L317.178,75.4c-3.289,1.5-2.6,16.212-1.471,17.93l15.275,12.648,1.935.222Zm-25.031-17.16H280.732c.657,31.11,35.227,47.768,61.471,32.156.292-1.825-.161-1.108-1-1.488-2.1-.949-13.559-3.651-14.007-4.229.782-1.77,3.483-2.567,2.759-4.9L315.043,96.5V110.08h-5.718Z" transform="translate(-67.72)" fill="#2d496c"/>
    <path id="Trazado_901619" data-name="Trazado 901619" d="M4.052-4.342V0H.967V-12.8H6.073a5.948,5.948,0,0,1,2.6.541,4.074,4.074,0,0,1,1.749,1.538,4.2,4.2,0,0,1,.62,2.263A3.7,3.7,0,0,1,9.7-5.462,5.561,5.561,0,0,1,6.021-4.342Zm0-2.382H6.073A1.906,1.906,0,0,0,7.44-7.172a1.665,1.665,0,0,0,.47-1.266A2.059,2.059,0,0,0,7.427-9.87a1.712,1.712,0,0,0-1.318-.545H4.052ZM23.37,0H20.3L15.768-7.963V0H12.683V-12.8h3.085l4.526,7.963V-12.8H23.37Zm5.036-4.342V0H25.321V-12.8h5.106a5.948,5.948,0,0,1,2.6.541,4.074,4.074,0,0,1,1.749,1.538,4.2,4.2,0,0,1,.62,2.263,3.7,3.7,0,0,1-1.34,2.993,5.561,5.561,0,0,1-3.678,1.121Zm0-2.382h2.021a1.906,1.906,0,0,0,1.367-.448,1.665,1.665,0,0,0,.47-1.266,2.059,2.059,0,0,0-.483-1.433,1.712,1.712,0,0,0-1.318-.545H28.406Z" transform="translate(61.5 196.409)" fill="#12263f"/>
    <path id="Trazado_901618" data-name="Trazado 901618" d="M11.654,0H8.587L4.052-7.963V0H.967V-12.8H4.052L8.578-4.834V-12.8h3.076ZM16.69-4.342V0H13.605V-12.8h5.106a5.948,5.948,0,0,1,2.6.541,4.074,4.074,0,0,1,1.749,1.538,4.2,4.2,0,0,1,.62,2.263,3.7,3.7,0,0,1-1.34,2.993,5.561,5.561,0,0,1-3.678,1.121Zm0-2.382h2.021a1.906,1.906,0,0,0,1.367-.448,1.665,1.665,0,0,0,.47-1.266,2.059,2.059,0,0,0-.483-1.433,1.712,1.712,0,0,0-1.318-.545H16.69ZM36.009,0H32.941L28.406-7.963V0H25.321V-12.8h3.085l4.526,7.963V-12.8h3.076Z" transform="translate(244.5 196.409)" fill="#12263f"/>
  </g>
</svg>
