<svg id="Grupo_1115186" data-name="Grupo 1115186" xmlns="http://www.w3.org/2000/svg" xmlns:xlink="http://www.w3.org/1999/xlink" width="266.287" height="209.241" viewBox="0 0 266.287 209.241">
  <defs>
    <clipPath id="clip-path">
      <rect id="Rectángulo_408125" data-name="Rectángulo 408125" width="266.287" height="209.241" fill="#2d496c"/>
    </clipPath>
  </defs>
  <g id="Grupo_1115185" data-name="Grupo 1115185" clip-path="url(#clip-path)">
    <path id="Trazado_901035" data-name="Trazado 901035" d="M103.95,115.038v49.2h-2.772V117.81c-3.03.738-5.5,2.681-8.468,3.659-25.868,8.522-53.389-10.548-53.9-37.616H0V81.081H38.808c.266-31.368,35.724-50.39,62.37-33.957V0L103.3.307l.783,48.42c21.832,16.11,22.861,51.125-.13,66.311m-2.772-51.975V50.242c-25.245-17.256-58.865.949-60.291,30.838H54.054l.355-4.859,14.2,5.552V58.558c1.475-1.807,4.15-.85,6.24-1.043l0,5.547Zm2.772-10.395V64.8l-1.039,1.04H74.844V99.1H103.95v12.127c0,.283-1.784,1.212.337,1.034,18.5-15.02,19.211-45.333-.337-59.592M68.607,106.722V82.467c-4.1.885-9.708,4.965-13.516,5.552-1.994.307-.712-2.959-1.037-4.166H40.887C42.531,113.67,76.406,131.6,101.178,114v-12.82H74.844l0,5.547Z" fill="#2d496c"/>
    <path id="Trazado_901036" data-name="Trazado 901036" d="M311.178,0,313.3.307l.689,2.083-.634,45.619c22.525,16.568,23.678,50.913.586,67.518-.221,12.189.323,24.425.046,36.613-.086,3.769-1.315,8.543-.035,12.094l-2.771.007V117.81c-3.031.738-5.5,2.681-8.468,3.659-25.814,8.5-53.5-10.491-53.9-37.616H210V81.081h38.808c.053-31.318,35.809-50.39,62.37-33.957Zm0,63.063V50.242c-25.242-17.1-58.5.563-60.3,30.494-.087,1.449.441,1.223,1.6.9,4.23-1.161,8.955-4.16,13.3-5.419l.355,4.859h12.474V58.558c1.475-1.807,4.15-.85,6.24-1.043l0,5.547Zm2.772-9.355c.17,3.681-.123,7.4,0,11.088l-1.04,1.04H284.844V99.1H313.95v12.127c0,.283-1.784,1.212.337,1.034,18.421-15.2,19.054-44.72,0-59.583-2.111-.177-.348.715-.333,1.03M311.178,114v-12.82H284.844l0,5.547-6.24,0V83.16l-12.477.69-.352,4.171-14.886-5.55C251.244,112.855,286,131.919,311.178,114" transform="translate(-64.47)" fill="#2d496c"/>
    <path id="Trazado_901620" data-name="Trazado 901620" d="M11.654,0H8.587L4.052-7.963V0H.967V-12.8H4.052L8.578-4.834V-12.8h3.076ZM28.441-4.333a4.673,4.673,0,0,1-.721,2.36,4.35,4.35,0,0,1-1.85,1.586,6.3,6.3,0,0,1-2.72.563,5.025,5.025,0,0,1-3.973-1.644,6.786,6.786,0,0,1-1.45-4.641v-.633a7.746,7.746,0,0,1,.655-3.292,4.961,4.961,0,0,1,1.885-2.18,5.26,5.26,0,0,1,2.848-.769,5.516,5.516,0,0,1,3.744,1.226,4.844,4.844,0,0,1,1.608,3.379H25.392a2.292,2.292,0,0,0-.589-1.679,2.422,2.422,0,0,0-1.687-.51,1.843,1.843,0,0,0-1.687.861,5.536,5.536,0,0,0-.562,2.751v.905a6.126,6.126,0,0,0,.514,2.927,1.882,1.882,0,0,0,1.771.879,2.369,2.369,0,0,0,1.626-.5,2.126,2.126,0,0,0,.6-1.591ZM32.66-8.49a2.964,2.964,0,0,1,2.426-1.2,2.956,2.956,0,0,1,2.373.932A4.186,4.186,0,0,1,38.276-6V0H35.306V-5.933A1.674,1.674,0,0,0,35-7.044,1.322,1.322,0,0,0,33.952-7.4a1.424,1.424,0,0,0-1.292.58V0H29.7V-13.5H32.66ZM45.281,0A3.344,3.344,0,0,1,45-.853,2.754,2.754,0,0,1,42.715.176,3.374,3.374,0,0,1,40.43-.637a2.588,2.588,0,0,1-.94-2.043,2.66,2.66,0,0,1,1.143-2.338,5.821,5.821,0,0,1,3.322-.791h.914v-.5q0-1.316-1.134-1.316A.927.927,0,0,0,42.68-6.587H39.718a2.655,2.655,0,0,1,1.173-2.239,4.931,4.931,0,0,1,2.993-.86,4.323,4.323,0,0,1,2.874.888,3.086,3.086,0,0,1,1.081,2.435v4.21a4.311,4.311,0,0,0,.4,2V0ZM43.427-1.934a1.652,1.652,0,0,0,.918-.237,1.487,1.487,0,0,0,.523-.536V-4.228h-.861q-1.547,0-1.547,1.389a.848.848,0,0,0,.272.655A.986.986,0,0,0,43.427-1.934ZM52.2-9.51l.1,1.116a3.225,3.225,0,0,1,2.716-1.292A2.713,2.713,0,0,1,57.23-8.8a4.226,4.226,0,0,1,.76,2.672V0H55.02V-6a1.6,1.6,0,0,0-.29-1.059A1.342,1.342,0,0,0,53.675-7.4a1.413,1.413,0,0,0-1.292.686V0H49.421V-9.51Zm10.151,0,.1,1.116a3.225,3.225,0,0,1,2.716-1.292,2.713,2.713,0,0,1,2.219.888,4.226,4.226,0,0,1,.76,2.672V0H65.171V-6a1.6,1.6,0,0,0-.29-1.059A1.342,1.342,0,0,0,63.826-7.4a1.413,1.413,0,0,0-1.292.686V0H59.572V-9.51ZM74.382.176A4.889,4.889,0,0,1,70.84-1.129a4.507,4.507,0,0,1-1.354-3.4v-.246a5.84,5.84,0,0,1,.541-2.575A3.955,3.955,0,0,1,71.6-9.075a4.763,4.763,0,0,1,2.461-.611,4.117,4.117,0,0,1,3.164,1.244,4.887,4.887,0,0,1,1.16,3.467v1.151H72.5A2.135,2.135,0,0,0,73.2-2.566a2.066,2.066,0,0,0,1.389.457,2.662,2.662,0,0,0,2.2-.984l1.354,1.6A3.784,3.784,0,0,1,76.566-.277,5.3,5.3,0,0,1,74.382.176ZM74.048-7.4q-1.3,0-1.547,1.723h2.988v-.229a1.467,1.467,0,0,0-.36-1.1A1.434,1.434,0,0,0,74.048-7.4ZM82.705,0H79.734V-13.5h2.971ZM6.064,2.2H9.141v8.78a4.2,4.2,0,0,1-.567,2.18,3.87,3.87,0,0,1-1.582,1.485,4.835,4.835,0,0,1-2.263.527,4.661,4.661,0,0,1-3.252-1.055,3.833,3.833,0,0,1-1.16-2.988H3.41a2.113,2.113,0,0,0,.3,1.274,1.2,1.2,0,0,0,1.015.4,1.148,1.148,0,0,0,.989-.479,2.251,2.251,0,0,0,.347-1.34ZM19.143,9.9H14.168V15H11.083V2.2h8.561V4.585H14.168V7.529h4.975Zm9.721-.334H24.012v3.059h5.73V15H20.927V2.2H29.76V4.585H24.012v2.7h4.852ZM41.221,4.585H37.38V15H34.295V4.585H30.524V2.2h10.7Z" transform="translate(18.413 181.241)" fill="#12263f"/>
    <path id="Trazado_901621" data-name="Trazado 901621" d="M4.052-4.342V0H.967V-12.8H6.073a5.948,5.948,0,0,1,2.6.541,4.074,4.074,0,0,1,1.749,1.538,4.2,4.2,0,0,1,.62,2.263A3.7,3.7,0,0,1,9.7-5.462,5.561,5.561,0,0,1,6.021-4.342Zm0-2.382H6.073A1.906,1.906,0,0,0,7.44-7.172a1.665,1.665,0,0,0,.47-1.266A2.059,2.059,0,0,0,7.427-9.87a1.712,1.712,0,0,0-1.318-.545H4.052ZM27.519-4.333a4.673,4.673,0,0,1-.721,2.36,4.35,4.35,0,0,1-1.85,1.586,6.3,6.3,0,0,1-2.72.563,5.025,5.025,0,0,1-3.973-1.644A6.786,6.786,0,0,1,16.8-6.108v-.633a7.746,7.746,0,0,1,.655-3.292,4.961,4.961,0,0,1,1.885-2.18,5.26,5.26,0,0,1,2.848-.769,5.516,5.516,0,0,1,3.744,1.226,4.844,4.844,0,0,1,1.608,3.379H24.469a2.292,2.292,0,0,0-.589-1.679,2.422,2.422,0,0,0-1.687-.51A1.843,1.843,0,0,0,20.5-9.7a5.536,5.536,0,0,0-.562,2.751v.905a6.126,6.126,0,0,0,.514,2.927,1.882,1.882,0,0,0,1.771.879,2.369,2.369,0,0,0,1.626-.5,2.126,2.126,0,0,0,.6-1.591ZM31.737-8.49a2.964,2.964,0,0,1,2.426-1.2,2.956,2.956,0,0,1,2.373.932A4.186,4.186,0,0,1,37.354-6V0H34.383V-5.933a1.674,1.674,0,0,0-.308-1.112A1.322,1.322,0,0,0,33.029-7.4a1.424,1.424,0,0,0-1.292.58V0H28.775V-13.5h2.962ZM44.358,0a3.344,3.344,0,0,1-.281-.853A2.754,2.754,0,0,1,41.792.176a3.374,3.374,0,0,1-2.285-.813,2.588,2.588,0,0,1-.94-2.043,2.66,2.66,0,0,1,1.143-2.338,5.821,5.821,0,0,1,3.322-.791h.914v-.5q0-1.316-1.134-1.316a.927.927,0,0,0-1.055,1.042H38.795a2.655,2.655,0,0,1,1.173-2.239,4.931,4.931,0,0,1,2.993-.86,4.323,4.323,0,0,1,2.874.888,3.086,3.086,0,0,1,1.081,2.435v4.21a4.311,4.311,0,0,0,.4,2V0ZM42.5-1.934a1.652,1.652,0,0,0,.918-.237,1.487,1.487,0,0,0,.523-.536V-4.228h-.861q-1.547,0-1.547,1.389a.848.848,0,0,0,.272.655A.986.986,0,0,0,42.5-1.934ZM51.275-9.51l.1,1.116a3.225,3.225,0,0,1,2.716-1.292,2.713,2.713,0,0,1,2.219.888,4.226,4.226,0,0,1,.76,2.672V0H54.1V-6a1.6,1.6,0,0,0-.29-1.059A1.342,1.342,0,0,0,52.752-7.4a1.413,1.413,0,0,0-1.292.686V0H48.5V-9.51Zm10.151,0,.1,1.116a3.225,3.225,0,0,1,2.716-1.292,2.713,2.713,0,0,1,2.219.888,4.226,4.226,0,0,1,.76,2.672V0H64.248V-6a1.6,1.6,0,0,0-.29-1.059A1.342,1.342,0,0,0,62.9-7.4a1.413,1.413,0,0,0-1.292.686V0H58.649V-9.51ZM73.459.176a4.889,4.889,0,0,1-3.542-1.305,4.507,4.507,0,0,1-1.354-3.4v-.246A5.84,5.84,0,0,1,69.1-7.348a3.955,3.955,0,0,1,1.578-1.727,4.763,4.763,0,0,1,2.461-.611,4.117,4.117,0,0,1,3.164,1.244,4.887,4.887,0,0,1,1.16,3.467v1.151H71.578a2.135,2.135,0,0,0,.694,1.257,2.066,2.066,0,0,0,1.389.457,2.662,2.662,0,0,0,2.2-.984l1.354,1.6A3.784,3.784,0,0,1,75.643-.277,5.3,5.3,0,0,1,73.459.176ZM73.125-7.4q-1.3,0-1.547,1.723h2.988v-.229a1.467,1.467,0,0,0-.36-1.1A1.434,1.434,0,0,0,73.125-7.4ZM81.782,0H78.812V-13.5h2.971ZM6.064,2.2H9.141v8.78a4.2,4.2,0,0,1-.567,2.18,3.87,3.87,0,0,1-1.582,1.485,4.835,4.835,0,0,1-2.263.527,4.661,4.661,0,0,1-3.252-1.055,3.833,3.833,0,0,1-1.16-2.988H3.41a2.113,2.113,0,0,0,.3,1.274,1.2,1.2,0,0,0,1.015.4,1.148,1.148,0,0,0,.989-.479,2.251,2.251,0,0,0,.347-1.34ZM19.143,9.9H14.168V15H11.083V2.2h8.561V4.585H14.168V7.529h4.975Zm9.721-.334H24.012v3.059h5.73V15H20.927V2.2H29.76V4.585H24.012v2.7h4.852ZM41.221,4.585H37.38V15H34.295V4.585H30.524V2.2h10.7Z" transform="translate(178.413 181.241)" fill="#12263f"/>
  </g>
</svg>
