<svg xmlns="http://www.w3.org/2000/svg" xmlns:xlink="http://www.w3.org/1999/xlink" width="61.557" height="61.557" viewBox="0 0 61.557 61.557">
  <defs>
    <clipPath id="clip-path">
      <rect id="Rectángulo_408557" data-name="Rectángulo 408557" width="39" height="39" transform="translate(-0.236)" fill="#fff" stroke="#707070" stroke-width="1"/>
    </clipPath>
  </defs>
  <g id="Grupo_1117924" data-name="Grupo 1117924" transform="translate(-758.236 -3552.558)">
    <g id="Grupo_1105677" data-name="Grupo 1105677" transform="translate(758.236 3552.558)">
      <rect id="Rectángulo_400898" data-name="Rectángulo 400898" width="61.557" height="61.557" rx="30.778" fill="#ffd9ef"/>
      <rect id="Rectángulo_400907" data-name="Rectángulo 400907" width="61.557" height="61.557" rx="30.778" transform="translate(0)" fill="none"/>
    </g>
    <g id="Enmascarar_grupo_1098733" data-name="Enmascarar grupo 1098733" transform="translate(769.287 3564)" clip-path="url(#clip-path)">
      <g id="corriente-electrica2" transform="translate(0 0.349)">
        <path id="Trazado_901571" data-name="Trazado 901571" d="M28.759,37.713H10.284a1.507,1.507,0,0,1-1.507-1.507V29.988a1.507,1.507,0,0,1,1.507-1.507H28.759a1.507,1.507,0,0,1,1.507,1.507v6.218A1.507,1.507,0,0,1,28.759,37.713Zm0,0" transform="translate(0 -0.038)" fill="#ff3b63"/>
        <path id="Trazado_901572" data-name="Trazado 901572" d="M30.266,36.206V29.988a1.507,1.507,0,0,0-1.507-1.507H19.521v9.233h9.237a1.507,1.507,0,0,0,1.507-1.507Zm0,0" transform="translate(0 -0.038)" fill="#2ad18d"/>
        <path id="Trazado_901573" data-name="Trazado 901573" d="M28.759,28.48H25.531a1.507,1.507,0,0,1,1.507,1.507v6.218a1.507,1.507,0,0,1-1.507,1.507h3.227a1.507,1.507,0,0,0,1.507-1.507V29.988A1.507,1.507,0,0,0,28.759,28.48Zm0,0" transform="translate(0 -0.038)" fill="#28b284"/>
        <path id="Trazado_901574" data-name="Trazado 901574" d="M21.206,7.63H17.837a5.9,5.9,0,0,1-1.505,3.929,4.277,4.277,0,1,0,6.391.014A5.952,5.952,0,0,1,21.206,7.63Zm0,0" transform="translate(0 -0.038)" fill="#ffec97"/>
        <path id="Trazado_901575" data-name="Trazado 901575" d="M20.411,4.968H18.629a.792.792,0,0,0-.792.792V7.63H21.2V5.76a.792.792,0,0,0-.792-.792Zm0,0" transform="translate(0 -0.038)" fill="#61657c"/>
        <path id="Trazado_901576" data-name="Trazado 901576" d="M20.411,4.968H18.987a.792.792,0,0,1,.792.792V7.63H21.2V5.76a.792.792,0,0,0-.792-.792Zm0,0" transform="translate(0 -0.038)" fill="#4b4f66"/>
        <path id="Trazado_901577" data-name="Trazado 901577" d="M22.723,11.573A5.952,5.952,0,0,1,21.206,7.63h-1.5a5.951,5.951,0,0,0,1.518,3.943,4.276,4.276,0,0,1-2.453,7.045,4.183,4.183,0,0,0,.543.062,4.277,4.277,0,0,0,3.408-7.107Zm0,0" transform="translate(0 -0.038)" fill="#ffce61"/>
        <path id="Trazado_901578" data-name="Trazado 901578" d="M27.656,32.468H26.518V31.33a.628.628,0,0,0-1.257,0v1.138H24.123a.628.628,0,1,0,0,1.257h1.138v1.138a.628.628,0,1,0,1.257,0V33.725h1.138a.628.628,0,1,0,0-1.257Zm0,0" transform="translate(0 -0.038)"/>
        <path id="Trazado_901579" data-name="Trazado 901579" d="M11,32.468a.628.628,0,1,0,0,1.257h3.534a.628.628,0,0,0,0-1.257Zm0,0" transform="translate(0 -0.038)"/>
        <path id="Trazado_901580" data-name="Trazado 901580" d="M19.521,20.1H19.5a.628.628,0,0,0-.628.628v2.234a.628.628,0,0,0,.628.628h.021a.628.628,0,0,0,.628-.628V20.724A.628.628,0,0,0,19.521,20.1Zm0,0" transform="translate(0 -0.038)"/>
        <path id="Trazado_901581" data-name="Trazado 901581" d="M23.85,19.115a.628.628,0,0,0-.889.889l1.58,1.58a.628.628,0,0,0,.889-.889Zm0,0" transform="translate(0 -0.038)"/>
        <path id="Trazado_901582" data-name="Trazado 901582" d="M27.95,15.361H25.715a.628.628,0,1,0,0,1.257H27.95a.628.628,0,1,0,0-1.257Zm0,0" transform="translate(0 -0.038)"/>
        <path id="Trazado_901583" data-name="Trazado 901583" d="M15.221,19.115l-1.58,1.58a.628.628,0,0,0,.888.889L16.109,20a.628.628,0,1,0-.888-.889Zm0,0" transform="translate(0 -0.038)"/>
        <path id="Trazado_901584" data-name="Trazado 901584" d="M13.984,15.989a.628.628,0,0,0-.628-.628H11.121a.628.628,0,1,0,0,1.257h2.234A.628.628,0,0,0,13.984,15.989Zm0,0" transform="translate(0 -0.038)"/>
        <path id="Trazado_901585" data-name="Trazado 901585" d="M37.927,24.8l-.517.517V8.7l1.406-1.406a.628.628,0,0,0-.889-.889l-.517.518V2.845A2.811,2.811,0,0,0,34.6.038H24.412a3.08,3.08,0,0,0-2.63,1.46L20.013,4.34h-1L17.091,1.428A3.09,3.09,0,0,0,14.507.038H4.4A2.81,2.81,0,0,0,1.591,2.845V6.558L.184,7.965a.628.628,0,0,0,.889.889l.518-.518v16.62L.184,26.362a.628.628,0,0,0,.888.889l.519-.518v4.186A2.81,2.81,0,0,0,4.4,33.725h3.75v2.48a2.138,2.138,0,0,0,2.136,2.136H28.758a2.138,2.138,0,0,0,2.136-2.136v-2.48H34.6a2.811,2.811,0,0,0,2.808-2.807V27.1l1.406-1.406a.628.628,0,0,0-.889-.889ZM18.466,7V5.76a.163.163,0,0,1,.163-.163h1.782a.163.163,0,0,1,.163.163V7ZM28.759,37.085H20.15V29.109h8.609a.88.88,0,0,1,.879.879v3.1s0,0,0,0,0,0,0,0v3.1a.88.88,0,0,1-.879.879ZM34.6,32.468H30.894v-2.48a2.138,2.138,0,0,0-2.136-2.136H14.047a.628.628,0,1,0,0,1.257h4.846v7.976H10.284a.88.88,0,0,1-.879-.879V33.1s0,0,0,0,0,0,0-.005v-3.1a.88.88,0,0,1,.879-.879h1.277a.628.628,0,1,0,0-1.257H10.284a2.138,2.138,0,0,0-2.136,2.136v2.481H4.4a1.552,1.552,0,0,1-1.55-1.55V26.754l.517.518a.629.629,0,1,0,.889-.889L2.848,24.977V8.357l.517.518a.629.629,0,0,0,.889-.889L2.848,6.58V2.845A1.552,1.552,0,0,1,4.4,1.295H14.507a1.837,1.837,0,0,1,1.536.826l1.683,2.545a1.418,1.418,0,0,0-.516,1.095V7.63a5.261,5.261,0,0,1-1.346,3.51,4.905,4.905,0,0,0,3.423,8.168c.08,0,.159.005.238.005a4.9,4.9,0,0,0,3.669-8.157c-.092-.1-.18-.212-.264-.321a.628.628,0,0,0-1,.761c.1.134.211.267.323.394a3.648,3.648,0,1,1-5.453-.012,6.522,6.522,0,0,0,1.635-3.719h2.173a6.46,6.46,0,0,0,.158.918.628.628,0,1,0,1.22-.3,5.189,5.189,0,0,1-.152-1.244c0-.017,0-.033,0-.049V5.76A1.417,1.417,0,0,0,21.3,4.653l1.551-2.49a1.83,1.83,0,0,1,1.563-.868H34.6a1.552,1.552,0,0,1,1.551,1.55V6.9l-.518-.518a.628.628,0,1,0-.889.889l1.407,1.407V25.3l-.518-.518a.628.628,0,1,0-.889.889l1.407,1.407v3.84a1.552,1.552,0,0,1-1.551,1.55Zm0,0" transform="translate(0 -0.038)"/>
      </g>
    </g>
  </g>
</svg>
