<svg id="Grupo_1115188" data-name="Grupo 1115188" xmlns="http://www.w3.org/2000/svg" xmlns:xlink="http://www.w3.org/1999/xlink" width="179.282" height="140.326" viewBox="0 0 179.282 140.326">
  <defs>
    <clipPath id="clip-path">
      <rect id="Rectángulo_408128" data-name="Rectángulo 408128" width="179.283" height="140.326" fill="#2d496c"/>
    </clipPath>
  </defs>
  <g id="Grupo_1115187" data-name="Grupo 1115187" clip-path="url(#clip-path)">
    <path id="Trazado_901037" data-name="Trazado 901037" d="M24.74,8.858c-.281-1.791-2.22-5-2.209-6.772C22.54.609,23.529.133,24.843,0L155.3.164c1.356.343,1.611,1.344,1.371,2.631-.272,1.454-2.3,5.413-2.3,6.462V22.6l.3.3H170.6c3.825,0,8.729,5.6,8.659,9.462l.013,72.289c.279,4.271-4.847,10.047-9.07,10.047H150.488l-.3.3v23.9c0,.891-1.789,1.251-2.481,1.3-5.206.385-10.881-.3-16.138-.008-.6.044-2.09-.685-2.09-1.295V114.694H100.01v24.194c0,.891-1.789,1.251-2.481,1.3-5.206.385-10.881-.3-16.138-.008-.6.044-2.09-.685-2.09-1.295V114.694H49.83v23.995c0,.618-1.61,1.642-2.293,1.49-5.22-.327-10.978.445-16.133.01-.906-.076-2.482-.572-2.482-1.7v-23.8H9.109c-3.582,0-8.189-4.442-8.769-7.958C-.335,82,.236,57.14.052,32.358-.063,28.651,4.843,22.9,8.511,22.9H24.74ZM152.181,3.98H27.13c.4.88.46,2.872,1.482,3l122.6-.129Zm-1.593,6.77H28.723V22.9H150.588ZM9.359,26.732a6.828,6.828,0,0,0-5.535,6.413l.009,71.492a6.94,6.94,0,0,0,6.66,6.283l158.521,0a7,7,0,0,0,6.472-6.472v-71.3a6.76,6.76,0,0,0-6.271-6.473Zm36.687,87.962H33c-.458.328-.392,2.941-.212,3.2l12.568.2.687-.309Zm50.18,0H83.084v3.385H96.227Zm50.18,0H133.264v3.385h13.142Zm-100.36,7.169H32.705V136.2H46.047Zm50.18,0H83.084V136.2H96.227Zm50.18,0H133.264V136.2h13.142Z" transform="translate(0)" fill="#2d496c"/>
    <path id="Trazado_901038" data-name="Trazado 901038" d="M122.313,316.031l124.208-.048c4,.629,4.259,4.52,3.883,7.867a4.527,4.527,0,0,1-4.075,3.89l-123.666-.007c-5.277-.57-5.264-10.865-.35-11.7m.45,7.718c.2-.065.432.2.5.2H246.122c.736,0,.736-4.182,0-4.182H123.261c-.066,0-.3.264-.5.2Z" transform="translate(-95.036 -253.062)" fill="#2d496c"/>
    <path id="Trazado_901039" data-name="Trazado 901039" d="M249.029,424.22c1.628,1.628,1.708,6.158.776,8.1a4.565,4.565,0,0,1-3.189,2.387l-123.869,0c-5.609-.5-5.636-11.19.007-11.758l123.467-.007a4.8,4.8,0,0,1,2.808,1.274m-126.374,3.015v3.385l.3.3h123.06c.676,0,.713-3.612.218-4l-123.176-.077a1.563,1.563,0,0,0-.4.4" transform="translate(-94.928 -338.726)" fill="#2d496c"/>
    <path id="Trazado_901040" data-name="Trazado 901040" d="M274.737,208.126l63.249-.029a4.655,4.655,0,0,1,4.1,3.86c.415,3.7.1,7.5-4.284,8.063l-62.9-.019a4.526,4.526,0,0,1-4.111-4.053c-.308-3.438-.155-7.153,3.942-7.822m.59,3.776c-1.044.04-.877,2.9-.742,3.64.1.556.6.644,1.092.7l61.344.006a1.733,1.733,0,0,0,1.091-.3c.274-.278.486-3.7-.251-3.94Z" transform="translate(-216.791 -166.659)" fill="#2d496c"/>
  </g>
</svg>
