<svg xmlns="http://www.w3.org/2000/svg" xmlns:xlink="http://www.w3.org/1999/xlink" width="85" height="85" viewBox="0 0 85 85">
  <defs>
    <clipPath id="clip-path">
      <rect id="Rectángulo_408562" data-name="Rectángulo 408562" width="57" height="57" transform="translate(299.051 4038)" fill="#fff" stroke="#707070" stroke-width="1"/>
    </clipPath>
  </defs>
  <g id="Grupo_1117893" data-name="Grupo 1117893" transform="translate(-285.051 -4024)">
    <g id="Grupo_1105677" data-name="Grupo 1105677" transform="translate(285.051 4024)">
      <rect id="Rectángulo_400898" data-name="Rectángulo 400898" width="85" height="85" rx="42.5" transform="translate(0)" fill="#ffd9ef"/>
      <rect id="Rectángulo_400907" data-name="Rectángulo 400907" width="85" height="85" rx="42.5" transform="translate(0)" fill="none"/>
    </g>
    <g id="Enmascarar_grupo_1098734" data-name="Enmascarar grupo 1098734" clip-path="url(#clip-path)">
      <g id="circuito-electronico_1_" data-name="circuito-electronico (1)" transform="translate(299.051 4040.536)">
        <path id="Trazado_901586" data-name="Trazado 901586" d="M49.441,44.464a6.611,6.611,0,1,1-6.611-6.611A6.611,6.611,0,0,1,49.441,44.464Zm0,0" fill="#2ad18d"/>
        <path id="Trazado_901587" data-name="Trazado 901587" d="M42.83,37.854a6.6,6.6,0,0,0-2.106.344,6.61,6.61,0,0,1,0,12.532A6.611,6.611,0,1,0,42.83,37.854Zm0,0" fill="#28b284"/>
        <path id="Trazado_901588" data-name="Trazado 901588" d="M21.162,44.464a6.611,6.611,0,1,1-6.611-6.611A6.611,6.611,0,0,1,21.162,44.464Zm0,0" fill="#ff3b63"/>
        <path id="Trazado_901589" data-name="Trazado 901589" d="M14.551,37.854a6.6,6.6,0,0,0-2.106.344,6.61,6.61,0,0,1,0,12.532,6.611,6.611,0,1,0,2.106-12.877Zm0,0" fill="#bc2e50"/>
        <path id="Trazado_901590" data-name="Trazado 901590" d="M21.481,18a1.707,1.707,0,1,1-1.707-1.706A1.707,1.707,0,0,1,21.481,18Zm0,0" fill="#00a5ff"/>
        <path id="Trazado_901591" data-name="Trazado 901591" d="M10.524,18a1.707,1.707,0,1,1-1.706-1.706A1.707,1.707,0,0,1,10.524,18Zm0,0" fill="#00a5ff"/>
        <path id="Trazado_901592" data-name="Trazado 901592" d="M49.234,1.736H38.416l-.044,0-.027,0c-.02,0-.041,0-.061.007l-.02,0-.064.014-.015,0a.619.619,0,0,0-.063.02l-.016.006c-.019.007-.038.016-.057.025l-.02.01-.049.027-.025.015-.04.028-.029.021-.034.029-.029.027-.03.032-.026.028c-.011.013-.021.026-.031.039l-.02.026q-.017.025-.033.051l-.01.016-.007.012,0,0-.732,1.29L35.451.864a1.707,1.707,0,0,0-2.968,0L31,3.474,29.521.864a1.706,1.706,0,0,0-2.968,0l-1.481,2.61L23.59.864a1.706,1.706,0,0,0-2.968,0L19.1,3.539l-.881-1.4-.007-.01c-.009-.013-.018-.026-.027-.039l-.023-.031-.027-.032-.029-.032-.028-.026-.033-.03-.033-.025c-.01-.008-.021-.017-.032-.024s-.029-.019-.043-.027l-.024-.015c-.019-.01-.038-.02-.058-.029l-.014-.007c-.022-.01-.044-.018-.067-.026l-.009,0c-.023-.007-.045-.013-.069-.019l-.011,0-.064-.012-.019,0-.057,0-.028,0H7.766A7.775,7.775,0,0,0,0,9.5v27.64a8.176,8.176,0,0,0,7.13,8.109c.023.224.056.446.1.665A.854.854,0,0,0,8.9,45.586a5.758,5.758,0,1,1,11.406-1.122h0a5.758,5.758,0,0,1-10.12,3.756A.853.853,0,0,0,8.9,49.335a7.463,7.463,0,0,0,13.07-4.018h3.3V47.2a.853.853,0,0,0,1.707,0V41.734a.853.853,0,1,0-1.707,0v1.877h-3.3a7.462,7.462,0,0,0-14.817-.083,6.467,6.467,0,0,1-5.441-6.386V18.883H6.415a2.56,2.56,0,1,0,4.744-1.918l5.592-3.219a.853.853,0,1,0-.851-1.479L9.938,15.7a2.559,2.559,0,0,0-3.544,1.478H1.707V9.5A6.066,6.066,0,0,1,7.766,3.443h9.263l.63,1a1.691,1.691,0,0,0,1.444.8h.039a1.692,1.692,0,0,0,1.446-.864l1.518-2.675,1.482,2.61a1.707,1.707,0,0,0,2.968,0l1.481-2.61,1.481,2.61a1.706,1.706,0,0,0,2.968,0l1.481-2.61,1.482,2.611a1.706,1.706,0,0,0,2.968,0l.5-.874H49.234A6.066,6.066,0,0,1,55.294,9.5v7.674H51.444l-.05,0-.043.005-.038.006-.048.011-.031.008-.049.016-.03.011-.044.02-.032.015-.038.021-.036.022-.03.021-.037.028-.026.022-.036.033-.024.025c-.01.011-.021.023-.031.035l-.026.033-.024.032-.029.046-.012.02-.008.014h0l-.732,1.29L48.506,16.3a1.706,1.706,0,0,0-2.968,0l-1.481,2.61L42.575,16.3a1.706,1.706,0,0,0-2.968,0l-1.481,2.61L36.645,16.3a1.706,1.706,0,0,0-2.968,0l-1.517,2.674-.881-1.4a.853.853,0,0,0-.875-.386.852.852,0,0,0-.15-.014H22.2a2.559,2.559,0,1,0-.02,1.706h7.907l.63,1a1.69,1.69,0,0,0,1.444.8H32.2a1.692,1.692,0,0,0,1.446-.864l1.518-2.674,1.482,2.61a1.706,1.706,0,0,0,2.968,0l1.481-2.61,1.481,2.61a1.706,1.706,0,0,0,2.968,0l1.481-2.61,1.482,2.61a1.707,1.707,0,0,0,2.968,0l.5-.873h3.325V37.141a6.469,6.469,0,0,1-5.069,6.315,7.463,7.463,0,0,0-14.808.153H30.883V38.724a.853.853,0,0,0-1.707,0V50.2a.853.853,0,1,0,1.707,0V45.317h4.533a7.463,7.463,0,0,0,14.842-.127A8.176,8.176,0,0,0,57,37.141V9.5a7.774,7.774,0,0,0-7.766-7.765ZM8.818,17.146A.853.853,0,1,1,7.964,18,.854.854,0,0,1,8.818,17.146Zm10.956,1.706A.853.853,0,1,1,20.628,18,.854.854,0,0,1,19.774,18.853ZM42.83,50.222a5.764,5.764,0,0,1-5.757-5.757h0a5.757,5.757,0,1,1,5.757,5.758Zm0,0"/>
        <path id="Trazado_901593" data-name="Trazado 901593" d="M45.832,43.861a.849.849,0,0,0-.6-.25H43.683V42.065a.853.853,0,0,0-1.706,0v1.546H40.43a.853.853,0,0,0,0,1.707h1.546v1.546a.853.853,0,0,0,1.706,0V45.318h1.546a.853.853,0,0,0,.6-1.457Zm0,0"/>
        <path id="Trazado_901594" data-name="Trazado 901594" d="M16.951,45.318a.854.854,0,0,0,0-1.707h-4.8a.854.854,0,1,0,0,1.707Zm0,0"/>
      </g>
    </g>
  </g>
</svg>
