<svg xmlns="http://www.w3.org/2000/svg" xmlns:xlink="http://www.w3.org/1999/xlink" width="400" height="400" viewBox="0 0 400 400">
  <defs>
    <clipPath id="clip-path">
      <rect id="Rectángulo_408133" data-name="Rectángulo 408133" width="400" height="400" fill="none"/>
    </clipPath>
    <clipPath id="clip-path-2">
      <rect id="Rectángulo_408132" data-name="Rectángulo 408132" width="120.106" height="10.378" fill="none"/>
    </clipPath>
    <clipPath id="clip-path-3">
      <path id="Trazado_901054" data-name="Trazado 901054" d="M1540.89,847.955l11.9,4,13.65,1.95-2.1-99.3-12.75-.75-12.7-2.3Z" transform="translate(-1538.89 -751.555)" fill="none"/>
    </clipPath>
    <linearGradient id="linear-gradient" x1="-5.586" y1="3.174" x2="-5.582" y2="3.174" gradientUnits="objectBoundingBox">
      <stop offset="0" stop-color="#2d2d2d"/>
      <stop offset="0.483" stop-color="#414141"/>
      <stop offset="0.945" stop-color="#2f2f2f"/>
      <stop offset="1" stop-color="#2d2d2d"/>
    </linearGradient>
    <clipPath id="clip-path-4">
      <path id="Trazado_901055" data-name="Trazado 901055" d="M2356.79,731.956l-12.6,1.1-.3,98,10.8-4.2,8.2-5.7,1.7-92.6Z" transform="translate(-2343.89 -728.556)" fill="none"/>
    </clipPath>
    <linearGradient id="linear-gradient-2" x1="-11.323" y1="3.192" x2="-11.318" y2="3.192" gradientUnits="objectBoundingBox">
      <stop offset="0" stop-color="#2d2d2d"/>
      <stop offset="0.483" stop-color="#414141"/>
      <stop offset="1" stop-color="#414141"/>
    </linearGradient>
  </defs>
  <g id="Grupo_1115203" data-name="Grupo 1115203" transform="translate(-0.051)">
    <g id="Grupo_1115235" data-name="Grupo 1115235" transform="translate(0.051)">
      <rect id="Rectángulo_408131" data-name="Rectángulo 408131" width="400" height="400" fill="#5c95da"/>
      <g id="Grupo_1115195" data-name="Grupo 1115195">
        <g id="Grupo_1115194" data-name="Grupo 1115194" clip-path="url(#clip-path)">
          <g id="Grupo_1115193" data-name="Grupo 1115193" transform="translate(139.896 323.317)" opacity="0.14">
            <g id="Grupo_1115192" data-name="Grupo 1115192">
              <g id="Grupo_1115191" data-name="Grupo 1115191" clip-path="url(#clip-path-2)">
                <path id="Trazado_901041" data-name="Trazado 901041" d="M1519.578,3238.356c0-2.865-26.886-5.189-60.053-5.189s-60.053,2.323-60.053,5.189,26.886,5.189,60.053,5.189,60.053-2.323,60.053-5.189" transform="translate(-1399.473 -3233.167)"/>
              </g>
            </g>
          </g>
          <path id="Trazado_901042" data-name="Trazado 901042" d="M1539.907,815.809a.464.464,0,0,1-.2.5,44.964,44.964,0,0,1-17.2,9.415q-1.423.436-3,.839-2.058.525-4.4.983-1.442.279-3,.529a136.268,136.268,0,0,1-19.2,1.533q-1.324.021-2.7.025-2.277.007-4.7-.039-1.328-.026-2.7-.066-2.058-.063-4.22-.163c-3.969-.185-7.53-.424-10.78-.736q-1.281-.123-2.5-.262c-1.715-.195-3.342-.414-4.9-.66q-1.279-.2-2.5-.431a70.07,70.07,0,0,1-18.2-5.967c-4.293-2.056-7.233-5.281-7.56-7.6h-.04l-2.809-90.483c.165.44.643.788,1.509.983,11.671,2.63,29.3,5,47.78,5.656,29.224,1.044,54.757-1.709,62.82-6.156a.486.486,0,0,0,.241-.246l-1.741,92.346Z" transform="translate(-1286.421 -650.903)" fill="#2d2d2d"/>
          <path id="Trazado_901043" data-name="Trazado 901043" d="M1541.446,669.109h0l0,.2a.488.488,0,0,1-.241.246c-8.063,4.447-33.6,7.2-62.82,6.156-18.479-.661-36.109-3.026-47.78-5.656-.866-.2-1.344-.543-1.509-.983l-.023-.731a4.726,4.726,0,0,1,1.708-2.186,14.96,14.96,0,0,1,7.824-3.1l93.484,3.1,3.016.1c1.521.054,6.062,1.813,6.344,2.853" transform="translate(-1286.214 -596.75)" fill="#686868"/>
          <path id="Trazado_901044" data-name="Trazado 901044" d="M1541.506,709.394h0l0,.2a.489.489,0,0,1-.241.246c-8.063,4.447-33.6,7.2-62.82,6.156-18.479-.661-36.109-3.026-47.78-5.656-.866-.2-1.344-.543-1.509-.983l-.023-.731a2.748,2.748,0,0,1,.464-.921,2.9,2.9,0,0,0,1.068.435c11.671,2.63,29.3,4.995,47.78,5.656,27.939,1,52.505-1.474,61.656-5.58.758.413,1.315.834,1.408,1.177" transform="translate(-1286.268 -636.935)" fill="#93918a"/>
          <path id="Trazado_901045" data-name="Trazado 901045" d="M1515.254,2779.505l-7.364.05-2.5-3.5h7.4Z" transform="translate(-1354.902 -2498.45)" fill="#93918a"/>
          <path id="Trazado_901046" data-name="Trazado 901046" d="M1533.79,1777.059h-.249l.216.216-20.967,20.966v66.718h-7.4v-69.6h.2l-.191-.191,20.991-20.992v-10.45q1.221.228,2.5.431c1.558.246,3.185.465,4.9.66Z" transform="translate(-1354.902 -1587.353)" fill="#acaba4"/>
          <path id="Trazado_901047" data-name="Trazado 901047" d="M1602.89,1789.267h-.249l.216.219-20.967,21.219v67.523h-.036l-2.464-3.45V1808.06l20.967-20.966-.216-.216h.249v-12.242q1.219.139,2.5.262Z" transform="translate(-1421.502 -1597.172)" fill="#93918a"/>
          <path id="Trazado_901048" data-name="Trazado 901048" d="M2285.79,1797.443v76h-7.4v-72.49l-20.967-25.53.216-.263h-.249v-17.051q1.559-.249,3-.529,2.346-.456,4.4-.983v15.053l.177.216,20.814,25.345-.191.233Z" transform="translate(-2031.701 -1580.936)" fill="#acaba4"/>
          <path id="Trazado_901049" data-name="Trazado 901049" d="M2355.39,1790.326v78.765l-3-3.2v-76h-.2l.191-.233-20.814-25.345-.177-.216v-15.053q1.579-.4,3-.839v15.37l20.838,26.315.153.193-.191.242Z" transform="translate(-2098.302 -1573.385)" fill="#93918a"/>
          <path id="Trazado_901050" data-name="Trazado 901050" d="M1971.79,1786.351v106.176h-7.4V1786.246q1.373.04,2.7.066,2.424.046,4.7.039" transform="translate(-1768.002 -1607.621)" fill="#acaba4"/>
          <path id="Trazado_901051" data-name="Trazado 901051" d="M1974.49,2852.156h-7.4l-2.7-3.1h7.4Z" transform="translate(-1768.002 -2564.15)" fill="#93918a"/>
          <path id="Trazado_901052" data-name="Trazado 901052" d="M2041.09,1787.045v109.3l-2.7-3.1V1787.07q1.375,0,2.7-.025" transform="translate(-1834.602 -1608.34)" fill="#93918a"/>
          <path id="Trazado_901053" data-name="Trazado 901053" d="M2477.79,2928.255v.05h-7.4v-.05l-3-3.2h7.4Z" transform="translate(-2220.701 -2632.55)" fill="#93918a"/>
        </g>
      </g>
      <g id="Grupo_1115197" data-name="Grupo 1115197" transform="translate(153.838 75.156)">
        <g id="Grupo_1115196" data-name="Grupo 1115196" clip-path="url(#clip-path-3)">
          <rect id="Rectángulo_408134" data-name="Rectángulo 408134" width="27.55" height="102.35" transform="translate(0 0)" fill="url(#linear-gradient)"/>
        </g>
      </g>
      <g id="Grupo_1115199" data-name="Grupo 1115199" transform="translate(234.338 72.856)">
        <g id="Grupo_1115198" data-name="Grupo 1115198" clip-path="url(#clip-path-4)">
          <rect id="Rectángulo_408135" data-name="Rectángulo 408135" width="20.7" height="102.5" fill="url(#linear-gradient-2)"/>
        </g>
      </g>
      <g id="Grupo_1115201" data-name="Grupo 1115201">
        <g id="Grupo_1115200" data-name="Grupo 1115200" clip-path="url(#clip-path)">
          <path id="Trazado_901056" data-name="Trazado 901056" d="M1422.683,710.511q.012.366.023.731l1.179-.16c-.016-.045-.026-.091-.041-.136q-.019-.1,0,.018c0-.024,0-.049,0-.073,0-.05,0-.1,0-.149s0-.034,0,.032q.01-.052.023-.1a.6.6,0,1,0-1.157-.319,1.854,1.854,0,0,0,.023,1.05.606.606,0,0,0,.658.43.6.6,0,0,0,.52-.589q-.011-.366-.023-.731a.6.6,0,1,0-1.2,0" transform="translate(-1280.427 -638.919)"/>
          <path id="Trazado_901057" data-name="Trazado 901057" d="M2548,718.392l0-.2-1.179.16a.5.5,0,0,1,.012.059q-.011-.08-.022-.159a.388.388,0,0,1,0,.086q.011-.08.021-.159a.426.426,0,0,1-.014.055.459.459,0,0,0-.011.239.618.618,0,0,0,.43.5.607.607,0,0,0,.462-.06.651.651,0,0,0,.276-.359.938.938,0,0,0,0-.519.449.449,0,0,0-.107-.2.454.454,0,0,0-.168-.155l-.144-.06a.454.454,0,0,0-.239-.011.3.3,0,0,0-.152.041.451.451,0,0,0-.193.124.63.63,0,0,0-.176.424c0,.067,0,.133,0,.2a.616.616,0,0,0,.176.424.667.667,0,0,0,.424.176.606.606,0,0,0,.424-.176.633.633,0,0,0,.176-.424" transform="translate(-2292.167 -645.832)"/>
          <path id="Trazado_901058" data-name="Trazado 901058" d="M1533.9,810.4c.023.208-.908.794-1.074.928-.413.334-.828.666-1.247.992-.934.724-1.894,1.414-2.883,2.06a43.445,43.445,0,0,1-8.907,4.4,85.165,85.165,0,0,1-22.852,4.4,201.315,201.315,0,0,1-25.492.087c-8.247-.432-16.565-1.137-24.564-3.289a69.788,69.788,0,0,1-10.946-3.976c-3.077-1.411-6.4-3.262-8.083-6.35a4.654,4.654,0,0,1-.531-1.514.6.6,0,0,0-.579-.441h-.04l.6.6q-.038-1.208-.075-2.418l-.2-6.58q-.151-4.866-.3-9.732l-.369-11.875-.4-13.009q-.2-6.567-.408-13.133-.19-6.124-.38-12.248l-.321-10.353q-.116-3.724-.231-7.448c-.036-1.161.031-2.38-.11-3.534-.006-.05,0-.1,0-.154l-1.118.3a2.608,2.608,0,0,0,1.938,1.275c.794.185,1.593.351,2.392.517q2.558.531,5.132.988c3.906.7,7.831,1.285,11.764,1.8q13.563,1.766,27.252,2.309c9.169.369,18.36.38,27.528-.033a198.583,198.583,0,0,0,22.095-2.075c2.769-.438,5.531-.96,8.244-1.669a32.241,32.241,0,0,0,5.871-2.042,2.4,2.4,0,0,0,1.17-.829l-1.118-.3q-.023,1.235-.047,2.47-.063,3.361-.127,6.721-.094,4.97-.187,9.941l-.229,12.129q-.125,6.643-.25,13.285-.127,6.7-.253,13.409-.117,6.227-.235,12.453-.1,5.286-.2,10.572-.072,3.8-.143,7.6c-.022,1.184-.152,2.423-.068,3.606,0,.051,0,.1,0,.156l.6-.6h0a.6.6,0,0,0,0,1.2h0a.61.61,0,0,0,.6-.6q.023-1.235.047-2.47.063-3.36.127-6.721.094-4.971.187-9.941.114-6.064.229-12.129.125-6.642.25-13.285.127-6.7.253-13.409.118-6.227.235-12.453.1-5.286.2-10.572.072-3.8.143-7.6c.023-1.2.077-2.4.068-3.606,0-.052,0-.1,0-.156a.6.6,0,0,0-1.118-.3c-.124.227-.787.423-1.019.53-.381.176-.768.336-1.16.487-.964.371-1.948.688-2.94.973a72.709,72.709,0,0,1-7.569,1.687,178.352,178.352,0,0,1-20.975,2.212c-8.768.481-17.56.548-26.337.3q-13.638-.388-27.207-1.959c-7.412-.863-14.814-1.972-22.106-3.569-.659-.144-1.693-.193-2-.9-.244-.558-1.136-.26-1.118.3q.038,1.209.075,2.418l.2,6.58q.151,4.866.3,9.732.184,5.938.369,11.875.2,6.5.4,13.009.2,6.567.408,13.133.19,6.124.38,12.247.161,5.176.321,10.353.116,3.724.231,7.448c.037,1.177.051,2.358.11,3.534,0,.051,0,.1,0,.154a.612.612,0,0,0,.6.6h.04l-.579-.44a7.428,7.428,0,0,0,1.833,3.484,16.962,16.962,0,0,0,4.055,3.407,39.436,39.436,0,0,0,5.479,2.66c1.849.782,3.727,1.495,5.636,2.117,8.024,2.617,16.469,3.589,24.856,4.14a214.484,214.484,0,0,0,26.593.268,94.475,94.475,0,0,0,23.564-3.933,47.285,47.285,0,0,0,9.974-4.466,53.467,53.467,0,0,0,5.931-4.295c.47-.382,1.092-.751,1.015-1.444-.084-.759-1.285-.768-1.2,0" transform="translate(-1281.019 -645.498)"/>
          <path id="Trazado_901059" data-name="Trazado 901059" d="M1535.353,663.721c0,.034-.019.126,0,.149-.118-.165.193-.215-.068-.153a2.357,2.357,0,0,0-.421.217q-.456.227-.925.426c-.664.283-1.345.528-2.03.756a52.861,52.861,0,0,1-5.374,1.438,127.424,127.424,0,0,1-14.8,2.2c-6.279.617-12.584.95-18.891,1.1q-10.859.258-21.721-.2-10.77-.449-21.492-1.648c-6.188-.691-12.359-1.564-18.48-2.711q-1.972-.37-3.936-.783c-.6-.127-1.2-.255-1.8-.392a2.883,2.883,0,0,1-.955-.333c-.085-.056-.154-.164-.237-.21-.1-.056-.009-.294-.017.086,0-.046-.007-.092,0-.138a3.978,3.978,0,0,1-.017-.552,2.71,2.71,0,0,1,.4-.657,7.276,7.276,0,0,1,1.661-1.519,14.74,14.74,0,0,1,4.284-2.044,11.542,11.542,0,0,1,3.9-.443l4.462.148,7,.232,8.97.3,10.394.345,11.122.369,11.359.377,10.889.361,9.882.328,8.317.276,6.075.2,3.286.109a20.575,20.575,0,0,1,4.463.3,16.746,16.746,0,0,1,2.9,1.054,10.025,10.025,0,0,1,1.293.706,2.81,2.81,0,0,1,.382.294c.09.084.166.211.152.168.24.73,1.4.417,1.157-.319-.256-.778-1.137-1.248-1.814-1.605a18.358,18.358,0,0,0-3.118-1.273,17.255,17.255,0,0,0-4.67-.5l-1.861-.062-4.779-.159-7.409-.246-9.352-.31-10.75-.356-11.469-.38-11.549-.383-10.94-.363-9.8-.325-7.97-.264-5.48-.182c-.8-.027-1.607-.086-2.407-.08a13.813,13.813,0,0,0-6.188,1.864,10.023,10.023,0,0,0-3.49,2.848,2.155,2.155,0,0,0-.067,2.706c.867.886,2.465.971,3.62,1.214q2.01.422,4.03.8,4.45.828,8.932,1.473,10.336,1.507,20.763,2.277,11.275.85,22.591.893c6.89.037,13.785-.129,20.661-.566,5.718-.364,11.434-.905,17.095-1.8a64.292,64.292,0,0,0,11.958-2.8c.672-.244,1.337-.512,1.985-.812s1.5-.6,1.5-1.448a.6.6,0,0,0-1.2,0" transform="translate(-1280.721 -591.362)"/>
          <path id="Trazado_901060" data-name="Trazado 901060" d="M1509.75,2773.254l-7.364.05.518.3-2.5-3.5-.518.9h7.4l-.518-.3,2.464,3.45c.445.623,1.486.025,1.036-.605l-1.4-1.967-.849-1.188c-.2-.279-.355-.553-.736-.592-.623-.063-1.286,0-1.911,0h-5.481a.6.6,0,0,0-.518.9l1.394,1.951.882,1.235c.2.281.361.574.744.611a17.884,17.884,0,0,0,1.82-.012l3.363-.023,2.18-.015a.6.6,0,0,0,0-1.2" transform="translate(-1349.398 -2492.799)"/>
          <path id="Trazado_901061" data-name="Trazado 901061" d="M1528.281,1771.139h-.249a.607.607,0,0,0-.424,1.024l.216.216v-.849l-5.017,5.017-9.649,9.648c-2.056,2.055-4.141,4.085-6.169,6.168a1.2,1.2,0,0,0-.308.985v66.289l.6-.6h-7.4l.6.6v-66.762c0-.892.087-1.833,0-2.722,0-.038,0-.078,0-.116l-.6.6h.2a.607.607,0,0,0,.424-1.024l-.191-.191v.849l3.663-3.664,7.8-7.8,7.255-7.256,1.968-1.968a4.264,4.264,0,0,0,.306-.305,1.673,1.673,0,0,0,.178-1.1v-9.776l-.76.579c2.505.465,5.028.823,7.56,1.112l-.6-.6v12.242a.6.6,0,0,0,1.2,0V1759.5a.617.617,0,0,0-.6-.6c-2.425-.277-4.84-.624-7.24-1.07a.609.609,0,0,0-.76.579v10.45l.176-.424-7.115,7.115-11.29,11.29-2.586,2.586a.609.609,0,0,0,0,.849l.191.191.424-1.024h-.2a.609.609,0,0,0-.6.6V1856.8c0,.906-.027,1.816,0,2.722,0,.039,0,.077,0,.116a.609.609,0,0,0,.6.6h7.4a.609.609,0,0,0,.6-.6v-64.01c0-.852.075-1.743,0-2.592,0-.038,0-.078,0-.116l-.176.424,7.107-7.107,11.277-11.276,2.583-2.583a.609.609,0,0,0,0-.849l-.216-.216-.424,1.024h.249a.6.6,0,0,0,0-1.2" transform="translate(-1349.393 -1582.034)"/>
          <path id="Trazado_901062" data-name="Trazado 901062" d="M1597.223,1783.242h-.249a.607.607,0,0,0-.424,1.024l.216.219v-.849l-5.052,5.113-9.687,9.8c-2.039,2.064-4.121,4.094-6.121,6.2a1.227,1.227,0,0,0-.282,1V1872.8l.6-.6h-.036l.518.3-2.223-3.112a1.879,1.879,0,0,0-.176-.247c-.183-.181.1.083.017.212.006-.01,0-.033,0-.044a1.335,1.335,0,0,0,0-.28v-63.337c0-.963.086-1.97,0-2.93,0-.041,0-.085,0-.126l-.176.424,7.1-7.1,11.3-11.3,2.568-2.568a.609.609,0,0,0,0-.849l-.216-.216-.424,1.024h.249a.609.609,0,0,0,.6-.6v-12.242l-.6.6q1.249.142,2.5.262l-.6-.6v14.369a.6.6,0,0,0,1.2,0v-14.369a.615.615,0,0,0-.6-.6q-1.251-.121-2.5-.262a.6.6,0,0,0-.6.6v12.242l.6-.6h-.249a.607.607,0,0,0-.424,1.024l.216.216v-.849l-5.479,5.479-10.073,10.073-3.888,3.888-1.132,1.132a2.829,2.829,0,0,0-.488.516,2.971,2.971,0,0,0-.082,1.287v65.448a2.648,2.648,0,0,0,0,.285,1.8,1.8,0,0,0,.445.811l.988,1.384.872,1.22c.207.29.387.635.8.635a.609.609,0,0,0,.6-.6v-64.767a24.87,24.87,0,0,0,0-2.646,1.008,1.008,0,0,1,0-.11l-.176.424,7.116-7.2,11.255-11.39,2.6-2.627a.61.61,0,0,0,0-.849l-.216-.219-.424,1.025h.249a.6.6,0,0,0,0-1.2" transform="translate(-1415.834 -1591.748)"/>
          <path id="Trazado_901063" data-name="Trazado 901063" d="M2279.79,1792.066v72.885a24.089,24.089,0,0,0,0,2.989,1.009,1.009,0,0,1,0,.125l.6-.6h-7.4l.6.6v-71.37a10,10,0,0,0,0-1.119,1.482,1.482,0,0,0-.437-.743l-.911-1.109-3.357-4.088-9.411-11.459-6.678-8.131-.349-.425v.849l.216-.263a.608.608,0,0,0-.424-1.024h-.249l.6.6v-17.051l-.44.579c2.487-.4,4.958-.893,7.4-1.512l-.76-.579v10.317c0,1.525-.043,3.058,0,4.583.016.554.582,1.073.93,1.5l6.41,7.805,8.7,10.6,3.342,4.07a24.955,24.955,0,0,0,1.705,2.076,1.052,1.052,0,0,1,.077.094v-.849l-.191.233a.608.608,0,0,0,.424,1.024h.2a.6.6,0,0,0,0-1.2h-.2l.424,1.024.191-.233a.623.623,0,0,0,0-.849l-7.128-8.68L2262.4,1769q-1.295-1.576-2.589-3.153l.176.424v-15.053a.607.607,0,0,0-.759-.578c-2.442.619-4.913,1.112-7.4,1.512a.6.6,0,0,0-.44.579v17.051a.609.609,0,0,0,.6.6h.249l-.425-1.024-.216.263a.624.624,0,0,0,0,.849l7.1,8.642,11.3,13.756,2.573,3.132-.176-.424v63.574c0,2.926-.1,5.872,0,8.8,0,.04,0,.08,0,.12a.609.609,0,0,0,.6.6h7.4a.609.609,0,0,0,.6-.6v-66.64c0-3.072.1-6.164,0-9.234,0-.041,0-.083,0-.125a.6.6,0,0,0-1.2,0" transform="translate(-2026.302 -1575.559)"/>
          <path id="Trazado_901064" data-name="Trazado 901064" d="M2349.209,1784.9v77.58a8.334,8.334,0,0,0,0,1.056,1.075,1.075,0,0,1,0,.129l1.024-.424-3-3.2.176.424V1793.83c0-3.07.1-6.158,0-9.227,0-.044,0-.089,0-.133a.609.609,0,0,0-.6-.6h-.2l.424,1.024.191-.233a.623.623,0,0,0,0-.849l-7.158-8.716-11.261-13.713q-1.286-1.566-2.573-3.133l.176.424v-15.053l-.441.578q1.51-.387,3-.839l-.76-.578v10.577c0,1.546-.046,3.1,0,4.645.017.561.545,1.037.881,1.462l6.573,8.3,8.683,10.965,4.834,6.105.2.247v-.849l-.191.242a.609.609,0,0,0,.425,1.024h.2a.6.6,0,0,0,0-1.2h-.2l.424,1.024.191-.242a.626.626,0,0,0,0-.849q-3.521-4.442-7.038-8.887l-11.332-14.311-2.621-3.31.176.424v-15.37a.606.606,0,0,0-.76-.579q-1.49.454-3,.839a.611.611,0,0,0-.441.579v10.361c0,1.511-.045,3.031,0,4.542.017.553.583,1.07.93,1.493l6.4,7.79,8.691,10.583,3.379,4.115a20.915,20.915,0,0,0,1.691,2.059,1,1,0,0,1,.077.094v-.849l-.191.233a.608.608,0,0,0,.424,1.024h.2l-.6-.6v75c0,.31-.027.634,0,.944a1,1,0,0,0,.309.623c.541.6,1.1,1.175,1.651,1.761l1.215,1.3a.606.606,0,0,0,1.024-.424v-69.1c0-3.172.107-6.364,0-9.535,0-.043,0-.086,0-.129a.6.6,0,0,0-1.2,0" transform="translate(-2092.721 -1567.963)"/>
          <path id="Trazado_901065" data-name="Trazado 901065" d="M1965.685,1780.949v101.86c0,1.371-.082,2.771,0,4.14,0,.058,0,.118,0,.176l.6-.6h-7.4l.6.6V1785.153c0-1.366.087-2.765,0-4.128,0-.06,0-.121,0-.181l-.6.6c2.466.072,4.933.112,7.4.1a.6.6,0,0,0,0-1.2c-2.467.007-4.934-.033-7.4-.1a.607.607,0,0,0-.6.6v101.972c0,1.375-.026,2.753,0,4.128,0,.06,0,.12,0,.181a.609.609,0,0,0,.6.6h7.4a.608.608,0,0,0,.6-.6V1785.264c0-1.379.026-2.761,0-4.14,0-.059,0-.117,0-.176a.6.6,0,0,0-1.2,0" transform="translate(-1762.497 -1602.219)"/>
          <path id="Trazado_901066" data-name="Trazado 901066" d="M1969.24,2845.917h-7.4l.424.176-2.7-3.1-.424,1.024h7.4l-.424-.176,2.7,3.1c.508.583,1.354-.268.848-.849l-1.578-1.811-.916-1.052a.9.9,0,0,0-.659-.413c-.648-.059-1.33,0-1.98,0h-5.392a.607.607,0,0,0-.424,1.024l1.578,1.811.916,1.052a.9.9,0,0,0,.659.413c.648.06,1.33,0,1.98,0h5.392a.6.6,0,0,0,0-1.2" transform="translate(-1762.752 -2558.512)"/>
          <path id="Trazado_901067" data-name="Trazado 901067" d="M2035.046,1781.644v104.864c0,1.405-.095,2.848,0,4.251,0,.061,0,.124,0,.186l1.024-.424-2.7-3.1.176.424V1785.984c0-1.368.087-2.768,0-4.134,0-.06,0-.121,0-.181l-.6.6q1.35,0,2.7-.025a.6.6,0,0,0,0-1.2q-1.35.021-2.7.025a.609.609,0,0,0-.6.6v105.81c0,.112-.011.23,0,.341.051.524.679,1.027,1.005,1.4l1.87,2.148a.606.606,0,0,0,1.024-.424V1786.081c0-1.416.027-2.835,0-4.251,0-.062,0-.124,0-.186a.6.6,0,0,0-1.2,0" transform="translate(-1829.158 -1602.939)"/>
          <path id="Trazado_901068" data-name="Trazado 901068" d="M1573.61,2104.021l2.5,2.6c.536.558,1.384-.292.849-.848l-2.5-2.6c-.536-.558-1.384.292-.849.848" transform="translate(-1416.147 -1892.691)"/>
          <path id="Trazado_901069" data-name="Trazado 901069" d="M1783.61,1892.021l2.5,2.6c.536.558,1.384-.292.849-.849l-2.5-2.6c-.536-.558-1.384.292-.849.849" transform="translate(-1605.147 -1701.891)"/>
          <path id="Trazado_901070" data-name="Trazado 901070" d="M2471.891,2922.614v.05l.6-.6h-7.4l.6.6c0-.346-.242-.545-.458-.775l-1.048-1.117-1.67-1.782-.424,1.025h7.4l-.424-.176,3,3.2c.529.564,1.376-.285.849-.849l-1.636-1.745-1.06-1.131c-.219-.234-.383-.464-.729-.5-.6-.061-1.23,0-1.828,0h-5.57a.607.607,0,0,0-.425,1.024l3,3.2-.176-.424v.05a.609.609,0,0,0,.6.6h7.4a.609.609,0,0,0,.6-.6v-.05a.6.6,0,0,0-1.2,0" transform="translate(-2215.403 -2626.908)"/>
          <path id="Trazado_901071" data-name="Trazado 901071" d="M2536.174,2160.256h3a.6.6,0,0,0,0-1.2h-3a.6.6,0,0,0,0,1.2" transform="translate(-2282.085 -1943.15)"/>
          <path id="Trazado_901072" data-name="Trazado 901072" d="M2326.14,1893.713l3-1.3c.707-.306.1-1.34-.606-1.036l-3,1.3c-.707.306-.1,1.34.606,1.036" transform="translate(-2092.749 -1702.189)"/>
        </g>
      </g>
    </g>
  </g>
</svg>
