<svg xmlns="http://www.w3.org/2000/svg" width="63" height="63" viewBox="0 0 63 63">
  <g id="Grupo_1117911" data-name="Grupo 1117911" transform="translate(-705.051 -404)">
    <g id="Grupo_1117910" data-name="Grupo 1117910" transform="translate(-315.68 -2689)">
      <g id="Grupo_1098797" data-name="Grupo 1098797" transform="translate(1.73 -3671)">
        <g id="Grupo_1098742" data-name="Grupo 1098742" transform="translate(1019.445 6764.445)">
          <rect id="Rect치ngulo_400898" data-name="Rect치ngulo 400898" width="63" height="63" rx="31.5" transform="translate(-0.445 -0.445)" fill="#ffa3d9" opacity="0.859"/>
          <rect id="Rect치ngulo_400907" data-name="Rect치ngulo 400907" width="63" height="63" rx="31.5" transform="translate(-0.446 -0.445)" fill="none"/>
        </g>
      </g>
    </g>
    <g id="processor_406673" transform="translate(718.594 416.973)">
      <g id="Grupo_1110361" data-name="Grupo 1110361" transform="translate(-0.351 -0.991)">
        <path id="Trazado_898474" data-name="Trazado 898474" d="M77.218,201.84H75.3a.64.64,0,0,1,0-1.28h1.92a.64.64,0,0,1,0,1.28Z" transform="translate(-69.537 -185.197)" fill="#ffe100"/>
        <path id="Trazado_898475" data-name="Trazado 898475" d="M77.218,302.561H75.3a.64.64,0,1,1,0-1.28h1.92a.64.64,0,1,1,0,1.28Z" transform="translate(-69.537 -278.236)" fill="#ffe100"/>
        <path id="Trazado_898476" data-name="Trazado 898476" d="M77.218,268.987H75.3a.64.64,0,0,1,0-1.28h1.92a.64.64,0,0,1,0,1.28Z" transform="translate(-69.537 -247.223)" fill="#ffe100"/>
        <path id="Trazado_898477" data-name="Trazado 898477" d="M77.218,235.413H75.3a.64.64,0,0,1,0-1.28h1.92a.64.64,0,0,1,0,1.28Z" transform="translate(-69.537 -216.209)" fill="#ffe100"/>
        <path id="Trazado_898478" data-name="Trazado 898478" d="M404.562,201.84h-1.92a.64.64,0,1,1,0-1.28h1.92a.64.64,0,1,1,0,1.28Z" transform="translate(-371.916 -185.197)" fill="#ffe100"/>
        <path id="Trazado_898479" data-name="Trazado 898479" d="M404.562,302.561h-1.92a.64.64,0,1,1,0-1.28h1.92a.64.64,0,1,1,0,1.28Z" transform="translate(-371.916 -278.236)" fill="#ffe100"/>
        <path id="Trazado_898480" data-name="Trazado 898480" d="M404.562,268.987h-1.92a.64.64,0,1,1,0-1.28h1.92a.64.64,0,1,1,0,1.28Z" transform="translate(-371.916 -247.223)" fill="#ffe100"/>
        <path id="Trazado_898481" data-name="Trazado 898481" d="M404.562,235.413h-1.92a.64.64,0,1,1,0-1.28h1.92a.64.64,0,1,1,0,1.28Z" transform="translate(-371.916 -216.209)" fill="#ffe100"/>
        <path id="Trazado_898482" data-name="Trazado 898482" d="M301.921,77.859a.6.6,0,0,1-.64-.64V75.3a.64.64,0,1,1,1.28,0v1.92A.6.6,0,0,1,301.921,77.859Z" transform="translate(-278.876 -68.897)" fill="#ffe100"/>
        <path id="Trazado_898483" data-name="Trazado 898483" d="M201.2,77.859a.6.6,0,0,1-.64-.64V75.3a.64.64,0,0,1,1.28,0v1.92A.6.6,0,0,1,201.2,77.859Z" transform="translate(-185.836 -68.897)" fill="#ffe100"/>
        <path id="Trazado_898484" data-name="Trazado 898484" d="M234.773,77.859a.6.6,0,0,1-.64-.64V75.3a.64.64,0,0,1,1.28,0v1.92A.6.6,0,0,1,234.773,77.859Z" transform="translate(-216.85 -68.897)" fill="#ffe100"/>
        <path id="Trazado_898485" data-name="Trazado 898485" d="M268.347,77.859a.6.6,0,0,1-.64-.64V75.3a.64.64,0,0,1,1.28,0v1.92A.6.6,0,0,1,268.347,77.859Z" transform="translate(-247.863 -68.897)" fill="#ffe100"/>
        <path id="Trazado_898486" data-name="Trazado 898486" d="M301.921,405.2a.6.6,0,0,1-.64-.64v-1.92a.64.64,0,1,1,1.28,0v1.92A.6.6,0,0,1,301.921,405.2Z" transform="translate(-278.876 -371.277)" fill="#ffe100"/>
        <path id="Trazado_898487" data-name="Trazado 898487" d="M201.2,405.2a.6.6,0,0,1-.64-.64v-1.92a.64.64,0,1,1,1.28,0v1.92A.6.6,0,0,1,201.2,405.2Z" transform="translate(-185.836 -371.277)" fill="#ffe100"/>
        <path id="Trazado_898488" data-name="Trazado 898488" d="M234.773,405.2a.6.6,0,0,1-.64-.64v-1.92a.64.64,0,1,1,1.28,0v1.92A.6.6,0,0,1,234.773,405.2Z" transform="translate(-216.85 -371.277)" fill="#ffe100"/>
        <path id="Trazado_898489" data-name="Trazado 898489" d="M268.347,405.2a.6.6,0,0,1-.64-.64v-1.92a.64.64,0,1,1,1.28,0v1.92A.6.6,0,0,1,268.347,405.2Z" transform="translate(-247.863 -371.277)" fill="#ffe100"/>
        <path id="Trazado_898490" data-name="Trazado 898490" d="M10.711,201.84H8.15a.64.64,0,0,1,0-1.28h2.561a.64.64,0,0,1,0,1.28Z" transform="translate(-7.51 -185.197)" fill="#ffe100"/>
        <path id="Trazado_898491" data-name="Trazado 898491" d="M10.711,235.413H8.15a.64.64,0,1,1,0-1.28h2.561a.64.64,0,1,1,0,1.28Z" transform="translate(-7.51 -216.209)" fill="#ffe100"/>
        <path id="Trazado_898492" data-name="Trazado 898492" d="M10.711,268.987H8.15a.64.64,0,0,1,0-1.28h2.561a.64.64,0,0,1,0,1.28Z" transform="translate(-7.51 -247.223)" fill="#ffe100"/>
        <path id="Trazado_898493" data-name="Trazado 898493" d="M10.711,302.561H8.15a.64.64,0,1,1,0-1.28h2.561a.64.64,0,1,1,0,1.28Z" transform="translate(-7.51 -278.236)" fill="#ffe100"/>
        <path id="Trazado_898494" data-name="Trazado 898494" d="M463.957,201.84H461.4a.64.64,0,1,1,0-1.28h2.561a.64.64,0,0,1,0,1.28Z" transform="translate(-426.189 -185.197)" fill="#ffe100"/>
        <path id="Trazado_898495" data-name="Trazado 898495" d="M463.957,235.413H461.4a.64.64,0,1,1,0-1.28h2.561a.64.64,0,0,1,0,1.28Z" transform="translate(-426.189 -216.209)" fill="#ffe100"/>
        <path id="Trazado_898496" data-name="Trazado 898496" d="M463.957,268.987H461.4a.64.64,0,1,1,0-1.28h2.561a.64.64,0,0,1,0,1.28Z" transform="translate(-426.189 -247.223)" fill="#ffe100"/>
        <path id="Trazado_898497" data-name="Trazado 898497" d="M463.957,302.561H461.4a.64.64,0,1,1,0-1.28h2.561a.64.64,0,0,1,0,1.28Z" transform="translate(-426.189 -278.236)" fill="#ffe100"/>
        <path id="Trazado_898498" data-name="Trazado 898498" d="M201.2,464.6a.6.6,0,0,1-.64-.64V461.4a.64.64,0,1,1,1.28,0v2.561A.6.6,0,0,1,201.2,464.6Z" transform="translate(-185.836 -425.549)" fill="#ffe100"/>
        <path id="Trazado_898499" data-name="Trazado 898499" d="M234.773,464.6a.6.6,0,0,1-.64-.64V461.4a.64.64,0,1,1,1.28,0v2.561A.6.6,0,0,1,234.773,464.6Z" transform="translate(-216.85 -425.549)" fill="#ffe100"/>
        <path id="Trazado_898500" data-name="Trazado 898500" d="M268.347,464.6a.6.6,0,0,1-.64-.64V461.4a.64.64,0,1,1,1.28,0v2.561A.6.6,0,0,1,268.347,464.6Z" transform="translate(-247.863 -425.549)" fill="#ffe100"/>
        <path id="Trazado_898501" data-name="Trazado 898501" d="M301.921,464.6a.6.6,0,0,1-.64-.64V461.4a.64.64,0,1,1,1.28,0v2.561A.6.6,0,0,1,301.921,464.6Z" transform="translate(-278.876 -425.549)" fill="#ffe100"/>
        <path id="Trazado_898502" data-name="Trazado 898502" d="M201.2,11.351a.6.6,0,0,1-.64-.64V8.15a.64.64,0,0,1,1.28,0v2.561A.6.6,0,0,1,201.2,11.351Z" transform="translate(-185.836 -6.87)" fill="#ffe100"/>
        <path id="Trazado_898503" data-name="Trazado 898503" d="M234.773,11.351a.6.6,0,0,1-.64-.64V8.15a.64.64,0,1,1,1.28,0v2.561A.6.6,0,0,1,234.773,11.351Z" transform="translate(-216.85 -6.87)" fill="#ffe100"/>
        <path id="Trazado_898504" data-name="Trazado 898504" d="M268.347,11.351a.6.6,0,0,1-.64-.64V8.15a.64.64,0,0,1,1.28,0v2.561A.6.6,0,0,1,268.347,11.351Z" transform="translate(-247.863 -6.87)" fill="#ffe100"/>
        <path id="Trazado_898505" data-name="Trazado 898505" d="M301.921,11.351a.6.6,0,0,1-.64-.64V8.15a.64.64,0,1,1,1.28,0v2.561A.6.6,0,0,1,301.921,11.351Z" transform="translate(-278.876 -6.87)" fill="#ffe100"/>
        <path id="Trazado_898506" data-name="Trazado 898506" d="M17.752,9.358a.691.691,0,0,1-.448-.192L7.7.2a.619.619,0,0,1,0-.9.619.619,0,0,1,.9,0L18.2,8.27a.619.619,0,0,1,0,.9A.581.581,0,0,1,17.752,9.358Z" transform="translate(-7.51 0.884)" fill="#ffe100"/>
        <path id="Trazado_898507" data-name="Trazado 898507" d="M377.814,25.217a.581.581,0,0,1-.448-.192.622.622,0,0,1,.064-.9l8.322-7.681a.635.635,0,0,1,.832.96l-8.322,7.682A1.188,1.188,0,0,1,377.814,25.217Z" transform="translate(-349.008 -14.975)" fill="#ffe100"/>
        <path id="Trazado_898508" data-name="Trazado 898508" d="M377.923,377.923a.691.691,0,0,1-.448-.192l-8.962-8.322a.635.635,0,1,1,.832-.96l8.962,8.322a.685.685,0,0,1,.064.9A.483.483,0,0,1,377.923,377.923Z" transform="translate(-340.796 -340.155)" fill="#ffe100"/>
        <path id="Trazado_898509" data-name="Trazado 898509" d="M16.9,394.528a.581.581,0,0,1-.448-.192.622.622,0,0,1,.064-.9l8.322-7.681a.635.635,0,1,1,.832.96L17.344,394.4A1.187,1.187,0,0,1,16.9,394.528Z" transform="translate(-15.616 -356.121)" fill="#ffe100"/>
      </g>
      <g id="Grupo_1110362" data-name="Grupo 1110362" transform="translate(6.691 6.691)">
        <path id="Trazado_898510" data-name="Trazado 898510" d="M183.772,102.4h10.242v-2.56H183.772Z" transform="translate(-177.371 -99.838)" fill="#fdcc00"/>
        <path id="Trazado_898511" data-name="Trazado 898511" d="M183.772,370.988h10.242v-2.56H183.772Z" transform="translate(-177.371 -347.944)" fill="#fdcc00"/>
        <path id="Trazado_898512" data-name="Trazado 898512" d="M368.428,194.014h2.56V183.772h-2.56Z" transform="translate(-347.944 -177.371)" fill="#fdcc00"/>
        <path id="Trazado_898513" data-name="Trazado 898513" d="M99.838,194.014h2.56V183.772h-2.56Z" transform="translate(-99.838 -177.371)" fill="#fdcc00"/>
      </g>
      <path id="Trazado_898514" data-name="Trazado 898514" d="M133.411,149.158V135.587a2.158,2.158,0,0,1,2.176-2.176h13.635a2.158,2.158,0,0,1,2.176,2.176v13.635a2.158,2.158,0,0,1-2.176,2.176H135.587a2.255,2.255,0,0,1-2.176-2.24" transform="translate(-124.16 -124.16)" fill="#ffe100"/>
      <path id="Trazado_898515" data-name="Trazado 898515" d="M179.789,172.746l-.768-.128a1.564,1.564,0,0,1-.96-2.5l.512-.64-1.024-1.024-.64.448a1.568,1.568,0,0,1-2.432-1.088l-.256-.832h-1.472l-.192,1.024a1.582,1.582,0,0,1-2.432,1.024l-.832-.576-1.024,1.024.512.64a1.564,1.564,0,0,1-.96,2.5l-.832.128v1.472l.832.128a1.58,1.58,0,0,1,1.088,2.432l-.448.64,1.024,1.024.64-.512a1.564,1.564,0,0,1,2.5.96l.128.9h1.472l.064-.576a1.585,1.585,0,0,1,2.5-1.024l.448.32,1.024-1.024-.448-.64a1.568,1.568,0,0,1,1.088-2.432l.832-.128v-1.536h.064Z" transform="translate(-155.175 -155.174)" fill="#63d3fd"/>
      <path id="Trazado_898516" data-name="Trazado 898516" d="M229.581,227.659a1.92,1.92,0,1,1-1.92-1.92,1.886,1.886,0,0,1,1.92,1.92" transform="translate(-209.448 -209.447)" fill="#ffe100"/>
      <path id="Trazado_898517" data-name="Trazado 898517" d="M141.405,144.222H127.835a2.842,2.842,0,0,1-2.817-2.817V127.835a2.842,2.842,0,0,1,2.817-2.817h13.635a2.842,2.842,0,0,1,2.817,2.817v13.635A2.932,2.932,0,0,1,141.405,144.222ZM127.835,126.3a1.558,1.558,0,0,0-1.536,1.536v13.635a1.558,1.558,0,0,0,1.536,1.536h13.635a1.558,1.558,0,0,0,1.536-1.536V127.835a1.558,1.558,0,0,0-1.536-1.536Z" transform="translate(-116.407 -116.407)"/>
      <path id="Trazado_898518" data-name="Trazado 898518" d="M186.9,95.285H175.378V91.444H186.9ZM176.658,94h8.962v-1.28h-8.962Z" transform="translate(-162.926 -85.394)"/>
      <path id="Trazado_898519" data-name="Trazado 898519" d="M186.9,363.875H175.378v-3.841H186.9Zm-10.242-1.28h8.962v-1.28h-8.962Z" transform="translate(-162.926 -333.5)"/>
      <path id="Trazado_898520" data-name="Trazado 898520" d="M363.875,186.9h-3.841V175.378h3.841Zm-2.561-1.28h1.28v-8.962h-1.28Z" transform="translate(-333.5 -162.926)"/>
      <path id="Trazado_898521" data-name="Trazado 898521" d="M95.285,186.9H91.444V175.378h3.841Zm-2.561-1.28H94v-8.962h-1.28Z" transform="translate(-85.394 -162.926)"/>
      <path id="Trazado_898522" data-name="Trazado 898522" d="M68.825,193.446h-1.92a.64.64,0,1,1,0-1.28h1.92a.64.64,0,1,1,0,1.28Z" transform="translate(-62.135 -178.434)"/>
      <path id="Trazado_898523" data-name="Trazado 898523" d="M68.825,294.168h-1.92a.64.64,0,0,1,0-1.28h1.92a.64.64,0,0,1,0,1.28Z" transform="translate(-62.135 -271.474)"/>
      <path id="Trazado_898524" data-name="Trazado 898524" d="M68.825,260.594h-1.92a.64.64,0,1,1,0-1.28h1.92a.64.64,0,1,1,0,1.28Z" transform="translate(-62.135 -240.461)"/>
      <path id="Trazado_898525" data-name="Trazado 898525" d="M68.825,227.02h-1.92a.64.64,0,1,1,0-1.28h1.92a.64.64,0,0,1,0,1.28Z" transform="translate(-62.135 -209.448)"/>
      <path id="Trazado_898526" data-name="Trazado 898526" d="M396.169,193.446h-1.92a.64.64,0,1,1,0-1.28h1.92a.64.64,0,0,1,0,1.28Z" transform="translate(-364.514 -178.434)"/>
      <path id="Trazado_898527" data-name="Trazado 898527" d="M396.169,294.168h-1.92a.64.64,0,1,1,0-1.28h1.92a.64.64,0,0,1,0,1.28Z" transform="translate(-364.514 -271.474)"/>
      <path id="Trazado_898528" data-name="Trazado 898528" d="M396.169,260.594h-1.92a.64.64,0,1,1,0-1.28h1.92a.64.64,0,0,1,0,1.28Z" transform="translate(-364.514 -240.461)"/>
      <path id="Trazado_898529" data-name="Trazado 898529" d="M396.169,227.02h-1.92a.64.64,0,1,1,0-1.28h1.92a.64.64,0,0,1,0,1.28Z" transform="translate(-364.514 -209.448)"/>
      <path id="Trazado_898530" data-name="Trazado 898530" d="M293.527,69.466a.6.6,0,0,1-.64-.64v-1.92a.64.64,0,1,1,1.28,0v1.92A.6.6,0,0,1,293.527,69.466Z" transform="translate(-271.474 -62.135)"/>
      <path id="Trazado_898531" data-name="Trazado 898531" d="M192.806,69.466a.6.6,0,0,1-.64-.64v-1.92a.64.64,0,1,1,1.28,0v1.92A.6.6,0,0,1,192.806,69.466Z" transform="translate(-178.434 -62.135)"/>
      <path id="Trazado_898532" data-name="Trazado 898532" d="M226.38,69.466a.6.6,0,0,1-.64-.64v-1.92a.64.64,0,1,1,1.28,0v1.92A.6.6,0,0,1,226.38,69.466Z" transform="translate(-209.448 -62.135)"/>
      <path id="Trazado_898533" data-name="Trazado 898533" d="M259.953,69.466a.6.6,0,0,1-.64-.64v-1.92a.64.64,0,1,1,1.28,0v1.92A.6.6,0,0,1,259.953,69.466Z" transform="translate(-240.46 -62.135)"/>
      <path id="Trazado_898534" data-name="Trazado 898534" d="M293.527,396.81a.6.6,0,0,1-.64-.64v-1.92a.64.64,0,1,1,1.28,0v1.92A.6.6,0,0,1,293.527,396.81Z" transform="translate(-271.474 -364.514)"/>
      <path id="Trazado_898535" data-name="Trazado 898535" d="M192.806,396.81a.6.6,0,0,1-.64-.64v-1.92a.64.64,0,1,1,1.28,0v1.92A.6.6,0,0,1,192.806,396.81Z" transform="translate(-178.434 -364.514)"/>
      <path id="Trazado_898536" data-name="Trazado 898536" d="M226.38,396.81a.6.6,0,0,1-.64-.64v-1.92a.64.64,0,1,1,1.28,0v1.92A.6.6,0,0,1,226.38,396.81Z" transform="translate(-209.448 -364.514)"/>
      <path id="Trazado_898537" data-name="Trazado 898537" d="M259.953,396.81a.6.6,0,0,1-.64-.64v-1.92a.64.64,0,1,1,1.28,0v1.92A.6.6,0,0,1,259.953,396.81Z" transform="translate(-240.46 -364.514)"/>
      <path id="Trazado_898538" data-name="Trazado 898538" d="M2.318,193.446H-.243a.6.6,0,0,1-.64-.64.6.6,0,0,1,.64-.64H2.318a.64.64,0,1,1,0,1.28Z" transform="translate(-0.108 -178.434)"/>
      <path id="Trazado_898539" data-name="Trazado 898539" d="M2.318,227.02H-.243a.6.6,0,0,1-.64-.64.6.6,0,0,1,.64-.64H2.318a.64.64,0,1,1,0,1.28Z" transform="translate(-0.108 -209.448)"/>
      <path id="Trazado_898540" data-name="Trazado 898540" d="M2.318,260.594H-.243a.6.6,0,0,1-.64-.64.6.6,0,0,1,.64-.64H2.318a.64.64,0,1,1,0,1.28Z" transform="translate(-0.108 -240.461)"/>
      <path id="Trazado_898541" data-name="Trazado 898541" d="M2.318,294.168H-.243a.6.6,0,0,1-.64-.64.6.6,0,0,1,.64-.64H2.318a.64.64,0,1,1,0,1.28Z" transform="translate(-0.108 -271.474)"/>
      <path id="Trazado_898542" data-name="Trazado 898542" d="M455.563,193.446H453a.64.64,0,1,1,0-1.28h2.561a.64.64,0,1,1,0,1.28Z" transform="translate(-418.786 -178.434)"/>
      <path id="Trazado_898543" data-name="Trazado 898543" d="M455.563,227.02H453a.64.64,0,1,1,0-1.28h2.561a.64.64,0,1,1,0,1.28Z" transform="translate(-418.786 -209.448)"/>
      <path id="Trazado_898544" data-name="Trazado 898544" d="M455.563,260.594H453a.64.64,0,1,1,0-1.28h2.561a.64.64,0,1,1,0,1.28Z" transform="translate(-418.786 -240.461)"/>
      <path id="Trazado_898545" data-name="Trazado 898545" d="M455.563,294.168H453a.64.64,0,1,1,0-1.28h2.561a.64.64,0,1,1,0,1.28Z" transform="translate(-418.786 -271.474)"/>
      <path id="Trazado_898546" data-name="Trazado 898546" d="M192.806,456.2a.6.6,0,0,1-.64-.64V453a.64.64,0,1,1,1.28,0v2.56A.6.6,0,0,1,192.806,456.2Z" transform="translate(-178.434 -418.787)"/>
      <path id="Trazado_898547" data-name="Trazado 898547" d="M226.38,456.2a.6.6,0,0,1-.64-.64V453a.64.64,0,1,1,1.28,0v2.56A.6.6,0,0,1,226.38,456.2Z" transform="translate(-209.448 -418.787)"/>
      <path id="Trazado_898548" data-name="Trazado 898548" d="M259.953,456.2a.6.6,0,0,1-.64-.64V453a.64.64,0,1,1,1.28,0v2.56A.6.6,0,0,1,259.953,456.2Z" transform="translate(-240.46 -418.787)"/>
      <path id="Trazado_898549" data-name="Trazado 898549" d="M293.527,456.2a.6.6,0,0,1-.64-.64V453a.64.64,0,1,1,1.28,0v2.56A.6.6,0,0,1,293.527,456.2Z" transform="translate(-271.474 -418.787)"/>
      <path id="Trazado_898550" data-name="Trazado 898550" d="M192.806,2.958a.6.6,0,0,1-.64-.64V-.243a.6.6,0,0,1,.64-.64.6.6,0,0,1,.64.64V2.318A.6.6,0,0,1,192.806,2.958Z" transform="translate(-178.434 -0.108)"/>
      <path id="Trazado_898551" data-name="Trazado 898551" d="M226.38,2.958a.6.6,0,0,1-.64-.64V-.243a.6.6,0,0,1,.64-.64.6.6,0,0,1,.64.64V2.318A.6.6,0,0,1,226.38,2.958Z" transform="translate(-209.448 -0.108)"/>
      <path id="Trazado_898552" data-name="Trazado 898552" d="M259.953,2.958a.6.6,0,0,1-.64-.64V-.243a.6.6,0,0,1,.64-.64.6.6,0,0,1,.64.64V2.318A.6.6,0,0,1,259.953,2.958Z" transform="translate(-240.46 -0.108)"/>
      <path id="Trazado_898553" data-name="Trazado 898553" d="M293.527,2.958a.6.6,0,0,1-.64-.64V-.243a.6.6,0,0,1,.64-.64.6.6,0,0,1,.64.64V2.318A.6.6,0,0,1,293.527,2.958Z" transform="translate(-271.474 -0.108)"/>
      <path id="Trazado_898554" data-name="Trazado 898554" d="M8.611,8.611a.691.691,0,0,1-.448-.192L-.8.1A.686.686,0,0,1-.863-.8a.686.686,0,0,1,.9-.064L8.995,7.459a.686.686,0,0,1,.064.9A.483.483,0,0,1,8.611,8.611Z" transform="translate(0 0)"/>
      <path id="Trazado_898555" data-name="Trazado 898555" d="M369.157,8.807a.611.611,0,0,1-.384-1.088L377.735-.6a.576.576,0,0,1,.9.064.576.576,0,0,1-.064.9l-8.962,8.322A1.187,1.187,0,0,1,369.157,8.807Z" transform="translate(-341.342 -0.196)"/>
      <path id="Trazado_898556" data-name="Trazado 898556" d="M377.923,386.316a.691.691,0,0,1-.448-.192l-8.962-8.322a.635.635,0,1,1,.832-.96l8.962,8.322a.686.686,0,0,1,.064.9A.483.483,0,0,1,377.923,386.316Z" transform="translate(-341.146 -348.899)"/>
      <path id="Trazado_898557" data-name="Trazado 898557" d="M-.154,386.512A.581.581,0,0,1-.6,386.32a.576.576,0,0,1,.064-.9L8.424,377.1a.635.635,0,1,1,.832.96L.294,386.384A1.188,1.188,0,0,1-.154,386.512Z" transform="translate(-0.197 -349.095)"/>
      <path id="Trazado_898558" data-name="Trazado 898558" d="M166.466,173.452h-1.472a.623.623,0,0,1-.64-.512l-.128-.768a.952.952,0,0,0-.96-.768,1.032,1.032,0,0,0-.576.192l-.64.512a.6.6,0,0,1-.832-.064l-1.024-1.024a.671.671,0,0,1-.064-.832l.448-.64a.891.891,0,0,0,.064-.9.923.923,0,0,0-.7-.576l-.832-.128a.623.623,0,0,1-.512-.64V165.77a.623.623,0,0,1,.512-.64l.768-.128a.923.923,0,0,0,.7-.576.9.9,0,0,0-.128-.9l-.512-.64a.678.678,0,0,1,.064-.832l1.024-1.024a.671.671,0,0,1,.832-.064l.832.576a.851.851,0,0,0,.512.192,1,1,0,0,0,.96-.768l.192-1.024a.623.623,0,0,1,.64-.512h1.472a.689.689,0,0,1,.64.512l.128.832a.962.962,0,0,0,.96.832.727.727,0,0,0,.512-.192l.64-.448a.678.678,0,0,1,.832.064l1.024,1.024a.671.671,0,0,1,.064.832l-.512.64a.9.9,0,0,0-.128.9.923.923,0,0,0,.7.576l.768.128a.623.623,0,0,1,.512.64v1.472a.689.689,0,0,1-.512.64l-.832.128a.923.923,0,0,0-.7.576.891.891,0,0,0,.064.9l.448.64a.678.678,0,0,1-.064.832l-1.024,1.024a.6.6,0,0,1-.832.064l-.448-.32a1.032,1.032,0,0,0-.576-.192,1,1,0,0,0-.96.832l-.064.576A.632.632,0,0,1,166.466,173.452Zm-.9-1.28h.384a2.2,2.2,0,0,1,2.176-1.856,1.957,1.957,0,0,1,1.28.448h0l.256-.256-.128-.192a2.09,2.09,0,0,1-.192-2.112,2.121,2.121,0,0,1,1.728-1.28l.256-.064v-.384l-.256-.064a2.228,2.228,0,0,1-1.664-1.344,2.086,2.086,0,0,1,.256-2.112l.128-.192-.256-.256-.192.128a2.263,2.263,0,0,1-1.216.384,2.154,2.154,0,0,1-2.176-1.92v-.448h-.384l-.064.448a2.255,2.255,0,0,1-2.176,1.792,1.97,1.97,0,0,1-1.216-.384l-.384-.256-.384.32.128.192a2.1,2.1,0,0,1,.256,2.112,2.125,2.125,0,0,1-1.664,1.344l-.192.128v.384l.256.064a2.25,2.25,0,0,1,1.728,1.28,2.09,2.09,0,0,1-.192,2.112l-.128.192.256.256.192-.128a2.382,2.382,0,0,1,1.28-.448,2.2,2.2,0,0,1,2.176,1.792Z" transform="translate(-147.421 -148.198)"/>
      <path id="Trazado_898559" data-name="Trazado 898559" d="M219.906,222.466a2.561,2.561,0,1,1,2.561-2.561A2.568,2.568,0,0,1,219.906,222.466Zm0-3.841a1.28,1.28,0,1,0,1.28,1.28A1.284,1.284,0,0,0,219.906,218.625Z" transform="translate(-201.693 -201.693)"/>
    </g>
  </g>
</svg>
