<svg xmlns="http://www.w3.org/2000/svg" width="295" height="64" viewBox="0 0 295 64">
  <g id="Grupo_1117963" data-name="Grupo 1117963" transform="translate(8051 6575.012)">
    <path id="Trazado_901624" data-name="Trazado 901624" d="M10,0H285a10,10,0,0,1,10,10V54a10,10,0,0,1-10,10H10A10,10,0,0,1,0,54V10A10,10,0,0,1,10,0Z" transform="translate(-8051 -6575.012)" fill="#edf3fb"/>
    <path id="Trazado_901625" data-name="Trazado 901625" d="M-14.442-8.555-20.8.146H-9.974V3.955H-27.655V1.743l8.027-10.576-8.027-10.3v-2.2h17.52v3.809H-20.726L-14.442-9.1ZM1.466-3.48,4.015-12.8H7.46L3.154,0H-.221L-4.493-12.8h3.419ZM16.689-6.346H8.55V-8.631h8.139Zm0,3.858H8.55V-4.772h8.139ZM27.631-5.229a6.11,6.11,0,0,1-1.165,4A4.024,4.024,0,0,1,23.184.176a4.046,4.046,0,0,1-3.3-1.415,6.1,6.1,0,0,1-1.169-3.99V-7.567a6.11,6.11,0,0,1,1.165-4,4.034,4.034,0,0,1,3.292-1.406,4.036,4.036,0,0,1,3.3,1.415,6.116,6.116,0,0,1,1.169,4ZM24.669-7.945a4.564,4.564,0,0,0-.36-2.061,1.2,1.2,0,0,0-1.143-.681,1.176,1.176,0,0,0-1.112.633,4.3,4.3,0,0,0-.374,1.916v3.27a4.6,4.6,0,0,0,.36,2.1,1.209,1.209,0,0,0,1.143.664A1.193,1.193,0,0,0,24.3-2.755a4.39,4.39,0,0,0,.369-2.026Z" transform="translate(-7904 -6532.012)" fill="#12263f"/>
  </g>
</svg>
