<svg xmlns="http://www.w3.org/2000/svg" xmlns:xlink="http://www.w3.org/1999/xlink" width="124.002" height="124.002" viewBox="0 0 124.002 124.002">
  <defs>
    <filter id="Trazado_896985" x="0" y="0" width="124.002" height="124.002" filterUnits="userSpaceOnUse">
      <feOffset dy="3" input="SourceAlpha"/>
      <feGaussianBlur stdDeviation="3" result="blur"/>
      <feFlood flood-opacity="0.161"/>
      <feComposite operator="in" in2="blur"/>
      <feComposite in="SourceGraphic"/>
    </filter>
    <clipPath id="clip-path">
      <rect id="Rect치ngulo_408027" data-name="Rect치ngulo 408027" width="71" height="71" transform="translate(345.051 1394.661)" fill="#fff" stroke="#707070" stroke-width="1"/>
    </clipPath>
    <clipPath id="clip-path-2">
      <path id="path2349" d="M0-71H71V0H0Z"/>
    </clipPath>
  </defs>
  <g id="Grupo_1117912" data-name="Grupo 1117912" transform="translate(-318.051 -1271.473)">
    <g id="Grupo_1098742" data-name="Grupo 1098742" transform="translate(327.051 1277.473)">
      <g transform="matrix(1, 0, 0, 1, -9, -6)" filter="url(#Trazado_896985)">
        <g id="Trazado_896985-2" data-name="Trazado 896985" transform="translate(9 6)" fill="#d2faf7">
          <path d="M 53.00100708007812 104.5019454956055 C 46.04774856567383 104.5019454956055 39.30329132080078 103.1404800415039 32.95494842529297 100.4553604125977 C 26.82243537902832 97.86153411865234 21.31455039978027 94.14791870117188 16.58430671691895 89.41769409179688 C 11.85404968261719 84.68744659423828 8.140435218811035 79.17957305908203 5.546592712402344 73.04706573486328 C 2.861478567123413 66.69874572753906 1.500007033348083 59.95429229736328 1.500007033348083 53.00104904174805 C 1.500007033348083 46.04766082763672 2.861478567123413 39.30321884155273 5.546592712402344 32.95489120483398 C 8.140435218811035 26.8223762512207 11.85404968261719 21.31450462341309 16.58430671691895 16.58427619934082 C 21.31455039978027 11.85403347015381 26.82243537902832 8.140419006347656 32.95494842529297 5.546590805053711 C 39.30329132080078 2.86147665977478 46.04774856567383 1.500005125999451 53.00100708007812 1.500005125999451 C 59.95426559448242 1.500005125999451 66.69873809814453 2.86147665977478 73.04706573486328 5.546590805053711 C 79.17959594726562 8.140419006347656 84.68747711181641 11.85403347015381 89.417724609375 16.58427619934082 C 94.14797973632812 21.31450462341309 97.86159515380859 26.8223762512207 100.455436706543 32.95489120483398 C 103.1405487060547 39.30321884155273 104.5020217895508 46.04766082763672 104.5020217895508 53.00090408325195 C 104.5020217895508 59.95429229736328 103.1405487060547 66.69874572753906 100.455436706543 73.04706573486328 C 97.86159515380859 79.17957305908203 94.14797973632812 84.68744659423828 89.417724609375 89.41769409179688 C 84.68747711181641 94.14791870117188 79.17959594726562 97.86153411865234 73.04706573486328 100.4553604125977 C 66.69873809814453 103.1404800415039 59.95426559448242 104.5019454956055 53.00100708007812 104.5019454956055 Z" stroke="none"/>
          <path d="M 53.00100708007812 2.999992370605469 C 46.24959182739258 2.999992370605469 39.70172119140625 4.32159423828125 33.53927612304688 6.928077697753906 C 27.58554077148438 9.446296691894531 22.23792266845703 13.05195617675781 17.64494323730469 17.64492797851562 C 13.05197143554688 22.23789215087891 9.446304321289062 27.58551025390625 6.928092956542969 33.53923034667969 C 4.321586608886719 39.70164489746094 2.999992370605469 46.24951171875 2.999992370605469 53.00104141235352 C 2.999992370605469 59.75244140625 4.321586608886719 66.30030822753906 6.928092956542969 72.46272277832031 C 9.446304321289062 78.41644287109375 13.05197143554688 83.76406097412109 17.64494323730469 88.35702514648438 C 22.23792266845703 92.94997406005859 27.58554077148438 96.55564117431641 33.53927612304688 99.07386016845703 C 39.70172119140625 101.6803436279297 46.24959182739258 103.0019454956055 53.00100708007812 103.0019454956055 C 59.75242233276367 103.0019454956055 66.30029296875 101.6803436279297 72.46273803710938 99.07386016845703 C 78.41645812988281 96.55564117431641 83.76409149169922 92.94997406005859 88.3570556640625 88.35702514648438 C 92.95002746582031 83.76406097412109 96.55570983886719 78.41644287109375 99.07390594482422 72.46272277832031 C 101.6804046630859 66.30030822753906 103.0020065307617 59.75244140625 103.0020065307617 53.00091171264648 C 103.0020065307617 46.24951171875 101.6804046630859 39.70164489746094 99.07390594482422 33.53920745849609 C 96.55570983886719 27.58551025390625 92.95002746582031 22.23789215087891 88.3570556640625 17.64492797851562 C 83.76409149169922 13.05195617675781 78.41645812988281 9.446296691894531 72.46273803710938 6.928077697753906 C 66.30029296875 4.32159423828125 59.75242233276367 2.999992370605469 53.00100708007812 2.999992370605469 M 53.00100708007812 -7.62939453125e-06 C 82.27265930175781 -7.62939453125e-06 106.0020065307617 23.72930908203125 106.0020065307617 53.00091171264648 L 106.0020065307617 53.00104141235352 C 106.0020065307617 82.27264404296875 82.27265930175781 106.0019454956055 53.00100708007812 106.0019454956055 C 23.72935485839844 106.0019454956055 -7.62939453125e-06 82.27264404296875 -7.62939453125e-06 53.00104141235352 L -7.62939453125e-06 53.00091171264648 C -7.62939453125e-06 23.72930908203125 23.72935485839844 -7.62939453125e-06 53.00100708007812 -7.62939453125e-06 Z" stroke="none" fill="#fff"/>
        </g>
      </g>
      <g id="Rect치ngulo_400907" data-name="Rect치ngulo 400907" transform="translate(0)" fill="none" stroke="#fff" stroke-width="3">
        <rect width="106.002" height="106.002" rx="53.001" stroke="none"/>
        <rect x="1.5" y="1.5" width="103.002" height="103.002" rx="51.501" fill="none"/>
      </g>
    </g>
    <g id="Enmascarar_grupo_1098720" data-name="Enmascarar grupo 1098720" transform="translate(0 -99.188)" clip-path="url(#clip-path)">
      <g id="g2343" transform="translate(345.051 1465.661)">
        <g id="g2345">
          <g id="g2347" clip-path="url(#clip-path-2)">
            <g id="g2353" transform="translate(29.986 -62.702)">
              <path id="path2355" d="M0,0-27.438,47.524a6.527,6.527,0,0,0,5.652,9.79H33.09a6.527,6.527,0,0,0,5.653-9.79L11.3,0A6.527,6.527,0,0,0,0,0" fill="#65687f"/>
            </g>
            <g id="g2357" transform="translate(48.732 -49.813)">
              <path id="path2359" d="M0,0,20,34.636a6.527,6.527,0,0,1-5.652,9.79H-40.532a6.527,6.527,0,0,1-5.652-9.79l27.439-47.524a6.526,6.526,0,0,1,11.3,0L-2.08-3.6" fill="none" stroke="#000" stroke-linecap="round" stroke-linejoin="round" stroke-miterlimit="10" stroke-width="2.08"/>
            </g>
            <g id="g2361" transform="translate(8.2 -10.934)">
              <path id="path2363" d="M0,0A.923.923,0,0,1-.849-.49a.923.923,0,0,1,0-.98L26.589-48.994a.923.923,0,0,1,.849-.49.923.923,0,0,1,.849.49L55.725-1.47a.923.923,0,0,1,0,.98.923.923,0,0,1-.849.49Z" fill="#ffe37d"/>
            </g>
            <g id="g2365" transform="translate(13.141 -10.934)">
              <path id="path2367" d="M0,0H-4.941A.923.923,0,0,1-5.79-.49a.923.923,0,0,1,0-.98L21.648-48.994a.923.923,0,0,1,.849-.49.924.924,0,0,1,.849.49L50.784-1.47a.923.923,0,0,1,0,.98.923.923,0,0,1-.849.49H4.16" fill="none" stroke="#000" stroke-linecap="round" stroke-linejoin="round" stroke-miterlimit="10" stroke-width="2.08"/>
            </g>
            <g id="g2369" transform="translate(38.937 -49.169)">
              <path id="path2371" d="M0,0-12.2,17.4H-4.77L-7.318,34.849l13-17.448H-1.257Z" fill="#65687f"/>
            </g>
            <g id="g2373" transform="translate(38.937 -49.169)">
              <path id="path2375" d="M0,0-12.2,17.4H-4.77L-7.318,34.849l13-17.448H-1.257Z" fill="none" stroke="#000" stroke-linecap="round" stroke-linejoin="round" stroke-miterlimit="10" stroke-width="2.08"/>
            </g>
          </g>
        </g>
      </g>
    </g>
  </g>
</svg>
