<svg xmlns="http://www.w3.org/2000/svg" xmlns:xlink="http://www.w3.org/1999/xlink" width="124.002" height="124.002" viewBox="0 0 124.002 124.002">
  <defs>
    <filter id="Trazado_896985" x="0" y="0" width="124.002" height="124.002" filterUnits="userSpaceOnUse">
      <feOffset dy="3" input="SourceAlpha"/>
      <feGaussianBlur stdDeviation="3" result="blur"/>
      <feFlood flood-opacity="0.161"/>
      <feComposite operator="in" in2="blur"/>
      <feComposite in="SourceGraphic"/>
    </filter>
    <clipPath id="clip-path">
      <rect id="Rect치ngulo_408028" data-name="Rect치ngulo 408028" width="71" height="71" transform="translate(764.5 1394.661)" fill="#fff" stroke="#707070" stroke-width="1"/>
    </clipPath>
    <clipPath id="clip-path-2">
      <path id="path3921" d="M0-71H71V0H0Z"/>
    </clipPath>
  </defs>
  <g id="Grupo_1117913" data-name="Grupo 1117913" transform="translate(-736.219 -1271.473)">
    <g id="Grupo_1098742" data-name="Grupo 1098742" transform="translate(745.219 1277.473)">
      <g transform="matrix(1, 0, 0, 1, -9, -6)" filter="url(#Trazado_896985)">
        <g id="Trazado_896985-2" data-name="Trazado 896985" transform="translate(9 6)" fill="#edf3fb">
          <path d="M 53.00100708007812 104.5019454956055 C 46.04774856567383 104.5019454956055 39.30329132080078 103.1404800415039 32.95494842529297 100.4553604125977 C 26.82243537902832 97.86153411865234 21.31455039978027 94.14791870117188 16.58430671691895 89.41769409179688 C 11.85404968261719 84.68744659423828 8.140435218811035 79.17957305908203 5.546592712402344 73.04706573486328 C 2.861478567123413 66.69874572753906 1.500007033348083 59.95429229736328 1.500007033348083 53.00104904174805 C 1.500007033348083 46.04766082763672 2.861478567123413 39.30321884155273 5.546592712402344 32.95489120483398 C 8.140435218811035 26.8223762512207 11.85404968261719 21.31450462341309 16.58430671691895 16.58427619934082 C 21.31455039978027 11.85403347015381 26.82243537902832 8.140419006347656 32.95494842529297 5.546590805053711 C 39.30329132080078 2.86147665977478 46.04774856567383 1.500005125999451 53.00100708007812 1.500005125999451 C 59.95426559448242 1.500005125999451 66.69873809814453 2.86147665977478 73.04706573486328 5.546590805053711 C 79.17959594726562 8.140419006347656 84.68747711181641 11.85403347015381 89.417724609375 16.58427619934082 C 94.14797973632812 21.31450462341309 97.86159515380859 26.8223762512207 100.455436706543 32.95489120483398 C 103.1405487060547 39.30321884155273 104.5020217895508 46.04766082763672 104.5020217895508 53.00090408325195 C 104.5020217895508 59.95429229736328 103.1405487060547 66.69874572753906 100.455436706543 73.04706573486328 C 97.86159515380859 79.17957305908203 94.14797973632812 84.68744659423828 89.417724609375 89.41769409179688 C 84.68747711181641 94.14791870117188 79.17959594726562 97.86153411865234 73.04706573486328 100.4553604125977 C 66.69873809814453 103.1404800415039 59.95426559448242 104.5019454956055 53.00100708007812 104.5019454956055 Z" stroke="none"/>
          <path d="M 53.00100708007812 2.999992370605469 C 46.24959182739258 2.999992370605469 39.70172119140625 4.32159423828125 33.53927612304688 6.928077697753906 C 27.58554077148438 9.446296691894531 22.23792266845703 13.05195617675781 17.64494323730469 17.64492797851562 C 13.05197143554688 22.23789215087891 9.446304321289062 27.58551025390625 6.928092956542969 33.53923034667969 C 4.321586608886719 39.70164489746094 2.999992370605469 46.24951171875 2.999992370605469 53.00104141235352 C 2.999992370605469 59.75244140625 4.321586608886719 66.30030822753906 6.928092956542969 72.46272277832031 C 9.446304321289062 78.41644287109375 13.05197143554688 83.76406097412109 17.64494323730469 88.35702514648438 C 22.23792266845703 92.94997406005859 27.58554077148438 96.55564117431641 33.53927612304688 99.07386016845703 C 39.70172119140625 101.6803436279297 46.24959182739258 103.0019454956055 53.00100708007812 103.0019454956055 C 59.75242233276367 103.0019454956055 66.30029296875 101.6803436279297 72.46273803710938 99.07386016845703 C 78.41645812988281 96.55564117431641 83.76409149169922 92.94997406005859 88.3570556640625 88.35702514648438 C 92.95002746582031 83.76406097412109 96.55570983886719 78.41644287109375 99.07390594482422 72.46272277832031 C 101.6804046630859 66.30030822753906 103.0020065307617 59.75244140625 103.0020065307617 53.00091171264648 C 103.0020065307617 46.24951171875 101.6804046630859 39.70164489746094 99.07390594482422 33.53920745849609 C 96.55570983886719 27.58551025390625 92.95002746582031 22.23789215087891 88.3570556640625 17.64492797851562 C 83.76409149169922 13.05195617675781 78.41645812988281 9.446296691894531 72.46273803710938 6.928077697753906 C 66.30029296875 4.32159423828125 59.75242233276367 2.999992370605469 53.00100708007812 2.999992370605469 M 53.00100708007812 -7.62939453125e-06 C 82.27265930175781 -7.62939453125e-06 106.0020065307617 23.72930908203125 106.0020065307617 53.00091171264648 L 106.0020065307617 53.00104141235352 C 106.0020065307617 82.27264404296875 82.27265930175781 106.0019454956055 53.00100708007812 106.0019454956055 C 23.72935485839844 106.0019454956055 -7.62939453125e-06 82.27264404296875 -7.62939453125e-06 53.00104141235352 L -7.62939453125e-06 53.00091171264648 C -7.62939453125e-06 23.72930908203125 23.72935485839844 -7.62939453125e-06 53.00100708007812 -7.62939453125e-06 Z" stroke="none" fill="#fff"/>
        </g>
      </g>
      <g id="Rect치ngulo_400907" data-name="Rect치ngulo 400907" transform="translate(0)" fill="none" stroke="#fff" stroke-width="3">
        <rect width="106.002" height="106.002" rx="53.001" stroke="none"/>
        <rect x="1.5" y="1.5" width="103.002" height="103.002" rx="51.501" fill="none"/>
      </g>
    </g>
    <g id="Enmascarar_grupo_1098721" data-name="Enmascarar grupo 1098721" transform="translate(0 -99.188)" clip-path="url(#clip-path)">
      <g id="g3915" transform="translate(764.5 1465.661)">
        <g id="g3917">
          <g id="g3919" clip-path="url(#clip-path-2)">
            <g id="g3925" transform="translate(16.987 -10.054)">
              <path id="path3927" d="M0,0A7.855,7.855,0,0,0-2.635-5.963,8.282,8.282,0,0,0-7.627-7.627a8.32,8.32,0,0,0-8.32,8.32,8.282,8.282,0,0,0,1.664,4.992A8.618,8.618,0,0,0-8.32,8.32,8.32,8.32,0,0,0,0,0" fill="#e6989e"/>
            </g>
            <g id="g3929" transform="translate(14.353 -16.017)">
              <path id="path3931" d="M0,0A8.283,8.283,0,0,1,1.664,4.992a8.32,8.32,0,0,1-8.32,8.32,8.282,8.282,0,0,1-4.992-1.664,8.308,8.308,0,0,0,6.656,3.328,8.32,8.32,0,0,0,8.32-8.32A8.307,8.307,0,0,0,0,0" fill="#e27f86"/>
            </g>
            <g id="g3933" transform="translate(69.267 -62.333)">
              <path id="path3935" d="M0,0C0-1.873-.027-3.355-2.635-5.963A8.283,8.283,0,0,0-7.627-7.627a8.32,8.32,0,0,0-8.32,8.32,8.282,8.282,0,0,0,1.664,4.992A7.52,7.52,0,0,0-8.32,8.32,8.32,8.32,0,0,0,0,0" fill="#9ec8fc"/>
            </g>
            <g id="g3937" transform="translate(66.632 -68.296)">
              <path id="path3939" d="M0,0A8.282,8.282,0,0,1,1.664,4.992a8.32,8.32,0,0,1-8.32,8.32,8.283,8.283,0,0,1-4.992-1.664,8.307,8.307,0,0,0,6.656,3.328,8.32,8.32,0,0,0,8.32-8.32A8.308,8.308,0,0,0,0,0" fill="#80b6fc"/>
            </g>
            <g id="g3941" transform="translate(30.393 -22.284)">
              <path id="path3943" d="M0,0,10.538-20.115l4.45,9.917L25.363-33.472,14.826-18.9l-4.45-9.917L-.162-8.7l-4.45-9.917L-15.149,7.041-4.212-9.387Z" fill="#fff3bf"/>
            </g>
            <g id="g3945" transform="translate(45.381 -34.84)">
              <path id="path3947" d="M0,0-4.041-9.005a.485.485,0,0,0-.873-.027L-14.988,10.2-18.7,1.924a.485.485,0,0,0-.859-.05L-30.137,19.6-19.6,5.028l4.45,9.917L-4.612-5.171l4.45,9.917L10.376-20.916Z" fill="#ffe07d"/>
            </g>
            <g id="g3949" transform="translate(15.342 -15.379)">
              <path id="path3951" d="M0,0,10.44-14.433l4.45,9.917,6.674-12.741m2.07-3.951,1.794-3.424,4.45,9.917L40.363-40.252m0-.056-10.487,14.5-4.45-9.917L14.89-15.61l-4.45-9.917L6.9-16.912M5.339-12.979,0-.1M43.7-46.261h5.49M-5.981,3.274v5.49M-8.726,6.019h5.49M50.816-39.272a8.314,8.314,0,0,0,3.8-6.988,8.32,8.32,0,0,0-8.32-8.32,8.32,8.32,0,0,0-8.32,8.32,8.32,8.32,0,0,0,8.32,8.32M-14.3,6.019A8.32,8.32,0,0,1-5.981-2.3a8.32,8.32,0,0,1,8.32,8.32,8.32,8.32,0,0,1-8.32,8.32A8.32,8.32,0,0,1-14.3,6.019Z" fill="none" stroke="#010101" stroke-linecap="round" stroke-linejoin="round" stroke-miterlimit="10" stroke-width="2.08"/>
            </g>
          </g>
        </g>
      </g>
    </g>
  </g>
</svg>
