<svg xmlns="http://www.w3.org/2000/svg" xmlns:xlink="http://www.w3.org/1999/xlink" width="124.002" height="124.002" viewBox="0 0 124.002 124.002">
  <defs>
    <filter id="Trazado_896985" x="0" y="0" width="124.002" height="124.002" filterUnits="userSpaceOnUse">
      <feOffset dy="3" input="SourceAlpha"/>
      <feGaussianBlur stdDeviation="3" result="blur"/>
      <feFlood flood-opacity="0.161"/>
      <feComposite operator="in" in2="blur"/>
      <feComposite in="SourceGraphic"/>
    </filter>
    <clipPath id="clip-path">
      <rect id="Rectángulo_408029" data-name="Rectángulo 408029" width="71" height="71" transform="translate(1186.28 1394.661)" fill="#fff" stroke="#707070" stroke-width="1"/>
    </clipPath>
  </defs>
  <g id="Grupo_1117914" data-name="Grupo 1117914" transform="translate(-1157.999 -1271.473)">
    <g id="Grupo_1115012" data-name="Grupo 1115012" transform="translate(1166.999 1277.473)">
      <g transform="matrix(1, 0, 0, 1, -9, -6)" filter="url(#Trazado_896985)">
        <g id="Trazado_896985-2" data-name="Trazado 896985" transform="translate(9 6)" fill="#edf3fb">
          <path d="M 53.00100708007812 104.5019454956055 C 46.04774856567383 104.5019454956055 39.30329132080078 103.1404800415039 32.95494842529297 100.4553604125977 C 26.82243537902832 97.86153411865234 21.31455039978027 94.14791870117188 16.58430671691895 89.41769409179688 C 11.85404968261719 84.68744659423828 8.140435218811035 79.17957305908203 5.546592712402344 73.04706573486328 C 2.861478567123413 66.69874572753906 1.500007033348083 59.95429229736328 1.500007033348083 53.00104904174805 C 1.500007033348083 46.04766082763672 2.861478567123413 39.30321884155273 5.546592712402344 32.95489120483398 C 8.140435218811035 26.8223762512207 11.85404968261719 21.31450462341309 16.58430671691895 16.58427619934082 C 21.31455039978027 11.85403347015381 26.82243537902832 8.140419006347656 32.95494842529297 5.546590805053711 C 39.30329132080078 2.86147665977478 46.04774856567383 1.500005125999451 53.00100708007812 1.500005125999451 C 59.95426559448242 1.500005125999451 66.69873809814453 2.86147665977478 73.04706573486328 5.546590805053711 C 79.17959594726562 8.140419006347656 84.68747711181641 11.85403347015381 89.417724609375 16.58427619934082 C 94.14797973632812 21.31450462341309 97.86159515380859 26.8223762512207 100.455436706543 32.95489120483398 C 103.1405487060547 39.30321884155273 104.5020217895508 46.04766082763672 104.5020217895508 53.00090408325195 C 104.5020217895508 59.95429229736328 103.1405487060547 66.69874572753906 100.455436706543 73.04706573486328 C 97.86159515380859 79.17957305908203 94.14797973632812 84.68744659423828 89.417724609375 89.41769409179688 C 84.68747711181641 94.14791870117188 79.17959594726562 97.86153411865234 73.04706573486328 100.4553604125977 C 66.69873809814453 103.1404800415039 59.95426559448242 104.5019454956055 53.00100708007812 104.5019454956055 Z" stroke="none"/>
          <path d="M 53.00100708007812 2.999992370605469 C 46.24959182739258 2.999992370605469 39.70172119140625 4.32159423828125 33.53927612304688 6.928077697753906 C 27.58554077148438 9.446296691894531 22.23792266845703 13.05195617675781 17.64494323730469 17.64492797851562 C 13.05197143554688 22.23789215087891 9.446304321289062 27.58551025390625 6.928092956542969 33.53923034667969 C 4.321586608886719 39.70164489746094 2.999992370605469 46.24951171875 2.999992370605469 53.00104141235352 C 2.999992370605469 59.75244140625 4.321586608886719 66.30030822753906 6.928092956542969 72.46272277832031 C 9.446304321289062 78.41644287109375 13.05197143554688 83.76406097412109 17.64494323730469 88.35702514648438 C 22.23792266845703 92.94997406005859 27.58554077148438 96.55564117431641 33.53927612304688 99.07386016845703 C 39.70172119140625 101.6803436279297 46.24959182739258 103.0019454956055 53.00100708007812 103.0019454956055 C 59.75242233276367 103.0019454956055 66.30029296875 101.6803436279297 72.46273803710938 99.07386016845703 C 78.41645812988281 96.55564117431641 83.76409149169922 92.94997406005859 88.3570556640625 88.35702514648438 C 92.95002746582031 83.76406097412109 96.55570983886719 78.41644287109375 99.07390594482422 72.46272277832031 C 101.6804046630859 66.30030822753906 103.0020065307617 59.75244140625 103.0020065307617 53.00091171264648 C 103.0020065307617 46.24951171875 101.6804046630859 39.70164489746094 99.07390594482422 33.53920745849609 C 96.55570983886719 27.58551025390625 92.95002746582031 22.23789215087891 88.3570556640625 17.64492797851562 C 83.76409149169922 13.05195617675781 78.41645812988281 9.446296691894531 72.46273803710938 6.928077697753906 C 66.30029296875 4.32159423828125 59.75242233276367 2.999992370605469 53.00100708007812 2.999992370605469 M 53.00100708007812 -7.62939453125e-06 C 82.27265930175781 -7.62939453125e-06 106.0020065307617 23.72930908203125 106.0020065307617 53.00091171264648 L 106.0020065307617 53.00104141235352 C 106.0020065307617 82.27264404296875 82.27265930175781 106.0019454956055 53.00100708007812 106.0019454956055 C 23.72935485839844 106.0019454956055 -7.62939453125e-06 82.27264404296875 -7.62939453125e-06 53.00104141235352 L -7.62939453125e-06 53.00091171264648 C -7.62939453125e-06 23.72930908203125 23.72935485839844 -7.62939453125e-06 53.00100708007812 -7.62939453125e-06 Z" stroke="none" fill="#fff"/>
        </g>
      </g>
      <g id="Rectángulo_400907" data-name="Rectángulo 400907" transform="translate(0)" fill="none" stroke="#fff" stroke-width="3">
        <rect width="106.002" height="106.002" rx="53.001" stroke="none"/>
        <rect x="1.5" y="1.5" width="103.002" height="103.002" rx="51.501" fill="none"/>
      </g>
    </g>
    <g id="Enmascarar_grupo_1098722" data-name="Enmascarar grupo 1098722" transform="translate(0 -99.188)" clip-path="url(#clip-path)">
      <g id="corriente-electrica_1_" data-name="corriente-electrica (1)" transform="translate(1186.28 1394.661)">
        <g id="Grupo_1115013" data-name="Grupo 1115013">
          <path id="Trazado_900835" data-name="Trazado 900835" d="M40.72,34.3c0-2.052,1.384-3.88,3.1-5.168a15.6,15.6,0,1,0-18.687,0c1.719,1.288,3.1,3.116,3.1,5.168Z" fill="#fe8" fill-rule="evenodd"/>
          <path id="Trazado_900836" data-name="Trazado 900836" d="M33.507,1.071a15.6,15.6,0,0,0-8.371,28.061c1.719,1.288,3.1,3.116,3.1,5.168h3.12c0-3.152-1.91-5.835-4.353-7.665A12.456,12.456,0,0,1,22,16.641C22,9.217,27.856,3.757,33.507,1.071Z" fill="#ffe000" fill-rule="evenodd"/>
          <rect id="Rectángulo_408030" data-name="Rectángulo 408030" width="12.48" height="8.32" transform="translate(28.24 34.3)" fill="#a1c5e4"/>
          <path id="Trazado_900837" data-name="Trazado 900837" d="M40.72,42.621H28.24l2.08,4.16h8.32Z" fill="#4796c6" fill-rule="evenodd"/>
          <rect id="Rectángulo_408031" data-name="Rectángulo 408031" width="24.961" height="12.48" transform="translate(20.94 57.479)" fill="#40a2ff"/>
          <path id="Trazado_900838" data-name="Trazado 900838" d="M5.2,57.33V53.17H1.04v4.16H5.2Z" fill="#fff" fill-rule="evenodd"/>
          <path id="Trazado_900839" data-name="Trazado 900839" d="M1.04,53.17H5.2V49.01H1.04Z" fill="#ff5678" fill-rule="evenodd"/>
          <path id="Trazado_900840" data-name="Trazado 900840" d="M45.9,60.6v6.24h4.16V60.6Z" fill="#a1c5e4" fill-rule="evenodd"/>
          <rect id="Rectángulo_408032" data-name="Rectángulo 408032" width="3.12" height="8.32" transform="translate(28.24 34.3)" fill="#4796c6"/>
          <rect id="Rectángulo_408033" data-name="Rectángulo 408033" width="3.12" height="12.48" transform="translate(20.94 57.479)" fill="#0069f8"/>
        </g>
        <g id="Grupo_1115014" data-name="Grupo 1115014">
          <path id="Trazado_900841" data-name="Trazado 900841" d="M38.62,69.96H20.94V57.479H45.9V69.96H40.7" fill="none" stroke="#000" stroke-miterlimit="22.926" stroke-width="2.08" fill-rule="evenodd"/>
          <path id="Trazado_900842" data-name="Trazado 900842" d="M45.9,60.6h4.16v6.24H45.9" fill="none" stroke="#000" stroke-miterlimit="22.926" stroke-width="2.08" fill-rule="evenodd"/>
          <line id="Línea_579" data-name="Línea 579" y1="6.24" transform="translate(39.66 60.599)" fill="none" stroke="#000" stroke-miterlimit="22.926" stroke-width="2.08"/>
          <line id="Línea_580" data-name="Línea 580" x1="6.24" transform="translate(36.54 63.72)" fill="none" stroke="#000" stroke-miterlimit="22.926" stroke-width="2.08"/>
          <line id="Línea_581" data-name="Línea 581" x1="6.24" transform="translate(24.06 63.72)" fill="none" stroke="#000" stroke-miterlimit="22.926" stroke-width="2.08"/>
          <path id="Trazado_900843" data-name="Trazado 900843" d="M43.84,42.621H5.2A2.086,2.086,0,0,0,3.12,44.7V49.01m0,8.32V61.64A2.086,2.086,0,0,0,5.2,63.72H20.94" fill="none" stroke="#000" stroke-miterlimit="22.926" stroke-width="2.08" fill-rule="evenodd"/>
          <path id="Trazado_900844" data-name="Trazado 900844" d="M50.061,63.72H67.88a2.086,2.086,0,0,0,2.08-2.08V53.021a2.087,2.087,0,0,0-2.08-2.08H36.56a2.086,2.086,0,0,1-2.08-2.08v-2.08" fill="none" stroke="#000" stroke-miterlimit="22.926" stroke-width="2.08" fill-rule="evenodd"/>
          <rect id="Rectángulo_408034" data-name="Rectángulo 408034" width="4.16" height="8.32" transform="translate(1.04 49.01)" fill="none" stroke="#000" stroke-miterlimit="22.926" stroke-width="2.08"/>
          <line id="Línea_582" data-name="Línea 582" x2="4.16" transform="translate(1.04 53.17)" fill="none" stroke="#000" stroke-miterlimit="22.926" stroke-width="2.08"/>
          <path id="Trazado_900845" data-name="Trazado 900845" d="M23.874,5.2a15.6,15.6,0,1,1,19.95,23.929c-1.719,1.288-3.1,3.116-3.1,5.168v8.32l-2.08,4.16H30.32l-2.08-4.16V34.3c0-2.052-1.384-3.88-3.1-5.168A15.6,15.6,0,0,1,22.4,6.768" fill="none" stroke="#000" stroke-miterlimit="22.926" stroke-width="2.08" fill-rule="evenodd"/>
          <line id="Línea_583" data-name="Línea 583" x2="18.721" transform="translate(25.12 34.3)" fill="none" stroke="#000" stroke-miterlimit="22.926" stroke-width="2.08"/>
          <line id="Línea_584" data-name="Línea 584" x2="18.721" transform="translate(25.12 38.461)" fill="none" stroke="#000" stroke-miterlimit="22.926" stroke-width="2.08"/>
          <path id="Trazado_900846" data-name="Trazado 900846" d="M39.68,20.78a5.2,5.2,0,0,1-10.4,0" fill="none" stroke="#000" stroke-miterlimit="22.926" stroke-width="2.08" fill-rule="evenodd"/>
          <line id="Línea_585" data-name="Línea 585" y2="8.32" transform="translate(34.48 25.98)" fill="none" stroke="#000" stroke-miterlimit="22.926" stroke-width="2.08"/>
          <path id="Trazado_900847" data-name="Trazado 900847" d="M37.6,7.28V5.2m4.16,4.16V7.28" fill="none" stroke="#000" stroke-miterlimit="22.926" stroke-width="2.08" fill-rule="evenodd"/>
          <path id="Trazado_900848" data-name="Trazado 900848" d="M11.374,10.449l4.018,1.077m42.193-1.077-4.018,1.077M15.393,21.755l-4.018,1.077m-.815-6.191h4.16m39.521,0H58.4m-4.833,5.114,4.018,1.077" fill="none" stroke="#000" stroke-miterlimit="22.926" stroke-width="2.08" fill-rule="evenodd"/>
        </g>
      </g>
    </g>
  </g>
</svg>
