<svg id="Grupo_1115003" data-name="Grupo 1115003" xmlns="http://www.w3.org/2000/svg" xmlns:xlink="http://www.w3.org/1999/xlink" width="106" height="62.667" viewBox="0 0 106 62.667">
  <defs>
    <clipPath id="clip-path">
      <rect id="Rectángulo_408014" data-name="Rectángulo 408014" width="106" height="62.667" fill="none"/>
    </clipPath>
    <clipPath id="clip-path-3">
      <rect id="Rectángulo_407974" data-name="Rectángulo 407974" width="0.726" height="2.395" fill="none"/>
    </clipPath>
    <clipPath id="clip-path-4">
      <rect id="Rectángulo_407975" data-name="Rectángulo 407975" width="1.018" height="1.253" fill="none"/>
    </clipPath>
    <clipPath id="clip-path-5">
      <rect id="Rectángulo_407976" data-name="Rectángulo 407976" width="0.607" height="0.459" fill="none"/>
    </clipPath>
    <clipPath id="clip-path-6">
      <rect id="Rectángulo_407977" data-name="Rectángulo 407977" width="1.669" height="1.729" fill="none"/>
    </clipPath>
    <clipPath id="clip-path-7">
      <rect id="Rectángulo_407978" data-name="Rectángulo 407978" width="12.987" height="1.388" fill="none"/>
    </clipPath>
    <clipPath id="clip-path-9">
      <rect id="Rectángulo_407980" data-name="Rectángulo 407980" width="1.999" height="4.402" fill="none"/>
    </clipPath>
    <clipPath id="clip-path-10">
      <rect id="Rectángulo_407981" data-name="Rectángulo 407981" width="3.816" height="4.582" fill="none"/>
    </clipPath>
    <clipPath id="clip-path-11">
      <rect id="Rectángulo_407983" data-name="Rectángulo 407983" width="8.163" height="1.013" fill="none"/>
    </clipPath>
    <clipPath id="clip-path-13">
      <rect id="Rectángulo_407984" data-name="Rectángulo 407984" width="8.894" height="1.168" fill="none"/>
    </clipPath>
    <clipPath id="clip-path-14">
      <rect id="Rectángulo_407985" data-name="Rectángulo 407985" width="18.231" height="21.654" fill="none"/>
    </clipPath>
    <clipPath id="clip-path-15">
      <rect id="Rectángulo_407986" data-name="Rectángulo 407986" width="11.794" height="5.783" fill="none"/>
    </clipPath>
    <clipPath id="clip-path-16">
      <rect id="Rectángulo_407987" data-name="Rectángulo 407987" width="2.279" height="3.412" fill="none"/>
    </clipPath>
    <clipPath id="clip-path-17">
      <rect id="Rectángulo_407988" data-name="Rectángulo 407988" width="15.017" height="8.018" fill="none"/>
    </clipPath>
    <clipPath id="clip-path-18">
      <rect id="Rectángulo_407991" data-name="Rectángulo 407991" width="36.514" height="11.867" fill="none"/>
    </clipPath>
    <clipPath id="clip-path-19">
      <rect id="Rectángulo_407990" data-name="Rectángulo 407990" width="36.514" height="5.934" fill="none"/>
    </clipPath>
    <clipPath id="clip-path-20">
      <rect id="Rectángulo_407992" data-name="Rectángulo 407992" width="9.678" height="11.867" fill="none"/>
    </clipPath>
    <clipPath id="clip-path-21">
      <rect id="Rectángulo_407995" data-name="Rectángulo 407995" width="18.747" height="1.711" fill="none"/>
    </clipPath>
    <clipPath id="clip-path-26">
      <rect id="Rectángulo_408003" data-name="Rectángulo 408003" width="10.497" height="29.381" fill="none"/>
    </clipPath>
    <clipPath id="clip-path-27">
      <rect id="Rectángulo_408004" data-name="Rectángulo 408004" width="10.301" height="30.565" fill="none"/>
    </clipPath>
    <clipPath id="clip-path-28">
      <rect id="Rectángulo_408005" data-name="Rectángulo 408005" width="2.164" height="1.225" fill="none"/>
    </clipPath>
    <clipPath id="clip-path-32">
      <rect id="Rectángulo_408009" data-name="Rectángulo 408009" width="2.165" height="1.225" fill="none"/>
    </clipPath>
    <clipPath id="clip-path-34">
      <rect id="Rectángulo_408011" data-name="Rectángulo 408011" width="1.819" height="4.393" fill="none"/>
    </clipPath>
    <clipPath id="clip-path-35">
      <rect id="Rectángulo_408012" data-name="Rectángulo 408012" width="1.82" height="4.393" fill="none"/>
    </clipPath>
  </defs>
  <g id="Grupo_1115002" data-name="Grupo 1115002" clip-path="url(#clip-path)">
    <path id="Trazado_900671" data-name="Trazado 900671" d="M300.693,197.469l-15.644-.885v-.868l15.644.868Z" transform="translate(-204.699 -140.547)" fill="#d6d6d6"/>
    <g id="Grupo_1115001" data-name="Grupo 1115001">
      <g id="Grupo_1115000" data-name="Grupo 1115000" clip-path="url(#clip-path)">
        <path id="Trazado_900672" data-name="Trazado 900672" d="M300.392,197.285h-.007l-15.644-.885a.118.118,0,0,1-.111-.118v-.868a.118.118,0,0,1,.037-.086.116.116,0,0,1,.087-.032l15.644.868a.119.119,0,0,1,.112.118v.885a.119.119,0,0,1-.118.118m-15.526-1.114,15.407.871v-.648l-15.407-.855Z" transform="translate(-204.398 -140.245)" fill="#5c2f10"/>
        <rect id="Rectángulo_407971" data-name="Rectángulo 407971" width="30.364" height="1.03" transform="translate(72.144 61.403)" fill="#3b3b3b"/>
        <path id="Trazado_900673" data-name="Trazado 900673" d="M286,218.678H255.637a.118.118,0,0,1-.118-.118v-1.03a.118.118,0,0,1,.118-.118H286a.118.118,0,0,1,.118.118v1.03a.118.118,0,0,1-.118.118m-30.246-.236h30.128v-.794H255.756Z" transform="translate(-183.493 -156.127)" fill="#5c2f10"/>
        <rect id="Rectángulo_407972" data-name="Rectángulo 407972" width="30.364" height="1.315" transform="translate(72.144 60.745)" fill="#969696"/>
        <path id="Trazado_900674" data-name="Trazado 900674" d="M286,216.63H255.637a.118.118,0,0,1-.118-.118V215.2a.118.118,0,0,1,.118-.118H286a.118.118,0,0,1,.118.118v1.315a.118.118,0,0,1-.118.118m-30.246-.236h30.128v-1.079H255.756Z" transform="translate(-183.493 -154.452)" fill="#5c2f10"/>
        <path id="Trazado_900675" data-name="Trazado 900675" d="M265.948,198.8v3.643h-7.5v.872l7.97.073a.472.472,0,0,0,.472-.472V198.8Z" transform="translate(-185.598 -142.759)" fill="#d6d6d6"/>
        <path id="Trazado_900676" data-name="Trazado 900676" d="M266.12,203.2h0l-7.97-.073a.118.118,0,0,1-.117-.118v-.872a.118.118,0,0,1,.118-.118h7.379V198.5a.118.118,0,0,1,.118-.118h.944a.118.118,0,0,1,.118.118v4.115a.591.591,0,0,1-.591.59m-7.851-.308,7.852.072a.354.354,0,0,0,.353-.354v-4h-.708v3.525a.118.118,0,0,1-.118.118h-7.379Z" transform="translate(-185.298 -142.458)" fill="#5c2f10"/>
        <rect id="Rectángulo_407973" data-name="Rectángulo 407973" width="8.619" height="1.735" transform="translate(93.072 59.853)" fill="#d6d6d6"/>
        <path id="Trazado_900677" data-name="Trazado 900677" d="M338.5,213.885H329.88a.118.118,0,0,1-.118-.118v-1.735a.118.118,0,0,1,.118-.118H338.5a.118.118,0,0,1,.118.118v1.735a.118.118,0,0,1-.118.118m-8.5-.236h8.383v-1.5H330Z" transform="translate(-236.808 -152.179)" fill="#5c2f10"/>
        <path id="Trazado_900678" data-name="Trazado 900678" d="M333.725,210.057l0-1.8-1.188-.107-1.1.079,0,1.855c0,.3.513.541,1.145.541.609,0,1.106-.225,1.141-.509h0v-.006a.2.2,0,0,0,0-.026c0-.009,0-.018,0-.027" transform="translate(-238.012 -149.476)" fill="#c7c7c7"/>
        <path id="Trazado_900679" data-name="Trazado 900679" d="M332.283,210.441c-.72,0-1.263-.283-1.263-.659l0-1.854a.118.118,0,0,1,.11-.118l1.1-.079h.019l1.188.107a.119.119,0,0,1,.108.118l0,1.8a.1.1,0,0,1,0,.026.193.193,0,0,1,0,.034.12.12,0,0,1,0,.032c-.06.345-.583.593-1.255.593m-1.025-2.4,0,1.745c0,.2.439.423,1.027.423s1-.209,1.024-.405v-.017s0-.014,0-.016l0-1.7-1.07-.1Z" transform="translate(-237.711 -149.175)" fill="#5c2f10"/>
        <g id="Grupo_1114903" data-name="Grupo 1114903" transform="translate(94.99 58.715)" style="mix-blend-mode: multiply;isolation: isolate">
          <g id="Grupo_1114902" data-name="Grupo 1114902">
            <g id="Grupo_1114901" data-name="Grupo 1114901" clip-path="url(#clip-path-3)">
              <path id="Trazado_900680" data-name="Trazado 900680" d="M337.712,208.361l-.726-.065v2.4c.4-.076.7-.257.722-.472h0v-.006a.193.193,0,0,0,0-.026c0-.009,0-.017,0-.026Z" transform="translate(-336.986 -208.296)" fill="#c7c7c7"/>
            </g>
          </g>
        </g>
        <path id="Trazado_900681" data-name="Trazado 900681" d="M333.727,206.605c0,.3-.512.541-1.144.541s-1.145-.242-1.145-.541.513-.754,1.145-.754,1.144.455,1.144.754" transform="translate(-238.012 -147.825)" fill="#c7c7c7"/>
        <path id="Trazado_900682" data-name="Trazado 900682" d="M332.283,206.964c-.72,0-1.263-.283-1.263-.659s.595-.872,1.263-.872,1.263.488,1.263.872-.543.659-1.263.659m0-1.3c-.583,0-1.027.424-1.027.636s.439.423,1.027.423,1.027-.223,1.027-.423-.444-.636-1.027-.636" transform="translate(-237.711 -147.525)" fill="#5c2f10"/>
        <g id="Grupo_1114906" data-name="Grupo 1114906" transform="translate(94.698 58.032)" style="mix-blend-mode: multiply;isolation: isolate">
          <g id="Grupo_1114905" data-name="Grupo 1114905">
            <g id="Grupo_1114904" data-name="Grupo 1114904" clip-path="url(#clip-path-4)">
              <path id="Trazado_900683" data-name="Trazado 900683" d="M335.95,205.874a.172.172,0,0,1,.014.015,1.639,1.639,0,0,1,.246.9c.009.111.015.224.02.337.432-.078.739-.274.739-.505,0-.278-.445-.693-1.018-.748" transform="translate(-335.95 -205.874)" fill="#c7c7c7"/>
            </g>
          </g>
        </g>
        <g id="Grupo_1114909" data-name="Grupo 1114909" transform="translate(93.797 58.485)" style="mix-blend-mode: screen;isolation: isolate">
          <g id="Grupo_1114908" data-name="Grupo 1114908">
            <g id="Grupo_1114907" data-name="Grupo 1114907" clip-path="url(#clip-path-5)">
              <path id="Trazado_900684" data-name="Trazado 900684" d="M333.348,207.57c.049.1-.041.244-.2.322s-.33.06-.379-.039.042-.244.2-.322.33-.06.378.04" transform="translate(-332.754 -207.482)" fill="#c7c7c7"/>
            </g>
          </g>
        </g>
        <path id="Trazado_900685" data-name="Trazado 900685" d="M332.608,202.917v.672a.157.157,0,0,0,0,.017c0,.006,0,.012,0,.019v.006h0a.959.959,0,0,0,.94.66.94.94,0,0,0,.942-.685v-.755a9.133,9.133,0,0,1-1.882.066" transform="translate(-238.851 -145.671)" fill="#c7c7c7"/>
        <path id="Trazado_900686" data-name="Trazado 900686" d="M333.248,204.108a1.08,1.08,0,0,1-1.057-.755.113.113,0,0,1,0-.024s0-.02,0-.025a.162.162,0,0,1,0-.026v-.662a.117.117,0,0,1,.135-.117,3.166,3.166,0,0,0,.48.033c.276,0,.561-.028.837-.054.177-.017.36-.035.541-.046a.117.117,0,0,1,.088.032.119.119,0,0,1,.037.086v.755c0,.354-.5.8-1.06.8m-.823-.792v0a.86.86,0,0,0,.823.553.843.843,0,0,0,.824-.567v-.629c-.136.01-.273.023-.407.036-.281.028-.573.056-.86.056a3.643,3.643,0,0,1-.379-.019v.538s0,.014,0,.02a.029.029,0,0,1,0,.007h0" transform="translate(-238.549 -145.37)" fill="#5c2f10"/>
        <path id="Trazado_900687" data-name="Trazado 900687" d="M265.948,197.971v4.72h-7.5v.945h7.97a.472.472,0,0,0,.472-.472V198.9l14.7.9v-.868Z" transform="translate(-185.598 -142.167)" fill="#969696"/>
        <path id="Trazado_900688" data-name="Trazado 900688" d="M266.12,203.452h-7.969a.118.118,0,0,1-.118-.118v-.945a.118.118,0,0,1,.118-.118h7.379v-4.6a.116.116,0,0,1,.037-.086.115.115,0,0,1,.087-.032l15.644.963a.118.118,0,0,1,.111.118v.868a.119.119,0,0,1-.126.118l-14.574-.9v4.14a.591.591,0,0,1-.591.59m-7.851-.236h7.851a.354.354,0,0,0,.354-.354V198.6a.119.119,0,0,1,.037-.086.118.118,0,0,1,.088-.032l14.574.9v-.632l-15.407-.948v4.594a.118.118,0,0,1-.118.118h-7.379Z" transform="translate(-185.298 -141.866)" fill="#5c2f10"/>
        <path id="Trazado_900689" data-name="Trazado 900689" d="M333.244,195.616h0l-.306-1.6-.458-.036-1.886-.146-.458-.036-.549,1.529a17.935,17.935,0,0,0,3.657.284" transform="translate(-236.682 -139.173)" fill="#333"/>
        <path id="Trazado_900690" data-name="Trazado 900690" d="M332.639,195.462h0c-.345,0-.92-.028-1.54-.077-1.946-.151-1.939-.244-1.93-.362a.129.129,0,0,1,.007-.031l.549-1.529a.118.118,0,0,1,.12-.078l2.8.217a.119.119,0,0,1,.107.1l.306,1.6a.122.122,0,0,1,0,.032c-.011.136-.165.137-.419.137m-3.2-.5c.214.044.79.119,1.68.188.614.047,1.182.076,1.522.076.075,0,.129,0,.167,0l-.267-1.392-2.622-.2Z" transform="translate(-236.379 -138.873)" fill="#5c2f10"/>
        <g id="Grupo_1114912" data-name="Grupo 1114912" transform="translate(94.892 54.742)" style="mix-blend-mode: multiply;isolation: isolate">
          <g id="Grupo_1114911" data-name="Grupo 1114911">
            <g id="Grupo_1114910" data-name="Grupo 1114910" clip-path="url(#clip-path-6)">
              <path id="Trazado_900691" data-name="Trazado 900691" d="M338,194.306l-1.363-.106a14.452,14.452,0,0,1,.031,1.668,7.735,7.735,0,0,0,1.639.034Z" transform="translate(-336.639 -194.2)" fill="#333"/>
            </g>
          </g>
        </g>
        <path id="Trazado_900692" data-name="Trazado 900692" d="M334.35,193.933a10.429,10.429,0,0,1-2.786-.216,10.424,10.424,0,0,1,2.786.216" transform="translate(-238.102 -139.086)" fill="#696969"/>
        <path id="Trazado_900693" data-name="Trazado 900693" d="M333.7,193.785c-.269,0-.657-.018-1.064-.05-.375-.029-.726-.066-.99-.1-.374-.055-.514-.088-.5-.224s.166-.144.462-.144c.269,0,.657.018,1.064.05.374.029.726.067.991.1.374.054.514.088.5.224s-.166.144-.463.144" transform="translate(-237.801 -138.785)" fill="#5c2f10"/>
        <path id="Trazado_900694" data-name="Trazado 900694" d="M276.463,106.889v3.721c0,.522,2.907.945,6.493.945s6.494-.423,6.494-.945v-3.721Z" transform="translate(-198.533 -76.759)" fill="#737373"/>
        <path id="Trazado_900695" data-name="Trazado 900695" d="M282.655,111.373c-2.658,0-6.611-.283-6.611-1.063v-3.721a.118.118,0,0,1,.118-.118h12.987a.118.118,0,0,1,.118.118v3.721c0,.78-3.954,1.063-6.612,1.063m-6.375-4.666v3.6c0,.288,2.19.826,6.375.826s6.376-.538,6.376-.826v-3.6Z" transform="translate(-198.232 -76.459)" fill="#5c2f10"/>
        <g id="Grupo_1114915" data-name="Grupo 1114915" transform="translate(77.93 32.516)" style="mix-blend-mode: screen;isolation: isolate">
          <g id="Grupo_1114914" data-name="Grupo 1114914">
            <g id="Grupo_1114913" data-name="Grupo 1114913" clip-path="url(#clip-path-7)">
              <path id="Trazado_900696" data-name="Trazado 900696" d="M276.463,115.8c0,.522,2.907.945,6.493.945s6.494-.423,6.494-.945v-.443H276.463Z" transform="translate(-276.463 -115.353)" fill="#737373"/>
            </g>
          </g>
        </g>
        <path id="Trazado_900697" data-name="Trazado 900697" d="M289.451,112.946c0,.522-2.907.945-6.494.945s-6.493-.423-6.493-.945,2.906-.945,6.493-.945,6.494.423,6.494.945" transform="translate(-198.534 -80.43)" fill="#474747"/>
        <path id="Trazado_900698" data-name="Trazado 900698" d="M282.656,113.709c-2.658,0-6.612-.283-6.612-1.063s3.953-1.063,6.612-1.063,6.612.283,6.612,1.063-3.954,1.063-6.612,1.063m0-1.89c-4.186,0-6.375.538-6.375.827s2.189.827,6.375.827,6.376-.538,6.376-.827-2.19-.827-6.376-.827" transform="translate(-198.232 -80.13)" fill="#5c2f10"/>
        <path id="Trazado_900699" data-name="Trazado 900699" d="M258.569,107.969c-1.619,0-2.932.46-2.932,1.028,0,.522,1.107.952,2.543,1.019l0,.009h5.943v-2.056Z" transform="translate(-183.578 -77.535)" fill="#c38f4a"/>
        <path id="Trazado_900700" data-name="Trazado 900700" d="M263.815,109.843h-5.943a.112.112,0,0,1-.051-.012c-1.79-.093-2.606-.651-2.606-1.134,0-.556,1.069-1.146,3.051-1.146h5.549a.118.118,0,0,1,.118.118v2.056a.118.118,0,0,1-.118.118m-5.892-.236H263.7v-1.82h-5.431c-1.658,0-2.814.479-2.814.91,0,.379.929.832,2.43.9a.122.122,0,0,1,.041.009" transform="translate(-183.275 -77.234)" fill="#5c2f10"/>
        <path id="Trazado_900701" data-name="Trazado 900701" d="M258.569,106.87c-1.619,0-2.932.46-2.932,1.028,0,.521,1.107.952,2.543,1.019l0,.009h5.943V106.87Z" transform="translate(-183.578 -76.745)" fill="#cbc37c"/>
        <path id="Trazado_900702" data-name="Trazado 900702" d="M263.815,108.744h-5.943a.115.115,0,0,1-.051-.012c-1.79-.093-2.606-.651-2.606-1.134,0-.556,1.069-1.146,3.051-1.146h5.549a.118.118,0,0,1,.118.118v2.056a.118.118,0,0,1-.118.118m-5.892-.236H263.7v-1.82h-5.431c-1.658,0-2.814.48-2.814.91,0,.379.929.831,2.43.9a.122.122,0,0,1,.041.009" transform="translate(-183.275 -76.445)" fill="#5c2f10"/>
        <path id="Trazado_900703" data-name="Trazado 900703" d="M318.824,108.017c1.619,0,2.932.46,2.932,1.028,0,.522-1.108.952-2.543,1.019l0,.009h-5.943v-2.056Z" transform="translate(-224.968 -77.569)" fill="#c38f4a"/>
        <path id="Trazado_900704" data-name="Trazado 900704" d="M318.92,109.891h-5.945a.118.118,0,0,1-.118-.118v-2.056a.118.118,0,0,1,.118-.118h5.549c1.981,0,3.05.59,3.05,1.146,0,.483-.815,1.041-2.6,1.134a.12.12,0,0,1-.052.012m-5.827-.236h5.774a.115.115,0,0,1,.04-.009c1.5-.07,2.431-.522,2.431-.9,0-.43-1.156-.91-2.814-.91h-5.431Z" transform="translate(-224.668 -77.269)" fill="#5c2f10"/>
        <path id="Trazado_900705" data-name="Trazado 900705" d="M318.824,106.917c1.619,0,2.932.46,2.932,1.028,0,.521-1.108.952-2.543,1.019l0,.009h-5.943v-2.056Z" transform="translate(-224.968 -76.779)" fill="#cbc37c"/>
        <path id="Trazado_900706" data-name="Trazado 900706" d="M318.92,108.791h-5.945a.118.118,0,0,1-.118-.118v-2.056a.118.118,0,0,1,.118-.118h5.549c1.981,0,3.05.591,3.05,1.146,0,.483-.815,1.04-2.6,1.134a.12.12,0,0,1-.052.012m-5.827-.236h5.774a.115.115,0,0,1,.04-.009c1.5-.07,2.431-.522,2.431-.9,0-.43-1.156-.91-2.814-.91h-5.431Z" transform="translate(-224.668 -76.479)" fill="#5c2f10"/>
        <path id="Trazado_900707" data-name="Trazado 900707" d="M275.877,101.7v3.721c0,.522,2.907.945,6.494.945s6.493-.423,6.493-.945V101.7Z" transform="translate(-198.112 -73.034)" fill="#737373"/>
        <path id="Trazado_900708" data-name="Trazado 900708" d="M282.07,106.186c-2.658,0-6.612-.283-6.612-1.063V101.4a.118.118,0,0,1,.118-.118h12.987a.117.117,0,0,1,.118.118v3.721c0,.78-3.953,1.063-6.611,1.063m-6.376-4.666v3.6c0,.289,2.19.827,6.376.827s6.375-.538,6.375-.827v-3.6Z" transform="translate(-197.811 -72.734)" fill="#5c2f10"/>
        <g id="Grupo_1114918" data-name="Grupo 1114918" transform="translate(77.765 28.668)" style="mix-blend-mode: screen;isolation: isolate">
          <g id="Grupo_1114917" data-name="Grupo 1114917">
            <g id="Grupo_1114916" data-name="Grupo 1114916" clip-path="url(#clip-path-7)">
              <path id="Trazado_900709" data-name="Trazado 900709" d="M275.877,102.145c0,.522,2.907.945,6.494.945s6.493-.423,6.493-.945V101.7H275.877Z" transform="translate(-275.877 -101.702)" fill="#737373"/>
            </g>
          </g>
        </g>
        <g id="Grupo_1114921" data-name="Grupo 1114921" transform="translate(77.765 28.668)" style="mix-blend-mode: multiply;isolation: isolate">
          <g id="Grupo_1114920" data-name="Grupo 1114920">
            <g id="Grupo_1114919" data-name="Grupo 1114919" clip-path="url(#clip-path-9)">
              <path id="Trazado_900710" data-name="Trazado 900710" d="M277.876,101.7h-2v3.721c0,.268.768.51,2,.682Z" transform="translate(-275.877 -101.702)" fill="#737373"/>
            </g>
          </g>
        </g>
        <g id="Grupo_1114924" data-name="Grupo 1114924" transform="translate(86.936 28.668)" style="mix-blend-mode: multiply;isolation: isolate">
          <g id="Grupo_1114923" data-name="Grupo 1114923">
            <g id="Grupo_1114922" data-name="Grupo 1114922" clip-path="url(#clip-path-10)">
              <path id="Trazado_900711" data-name="Trazado 900711" d="M308.414,101.7v4.582c2.25-.149,3.816-.478,3.816-.861V101.7Z" transform="translate(-308.414 -101.702)" fill="#737373"/>
            </g>
          </g>
        </g>
        <path id="Trazado_900712" data-name="Trazado 900712" d="M288.865,99.3c0,.522-2.907.945-6.493.945s-6.494-.423-6.494-.945,2.907-.945,6.494-.945,6.493.423,6.493.945" transform="translate(-198.113 -70.628)" fill="#474747"/>
        <path id="Trazado_900713" data-name="Trazado 900713" d="M282.07,100.058c-2.658,0-6.612-.283-6.612-1.063s3.954-1.063,6.612-1.063,6.611.283,6.611,1.063-3.953,1.063-6.611,1.063m0-1.89c-4.187,0-6.376.538-6.376.827s2.189.827,6.376.827,6.375-.538,6.375-.827-2.189-.827-6.375-.827" transform="translate(-197.811 -70.327)" fill="#5c2f10"/>
        <path id="Trazado_900714" data-name="Trazado 900714" d="M284.518,26.85a6.217,6.217,0,0,0-.14-1.36c-.738-3.827-4.47-6.741-8.974-6.741s-8.236,2.915-8.974,6.741a6.2,6.2,0,0,0-.14,1.36c0,.008,0,.015,0,.023s0,.008,0,.013c0,.2.015.392.033.588a7.335,7.335,0,0,0,.227,1.3c.636,2.525,2.276,4.841,3.06,6.242a13.558,13.558,0,0,1,1.513,4.861.028.028,0,0,0,0,.012c0,.284,1.917.516,4.282.516s4.283-.231,4.283-.516h0a13.565,13.565,0,0,1,1.513-4.873c.783-1.4,2.423-3.717,3.059-6.241a7.287,7.287,0,0,0,.227-1.3c.018-.2.032-.392.033-.588,0,0,0-.008,0-.013s0-.016,0-.023" transform="translate(-191.227 -13.463)" fill="#faec8d"/>
        <path id="Trazado_900715" data-name="Trazado 900715" d="M275.1,40.22a26.809,26.809,0,0,1-3.042-.152c-1.194-.144-1.358-.316-1.358-.482,0-.007,0-.014,0-.02a13.491,13.491,0,0,0-1.5-4.795c-.164-.294-.372-.637-.591-1a20.057,20.057,0,0,1-2.48-5.271,7.409,7.409,0,0,1-.229-1.317c-.021-.222-.032-.417-.034-.6a.068.068,0,0,1,0-.014s0-.019,0-.022a6.443,6.443,0,0,1,.143-1.386c.764-3.959,4.587-6.835,9.09-6.835s8.326,2.875,9.09,6.837a6.322,6.322,0,0,1,.142,1.383.161.161,0,0,1,0,.023s0,.014,0,.018c0,.176-.013.372-.034.594a7.414,7.414,0,0,1-.23,1.318,20.063,20.063,0,0,1-2.481,5.271c-.218.362-.426.7-.59,1a13.571,13.571,0,0,0-1.5,4.825.087.087,0,0,1,0,.024c-.025.155-.244.314-1.355.448a26.817,26.817,0,0,1-3.042.152m-4.162-.648a12.537,12.537,0,0,0,4.162.412,12.286,12.286,0,0,0,4.166-.416.083.083,0,0,1,0-.016,13.8,13.8,0,0,1,1.526-4.9c.166-.3.374-.64.594-1a19.889,19.889,0,0,0,2.453-5.208,7.256,7.256,0,0,0,.224-1.28c.02-.217.031-.406.032-.58a.15.15,0,0,1,0-.016.087.087,0,0,1,0-.019,6.115,6.115,0,0,0-.138-1.335c-.743-3.854-4.468-6.649-8.858-6.649s-8.116,2.8-8.858,6.646a6.148,6.148,0,0,0-.139,1.337s0,.019,0,.023a.112.112,0,0,1,0,.014c0,.172.012.361.033.577a7.194,7.194,0,0,0,.223,1.279,19.886,19.886,0,0,0,2.453,5.209c.22.364.429.709.6,1.006a13.757,13.757,0,0,1,1.527,4.908s0,.006,0,.008" transform="translate(-190.927 -13.162)" fill="#5c2f10"/>
        <path id="Trazado_900716" data-name="Trazado 900716" d="M291.227,98.527a.025.025,0,0,1,0,.007c0,.273-1.835.494-4.1.494s-4.1-.221-4.1-.494a.067.067,0,0,1,0-.017.692.692,0,0,0,0,1.3,2.774,2.774,0,0,0,.361.2,18.009,18.009,0,0,0,3.739.291,18.373,18.373,0,0,0,3.707-.283,2.682,2.682,0,0,0,.393-.217.686.686,0,0,0,0-1.285" transform="translate(-202.919 -70.747)" fill="#adadad"/>
        <path id="Trazado_900717" data-name="Trazado 900717" d="M286.828,100.129a18.257,18.257,0,0,1-3.769-.3l-.02-.007a2.763,2.763,0,0,1-.377-.209.805.805,0,0,1,0-1.5.117.117,0,0,1,.133,0,.121.121,0,0,1,.051.1,12.166,12.166,0,0,0,3.978.391,11.994,11.994,0,0,0,3.982-.394.118.118,0,0,1,.183-.086.8.8,0,0,1,0,1.48,2.844,2.844,0,0,1-.41.227l-.02.007a18.436,18.436,0,0,1-3.736.287m-3.7-.521a18.2,18.2,0,0,0,3.7.285,18.637,18.637,0,0,0,3.667-.277,2.632,2.632,0,0,0,.366-.2.761.761,0,0,0,.393-.545.663.663,0,0,0-.294-.472,2.8,2.8,0,0,1-1.219.3,29.193,29.193,0,0,1-5.826,0,2.725,2.725,0,0,1-1.225-.307.669.669,0,0,0-.3.477c0,.232.22.429.405.553a2.627,2.627,0,0,0,.336.187" transform="translate(-202.618 -70.446)" fill="#5c2f10"/>
        <g id="Grupo_1114930" data-name="Grupo 1114930" transform="translate(80.177 27.78)" style="mix-blend-mode: multiply;isolation: isolate">
          <g id="Grupo_1114929" data-name="Grupo 1114929">
            <g id="Grupo_1114928" data-name="Grupo 1114928" clip-path="url(#clip-path-11)">
              <g id="Grupo_1114927" data-name="Grupo 1114927" opacity="0.5" style="mix-blend-mode: multiply;isolation: isolate">
                <g id="Grupo_1114926" data-name="Grupo 1114926">
                  <g id="Grupo_1114925" data-name="Grupo 1114925" clip-path="url(#clip-path-11)">
                    <path id="Trazado_900718" data-name="Trazado 900718" d="M288.107,99.526c.779.022,4.543.292,4.488-.927,0-.008,0-.013,0-.021s-.02-.017-.032-.025a.027.027,0,0,1,0,.007c0,.273-1.835.494-4.1.494a12.619,12.619,0,0,1-4.032-.406c.25.921,2.931.857,3.672.878" transform="translate(-284.435 -98.553)" fill="#adadad"/>
                  </g>
                </g>
              </g>
            </g>
          </g>
        </g>
        <path id="Trazado_900719" data-name="Trazado 900719" d="M290.77,93.687v.007c0,.284-1.917.516-4.282.516s-4.283-.231-4.283-.516a.046.046,0,0,1,0-.018.723.723,0,0,0,0,1.362,2.914,2.914,0,0,0,.378.209,18.806,18.806,0,0,0,3.9.3,19.256,19.256,0,0,0,3.872-.3,2.862,2.862,0,0,0,.41-.227.717.717,0,0,0,0-1.342" transform="translate(-202.314 -67.27)" fill="#adadad"/>
        <path id="Trazado_900720" data-name="Trazado 900720" d="M286.188,95.369a19.059,19.059,0,0,1-3.935-.308l-.019-.007a2.952,2.952,0,0,1-.393-.218.836.836,0,0,1,0-1.558.117.117,0,0,1,.183.1,12.6,12.6,0,0,0,4.161.411,12.4,12.4,0,0,0,4.164-.414.118.118,0,0,1,.184-.088.83.83,0,0,1,0,1.537,2.908,2.908,0,0,1-.427.237l-.02.007a19.279,19.279,0,0,1-3.9.3m-3.864-.534a18.98,18.98,0,0,0,3.864.3,19.514,19.514,0,0,0,3.832-.289,2.735,2.735,0,0,0,.383-.213.8.8,0,0,0,.414-.574.7.7,0,0,0-.312-.5,2.889,2.889,0,0,1-1.274.317,30.537,30.537,0,0,1-6.085,0,2.8,2.8,0,0,1-1.28-.322.706.706,0,0,0-.32.5c0,.244.232.452.426.582a2.692,2.692,0,0,0,.352.2" transform="translate(-202.013 -66.97)" fill="#5c2f10"/>
        <g id="Grupo_1114933" data-name="Grupo 1114933" transform="translate(80.006 26.416)" style="mix-blend-mode: multiply;isolation: isolate">
          <g id="Grupo_1114932" data-name="Grupo 1114932">
            <g id="Grupo_1114931" data-name="Grupo 1114931" clip-path="url(#clip-path-13)">
              <path id="Trazado_900721" data-name="Trazado 900721" d="M286.562,94.83c1.746.086,4.3.156,5.911-.578a.275.275,0,0,1,.25.015.983.983,0,0,0-.444-.552v.007c0,.284-1.917.516-4.282.516a14.3,14.3,0,0,1-4.168-.4c.106.9,2.142.964,2.733.993" transform="translate(-283.829 -93.714)" fill="#adadad"/>
            </g>
          </g>
        </g>
        <path id="Trazado_900722" data-name="Trazado 900722" d="M290.93,47.25a.389.389,0,0,0-.054-.151.153.153,0,0,0-.106-.07.165.165,0,0,0-.116.034.463.463,0,0,0-.1.117,1.094,1.094,0,0,0-.068.12,2.459,2.459,0,0,0-.1.243,9.645,9.645,0,0,0-.426,1.96c0,.021-.007.041-.01.062a.28.28,0,0,1-.11-.077,1.233,1.233,0,0,1-.216-.471c-.094-.35-.184-.706-.3-1.056a3.235,3.235,0,0,0-.207-.519.586.586,0,0,0-.187-.224.193.193,0,0,0-.161-.019.329.329,0,0,0-.127.087,1.779,1.779,0,0,0-.281.492c-.075.171-.147.343-.218.515s-.143.344-.224.511a1.4,1.4,0,0,1-.3.452.17.17,0,0,1-.211.025.62.62,0,0,1-.178-.189,4.1,4.1,0,0,1-.256-.492c-.156-.341-.286-.692-.439-1.04-.039-.087-.079-.173-.128-.258a.905.905,0,0,0-.085-.126.315.315,0,0,0-.139-.107.182.182,0,0,0-.111,0,.244.244,0,0,0-.085.051.529.529,0,0,0-.1.128,2.515,2.515,0,0,0-.124.263c-.15.346-.288.695-.458,1.022a1.571,1.571,0,0,1-.3.432.207.207,0,0,1-.083.047.079.079,0,0,1-.065-.015.473.473,0,0,1-.132-.186c-.153-.335-.286-.683-.445-1.023a2.163,2.163,0,0,0-.3-.5.426.426,0,0,0-.146-.11.242.242,0,0,0-.119-.017.235.235,0,0,0-.111.045.614.614,0,0,0-.183.275c-.072.183-.119.358-.169.535s-.1.351-.149.523-.108.341-.174.5a1.5,1.5,0,0,1-.248.43.391.391,0,0,1-.079.068c-.005-.017-.008-.035-.014-.052-.085-.313-.177-.631-.289-.948-.057-.159-.118-.318-.191-.475-.035-.076-.078-.163-.12-.233a1.576,1.576,0,0,0-.153-.228.6.6,0,0,0-.114-.11.287.287,0,0,0-.094-.047.207.207,0,0,0-.149.014.243.243,0,0,0-.092.091.393.393,0,0,0-.035.086.712.712,0,0,0-.026.151,2.044,2.044,0,0,0,.05.548,2.693,2.693,0,0,0,.438,1,1.424,1.424,0,0,0,.415.4.537.537,0,0,0,.2.06c.14.534.262,1.064.377,1.577.133.593.255,1.168.371,1.719s.225,1.081.33,1.584q.072.379.142.738c.048.239.095.471.129.7.075.451.15.872.2,1.266.028.2.055.384.081.564s.044.353.064.516c.083.653.13,1.168.161,1.519s.039.54.039.54h.024s0-.189-.023-.541-.048-.869-.111-1.526c-.016-.164-.032-.337-.049-.518s-.044-.37-.068-.567c-.043-.395-.108-.82-.174-1.276-.03-.228-.072-.461-.113-.7s-.086-.487-.13-.741q-.148-.758-.308-1.592c-.2-1.027-.419-2.138-.715-3.3a.619.619,0,0,0,.19-.134,1.7,1.7,0,0,0,.289-.5c.069-.173.125-.348.178-.524.1-.349.184-.714.3-1.041a.461.461,0,0,1,.109-.185c.018-.01.012-.01.031-.005a.244.244,0,0,1,.072.058,2.078,2.078,0,0,1,.269.447c.159.329.3.675.459,1.016a.636.636,0,0,0,.2.258.26.26,0,0,0,.2.038.376.376,0,0,0,.16-.087,1.7,1.7,0,0,0,.332-.49c.169-.342.3-.7.442-1.042a2.354,2.354,0,0,1,.111-.249.4.4,0,0,1,.069-.1c.027-.025.042-.029.062-.024.049.015.111.1.155.171s.088.16.128.244c.156.339.293.691.457,1.032a3.994,3.994,0,0,0,.272.5.7.7,0,0,0,.211.212.252.252,0,0,0,.162.034.3.3,0,0,0,.147-.069.9.9,0,0,0,.183-.23c.049-.082.091-.167.131-.252.08-.171.151-.344.222-.517s.14-.345.214-.515a1.729,1.729,0,0,1,.265-.473c.058-.064.137-.1.2-.057a.52.52,0,0,1,.16.2,3.191,3.191,0,0,1,.2.507c.108.349.195.7.286,1.055a1.322,1.322,0,0,0,.23.509.374.374,0,0,0,.163.115c-.085.58-.191,1.146-.286,1.694l-.309,1.733c-.405,2.22-.743,4.071-.98,5.366s-.36,2.038-.36,2.038l.022,0,.115-.529c.074-.345.182-.851.318-1.5s.293-1.429.477-2.327.38-1.915.592-3.024c.2-1.074.431-2.231.607-3.471a.541.541,0,0,0,.177-.108,1.541,1.541,0,0,0,.306-.461,3.325,3.325,0,0,0,.183-.509,4.446,4.446,0,0,0,.159-1.052,1.391,1.391,0,0,0-.018-.273m-8.923,1.945a2.444,2.444,0,0,1-.39-.912,1.814,1.814,0,0,1-.047-.479.509.509,0,0,1,.017-.1.041.041,0,0,1,.006-.015.375.375,0,0,1,.066.065,2.038,2.038,0,0,1,.241.409c.069.148.128.3.184.454.11.308.2.62.286.929a.259.259,0,0,1-.025-.01,1.214,1.214,0,0,1-.339-.339m8.658-.653a3.233,3.233,0,0,1-.165.494,1.45,1.45,0,0,1-.272.434.517.517,0,0,1-.088.07s0-.008,0-.012c.04-.319.089-.641.151-.965a6.837,6.837,0,0,1,.242-.963c.028-.078.058-.155.092-.228a.6.6,0,0,1,.12-.18s0,0,0,0a.26.26,0,0,1,.031.087,1.445,1.445,0,0,1,.02.244,4.5,4.5,0,0,1-.134,1.02" transform="translate(-202.028 -33.772)" fill="#adadad"/>
        <g id="Grupo_1114936" data-name="Grupo 1114936" transform="translate(75.062 5.285)" style="mix-blend-mode: multiply;isolation: isolate">
          <g id="Grupo_1114935" data-name="Grupo 1114935">
            <g id="Grupo_1114934" data-name="Grupo 1114934" clip-path="url(#clip-path-14)">
              <path id="Trazado_900723" data-name="Trazado 900723" d="M284.519,26.85a6.253,6.253,0,0,0-.14-1.36c-.738-3.827-4.47-6.741-8.974-6.741s-8.236,2.915-8.974,6.741a6.2,6.2,0,0,0-.14,1.36c0,.008,0,.015,0,.023s0,.009,0,.013c0,.2.015.392.033.588a7.309,7.309,0,0,0,.227,1.3c.636,2.525,2.276,4.841,3.06,6.242a13.56,13.56,0,0,1,1.512,4.861.028.028,0,0,0,0,.012c0,.284,1.917.516,4.283.516s4.282-.231,4.282-.516h0a13.567,13.567,0,0,1,1.513-4.873c.784-1.4,2.423-3.717,3.06-6.241a7.291,7.291,0,0,0,.227-1.3c.018-.2.032-.392.034-.588,0,0,0-.008,0-.013s0-.015,0-.023m-4.233,6.135c-3.3,2.69-8.871,1.745-11.54-1.369a8.086,8.086,0,0,1-1.608-6.579,7.474,7.474,0,0,1,4.164-5.027c.127-.067,1.223-.59,1.286-.5,4.23-1.072,7.109.008,9.247,2.675,2.683,3.347,1.792,8.072-1.55,10.8" transform="translate(-266.29 -18.748)" fill="#faec8d"/>
            </g>
          </g>
        </g>
        <g id="Grupo_1114939" data-name="Grupo 1114939" transform="translate(78.407 21.157)" style="mix-blend-mode: multiply;isolation: isolate">
          <g id="Grupo_1114938" data-name="Grupo 1114938">
            <g id="Grupo_1114937" data-name="Grupo 1114937" clip-path="url(#clip-path-15)">
              <path id="Trazado_900724" data-name="Trazado 900724" d="M282.057,77.593a7.948,7.948,0,0,1-3.9-2.1,13.593,13.593,0,0,1,1.487,4.813.03.03,0,0,0,0,.012c0,.284,1.917.516,4.282.516s4.283-.231,4.283-.516h0a13.562,13.562,0,0,1,1.513-4.873c.069-.122.15-.259.229-.394-2.16,2-4.9,3.21-7.894,2.538" transform="translate(-278.156 -75.055)" fill="#faec8d"/>
            </g>
          </g>
        </g>
        <g id="Grupo_1114942" data-name="Grupo 1114942" transform="translate(76.693 15.109)" style="mix-blend-mode: screen;isolation: isolate">
          <g id="Grupo_1114941" data-name="Grupo 1114941">
            <g id="Grupo_1114940" data-name="Grupo 1114940" clip-path="url(#clip-path-16)">
              <path id="Trazado_900725" data-name="Trazado 900725" d="M272.074,53.6a6.286,6.286,0,0,0,2.279,3.412,12.922,12.922,0,0,1-1.037-2.9c-.421-.152-.835-.323-1.241-.509" transform="translate(-272.074 -53.599)" fill="#faecd0"/>
            </g>
          </g>
        </g>
        <g id="Grupo_1114945" data-name="Grupo 1114945" transform="translate(76.349 6.087)" style="mix-blend-mode: screen;isolation: isolate">
          <g id="Grupo_1114944" data-name="Grupo 1114944">
            <g id="Grupo_1114943" data-name="Grupo 1114943" clip-path="url(#clip-path-17)">
              <path id="Trazado_900726" data-name="Trazado 900726" d="M278.616,21.6s-4.85.312-6.949,3.817a5.829,5.829,0,0,0-.808,3.271c.462.3.913.626,1.374.93a4.232,4.232,0,0,1,1.244-3.651c4.446-3.659,10.23-2.321,12.394,1.023a6.971,6.971,0,0,0-7.254-5.39" transform="translate(-270.853 -21.595)" fill="#faecd0"/>
            </g>
          </g>
        </g>
        <path id="Trazado_900727" data-name="Trazado 900727" d="M253,49.653a.152.152,0,0,1-.153.152h-3.235a.153.153,0,1,1,0-.306h3.235a.153.153,0,0,1,.153.153" transform="translate(-179.14 -35.547)" fill="#fabe52"/>
        <path id="Trazado_900728" data-name="Trazado 900728" d="M340.518,49.653a.153.153,0,0,1-.153.152H337.13a.153.153,0,1,1,0-.306h3.235a.153.153,0,0,1,.153.153" transform="translate(-241.989 -35.547)" fill="#fabe52"/>
        <path id="Trazado_900729" data-name="Trazado 900729" d="M266.268,16.812a.138.138,0,0,1-.195,0l-2.061-2.061a.138.138,0,1,1,.194-.195l2.061,2.061a.137.137,0,0,1,0,.2" transform="translate(-189.563 -10.423)" fill="#fabe52"/>
        <path id="Trazado_900730" data-name="Trazado 900730" d="M327.032,76.717a.138.138,0,0,1-.195,0l-2.061-2.061a.138.138,0,1,1,.194-.195l2.062,2.061a.138.138,0,0,1,0,.2" transform="translate(-233.198 -53.442)" fill="#fabe52"/>
        <path id="Trazado_900731" data-name="Trazado 900731" d="M324.778,16.812a.138.138,0,0,0,.194,0l2.061-2.061a.138.138,0,1,0-.2-.195l-2.061,2.061a.138.138,0,0,0,0,.2" transform="translate(-233.2 -10.423)" fill="#fabe52"/>
        <path id="Trazado_900732" data-name="Trazado 900732" d="M264.015,76.717a.138.138,0,0,0,.195,0l2.061-2.061a.138.138,0,1,0-.194-.195l-2.061,2.061a.138.138,0,0,0,0,.2" transform="translate(-189.564 -53.442)" fill="#fabe52"/>
        <path id="Trazado_900733" data-name="Trazado 900733" d="M299.109,3.541a.152.152,0,0,1-.153-.153V.153a.153.153,0,1,1,.306,0V3.388a.153.153,0,0,1-.153.153" transform="translate(-214.686)" fill="#fabe52"/>
        <path id="Trazado_900734" data-name="Trazado 900734" d="M299.109,3.541a.152.152,0,0,1-.153-.153V.153a.153.153,0,1,1,.306,0V3.388a.153.153,0,0,1-.153.153" transform="translate(-214.686)" fill="#fabe52"/>
        <path id="Trazado_900735" data-name="Trazado 900735" d="M33.79,210.517c-1.619,0-2.932.46-2.932,1.028,0,.522,1.107.952,2.543,1.019l0,.009h5.943v-2.056Z" transform="translate(-22.16 -151.176)" fill="#c38f4a"/>
        <path id="Trazado_900736" data-name="Trazado 900736" d="M39.037,212.391H33.094a.115.115,0,0,1-.052-.012c-1.789-.093-2.6-.651-2.6-1.134,0-.555,1.069-1.146,3.05-1.146h5.549a.118.118,0,0,1,.118.118v2.056a.118.118,0,0,1-.118.118m-5.892-.236h5.774v-1.82H33.488c-1.658,0-2.814.48-2.814.91,0,.379.929.831,2.431.9a.114.114,0,0,1,.04.009" transform="translate(-21.858 -150.876)" fill="#5c2f10"/>
        <path id="Trazado_900737" data-name="Trazado 900737" d="M33.79,209.418c-1.619,0-2.932.46-2.932,1.028,0,.521,1.107.952,2.543,1.019l0,.009h5.943v-2.056Z" transform="translate(-22.16 -150.387)" fill="#cbc37c"/>
        <path id="Trazado_900738" data-name="Trazado 900738" d="M39.037,211.291H33.094a.116.116,0,0,1-.052-.012c-1.789-.093-2.6-.651-2.6-1.134,0-.556,1.069-1.146,3.05-1.146h5.549a.118.118,0,0,1,.118.118v2.056a.118.118,0,0,1-.118.118m-5.892-.236h5.774v-1.82H33.488c-1.658,0-2.814.479-2.814.91,0,.379.929.831,2.431.9a.121.121,0,0,1,.04.009" transform="translate(-21.858 -150.086)" fill="#5c2f10"/>
        <path id="Trazado_900739" data-name="Trazado 900739" d="M185.239,210.517c1.619,0,2.932.46,2.932,1.028,0,.522-1.108.952-2.543,1.019l.005.009H179.69v-2.056Z" transform="translate(-129.039 -151.176)" fill="#c38f4a"/>
        <path id="Trazado_900740" data-name="Trazado 900740" d="M185.333,212.391h-5.945a.118.118,0,0,1-.118-.118v-2.056a.118.118,0,0,1,.118-.118h5.549c1.98,0,3.05.591,3.05,1.146,0,.483-.815,1.041-2.6,1.134a.122.122,0,0,1-.052.012m-5.827-.236h5.773a.12.12,0,0,1,.041-.009c1.5-.07,2.431-.522,2.431-.9,0-.43-1.156-.91-2.814-.91h-5.431Z" transform="translate(-128.737 -150.876)" fill="#5c2f10"/>
        <path id="Trazado_900741" data-name="Trazado 900741" d="M185.239,209.418c1.619,0,2.932.46,2.932,1.028,0,.521-1.108.952-2.543,1.019l.005.009H179.69v-2.056Z" transform="translate(-129.039 -150.387)" fill="#cbc37c"/>
        <path id="Trazado_900742" data-name="Trazado 900742" d="M185.333,211.291h-5.945a.119.119,0,0,1-.118-.118v-2.056a.118.118,0,0,1,.118-.118h5.549c1.98,0,3.05.59,3.05,1.146,0,.483-.815,1.041-2.6,1.134a.122.122,0,0,1-.052.012m-5.827-.236h5.773a.128.128,0,0,1,.041-.009c1.5-.07,2.431-.522,2.431-.9,0-.431-1.156-.91-2.814-.91h-5.431Z" transform="translate(-128.737 -150.086)" fill="#5c2f10"/>
        <path id="Trazado_900743" data-name="Trazado 900743" d="M48.554,190.564l1.159-2.967v6.6l-1.159,3.07Z" transform="translate(-34.868 -134.717)" fill="#858585"/>
        <path id="Trazado_900744" data-name="Trazado 900744" d="M48.254,197.083l-.021,0a.118.118,0,0,1-.1-.116v-6.7a.129.129,0,0,1,.007-.043l1.16-2.967a.117.117,0,0,1,.132-.073.118.118,0,0,1,.1.116v6.6a.124.124,0,0,1-.007.042l-1.159,3.07a.117.117,0,0,1-.11.076m.118-6.8v6.032l.922-2.444v-5.951Z" transform="translate(-34.567 -134.416)" fill="#5c2f10"/>
        <path id="Trazado_900745" data-name="Trazado 900745" d="M189.128,190.564,187.97,187.6v6.6l1.159,3.07Z" transform="translate(-134.984 -134.717)" fill="#858585"/>
        <path id="Trazado_900746" data-name="Trazado 900746" d="M188.827,197.083a.118.118,0,0,1-.111-.077l-1.159-3.069a.126.126,0,0,1-.008-.042v-6.6a.118.118,0,0,1,.228-.043l1.159,2.967a.124.124,0,0,1,.008.043v6.7a.118.118,0,0,1-.1.116l-.021,0m-1.041-3.21.923,2.444v-6.032l-.923-2.362Z" transform="translate(-134.683 -134.416)" fill="#5c2f10"/>
        <rect id="Rectángulo_407989" data-name="Rectángulo 407989" width="38.14" height="6.318" transform="translate(14.845 52.88)" fill="#3b3b3b"/>
        <path id="Trazado_900747" data-name="Trazado 900747" d="M90.5,193.732H52.364a.118.118,0,0,1-.118-.118V187.3a.118.118,0,0,1,.118-.118H90.5a.118.118,0,0,1,.118.118v6.318a.118.118,0,0,1-.118.118M52.482,193.5h37.9v-6.081h-37.9Z" transform="translate(-37.519 -134.416)" fill="#5c2f10"/>
        <path id="Trazado_900748" data-name="Trazado 900748" d="M66.927,189.114H53.092c-.494,0-.9,1.137-.9,2.539s.4,2.539.9,2.539H66.927c.495,0,.9-1.137.9-2.539s-.4-2.539-.9-2.539" transform="translate(-37.483 -135.806)" fill="#c7c7c7"/>
        <path id="Trazado_900749" data-name="Trazado 900749" d="M66.626,194.01H52.791c-.659,0-1.014-1.369-1.014-2.658s.355-2.657,1.014-2.657H66.626c.658,0,1.014,1.369,1.014,2.657s-.356,2.658-1.014,2.658m-13.835-5.079c-.368,0-.778.994-.778,2.421s.41,2.421.778,2.421H66.626c.368,0,.777-.994.777-2.421s-.41-2.421-.777-2.421Z" transform="translate(-37.182 -135.505)" fill="#5c2f10"/>
        <path id="Trazado_900750" data-name="Trazado 900750" d="M93.319,177.072H60.989c-1.155,0-2.092,2.656-2.092,5.934s.937,5.934,2.092,5.934h32.33c1.155,0,2.092-2.657,2.092-5.934s-.937-5.934-2.092-5.934" transform="translate(-42.295 -127.159)" fill="#858585"/>
        <path id="Trazado_900751" data-name="Trazado 900751" d="M93.018,188.757H60.689c-1.24,0-2.211-2.658-2.211-6.052s.971-6.052,2.211-6.052h32.33c1.24,0,2.211,2.658,2.211,6.052s-.971,6.052-2.211,6.052m-32.33-11.867c-1.07,0-1.974,2.663-1.974,5.815s.9,5.816,1.974,5.816h32.33c1.07,0,1.975-2.663,1.975-5.816s-.9-5.815-1.975-5.815Z" transform="translate(-41.994 -126.858)" fill="#5c2f10"/>
        <g id="Grupo_1114951" data-name="Grupo 1114951" transform="translate(16.602 49.913)" style="mix-blend-mode: overlay;isolation: isolate">
          <g id="Grupo_1114950" data-name="Grupo 1114950">
            <g id="Grupo_1114949" data-name="Grupo 1114949" clip-path="url(#clip-path-18)">
              <g id="Grupo_1114948" data-name="Grupo 1114948" style="mix-blend-mode: screen;isolation: isolate">
                <g id="Grupo_1114947" data-name="Grupo 1114947">
                  <g id="Grupo_1114946" data-name="Grupo 1114946" clip-path="url(#clip-path-19)">
                    <path id="Trazado_900752" data-name="Trazado 900752" d="M60.989,178.769h32.33c1.155,0,2.092,1.9,2.092,4.236,0-3.277-.937-5.934-2.092-5.934H60.989c-1.155,0-2.092,2.656-2.092,5.934,0-2.34.937-4.236,2.092-4.236" transform="translate(-58.897 -177.072)" fill="#484848"/>
                  </g>
                </g>
              </g>
              <path id="Trazado_900753" data-name="Trazado 900753" d="M93.319,202.359H60.989c-1.155,0-2.092-1.9-2.092-4.236,0,3.277.937,5.934,2.092,5.934h32.33c1.155,0,2.092-2.656,2.092-5.934,0,2.339-.937,4.236-2.092,4.236" transform="translate(-58.897 -192.189)" fill="#484848"/>
            </g>
          </g>
        </g>
        <g id="Grupo_1114954" data-name="Grupo 1114954" transform="translate(16.602 49.913)" style="mix-blend-mode: overlay;isolation: isolate">
          <g id="Grupo_1114953" data-name="Grupo 1114953">
            <g id="Grupo_1114952" data-name="Grupo 1114952" clip-path="url(#clip-path-20)">
              <path id="Trazado_900754" data-name="Trazado 900754" d="M68.575,177.072H60.989c-1.155,0-2.092,2.656-2.092,5.934s.937,5.934,2.092,5.934h7.586Z" transform="translate(-58.897 -177.072)" fill="#3b54a4"/>
            </g>
          </g>
        </g>
        <path id="Trazado_900755" data-name="Trazado 900755" d="M64.766,188.8H63.7v2.1h-2.1v1.063h2.1v2.1h1.063v-2.1h2.1V190.9h-2.1Z" transform="translate(-44.242 -135.583)" fill="#fff"/>
        <rect id="Rectángulo_407993" data-name="Rectángulo 407993" width="5.254" height="1.063" transform="translate(47.103 55.316)" fill="#fff"/>
        <rect id="Rectángulo_407994" data-name="Rectángulo 407994" width="40.457" height="6.701" transform="translate(13.686 55.847)" fill="#3b3b3b"/>
        <path id="Trazado_900756" data-name="Trazado 900756" d="M88.711,204.642H48.254a.118.118,0,0,1-.118-.118v-6.7a.118.118,0,0,1,.118-.118H88.711a.118.118,0,0,1,.118.118v6.7a.118.118,0,0,1-.118.118m-40.339-.236H88.593V197.94H48.372Z" transform="translate(-34.567 -141.975)" fill="#5c2f10"/>
        <path id="Trazado_900757" data-name="Trazado 900757" d="M222.229,208.119l-.185-.805-.786.157-.9.181-1.183.171c-.217.029-.442.069-.677.092l-.729.068-.769.071c-.262.021-.533.028-.806.042l-.834.04c-.282.011-.568.006-.856.01l-.87.005-.877-.027c-1.171-.029-2.339-.131-3.432-.24-1.091-.128-2.108-.266-2.972-.424s-1.58-.3-2.078-.417c-.249-.059-.443-.1-.574-.139l-.2-.052-.221.8.213.056c.138.036.338.084.593.144.51.116,1.24.275,2.122.426s1.915.3,3.025.431c1.112.111,2.3.214,3.495.244l.893.027.887-.005c.294,0,.585,0,.873-.01l.852-.04c.28-.015.555-.023.824-.043l.787-.073.746-.069c.24-.023.471-.064.693-.094l1.212-.175.927-.185.807-.162" transform="translate(-145.979 -148.545)" fill="#9dd8db"/>
        <path id="Trazado_900758" data-name="Trazado 900758" d="M213.321,208.795h0l-.894-.027c-1.23-.031-2.461-.141-3.5-.244-1.246-.146-2.238-.288-3.034-.433-.9-.154-1.645-.317-2.127-.427-.264-.062-.461-.109-.6-.145l-.212-.056a.118.118,0,0,1-.085-.145l.22-.8a.118.118,0,0,1,.143-.083l.2.051c.126.034.308.077.571.139.469.107,1.195.266,2.071.416.775.141,1.744.279,2.966.423,1.02.1,2.226.209,3.421.238l.877.027.866-.006.308,0c.18,0,.365,0,.544-.008l.832-.04.292-.014c.177-.008.344-.015.511-.028l1.5-.139c.148-.014.3-.036.437-.057l.235-.034,1.181-.171,1.683-.337a.118.118,0,0,1,.138.089l.185.806a.113.113,0,0,1-.016.09.116.116,0,0,1-.076.052l-1.734.347-1.219.176-.237.034c-.149.022-.3.045-.462.06l-1.533.142c-.177.014-.359.022-.534.03l-.294.014-.852.041c-.189.007-.381.008-.567.008l-.31,0-.888.005Zm-10.2-1.53.1.025c.134.036.33.082.591.143.479.109,1.22.271,2.115.425.793.144,1.78.285,3.018.43,1.036.1,2.261.213,3.484.243l.892.027.885-.005.312,0c.184,0,.374,0,.557-.008l.851-.041.295-.014c.182-.008.354-.016.525-.029l1.531-.142c.153-.014.3-.037.45-.059.081-.012.161-.024.24-.034l1.211-.175,1.608-.322-.132-.575-1.576.315-1.189.172-.232.033c-.145.022-.295.044-.45.059l-1.5.14c-.173.014-.35.021-.521.028l-.29.014-.835.04c-.185.007-.373.008-.554.008l-.307,0-.87.006-.881-.027c-1.2-.03-2.413-.138-3.44-.24-1.228-.144-2.2-.283-2.981-.425-.881-.15-1.611-.31-2.083-.418-.266-.063-.45-.106-.578-.14l-.085-.022Z" transform="translate(-145.679 -148.244)" fill="#5c2f10"/>
        <g id="Grupo_1114957" data-name="Grupo 1114957" transform="translate(57.411 58.308)" style="mix-blend-mode: multiply;isolation: isolate">
          <g id="Grupo_1114956" data-name="Grupo 1114956">
            <g id="Grupo_1114955" data-name="Grupo 1114955" clip-path="url(#clip-path-21)">
              <path id="Trazado_900759" data-name="Trazado 900759" d="M222.418,207.718l-.093-.4-.786.157-.9.181-1.183.171c-.217.029-.442.07-.677.092l-.729.068-.769.071c-.263.021-.533.028-.806.043l-.834.04c-.282.011-.567.006-.856.01l-.87.006-.877-.027c-1.171-.029-2.339-.131-3.432-.239-1.091-.128-2.108-.266-2.972-.424s-1.58-.3-2.078-.417c-.249-.059-.443-.1-.574-.139l-.2-.051-.111.4s1.141.315,2.89.616c.872.159,1.9.3,3,.427,1.1.11,2.282.212,3.463.242l.886.027.878-.006c.291,0,.58,0,.864-.01l.843-.04c.277-.015.549-.022.815-.043l.779-.072.736-.069c.238-.023.466-.063.686-.092l1.2-.173.915-.183.8-.159" transform="translate(-203.671 -206.854)" fill="#9dd8db"/>
            </g>
          </g>
        </g>
        <path id="Trazado_900760" data-name="Trazado 900760" d="M33.79,108.891c-1.619,0-2.932.46-2.932,1.028,0,.521,1.107.952,2.543,1.019l0,.009h5.943v-2.056Z" transform="translate(-22.16 -78.197)" fill="#c38f4a"/>
        <path id="Trazado_900761" data-name="Trazado 900761" d="M39.037,110.765H33.094a.116.116,0,0,1-.052-.012c-1.789-.093-2.6-.651-2.6-1.134,0-.556,1.069-1.146,3.05-1.146h5.549a.118.118,0,0,1,.118.118v2.056a.118.118,0,0,1-.118.118m-5.892-.236h5.774v-1.82H33.488c-1.658,0-2.814.48-2.814.91,0,.379.929.831,2.431.9a.114.114,0,0,1,.04.009" transform="translate(-21.858 -77.896)" fill="#5c2f10"/>
        <path id="Trazado_900762" data-name="Trazado 900762" d="M33.79,107.792c-1.619,0-2.932.46-2.932,1.028,0,.521,1.107.952,2.543,1.019l0,.009h5.943v-2.056Z" transform="translate(-22.16 -77.407)" fill="#cbc37c"/>
        <path id="Trazado_900763" data-name="Trazado 900763" d="M39.037,109.665H33.094a.116.116,0,0,1-.052-.012c-1.789-.093-2.6-.651-2.6-1.134,0-.556,1.069-1.146,3.05-1.146h5.549a.118.118,0,0,1,.118.118v2.056a.118.118,0,0,1-.118.118m-5.892-.236h5.774v-1.82H33.488c-1.658,0-2.814.48-2.814.91,0,.379.929.831,2.431.9a.12.12,0,0,1,.04.009" transform="translate(-21.858 -77.106)" fill="#5c2f10"/>
        <path id="Trazado_900764" data-name="Trazado 900764" d="M185.239,108.891c1.619,0,2.932.46,2.932,1.028,0,.521-1.108.952-2.543,1.019l.005.009H179.69v-2.056Z" transform="translate(-129.039 -78.197)" fill="#c38f4a"/>
        <path id="Trazado_900765" data-name="Trazado 900765" d="M185.333,110.765h-5.945a.119.119,0,0,1-.118-.118v-2.056a.118.118,0,0,1,.118-.118h5.549c1.98,0,3.05.591,3.05,1.146,0,.483-.815,1.04-2.6,1.134a.118.118,0,0,1-.052.012m-5.827-.236h5.773a.12.12,0,0,1,.041-.009c1.5-.07,2.431-.522,2.431-.9,0-.43-1.156-.91-2.814-.91h-5.431Z" transform="translate(-128.737 -77.896)" fill="#5c2f10"/>
        <path id="Trazado_900766" data-name="Trazado 900766" d="M185.239,107.792c1.619,0,2.932.46,2.932,1.028,0,.521-1.108.952-2.543,1.019l.005.009H179.69v-2.056Z" transform="translate(-129.039 -77.407)" fill="#cbc37c"/>
        <path id="Trazado_900767" data-name="Trazado 900767" d="M185.333,109.665h-5.945a.119.119,0,0,1-.118-.118V107.49a.119.119,0,0,1,.118-.118h5.549c1.98,0,3.05.591,3.05,1.146,0,.483-.815,1.041-2.6,1.134a.122.122,0,0,1-.052.012m-5.827-.236h5.773a.127.127,0,0,1,.041-.009c1.5-.07,2.431-.522,2.431-.9,0-.43-1.156-.91-2.814-.91h-5.431Z" transform="translate(-128.737 -77.106)" fill="#5c2f10"/>
        <path id="Trazado_900768" data-name="Trazado 900768" d="M48.554,88.938l1.159-2.967v6.6l-1.159,3.07Z" transform="translate(-34.868 -61.737)" fill="#858585"/>
        <path id="Trazado_900769" data-name="Trazado 900769" d="M48.254,95.456l-.021,0a.118.118,0,0,1-.1-.116v-6.7a.129.129,0,0,1,.007-.043l1.16-2.967a.117.117,0,0,1,.132-.073.118.118,0,0,1,.1.116v6.6a.125.125,0,0,1-.007.042l-1.159,3.07a.117.117,0,0,1-.11.076m.118-6.8v6.032l.922-2.444V86.3Z" transform="translate(-34.567 -61.436)" fill="#5c2f10"/>
        <path id="Trazado_900770" data-name="Trazado 900770" d="M189.128,88.938l-1.159-2.967v6.6l1.159,3.07Z" transform="translate(-134.984 -61.737)" fill="#858585"/>
        <path id="Trazado_900771" data-name="Trazado 900771" d="M188.827,95.457a.118.118,0,0,1-.111-.077l-1.159-3.069a.126.126,0,0,1-.008-.042v-6.6a.118.118,0,0,1,.228-.043l1.159,2.967a.12.12,0,0,1,.008.043v6.7a.118.118,0,0,1-.1.116l-.021,0m-1.041-3.21.923,2.444V88.659l-.923-2.362Z" transform="translate(-134.683 -61.436)" fill="#5c2f10"/>
        <rect id="Rectángulo_407996" data-name="Rectángulo 407996" width="38.14" height="6.318" transform="translate(14.845 24.234)" fill="#3b3b3b"/>
        <path id="Trazado_900772" data-name="Trazado 900772" d="M90.5,92.106H52.364a.118.118,0,0,1-.118-.118V85.67a.118.118,0,0,1,.118-.118H90.5a.118.118,0,0,1,.118.118v6.318a.118.118,0,0,1-.118.118M52.482,91.87h37.9V85.788h-37.9Z" transform="translate(-37.519 -61.436)" fill="#5c2f10"/>
        <path id="Trazado_900773" data-name="Trazado 900773" d="M66.927,87.488H53.092c-.494,0-.9,1.137-.9,2.539s.4,2.539.9,2.539H66.927c.495,0,.9-1.137.9-2.539s-.4-2.539-.9-2.539" transform="translate(-37.483 -62.827)" fill="#c7c7c7"/>
        <path id="Trazado_900774" data-name="Trazado 900774" d="M66.626,92.384H52.791c-.659,0-1.014-1.369-1.014-2.658s.355-2.657,1.014-2.657H66.626c.658,0,1.014,1.369,1.014,2.657s-.356,2.658-1.014,2.658M52.791,87.305c-.368,0-.778.994-.778,2.421s.41,2.421.778,2.421H66.626c.368,0,.777-.994.777-2.421s-.41-2.421-.777-2.421Z" transform="translate(-37.182 -62.526)" fill="#5c2f10"/>
        <path id="Trazado_900775" data-name="Trazado 900775" d="M93.319,75.446H60.989c-1.155,0-2.092,2.656-2.092,5.934s.937,5.934,2.092,5.934h32.33c1.155,0,2.092-2.657,2.092-5.934s-.937-5.934-2.092-5.934" transform="translate(-42.295 -54.179)" fill="#858585"/>
        <path id="Trazado_900776" data-name="Trazado 900776" d="M93.018,87.131H60.689c-1.24,0-2.211-2.658-2.211-6.052s.971-6.052,2.211-6.052h32.33c1.24,0,2.211,2.658,2.211,6.052s-.971,6.052-2.211,6.052M60.689,75.263c-1.07,0-1.974,2.663-1.974,5.816s.9,5.816,1.974,5.816h32.33c1.07,0,1.975-2.663,1.975-5.816s-.9-5.816-1.975-5.816Z" transform="translate(-41.994 -53.878)" fill="#5c2f10"/>
        <g id="Grupo_1114963" data-name="Grupo 1114963" transform="translate(16.602 21.267)" style="mix-blend-mode: overlay;isolation: isolate">
          <g id="Grupo_1114962" data-name="Grupo 1114962">
            <g id="Grupo_1114961" data-name="Grupo 1114961" clip-path="url(#clip-path-18)">
              <g id="Grupo_1114960" data-name="Grupo 1114960" style="mix-blend-mode: screen;isolation: isolate">
                <g id="Grupo_1114959" data-name="Grupo 1114959">
                  <g id="Grupo_1114958" data-name="Grupo 1114958" clip-path="url(#clip-path-19)">
                    <path id="Trazado_900777" data-name="Trazado 900777" d="M60.989,77.142h32.33c1.155,0,2.092,1.9,2.092,4.237,0-3.277-.937-5.934-2.092-5.934H60.989c-1.155,0-2.092,2.657-2.092,5.934,0-2.34.937-4.237,2.092-4.237" transform="translate(-58.897 -75.445)" fill="#484848"/>
                  </g>
                </g>
              </g>
              <path id="Trazado_900778" data-name="Trazado 900778" d="M93.319,100.732H60.989c-1.155,0-2.092-1.9-2.092-4.236,0,3.277.937,5.934,2.092,5.934h32.33c1.155,0,2.092-2.657,2.092-5.934,0,2.34-.937,4.236-2.092,4.236" transform="translate(-58.897 -90.562)" fill="#484848"/>
            </g>
          </g>
        </g>
        <g id="Grupo_1114966" data-name="Grupo 1114966" transform="translate(16.602 21.267)" style="mix-blend-mode: overlay;isolation: isolate">
          <g id="Grupo_1114965" data-name="Grupo 1114965">
            <g id="Grupo_1114964" data-name="Grupo 1114964" clip-path="url(#clip-path-20)">
              <path id="Trazado_900779" data-name="Trazado 900779" d="M68.575,75.446H60.989c-1.155,0-2.092,2.656-2.092,5.934s.937,5.934,2.092,5.934h7.586Z" transform="translate(-58.897 -75.446)" fill="#3b54a4"/>
            </g>
          </g>
        </g>
        <path id="Trazado_900780" data-name="Trazado 900780" d="M64.766,87.177H63.7v2.1h-2.1v1.063h2.1v2.1h1.063v-2.1h2.1V89.273h-2.1Z" transform="translate(-44.242 -62.603)" fill="#fff"/>
        <rect id="Rectángulo_408000" data-name="Rectángulo 408000" width="5.254" height="1.063" transform="translate(47.103 26.669)" fill="#fff"/>
        <rect id="Rectángulo_408001" data-name="Rectángulo 408001" width="40.457" height="6.701" transform="translate(13.686 27.201)" fill="#3b3b3b"/>
        <path id="Trazado_900781" data-name="Trazado 900781" d="M88.711,103.016H48.254a.118.118,0,0,1-.118-.118V96.2a.118.118,0,0,1,.118-.118H88.711a.118.118,0,0,1,.118.118v6.7a.118.118,0,0,1-.118.118m-40.339-.236H88.593V96.314H48.372Z" transform="translate(-34.567 -68.995)" fill="#5c2f10"/>
        <path id="Trazado_900782" data-name="Trazado 900782" d="M222.229,106.493l-.185-.805-.786.157-.9.181-1.183.171c-.217.029-.442.069-.677.092l-.729.068-.769.071c-.262.021-.533.028-.806.043l-.834.04c-.282.011-.568.006-.856.01l-.87.005-.877-.027c-1.171-.029-2.339-.131-3.432-.24-1.091-.128-2.108-.266-2.972-.424s-1.58-.3-2.078-.417c-.249-.059-.443-.1-.574-.139l-.2-.052-.221.8.213.055c.138.036.338.084.593.144.51.116,1.24.275,2.122.426s1.915.3,3.025.431c1.112.111,2.3.214,3.495.244l.893.027.887-.006c.294,0,.585,0,.873-.01l.852-.04c.28-.015.555-.022.824-.043l.787-.073.746-.069c.24-.023.471-.064.693-.094l1.212-.175.927-.185.807-.162" transform="translate(-145.979 -75.565)" fill="#9dd8db"/>
        <path id="Trazado_900783" data-name="Trazado 900783" d="M213.321,107.169h0l-.894-.027c-1.23-.031-2.461-.141-3.5-.245-1.246-.146-2.238-.287-3.034-.433-.9-.154-1.645-.317-2.127-.427-.264-.062-.461-.109-.6-.145l-.212-.056a.116.116,0,0,1-.073-.055.115.115,0,0,1-.012-.09l.22-.8a.118.118,0,0,1,.143-.083l.2.052c.126.033.308.076.571.138.469.107,1.195.266,2.071.416.775.141,1.744.279,2.966.423,1.02.1,2.226.209,3.421.239l.877.027.866-.006.308,0c.18,0,.365,0,.544-.008l.832-.04.292-.014c.177-.008.344-.015.511-.028l1.5-.139c.148-.014.3-.036.437-.057l.235-.034,1.181-.171,1.683-.337a.118.118,0,0,1,.138.089l.185.806a.114.114,0,0,1-.016.09.117.117,0,0,1-.076.052l-1.734.347-1.219.176-.237.034c-.149.022-.3.045-.462.06l-1.533.142c-.177.014-.359.022-.534.03l-.294.014-.852.041c-.189.007-.381.008-.567.008l-.31,0-.888.005Zm-10.2-1.53.1.025c.134.036.33.082.591.143.479.109,1.22.272,2.115.425.793.144,1.78.285,3.018.43,1.036.1,2.261.213,3.484.243l.892.027.885-.005.312,0c.184,0,.374,0,.557-.008l.851-.041.295-.014c.182-.008.354-.016.525-.029l1.531-.142c.153-.014.3-.037.45-.059.081-.012.161-.024.24-.034l1.211-.175,1.608-.322-.132-.575-1.576.316-1.189.172-.232.033c-.145.022-.295.044-.45.059l-1.5.139c-.173.014-.35.021-.521.029l-.29.014-.835.04c-.185.007-.373.008-.554.008l-.307,0-.87.006-.881-.027c-1.2-.03-2.413-.138-3.44-.24-1.228-.144-2.2-.283-2.981-.425-.881-.15-1.611-.311-2.083-.418-.266-.063-.45-.106-.578-.14l-.085-.022Z" transform="translate(-145.679 -75.265)" fill="#5c2f10"/>
        <g id="Grupo_1114969" data-name="Grupo 1114969" transform="translate(57.411 29.662)" style="mix-blend-mode: multiply;isolation: isolate">
          <g id="Grupo_1114968" data-name="Grupo 1114968">
            <g id="Grupo_1114967" data-name="Grupo 1114967" clip-path="url(#clip-path-21)">
              <path id="Trazado_900784" data-name="Trazado 900784" d="M222.418,106.092l-.093-.4-.786.157-.9.181-1.183.171c-.217.028-.442.069-.677.091l-.729.068-.769.071c-.263.021-.533.028-.806.043l-.834.04c-.282.011-.567.006-.856.01l-.87.006-.877-.027c-1.171-.029-2.339-.131-3.432-.24-1.091-.128-2.108-.266-2.972-.424s-1.58-.3-2.078-.417c-.249-.059-.443-.1-.574-.139l-.2-.052-.111.4s1.141.315,2.89.616c.872.159,1.9.3,3,.427,1.1.11,2.282.212,3.463.242l.886.027.878-.006c.291,0,.58,0,.864-.01l.843-.04c.277-.015.549-.022.815-.043l.779-.072.736-.068c.238-.023.466-.064.686-.093l1.2-.173.915-.183.8-.16" transform="translate(-203.671 -105.228)" fill="#9dd8db"/>
            </g>
          </g>
        </g>
        <path id="Trazado_900785" data-name="Trazado 900785" d="M11.431,135.806l-.205-.8s-.162.042-.472.113-.768.166-1.354.269-1.3.2-2.125.269a14.2,14.2,0,0,1-2.741-.024c-.249-.018-.492-.078-.744-.122a3.21,3.21,0,0,1-.37-.1c-.121-.037-.251-.065-.369-.111a2.7,2.7,0,0,1-1.23-.828A2.751,2.751,0,0,1,1.274,133a5.439,5.439,0,0,1-.02-.879c0-.15.023-.3.034-.455s.034-.307.06-.461a24.675,24.675,0,0,1,.977-3.8c.209-.643.432-1.284.66-1.934a11.016,11.016,0,0,0,.516-2.083,13.443,13.443,0,0,0-.113-4.232c-.225-1.366-.563-2.664-.741-3.914a9.951,9.951,0,0,1-.11-1.827,6.535,6.535,0,0,1,.282-1.69,5.247,5.247,0,0,1,.691-1.442,5.44,5.44,0,0,1,1.015-1.1,7.966,7.966,0,0,1,2.338-1.3,12.072,12.072,0,0,1,2.035-.539,13.551,13.551,0,0,1,1.35-.171c.313-.023.475-.025.475-.025l-.02-.826s-.183,0-.516.027a14.275,14.275,0,0,0-1.433.182c-.306.053-.644.124-1.008.217a11.7,11.7,0,0,0-1.167.359A8.764,8.764,0,0,0,4,108.552a6.25,6.25,0,0,0-1.169,1.268,6.087,6.087,0,0,0-.8,1.665,7.345,7.345,0,0,0-.319,1.9,10.828,10.828,0,0,0,.118,1.976c.189,1.316.529,2.615.744,3.933a12.655,12.655,0,0,1,.111,3.977,10.293,10.293,0,0,1-.478,1.929c-.228.648-.456,1.3-.667,1.952a25.408,25.408,0,0,0-1.009,3.931c-.028.164-.043.333-.065.5s-.033.333-.037.5a6.211,6.211,0,0,0,.023,1.008,4.114,4.114,0,0,0,.222,1,3.206,3.206,0,0,0,.5.9,3.062,3.062,0,0,0,.746.673,4.166,4.166,0,0,0,.847.416c.143.055.285.086.426.129a3.875,3.875,0,0,0,.419.108c.279.049.552.114.82.134a14.976,14.976,0,0,0,2.9.027c.856-.068,1.6-.173,2.2-.278s1.077-.2,1.4-.277.494-.118.494-.118" transform="translate(-0.3 -76.357)" fill="#9dd8db"/>
        <path id="Trazado_900786" data-name="Trazado 900786" d="M5.643,136.355h0a13.01,13.01,0,0,1-1.522-.085,5.368,5.368,0,0,1-.6-.093l-.227-.043a2.122,2.122,0,0,1-.3-.073l-.132-.037c-.052-.016-.1-.029-.148-.042-.094-.026-.192-.053-.291-.091a4.245,4.245,0,0,1-.868-.426,3.2,3.2,0,0,1-.775-.7,3.28,3.28,0,0,1-.519-.935,4.139,4.139,0,0,1-.228-1.025,6.31,6.31,0,0,1-.024-1.027c0-.116.014-.235.024-.349.005-.051.009-.1.014-.154s.014-.118.021-.173c.012-.11.026-.223.045-.335a25.787,25.787,0,0,1,1.013-3.947c.22-.678.46-1.365.668-1.955a10.16,10.16,0,0,0,.472-1.907,12.47,12.47,0,0,0-.11-3.94c-.1-.6-.223-1.2-.343-1.78-.146-.7-.3-1.433-.4-2.156a10.9,10.9,0,0,1-.119-2,7.455,7.455,0,0,1,.324-1.933,6.2,6.2,0,0,1,.815-1.7,6.373,6.373,0,0,1,1.189-1.292A8.757,8.757,0,0,1,6.238,106.7a11.8,11.8,0,0,1,1.178-.363c.341-.087.683-.161,1.018-.219a14.176,14.176,0,0,1,1.444-.183c.333-.025.516-.028.524-.028h0a.118.118,0,0,1,.118.115l.02.826a.117.117,0,0,1-.117.121s-.162,0-.467.025a13.324,13.324,0,0,0-1.338.17A11.963,11.963,0,0,0,6.6,107.7a7.8,7.8,0,0,0-2.3,1.277,5.332,5.332,0,0,0-.993,1.078,5.143,5.143,0,0,0-.675,1.41,6.445,6.445,0,0,0-.277,1.66,9.964,9.964,0,0,0,.109,1.805c.1.673.237,1.35.385,2.066.125.6.253,1.216.356,1.846a13.434,13.434,0,0,1,.113,4.269,11.139,11.139,0,0,1-.521,2.1c-.206.585-.443,1.265-.659,1.931a24.5,24.5,0,0,0-.973,3.778c-.017.1-.029.2-.04.3-.006.055-.013.109-.02.164s-.008.1-.013.147c-.009.1-.018.2-.02.3a5.217,5.217,0,0,0,.019.864,2.638,2.638,0,0,0,.521,1.41,2.574,2.574,0,0,0,1.179.791,2.228,2.228,0,0,0,.224.07c.047.013.094.025.14.039s.079.022.121.035a1.526,1.526,0,0,0,.229.056c.081.014.157.028.232.043a4.364,4.364,0,0,0,.5.078,13.72,13.72,0,0,0,2.723.024c.713-.057,1.424-.147,2.113-.267.611-.107,1.071-.2,1.349-.268.307-.07.468-.112.468-.112a.119.119,0,0,1,.145.085l.2.8a.118.118,0,0,1-.085.143s-.174.045-.5.119c-.29.066-.77.168-1.4.279-.721.126-1.465.22-2.21.279-.527.039-.973.058-1.407.058m4.646-30.2c-.087,0-.22.01-.393.023a14,14,0,0,0-1.42.18c-.328.057-.665.13-1,.215a11.6,11.6,0,0,0-1.155.355,8.528,8.528,0,0,0-2.548,1.417,6.156,6.156,0,0,0-1.146,1.245,5.975,5.975,0,0,0-.783,1.633,7.212,7.212,0,0,0-.314,1.873,10.781,10.781,0,0,0,.117,1.954c.1.716.253,1.441.4,2.141.121.585.247,1.189.345,1.789a12.715,12.715,0,0,1,.112,4.014,10.388,10.388,0,0,1-.484,1.95c-.207.589-.446,1.274-.666,1.95a25.539,25.539,0,0,0-1,3.912c-.018.107-.031.218-.043.324-.007.057-.013.114-.021.171s-.008.1-.013.151c-.011.116-.02.225-.023.338a6.063,6.063,0,0,0,.023.992,3.984,3.984,0,0,0,.215.969,3.062,3.062,0,0,0,.483.869,2.956,2.956,0,0,0,.717.647,4.028,4.028,0,0,0,.823.4c.092.035.18.059.273.085.05.014.1.027.149.043l.134.038a1.93,1.93,0,0,0,.268.066l.235.044a5.238,5.238,0,0,0,.577.09,12.79,12.79,0,0,0,1.5.084c.427,0,.868-.018,1.388-.057.738-.059,1.474-.152,2.188-.277.63-.109,1.1-.21,1.392-.276.166-.038.293-.068.376-.089l-.147-.572c-.08.019-.2.048-.36.085-.281.064-.745.163-1.36.27-.7.122-1.415.213-2.136.27a13.96,13.96,0,0,1-2.763-.024,4.593,4.593,0,0,1-.528-.081c-.074-.014-.148-.029-.223-.042a1.666,1.666,0,0,1-.261-.064c-.039-.012-.079-.023-.118-.034s-.092-.027-.137-.039c-.081-.022-.165-.045-.246-.076a2.8,2.8,0,0,1-1.28-.866,2.867,2.867,0,0,1-.571-1.533,5.511,5.511,0,0,1-.02-.9c0-.1.012-.206.021-.307,0-.05.009-.1.013-.149s.014-.113.02-.167c.012-.1.024-.2.042-.306a24.719,24.719,0,0,1,.981-3.813c.218-.669.455-1.35.662-1.937a10.936,10.936,0,0,0,.511-2.061,13.256,13.256,0,0,0-.113-4.195c-.1-.625-.231-1.241-.355-1.837-.149-.72-.29-1.4-.387-2.08a10.052,10.052,0,0,1-.112-1.848,6.642,6.642,0,0,1,.287-1.721,5.388,5.388,0,0,1,.706-1.474A5.561,5.561,0,0,1,4.15,108.8a8.019,8.019,0,0,1,2.372-1.316,12.178,12.178,0,0,1,2.056-.544,13.348,13.348,0,0,1,1.361-.173c.16-.012.282-.018.363-.022Z" transform="translate(0 -76.057)" fill="#5c2f10"/>
        <g id="Grupo_1114972" data-name="Grupo 1114972" transform="translate(0.531 30.386)" style="mix-blend-mode: multiply;isolation: isolate">
          <g id="Grupo_1114971" data-name="Grupo 1114971">
            <g id="Grupo_1114970" data-name="Grupo 1114970" clip-path="url(#clip-path-26)">
              <path id="Trazado_900787" data-name="Trazado 900787" d="M12.381,136.459l-.1-.4s-.162.042-.472.113-.768.166-1.354.269-1.3.2-2.125.269a14.2,14.2,0,0,1-2.741-.024c-.249-.018-.492-.078-.744-.122a3.222,3.222,0,0,1-.37-.1c-.121-.037-.251-.065-.369-.111a2.7,2.7,0,0,1-1.23-.828,2.747,2.747,0,0,1-.547-1.472,5.439,5.439,0,0,1-.02-.879c0-.15.023-.3.034-.455s.034-.307.059-.461a24.744,24.744,0,0,1,.978-3.8c.209-.643.432-1.284.66-1.934a11.016,11.016,0,0,0,.516-2.083,13.443,13.443,0,0,0-.113-4.232c-.225-1.366-.564-2.664-.741-3.914a9.948,9.948,0,0,1-.11-1.827,6.525,6.525,0,0,1,.282-1.69,5.235,5.235,0,0,1,.691-1.442,5.439,5.439,0,0,1,1.015-1.1,7.972,7.972,0,0,1,2.338-1.3,12.1,12.1,0,0,1,2.035-.539,13.449,13.449,0,0,1,1.35-.171c.313-.023.475-.025.475-.025l-.01-.413s-.173,0-.5.026A13.788,13.788,0,0,0,9.879,108c-.3.052-.626.12-.979.21a11.271,11.271,0,0,0-1.126.347,8.348,8.348,0,0,0-2.46,1.366,5.829,5.829,0,0,0-1.091,1.186,5.664,5.664,0,0,0-.745,1.554,6.926,6.926,0,0,0-.3,1.8,10.348,10.348,0,0,0,.114,1.9c.184,1.283.523,2.581.743,3.924a13.066,13.066,0,0,1,.112,4.1,10.647,10.647,0,0,1-.5,2.006c-.228.649-.454,1.3-.664,1.944a25.075,25.075,0,0,0-.993,3.864c-.027.16-.042.32-.063.479s-.031.319-.036.478a5.809,5.809,0,0,0,.022.943,3.162,3.162,0,0,0,.635,1.685,3.108,3.108,0,0,0,1.411.959c.13.05.267.079.4.12a3.547,3.547,0,0,0,.395.1c.266.046.523.109.783.128a14.558,14.558,0,0,0,2.822.025c.84-.067,1.568-.169,2.162-.273s1.06-.2,1.376-.273.483-.116.483-.116" transform="translate(-1.884 -107.796)" fill="#9dd8db"/>
            </g>
          </g>
        </g>
        <path id="Trazado_900788" data-name="Trazado 900788" d="M342.042,136.021l-.139.815s.048.008.132.017l.158.019.21.012c.08,0,.17.012.266.011l.315,0c.229,0,.484-.029.774-.05.145-.008.294-.034.451-.059l.493-.077c.339-.065.7-.158,1.091-.245.381-.118.781-.234,1.212-.377a3.785,3.785,0,0,0,1.313-.778,3.176,3.176,0,0,0,.527-.657,3.622,3.622,0,0,0,.339-.791,5.41,5.41,0,0,0,.171-1.709,15.524,15.524,0,0,0-.647-3.467c-.328-1.161-.733-2.338-1.147-3.517a10.393,10.393,0,0,1-.574-3.586,19.194,19.194,0,0,1,.484-3.678,24.626,24.626,0,0,0,.592-3.687,8.291,8.291,0,0,0-.1-1.841,6.772,6.772,0,0,0-.53-1.7,5.922,5.922,0,0,0-.937-1.424,6.809,6.809,0,0,0-1.183-1.048A9.377,9.377,0,0,0,342.878,107a13.514,13.514,0,0,0-2.01-.491c-.565-.093-1.014-.136-1.321-.157s-.476-.024-.476-.024l-.018.826s.149,0,.436.022.711.061,1.244.148a12.651,12.651,0,0,1,1.885.46,8.557,8.557,0,0,1,2.222,1.086,5.447,5.447,0,0,1,1.846,2.144,6,6,0,0,1,.465,1.5,7.521,7.521,0,0,1,.089,1.658,23.931,23.931,0,0,1-.577,3.562,20,20,0,0,0-.5,3.834,11.214,11.214,0,0,0,.62,3.868c.415,1.182.812,2.337,1.132,3.471a14.8,14.8,0,0,1,.616,3.275,4.59,4.59,0,0,1-.139,1.446,2.8,2.8,0,0,1-.255.6,2.362,2.362,0,0,1-.383.478,2.973,2.973,0,0,1-1.027.6c-.393.129-.786.243-1.145.355-.367.081-.709.169-1.027.231l-.46.071a4.2,4.2,0,0,1-.419.055c-.265.019-.5.051-.708.046l-.284,0c-.087,0-.163-.007-.232-.01l-.183-.01-.127-.016-.1-.012" transform="translate(-243.48 -76.357)" fill="#9dd8db"/>
        <path id="Trazado_900789" data-name="Trazado 900789" d="M342.345,136.712c-.059,0-.114,0-.167-.007l-.082,0-.212-.012-.165-.02c-.147-.017-.152-.019-.172-.029a.117.117,0,0,1-.063-.125l.139-.812a.121.121,0,0,1,.141-.1l.088.01.174.018.128.007.079,0c.039,0,.081.005.126.005l.3,0h.047c.122,0,.26-.012.407-.026.08-.007.162-.015.247-.02a3.326,3.326,0,0,0,.332-.041l.537-.084c.194-.038.4-.086.621-.138.13-.03.262-.061.4-.092l.386-.119c.244-.074.5-.151.748-.233a2.85,2.85,0,0,0,.983-.576,2.206,2.206,0,0,0,.364-.455,2.657,2.657,0,0,0,.242-.571,4.482,4.482,0,0,0,.134-1.405,14.964,14.964,0,0,0-.612-3.249c-.323-1.144-.719-2.291-1.13-3.463a11.353,11.353,0,0,1-.627-3.909,20.28,20.28,0,0,1,.5-3.856l.077-.369a20.739,20.739,0,0,0,.5-3.175,7.392,7.392,0,0,0-.087-1.632,5.922,5.922,0,0,0-.455-1.467,5.341,5.341,0,0,0-1.807-2.1,8.317,8.317,0,0,0-2.192-1.071,12.5,12.5,0,0,0-1.866-.455c-.43-.07-.845-.12-1.233-.147-.28-.02-.428-.022-.428-.022a.119.119,0,0,1-.118-.121l.019-.826a.118.118,0,0,1,.118-.115h0c.007,0,.179,0,.483.024.42.029.868.083,1.33.158a13.644,13.644,0,0,1,2.028.495,9.412,9.412,0,0,1,2.468,1.21,6.908,6.908,0,0,1,1.2,1.066,6.05,6.05,0,0,1,.957,1.451,6.95,6.95,0,0,1,.539,1.734,8.479,8.479,0,0,1,.1,1.867,21.53,21.53,0,0,1-.507,3.278l-.089.427a19.266,19.266,0,0,0-.481,3.655,10.226,10.226,0,0,0,.567,3.546c.4,1.14.819,2.351,1.149,3.524a15.852,15.852,0,0,1,.651,3.493,5.537,5.537,0,0,1-.175,1.746,3.716,3.716,0,0,1-.35.819,3.3,3.3,0,0,1-.548.683,3.856,3.856,0,0,1-1.353.8c-.3.1-.574.182-.842.264l-.376.115-.4.092c-.246.058-.478.112-.7.156l-.574.09a3.88,3.88,0,0,1-.386.048l-.248.021c-.173.015-.335.03-.488.03h-.047Zm-.608-.278h.008l.208.021.154.008.086,0c.048,0,.1.006.152.006l.335,0h.046c.142,0,.3-.014.466-.029.082-.008.167-.015.254-.021.117-.006.237-.025.364-.045l.571-.089c.216-.042.446-.1.69-.153l.393-.09.368-.113c.267-.081.543-.165.834-.261a3.636,3.636,0,0,0,1.269-.752,3.042,3.042,0,0,0,.507-.633,3.47,3.47,0,0,0,.326-.763,5.327,5.327,0,0,0,.165-1.669,15.65,15.65,0,0,0-.642-3.44c-.329-1.165-.746-2.372-1.144-3.509a10.447,10.447,0,0,1-.58-3.627,19.5,19.5,0,0,1,.486-3.7l.089-.427a21.31,21.31,0,0,0,.5-3.242,8.182,8.182,0,0,0-.1-1.814,6.709,6.709,0,0,0-.52-1.675,5.792,5.792,0,0,0-.919-1.395,6.7,6.7,0,0,0-1.162-1.03,9.17,9.17,0,0,0-2.406-1.179,13.454,13.454,0,0,0-1.991-.486c-.456-.075-.9-.127-1.309-.156-.154-.011-.273-.017-.353-.02l-.013.59c.074,0,.182.009.323.019.395.028.817.078,1.255.149a12.829,12.829,0,0,1,1.9.464,8.553,8.553,0,0,1,2.253,1.1,5.57,5.57,0,0,1,1.885,2.191,6.163,6.163,0,0,1,.474,1.527,7.6,7.6,0,0,1,.09,1.684,20.936,20.936,0,0,1-.5,3.211l-.076.368a19.629,19.629,0,0,0-.5,3.812,11.143,11.143,0,0,0,.613,3.827c.412,1.176.809,2.327,1.134,3.478a15.144,15.144,0,0,1,.62,3.3,4.71,4.71,0,0,1-.143,1.482,2.891,2.891,0,0,1-.268.627,2.448,2.448,0,0,1-.4.5,3.08,3.08,0,0,1-1.067.626c-.258.085-.511.162-.756.236l-.394.121c-.145.032-.277.063-.406.094-.222.052-.431.1-.634.14l-.54.085a3.435,3.435,0,0,1-.355.044c-.081.005-.161.013-.24.02a4.207,4.207,0,0,1-.477.026l-.3,0c-.05,0-.1,0-.141-.006l-.073,0-.307-.025Z" transform="translate(-243.178 -76.057)" fill="#5c2f10"/>
        <g id="Grupo_1114975" data-name="Grupo 1114975" transform="translate(95.582 29.973)" style="mix-blend-mode: multiply;isolation: isolate">
          <g id="Grupo_1114974" data-name="Grupo 1114974">
            <g id="Grupo_1114973" data-name="Grupo 1114973" clip-path="url(#clip-path-27)">
              <path id="Trazado_900790" data-name="Trazado 900790" d="M342,136.428l-.069.407s.048.008.132.017l.158.019.21.012c.08,0,.17.012.266.011l.315,0c.229,0,.484-.029.774-.05.145-.008.294-.034.451-.059l.493-.077c.339-.065.7-.158,1.09-.245.381-.118.781-.234,1.212-.377a3.781,3.781,0,0,0,1.313-.778,3.165,3.165,0,0,0,.527-.657,3.62,3.62,0,0,0,.339-.791,5.413,5.413,0,0,0,.171-1.709,15.528,15.528,0,0,0-.647-3.466c-.328-1.161-.733-2.338-1.147-3.517a10.4,10.4,0,0,1-.574-3.587,19.2,19.2,0,0,1,.484-3.678,24.585,24.585,0,0,0,.593-3.688,8.289,8.289,0,0,0-.1-1.84,6.777,6.777,0,0,0-.53-1.7,5.921,5.921,0,0,0-.937-1.424,6.835,6.835,0,0,0-1.183-1.048A9.386,9.386,0,0,0,342.9,107a13.545,13.545,0,0,0-2.01-.49c-.565-.093-1.014-.136-1.321-.157s-.476-.024-.476-.024l-.009.413s.159,0,.457.023.733.063,1.282.153a13.12,13.12,0,0,1,1.947.475,8.982,8.982,0,0,1,2.329,1.14,6.39,6.39,0,0,1,1.111.984,5.525,5.525,0,0,1,.872,1.324,6.38,6.38,0,0,1,.5,1.6,7.882,7.882,0,0,1,.094,1.75,24.237,24.237,0,0,1-.585,3.624,19.655,19.655,0,0,0-.492,3.756,10.816,10.816,0,0,0,.6,3.727c.414,1.181.816,2.346,1.14,3.494a15.188,15.188,0,0,1,.631,3.371,5.044,5.044,0,0,1-.155,1.577,3.247,3.247,0,0,1-.3.695,2.735,2.735,0,0,1-.455.567,3.382,3.382,0,0,1-1.17.69c-.413.136-.809.251-1.179.366-.378.085-.73.174-1.059.238l-.476.074c-.152.023-.3.049-.435.057-.277.02-.524.053-.74.048l-.3,0c-.092,0-.174-.008-.249-.01l-.2-.011-.142-.017-.116-.015" transform="translate(-339.085 -106.33)" fill="#9dd8db"/>
            </g>
          </g>
        </g>
        <path id="Trazado_900791" data-name="Trazado 900791" d="M35.463,207.44c0,.468-.8.847-1.791.847s-1.791-.379-1.791-.847.8-1.18,1.791-1.18,1.791.712,1.791,1.18" transform="translate(-22.895 -148.119)" fill="#c7c7c7"/>
        <path id="Trazado_900792" data-name="Trazado 900792" d="M33.373,208.1c-1.07,0-1.908-.424-1.908-.965,0-.573.9-1.3,1.908-1.3s1.909.726,1.909,1.3c0,.541-.838.965-1.909.965m0-2.027c-.966,0-1.673.7-1.673,1.062s.672.729,1.673.729,1.673-.377,1.673-.729-.706-1.062-1.673-1.062" transform="translate(-22.596 -147.817)" fill="#5c2f10"/>
        <g id="Grupo_1114978" data-name="Grupo 1114978" transform="translate(9.401 58.419)" style="mix-blend-mode: screen;isolation: isolate">
          <g id="Grupo_1114977" data-name="Grupo 1114977">
            <g id="Grupo_1114976" data-name="Grupo 1114976" clip-path="url(#clip-path-28)">
              <path id="Trazado_900793" data-name="Trazado 900793" d="M35.514,207.957c0,.282-.485.512-1.082.512s-1.082-.229-1.082-.512.485-.713,1.082-.713,1.082.431,1.082.713" transform="translate(-33.349 -207.244)" fill="#c7c7c7"/>
            </g>
          </g>
        </g>
        <path id="Trazado_900794" data-name="Trazado 900794" d="M33.435,207.467a.119.119,0,0,0,.03.164.122.122,0,0,0,.067.02.118.118,0,0,0,.1-.051,3.037,3.037,0,0,1,.906-.852,3.046,3.046,0,0,1,.906.852.118.118,0,0,0,.1.051.121.121,0,0,0,.067-.02.119.119,0,0,0,.03-.164,3.237,3.237,0,0,0-.868-.852,3.794,3.794,0,0,1,.5-.22,2.117,2.117,0,0,0-.417-.088c-.1.046-.206.1-.316.163-.095-.054-.187-.1-.274-.143a2.189,2.189,0,0,0-.37.1,3.8,3.8,0,0,1,.411.187,3.237,3.237,0,0,0-.868.852" transform="translate(-23.996 -148.153)" fill="#5c2f10"/>
        <path id="Trazado_900795" data-name="Trazado 900795" d="M194.515,207.44c0,.468.8.847,1.791.847s1.79-.379,1.79-.847-.8-1.18-1.79-1.18-1.791.712-1.791,1.18" transform="translate(-139.685 -148.119)" fill="#c7c7c7"/>
        <path id="Trazado_900796" data-name="Trazado 900796" d="M196.006,208.1c-1.07,0-1.909-.424-1.909-.965,0-.573.9-1.3,1.909-1.3s1.909.726,1.909,1.3c0,.541-.839.965-1.909.965m0-2.027c-.966,0-1.673.7-1.673,1.062s.672.729,1.673.729,1.673-.377,1.673-.729-.706-1.062-1.673-1.062" transform="translate(-139.385 -147.817)" fill="#5c2f10"/>
        <g id="Grupo_1114981" data-name="Grupo 1114981" transform="translate(55.834 58.419)" style="mix-blend-mode: screen;isolation: isolate">
          <g id="Grupo_1114980" data-name="Grupo 1114980">
            <g id="Grupo_1114979" data-name="Grupo 1114979" clip-path="url(#clip-path-28)">
              <path id="Trazado_900797" data-name="Trazado 900797" d="M198.075,207.957c0,.282.485.512,1.082.512s1.082-.229,1.082-.512-.485-.713-1.082-.713-1.082.431-1.082.713" transform="translate(-198.075 -207.244)" fill="#c7c7c7"/>
            </g>
          </g>
        </g>
        <path id="Trazado_900798" data-name="Trazado 900798" d="M199.443,207.467a.118.118,0,0,1-.031.164.12.12,0,0,1-.067.02.118.118,0,0,1-.1-.051,3.037,3.037,0,0,0-.906-.852,3.05,3.05,0,0,0-.906.852.117.117,0,0,1-.1.051.121.121,0,0,1-.067-.02.118.118,0,0,1-.03-.164,3.237,3.237,0,0,1,.868-.852,3.777,3.777,0,0,0-.5-.22,2.12,2.12,0,0,1,.416-.088c.1.046.207.1.317.163.095-.054.187-.1.274-.143a2.192,2.192,0,0,1,.37.1,3.856,3.856,0,0,0-.412.187,3.238,3.238,0,0,1,.869.852" transform="translate(-141.628 -148.153)" fill="#5c2f10"/>
        <path id="Trazado_900799" data-name="Trazado 900799" d="M35.463,105.813c0,.468-.8.847-1.791.847s-1.791-.379-1.791-.847.8-1.18,1.791-1.18,1.791.713,1.791,1.18" transform="translate(-22.895 -75.139)" fill="#c7c7c7"/>
        <path id="Trazado_900800" data-name="Trazado 900800" d="M33.373,106.477c-1.07,0-1.908-.424-1.908-.965,0-.572.9-1.3,1.908-1.3s1.909.726,1.909,1.3c0,.541-.838.965-1.909.965m0-2.027c-.966,0-1.673.7-1.673,1.062s.672.729,1.673.729,1.673-.377,1.673-.729-.706-1.062-1.673-1.062" transform="translate(-22.596 -74.838)" fill="#5c2f10"/>
        <g id="Grupo_1114984" data-name="Grupo 1114984" transform="translate(9.401 29.772)" style="mix-blend-mode: screen;isolation: isolate">
          <g id="Grupo_1114983" data-name="Grupo 1114983">
            <g id="Grupo_1114982" data-name="Grupo 1114982" clip-path="url(#clip-path-28)">
              <path id="Trazado_900801" data-name="Trazado 900801" d="M35.514,106.331c0,.282-.485.512-1.082.512s-1.082-.229-1.082-.512.485-.713,1.082-.713,1.082.431,1.082.713" transform="translate(-33.349 -105.618)" fill="#c7c7c7"/>
            </g>
          </g>
        </g>
        <path id="Trazado_900802" data-name="Trazado 900802" d="M33.435,105.84a.119.119,0,0,0,.03.164.122.122,0,0,0,.067.021.118.118,0,0,0,.1-.051,3.034,3.034,0,0,1,.906-.852,3.042,3.042,0,0,1,.906.852.119.119,0,0,0,.1.051.121.121,0,0,0,.067-.021.119.119,0,0,0,.03-.164,3.237,3.237,0,0,0-.868-.852,3.786,3.786,0,0,1,.5-.219,2.1,2.1,0,0,0-.417-.088c-.1.046-.206.1-.316.163-.095-.054-.187-.1-.274-.143a2.189,2.189,0,0,0-.37.1,3.854,3.854,0,0,1,.411.187,3.236,3.236,0,0,0-.868.852" transform="translate(-23.996 -75.173)" fill="#5c2f10"/>
        <path id="Trazado_900803" data-name="Trazado 900803" d="M194.515,105.813c0,.468.8.847,1.791.847s1.79-.379,1.79-.847-.8-1.18-1.79-1.18-1.791.713-1.791,1.18" transform="translate(-139.685 -75.139)" fill="#c7c7c7"/>
        <path id="Trazado_900804" data-name="Trazado 900804" d="M196.006,106.477c-1.07,0-1.909-.424-1.909-.965,0-.572.9-1.3,1.909-1.3s1.909.726,1.909,1.3c0,.541-.839.965-1.909.965m0-2.027c-.966,0-1.673.7-1.673,1.062s.672.729,1.673.729,1.673-.377,1.673-.729-.706-1.062-1.673-1.062" transform="translate(-139.385 -74.838)" fill="#5c2f10"/>
        <g id="Grupo_1114987" data-name="Grupo 1114987" transform="translate(55.834 29.772)" style="mix-blend-mode: screen;isolation: isolate">
          <g id="Grupo_1114986" data-name="Grupo 1114986">
            <g id="Grupo_1114985" data-name="Grupo 1114985" clip-path="url(#clip-path-28)">
              <path id="Trazado_900805" data-name="Trazado 900805" d="M198.075,106.331c0,.282.485.512,1.082.512s1.082-.229,1.082-.512-.485-.713-1.082-.713-1.082.431-1.082.713" transform="translate(-198.075 -105.618)" fill="#c7c7c7"/>
            </g>
          </g>
        </g>
        <path id="Trazado_900806" data-name="Trazado 900806" d="M199.443,105.84a.118.118,0,0,1-.031.164.121.121,0,0,1-.067.021.118.118,0,0,1-.1-.051,3.034,3.034,0,0,0-.906-.852,3.047,3.047,0,0,0-.906.852.118.118,0,0,1-.1.051.121.121,0,0,1-.067-.021.118.118,0,0,1-.03-.164,3.237,3.237,0,0,1,.868-.852,3.77,3.77,0,0,0-.5-.219,2.1,2.1,0,0,1,.416-.088c.1.046.207.1.317.163.095-.054.187-.1.274-.143a2.192,2.192,0,0,1,.37.1,3.91,3.91,0,0,0-.412.187,3.238,3.238,0,0,1,.869.852" transform="translate(-141.628 -75.173)" fill="#5c2f10"/>
        <path id="Trazado_900807" data-name="Trazado 900807" d="M329.121,104.939c0,.468.8.847,1.791.847s1.79-.379,1.79-.847-.8-1.18-1.79-1.18-1.791.712-1.791,1.18" transform="translate(-236.348 -74.511)" fill="#c7c7c7"/>
        <path id="Trazado_900808" data-name="Trazado 900808" d="M330.612,105.6c-1.07,0-1.909-.424-1.909-.965,0-.573.9-1.3,1.909-1.3s1.909.726,1.909,1.3c0,.541-.839.965-1.909.965m0-2.027c-.966,0-1.673.7-1.673,1.062s.672.728,1.673.728,1.673-.377,1.673-.728-.706-1.062-1.673-1.062" transform="translate(-236.048 -74.21)" fill="#5c2f10"/>
        <g id="Grupo_1114990" data-name="Grupo 1114990" transform="translate(93.777 29.526)" style="mix-blend-mode: screen;isolation: isolate">
          <g id="Grupo_1114989" data-name="Grupo 1114989">
            <g id="Grupo_1114988" data-name="Grupo 1114988" clip-path="url(#clip-path-32)">
              <path id="Trazado_900809" data-name="Trazado 900809" d="M332.681,105.457c0,.283.485.512,1.083.512s1.082-.229,1.082-.512-.485-.713-1.082-.713-1.083.431-1.083.713" transform="translate(-332.681 -104.744)" fill="#c7c7c7"/>
            </g>
          </g>
        </g>
        <path id="Trazado_900810" data-name="Trazado 900810" d="M260.753,104.891c0,.468-.8.847-1.791.847s-1.791-.379-1.791-.847.8-1.18,1.791-1.18,1.791.712,1.791,1.18" transform="translate(-184.68 -74.477)" fill="#c7c7c7"/>
        <path id="Trazado_900811" data-name="Trazado 900811" d="M258.661,105.555c-1.071,0-1.909-.424-1.909-.965,0-.572.9-1.3,1.909-1.3s1.909.726,1.909,1.3c0,.541-.838.965-1.909.965m0-2.027c-.967,0-1.673.7-1.673,1.062s.672.729,1.673.729,1.673-.377,1.673-.729-.706-1.062-1.673-1.062" transform="translate(-184.378 -74.176)" fill="#5c2f10"/>
        <g id="Grupo_1114993" data-name="Grupo 1114993" transform="translate(72.905 29.512)" style="mix-blend-mode: screen;isolation: isolate">
          <g id="Grupo_1114992" data-name="Grupo 1114992">
            <g id="Grupo_1114991" data-name="Grupo 1114991" clip-path="url(#clip-path-32)">
              <path id="Trazado_900812" data-name="Trazado 900812" d="M260.8,105.411c0,.283-.485.512-1.082.512s-1.082-.229-1.082-.512.485-.713,1.082-.713,1.082.431,1.082.713" transform="translate(-258.637 -104.698)" fill="#c7c7c7"/>
            </g>
          </g>
        </g>
        <path id="Trazado_900813" data-name="Trazado 900813" d="M259.235,104.919a.119.119,0,0,0,.03.164.12.12,0,0,0,.067.021.119.119,0,0,0,.1-.051,3.038,3.038,0,0,1,.906-.852,3.04,3.04,0,0,1,.906.852.118.118,0,0,0,.1.051.118.118,0,0,0,.1-.185,3.241,3.241,0,0,0-.868-.852,3.838,3.838,0,0,1,.5-.22,2.182,2.182,0,0,0-.417-.088c-.1.046-.206.1-.317.163-.095-.054-.186-.1-.274-.143a2.136,2.136,0,0,0-.37.1,3.789,3.789,0,0,1,.411.186,3.245,3.245,0,0,0-.868.852" transform="translate(-186.147 -74.511)" fill="#5c2f10"/>
        <path id="Trazado_900814" data-name="Trazado 900814" d="M334.048,104.966a.118.118,0,0,1-.03.164.121.121,0,0,1-.067.021.118.118,0,0,1-.1-.051.908.908,0,0,0-1.812,0,.119.119,0,0,1-.1.051.118.118,0,0,1-.1-.185,3.25,3.25,0,0,1,.869-.852,3.894,3.894,0,0,0-.5-.22,2.175,2.175,0,0,1,.416-.088c.1.046.207.1.317.163q.142-.081.274-.143a2.2,2.2,0,0,1,.37.1,3.859,3.859,0,0,0-.412.187,3.253,3.253,0,0,1,.869.852" transform="translate(-238.29 -74.545)" fill="#5c2f10"/>
        <path id="Trazado_900815" data-name="Trazado 900815" d="M266.781,202.747h0l-.435-4.146H263.5l-.435,4.146c0,.137.832.249,1.857.249s1.858-.111,1.858-.249" transform="translate(-188.912 -142.619)" fill="#333"/>
        <path id="Trazado_900816" data-name="Trazado 900816" d="M264.622,202.813a10.5,10.5,0,0,1-1.329-.074c-.472-.063-.647-.142-.647-.293a.091.091,0,0,1,0-.012l.435-4.146a.119.119,0,0,1,.118-.106h2.846a.118.118,0,0,1,.118.106l.435,4.146a.087.087,0,0,1,0,.012c0,.15-.175.23-.647.293a10.5,10.5,0,0,1-1.329.074m-1.735-.4a9.091,9.091,0,0,0,3.471,0l-.419-3.991h-2.633Z" transform="translate(-188.612 -142.319)" fill="#5c2f10"/>
        <g id="Grupo_1114996" data-name="Grupo 1114996" transform="translate(76.05 55.982)" style="mix-blend-mode: multiply;isolation: isolate">
          <g id="Grupo_1114995" data-name="Grupo 1114995">
            <g id="Grupo_1114994" data-name="Grupo 1114994" clip-path="url(#clip-path-34)">
              <path id="Trazado_900817" data-name="Trazado 900817" d="M271.179,198.6H269.8c.087,1.145.168,4.075.161,4.393.932-.013,1.657-.119,1.657-.247Z" transform="translate(-269.795 -198.602)" fill="#333"/>
            </g>
          </g>
        </g>
        <path id="Trazado_900818" data-name="Trazado 900818" d="M267.467,197.969c0,.138-.633.249-1.415.249s-1.415-.111-1.415-.249.633-.249,1.415-.249,1.415.111,1.415.249" transform="translate(-190.041 -141.986)" fill="#696969"/>
        <path id="Trazado_900819" data-name="Trazado 900819" d="M265.751,198.034c-.461,0-1.533-.036-1.533-.367s1.072-.367,1.533-.367,1.533.036,1.533.367-1.073.367-1.533.367m-1.229-.367a5.858,5.858,0,0,0,2.459,0,5.846,5.846,0,0,0-2.459,0" transform="translate(-189.74 -141.685)" fill="#5c2f10"/>
        <path id="Trazado_900820" data-name="Trazado 900820" d="M349.183,205.2h0l-.435-4.145H345.9l-.435,4.145c0,.137.832.249,1.858.249s1.858-.112,1.858-.249" transform="translate(-248.086 -144.379)" fill="#333"/>
        <path id="Trazado_900821" data-name="Trazado 900821" d="M347.024,205.262a10.575,10.575,0,0,1-1.329-.074c-.471-.063-.646-.142-.647-.293,0,0,0-.008,0-.012l.435-4.146a.119.119,0,0,1,.117-.106h2.847a.118.118,0,0,1,.117.106l.435,4.146s0,.008,0,.012c0,.15-.176.229-.647.293a10.56,10.56,0,0,1-1.329.074m-1.735-.4a9.1,9.1,0,0,0,3.47,0l-.418-3.991h-2.634Z" transform="translate(-247.785 -144.077)" fill="#5c2f10"/>
        <g id="Grupo_1114999" data-name="Grupo 1114999" transform="translate(99.277 56.673)" style="mix-blend-mode: multiply;isolation: isolate">
          <g id="Grupo_1114998" data-name="Grupo 1114998">
            <g id="Grupo_1114997" data-name="Grupo 1114997" clip-path="url(#clip-path-35)">
              <path id="Trazado_900822" data-name="Trazado 900822" d="M353.58,201.052H352.2c.087,1.145.168,4.074.162,4.393.932-.014,1.658-.119,1.658-.247Z" transform="translate(-352.195 -201.052)" fill="#333"/>
            </g>
          </g>
        </g>
        <path id="Trazado_900823" data-name="Trazado 900823" d="M349.87,200.417c0,.137-.634.249-1.415.249s-1.415-.111-1.415-.249.633-.249,1.415-.249,1.415.112,1.415.249" transform="translate(-249.216 -143.744)" fill="#696969"/>
        <path id="Trazado_900824" data-name="Trazado 900824" d="M348.154,200.484c-.461,0-1.532-.036-1.532-.367s1.071-.367,1.532-.367,1.533.036,1.533.367-1.072.367-1.533.367m-1.23-.367a5.858,5.858,0,0,0,2.459,0,5.845,5.845,0,0,0-2.459,0" transform="translate(-248.916 -143.444)" fill="#5c2f10"/>
      </g>
    </g>
  </g>
</svg>
